<?xml version="1.0" encoding="UTF-8"?>
<svg id="Camada_1" xmlns="http://www.w3.org/2000/svg" xmlns:xlink="http://www.w3.org/1999/xlink" viewBox="0 0 800 800">
  <defs>
    <style>
      .cls-1, .cls-2 {
        fill: none;
      }

      .cls-3 {
        fill: #af4301;
      }

      .cls-4 {
        fill: #5b5b5b;
      }

      .cls-5 {
        fill: #eb681c;
      }

      .cls-6 {
        clip-path: url(#clippath-3);
      }

      .cls-7 {
        clip-path: url(#clippath-4);
      }

      .cls-8 {
        clip-path: url(#clippath-2);
      }

      .cls-9 {
        fill: #b2461d;
      }

      .cls-10 {
        fill: #fff;
      }

      .cls-11 {
        fill: #f9f9f9;
      }

      .cls-12 {
        fill: #eda220;
      }

      .cls-2 {
        stroke: #1d1d1b;
        stroke-miterlimit: 10;
        stroke-width: 4.44px;
      }

      .cls-13 {
        clip-path: url(#clippath);
      }

      .cls-14 {
        fill: #d78d28;
      }
    </style>
    <clipPath id="clippath">
      <circle class="cls-1" cx="-464.38" cy="397.41" r="395.72"/>
    </clipPath>
    <clipPath id="clippath-1">
      <circle class="cls-1" cx="1274.66" cy="397.41" r="395.72"/>
    </clipPath>
    <clipPath id="clippath-2">
      <circle class="cls-1" cx="400" cy="397.41" r="395.72"/>
    </clipPath>
    <clipPath id="clippath-3">
      <path class="cls-1" d="M546.15,70.71c-11.18-18.93-32.1-33.67-68.3-38.92-87.86-12.73-143.94,39.27-173.73,99h0s-68.1,109.01-68.1,109.01c-6.95,11.13-8.41,24.84-3.96,37.18l13.95,38.64c2.81,7.77,18.56,7.85,25.91,4.08l24.79-12.72v-.03c13.83,19.23,32.03,25.5,43.28,22.7,20.42-5.09-4.8-14.57,20.23-68.51,4.81-10.37,13.29-17.88,23.98-23.39,1.55-.36,3.17-.71,4.88-1.08,6.74-1.43,11.36-3.64,14.75-6.39,41.66-11.59,98.64-6.65,120.81-14.75,11.57,16.17,31.01,30.07,45.27,28.37,55.58-6.61,46.83-154.65-23.77-173.19Z"/>
    </clipPath>
    <clipPath id="clippath-4">
      <rect class="cls-1" x="81" y="-7.68" width="659.75" height="371.11"/>
    </clipPath>
  </defs>
  <g class="cls-13">
    <path class="cls-9" d="M-225.57,628.35c88.41,30.23,213.56,162.39,232.88,206.02,14.93,33.7-15.65,82.06-48.16,66.31-32.51-15.75-181.59-98.46-208.79-129.95-27.2-31.48-16.18-137.7,24.06-142.38Z"/>
  </g>
  <g class="cls-8">
    <g>
      <g>
        <g>
          <path class="cls-5" d="M607.57,602.23c30.68,30.63,194.44,357.36,114.16,388.24-43.11,16.59-59.12-16.76-82.48-47.45-28.98-38.09-81.15-181-93.5-235.54-12.35-54.54,61.82-105.25,61.82-105.25Z"/>
          <g>
            <path class="cls-11" d="M291.33,535.53c-41.08,4.54-165.42,15.14-207.84,40.63l77.02,80.56c-4,58.83,22.5,210.84,30.51,239.6C11.58,1198.77,29.77,1640.73,134.14,1917.3c-339.03,419.14-349.5,697.45-342.52,899.03h862.37c160.6-377.24,230.96-993.42,0-1717.35l-38.36-180.66c42.47-15.63,80.34-70.42,44.63-126.98-35.71-56.56-43.02-106.85-44.36-134.16-.75-15.15,31.38-54.95,31.38-54.95-33.54-22.98-115.91-47.72-154-55.59l-201.95-11.11Z"/>
            <path class="cls-12" d="M446.84,639.44c-56.02,0-145.5-27.49-171.34-80.27-.67-1.36.14-2.89,1.8-3.43,1.65-.53,3.54.12,4.2,1.47,25.07,51.2,113.25,77.48,167.23,76.94,17.74-.21,34.53-6.48,46.08-17.21,13.92-12.94,19.62-31.66,16.46-54.15-.2-1.45,1.07-2.76,2.85-2.92,1.78-.15,3.38.88,3.58,2.33,4.25,30.33-7.46,48.41-18.04,58.23-12.75,11.84-31.27,18.77-50.84,19-.65,0-1.32,0-1.99,0Z"/>
          </g>
          <g>
            <g>
              <path class="cls-5" d="M544.88,178.36c25.15,26.79,35.21,103.9,28.03,165.32-7.19,61.42,7.22,108.54-22.96,113.12-30.18,4.57-131.05,5.38-174.89-50.16l-37.72-41.88v-181.88l207.53-4.51Z"/>
              <g>
                <path class="cls-5" d="M481.8,546.64s-8.79-73.61-7.04-105.78l-71.33-63.24-66.09-12.87s18.71,108.78-20.47,170.77c47.86,98.41,181.03,107.37,164.92,11.11Z"/>
                <path class="cls-3" d="M379.71,398.77c3.72,32.9,44.35,65.8,95.87,74.63-.83-5.38-1.38-11.04-1.45-16.76-28.76-3.38-65.8-18-94.42-57.87Z"/>
              </g>
            </g>
            <path class="cls-4" d="M575.17,241.4c-18.07,1.27-78.62-38.32-85.72-61.78.71,31.7-63.94,88.41-91.64,89.75,12.15,45.72-8.05,71.15-21.79,56.99-1.42-12.54-5.13-23.88-7.97-27.69-8.84-11.91-23.6-20.85-38.36-22.05l2.76-98.27,161.1-8.38,58.65,5,18.39,34.03,4.58,32.41Z"/>
            <g>
              <path class="cls-3" d="M349.28,371.08c-3.92,0-8.06-.61-12.34-1.81-1.41-.4-2.22-1.85-1.83-3.26.39-1.41,1.86-2.24,3.26-1.83,5.21,1.47,10.12,1.94,14.58,1.4,4.05-.49,7.24-2.18,9.77-5.16.94-1.11,2.6-1.26,3.73-.31,1.11.94,1.25,2.61.31,3.73-3.38,4-7.81,6.35-13.17,7-1.4.17-2.84.25-4.31.25Z"/>
              <path class="cls-5" d="M363.9,298.64c-15.49-23.39-51.64-35.24-67.74,0-16.1,35.24,27.65,73.12,57.11,69.56,28.56-3.45,16.87-60.15,10.63-69.56Z"/>
              <g>
                <path class="cls-3" d="M351.72,351.03c-.19,0-.39-.02-.58-.06-1.42-.32-2.32-1.73-2-3.15,4.23-18.97.14-35.72-10.94-44.82-7.26-5.96-16.26-7.47-24.05-4.02-1.33.58-2.9-.02-3.48-1.35-.59-1.33.02-2.89,1.35-3.48,9.53-4.19,20.84-2.36,29.53,4.78,12.66,10.39,17.42,29.1,12.75,50.05-.28,1.23-1.37,2.07-2.58,2.07Z"/>
                <path class="cls-3" d="M353.34,337.12c-1.07,0-2.07-.65-2.47-1.71-3.02-8-17.97-12.87-29.09-9.45-1.39.43-2.87-.35-3.3-1.75-.43-1.4.35-2.87,1.75-3.3,13.92-4.29,31.56,1.97,35.58,12.64.52,1.36-.17,2.89-1.54,3.4-.31.12-.62.17-.93.17Z"/>
              </g>
              <path class="cls-5" d="M363.9,298.64c-15.49-23.39-51.64-35.24-67.74,0-16.1,35.24,27.65,73.12,57.11,69.56,28.56-3.45,16.87-60.15,10.63-69.56Z"/>
              <g>
                <path class="cls-3" d="M351.72,351.03c-.19,0-.39-.02-.58-.06-1.42-.32-2.32-1.73-2-3.15,4.23-18.97.14-35.72-10.94-44.82-7.26-5.96-16.26-7.47-24.05-4.02-1.33.58-2.9-.02-3.48-1.35-.59-1.33.02-2.89,1.35-3.48,9.53-4.19,20.84-2.36,29.53,4.78,12.66,10.39,17.42,29.1,12.75,50.05-.28,1.23-1.37,2.07-2.58,2.07Z"/>
                <path class="cls-3" d="M353.34,337.12c-1.07,0-2.07-.65-2.47-1.71-3.02-8-17.97-12.87-29.09-9.45-1.39.43-2.87-.35-3.3-1.75-.43-1.4.35-2.87,1.75-3.3,13.92-4.29,31.56,1.97,35.58,12.64.52,1.36-.17,2.89-1.54,3.4-.31.12-.62.17-.93.17Z"/>
              </g>
            </g>
          </g>
          <g>
            <path class="cls-5" d="M14.31,328.34c59.32,40.2,207.36,187.18,240.85,220.75,43.66,43.76,10.99,181.69-61.22,134.52-72.58-47.41-240.14-259.14-261.5-315.17-21.36-56.03,53.13-59.57,81.86-40.1Z"/>
            <path class="cls-5" d="M-67.55,368.44c-26.1-50.1-28.04-352.64-24.7-391.8,3.34-39.15,57.98-54.22,59.1-13.05,5.39,196.64,93.73,294.74,61.04,373.96-32.23,78.1-95.45,30.89-95.45,30.89Z"/>
            <path class="cls-3" d="M-26.7,362.82c-1.3,0-2.43-.96-2.61-2.28-.2-1.44.81-2.78,2.25-2.98,19.05-2.65,37.36-10.02,52.94-21.31,1.19-.86,2.83-.59,3.69.59.86,1.18.59,2.83-.59,3.69-16.28,11.79-35.4,19.49-55.31,22.26-.12.02-.25.02-.37.02Z"/>
          </g>
        </g>
        <g class="cls-6">
          <g class="cls-7">
            <rect class="cls-14" x="81" y="-7.68" width="659.75" height="371.11"/>
            <g>
              <path class="cls-10" d="M572.76,163.74c4.84-1.04,4.2-9.25-1.71-9.1-1,.43-2.01.57-2.62,1.37-2.15,2.83.2,8.62,4.32,7.74Z"/>
              <path class="cls-10" d="M568.1,142.92c.56.38,1.48,1.03,2.5.91,5.43-.66,4.45-8.85-1.37-8.65-3.54,1.56-4.74,5.26-1.14,7.74Z"/>
              <path class="cls-10" d="M585.62,95.58c-.72.15-1.44.3-2.16.46-3.68,1.46-4.16,5.31-5.46,9.22-.54,1.64-1.8,4.27-.68,6.14,2.02,3.4,8.93.33,13.31,1.02,3.58.56,6.68,1.36,9.1,3.07,4.91,3.47,8.02,9.1,9.67,15.82.86,3.5.15,8.13,1.93,10.58,1.5.41,2.38.04,3.3-.68,1.06-4.57-.15-13.34-1.25-17.3-3.55-12.78-11.56-28.5-27.76-28.33Z"/>
              <path class="cls-10" d="M585.17,161.92c-.85.38-1.66.45-2.05,1.25-.79,1.63,1.59,12.18,2.28,13.2,6.22,1.78,5.35-14.03-.23-14.45Z"/>
              <path class="cls-10" d="M585.51,153.5c1.1-2.95-.94-7.45-4.44-7.4-4.27,2.47.49,9.65,4.44,7.4Z"/>
              <path class="cls-10" d="M594.72,159.19c2.78-.65,1.39-8.02-.46-8.88-.35-.3-.79-.36-1.48-.34-.79.49-1.6.9-1.93,1.82-.81,2.21,1.36,7.98,3.87,7.4Z"/>
              <path class="cls-10" d="M576.74,183.66c.42-.19.83-.38,1.25-.57,1.19-2.96,2.99-11.61-2.05-11.49-2.97,1.83-3.6,11.68.8,12.06Z"/>
              <path class="cls-10" d="M614.75,146.56c-.77.42-1.48.65-1.82,1.48-.97,2.36-.44,11.47.57,12.86,5.99,1.64,7.4-14.47,1.25-14.34Z"/>
              <path class="cls-10" d="M580.61,138.48c3.27-.72,3.52-7.22-.91-7.05-4.18,1.76-2.82,7.88.91,7.05Z"/>
              <path class="cls-10" d="M592.79,147.13c2.01-2.73.66-9.27-3.07-9.44-.42.15-.83.3-1.25.46-2.04,2.88.24,10.27,4.32,8.99Z"/>
              <path class="cls-10" d="M564,172.28c.63-.89.73-1.57.34-2.73-1.33-.91-5.8-2.85-7.74-2.84-5.48,3.42,3.24,7.36,7.4,5.58Z"/>
              <path class="cls-10" d="M554.56,193.44c.42-.11.83-.23,1.25-.34.63-1.99-.91-3.39-1.82-4.55-.42-.08-.83-.15-1.25-.23-.34.23-.68.46-1.02.68-.63,2.31,1.03,3.85,2.84,4.44Z"/>
              <path class="cls-10" d="M551.82,174.67c-.74-1.85-3.95-2.8-6.37-2.84-1.03.57-3.11,1.85-2.05,3.64,1.04,2.21,8.09,1.82,8.42-.8Z"/>
              <path class="cls-10" d="M561.16,142.47c-.81.38-1.87.59-2.39,1.25-1.93,2.42.46,6.53,3.76,5.8,3.88-.86,3.28-7.22-1.37-7.05Z"/>
              <path class="cls-10" d="M613.16,220.75c.94,1.93,3.72,5.78,6.71,5.35,1.7-.24,2.61-2.01,1.59-3.64-1.21-1.25-2.43-2.5-3.64-3.76-2.55-3.32-3.07-7.4-3.87-12.63-.49-3.18-.09-7.22.34-10.01.19-3.45.38-6.9.57-10.35.66-4.31-.26-8.65-4.21-8.65-.81.53-1.71.95-2.05,1.93-.59,1.73.21,4.06.46,5.58.04,2.58.08,5.16.11,7.74-.12,10.77.42,21.14,3.98,28.45Z"/>
              <path class="cls-10" d="M604.74,171.6c2.61.4,9.33-13.95,1.93-13.65-.88.46-1.55.77-2.05,1.59-.79,1.32-.62,3.18-1.02,4.89-.52,2.19-2.13,6.66,1.14,7.17Z"/>
              <path class="cls-10" d="M604.28,152.71c2.16-1.98,3.25-9.69-1.14-9.9-.81.37-1.49.53-1.93,1.25-.88,1.45-.28,6.58.68,7.85.46.61,1.27.83,2.39.8Z"/>
              <path class="cls-10" d="M560.59,135.64c4.3-.66,4.32-8.02-.46-8.08-1.15.46-2.07.58-2.73,1.48-1.72,2.33.01,7.09,3.19,6.6Z"/>
              <path class="cls-10" d="M588.69,123.92c1.97.53,4.12,1.64,5.23,3.07,1.06,1.36,1.49,3.01,3.19,3.76.42-.08.83-.15,1.25-.23,2.21-3.34.13-9.11-2.05-10.7-2.67-1.95-8.7-3.04-13.77-2.28-2.07.31-4.99.5-7.17.11-4.65-.83-8.35-3.23-10.7-6.37-2.54-3.4-3.6-7.02-4.21-12.52-.53-4.84,3.28-9.15.8-12.63-.61-.08-1.21-.15-1.82-.23-4.43,2.84-5.69,14.5-4.1,21.39,2.27,9.82,6.58,15.46,17.07,17.18,5.78.95,10.72-2.06,16.27-.57Z"/>
              <path class="cls-10" d="M601.21,132c-.68-.08-1.37-.15-2.05-.23-2.81,1.68-3.08,6.76.23,7.62,4.43,1.15,3-5.93,1.82-7.4Z"/>
              <path class="cls-10" d="M524.97,195.38c-2.65-1.16-5.74-1.75-9.56-1.71-1.74.34-3.49.68-5.23,1.02-6.65,2.56-11.36,8.02-13.54,15.02-4.02,12.93,4.42,22.77,13.2,26.17,1.97.76,4.98,1.71,7.97,1.25,9.39-1.45,15.06-6.28,18.09-14,4.54-11.54-2.96-24.29-10.92-27.76Z"/>
              <path class="cls-10" d="M545.11,198.11c1.18-3.09-1.02-5.91-4.44-5.8-.38.34-.76.68-1.14,1.02-.67,2.74,2.82,6.15,5.58,4.78Z"/>
              <path class="cls-10" d="M514.16,135.52c-1.6,2.38.68,6.58,3.53,6.03,4.18-.8,3.92-7.65-1.48-7.4-.74.41-1.59.69-2.05,1.37Z"/>
              <path class="cls-10" d="M512.45,148.5c-.75.42-1.51.63-1.93,1.37-1.28,2.21.1,5.49,2.16,5.69,3.02,1.05,5.62-7.36-.23-7.05Z"/>
              <path class="cls-10" d="M548.41,228.26c.24-.91.16-1.58-.11-2.39-1.3-.92-3.04-1.41-5.35-1.37-.86.4-1.39.55-2.05,1.02-1.19,4.35,5.03,4.62,7.51,2.73Z"/>
              <path class="cls-10" d="M512.34,162.83c-.49.3-.99.61-1.48.91-.85,3.08,2.57,6.81,5.69,4.89.67-.31.77-.77,1.14-1.37-.67-2.12-2.55-4.46-5.35-4.44Z"/>
              <path class="cls-10" d="M557.86,197.77c.14-.5.27-.93.11-1.48v-.23c-.53-.33-1.3-.38-2.28-.34-2.05.78-4.22-.43-5.46,1.14-.11.52-.13.96.11,1.37,1.13,2.44,6.47,1,7.51-.46Z"/>
              <path class="cls-10" d="M556.49,214.61c3.25-.76,2.98-6.15-1.02-6.03-3.98,1.7-2.71,6.91,1.02,6.03Z"/>
              <path class="cls-10" d="M547.61,186.96c.51-2.47-2.14-3.26-4.44-3.3-.53.19-1.06.38-1.59.57-2.36,3.68,4.3,5.25,6.03,2.73Z"/>
              <path class="cls-10" d="M551.03,236.23c-.53-.11-1.06-.23-1.59-.34-.8.66-2.19.92-3.07,1.48-.37,1.46.08,2.06.8,2.96,3.47.93,5.99-1.45,3.87-4.1Z"/>
              <path class="cls-10" d="M624.99,141.56c-2.22,1.15-5.58,8.48-1.48,9.56,4,1.06,6.65-9.66,1.48-9.56Z"/>
              <path class="cls-10" d="M515.64,128.13c2.01,3.41,11.91-4.41,7.28-6.71-.39-.34-1.03-.38-1.82-.34-1.61.81-8.48,4.03-5.46,7.05Z"/>
              <path class="cls-10" d="M631.02,242.71c3.21-1.15.12-8.46-1.37-9.44-.64-.08-1.29-.15-1.93-.23-.72.49-1.58.99-1.82,1.93-.61,2.37,2.34,8.73,5.12,7.74Z"/>
              <path class="cls-10" d="M595.18,171.25c3.16-.6,2.7-6-1.02-5.92-3.72,1.72-1.79,6.45,1.02,5.92Z"/>
              <path class="cls-10" d="M599.39,224.62c1.97,6.28,5.56,11.12,9.1,15.82,1.7,2.25,6.87,9.41,11.27,8.31,2.92-.73,1.82-4.64.23-5.92-10.26-8.21-15.83-17.68-18.55-33.57-1.47-8.6,1.67-17.18.34-25.83-.71-4.62.61-8.21-4.78-8.19-.79.48-1.49.67-1.82,1.59v6.71c.19,5.16.38,10.32.57,15.48,1.41,9.03,1.24,17.94,3.64,25.6Z"/>
              <path class="cls-10" d="M616.34,262.51c2.43.42,4.86.83,7.28,1.25,2.02.42,5.16,1.32,7.28.46,1-.41,1.91-1.57,2.28-2.62.41-1.19.16-2.48-.34-3.3-2.03-3.36-6.4-.56-10.7-1.25-1.86-.27-3.72-.53-5.58-.8-3.55,1.59-4.52,4.73-.23,6.26Z"/>
              <path class="cls-10" d="M531.11,112.31c3.41-.07,4.43-6.25.46-6.26-2.41,1.34-3.92,4.79-.46,6.26Z"/>
              <path class="cls-10" d="M577.77,59.85c-2.47.15-4.93.3-7.4.46-5.1.88-10.29,1.24-14.91,2.62-13.92,4.15-24.1,15.51-30.15,27.65-2.31,5.04-4.63,10.09-6.94,15.13-.59,1.67.34,4.58,1.25,5.23,3.24,2.34,6.3-2.68,7.28-4.67,2.78-5.63,3.79-12.71,6.37-18.78,1.73-4.08,4.56-7.35,7.17-10.58,7.56-9.38,30.81-17.69,48.93-13.43,5.43,1.28,10.08,3.19,14.22,5.69,4.29,2.6,10.94,7.15,11.38,13.31-.04.04-.08.08-.11.11-2.96-.53-5.26-2.33-7.4-3.76-3.98-2.65-7.97-5.81-12.74-7.51-4.35-1.55-11.45-2.77-17.41-1.82-3.91.62-7.36.39-10.81,1.25-10.71,2.68-20.38,7.75-25.15,16.39-1.78,3.22-2.76,9.36-1.59,14,.7,2.77,2.15,6.31,1.48,10.13-1.05,5.97-3.9,11.36-7.97,14.34-1,.73-2.67.61-3.41,1.59-1.28,1.7-.03,3.87,1.14,4.78,3.21,2.5,7.43,1.9,9.9-.91,3.56-4.05,7.26-17.02,5.92-25.03-.66-3.93-1.77-8.56-.68-12.52,1.36-4.96,5.09-8.59,8.99-11.04,8.91-5.59,28.6-11.27,42.22-5.92,6.8,2.67,10.5,7.71,16.04,11.38,1.73,1.14,5.09,1.91,6.6,0,3.06-3.88-1.89-11.37-3.64-14-6.93-10.4-20.99-14.38-38.57-14.11Z"/>
              <path class="cls-10" d="M622.6,128.58c-2.44,1.57-2.74,7.06-.8,9.56,5.19,1.32,5.18-9.7.8-9.56Z"/>
              <path class="cls-10" d="M585.05,81.13c-1.9.74-3.91.65-5.58,1.37-6.7,2.89-15.68,13.92-12.18,24.92,3.87,2.34,4.4-5.1,5.58-7.4,2.36-4.64,9.47-11.56,17.41-10.35,13.87,2.11,22.03,13.15,26.74,24.35,1.33,3.16,1.43,8.98,3.19,11.72.88.25,1.58.36,2.5.11,2.94-4.39-1.58-14.31-3.07-17.3-5.26-10.51-19.18-27.61-34.59-27.42Z"/>
              <path class="cls-10" d="M645.02,148.84c-3.1,1.58-7.47,14.86-1.82,16.27.93.23,1.93-.27,2.28-.68,1.14-1.38,3.25-11.85,2.05-14.22-.43-.85-1.4-1.17-2.5-1.37Z"/>
              <path class="cls-10" d="M639.33,245.33c-.42.15-.83.3-1.25.46-1.81,2.61-.1,8.01,1.48,10.13,5.3,1.46,4.28-10.39-.23-10.58Z"/>
              <path class="cls-10" d="M638.08,182.29c-.86.47-1.68.77-2.05,1.71-.62,1.59-.09,7.59.23,9.33,1.66,9.24,4.89,15.78,8.08,23.1.87,2.01,2.53,8.12,5.8,6.94,2.65-.96,1.43-5.79.68-8.19-2.3-7.34-7.08-12.61-8.65-20.25-.95-4.62,1.27-12.49-4.1-12.63Z"/>
              <path class="cls-10" d="M646.61,300.63c9.49-3.25,6.26-17.11-5.23-16.84-1.86.84-3.64.98-4.44,2.84-2.81,6.59,2.45,16.47,9.67,14Z"/>
              <path class="cls-10" d="M636.94,43.01c.18-.77.12-1.81-.23-2.39-2.53-4.27-13.63.15-19.12-.91-5.08-1.37-10.17-2.73-15.25-4.1-8.74-2.39-18.6-3.56-29.59-3.41-3.45.19-6.9.38-10.35.57-7.48,1.28-14.35,2.29-21.39,3.64-6.04,1.16-11.75.62-14.45,5.01-3.38,5.48-2.43,17.36-4.21,24.35-3.33,13.07-9.49,22.24-15.13,32.89-.97,1.83-5.85,10.84-5.23,13.31.34,1.35,7.35,6.31,8.88,6.94,2.45,1.01,4.71-.11,4.89-2.5-1.15-2.88-3.67-3.88-4.44-7.28-2.18-9.63,6.56-22.81,10.01-27.99,5.78-8.69,14.05-19.11,23.78-23.67,18.92-8.87,51.08-8.26,66.91,2.96,5.57,3.95,10.64,9.71,12.86,16.95,1.44,4.7,1.48,10.43,1.48,16.61.04,2.69.08,5.39.11,8.08.3,3.03.61,6.07.91,9.1.92,4.62,2.13,8.9,3.41,12.97.96,3.04,1.57,6.09,2.16,9.56.45,2.61-.14,5.86,1.02,7.74.75,1.21,2.87,1.67,4.21.68,1.55-1.14,2.64-4.92,1.82-7.62-.95-1.97-1.9-3.94-2.84-5.92-1.34-3.05-2.62-6.22-3.64-9.56-2.17-7.11-1.96-15.32-3.3-23.67-1.03-6.4.98-13.52-.46-19.23-2.22-8.84-10.51-19.22-17.52-23.33-12.11-7.09-39.2-9.48-56.9-5.58-4.15.92-8.33,1.84-12.06,3.3-2.35.83-4.7,1.67-7.05,2.5-4.34.85-7.2-3.67-4.89-6.83,1.75-2.39,6.18-3.24,9.33-4.21,6.23-1.92,12.98-2.74,20.25-3.98,3.49-.19,6.98-.38,10.47-.57,4.22-.68,9.98-.28,13.88.34,12.92,2.06,26.13,2.14,34.48,8.65,4.44,3.46,5.12,10.53,8.19,15.36,2.74,4.32,6.89,7.14,8.53,12.63.98,3.29.68,8.95.11,12.52-.98,6.19-.78,16.28.46,21.85,1.11,4.98,2.7,9.51,5.23,13.09,2.36,3.32,5.49,6,7.62,9.56,3.15,5.26,4.16,13.19,2.84,21.16-.49,2.99.1,5.17,2.73,5.46,4.27-2.38,3.48-12.95,2.28-18.43-3.18-14.46-13.94-19.9-16.61-34.71-1.86-10.33,1.82-23.04-.68-33.11-1.06-4.25-3.03-7.78-5.35-10.81-2.47-3.22-5.35-5.99-6.26-10.81-1.14-6.04,6.96-2.48,8.08-7.17Z"/>
              <path class="cls-10" d="M655.26,168.98c.58-2.14.37-4.83-.68-6.26-.57-.08-1.14-.15-1.71-.23-2.32,1.51-1.71,4.96-.23,6.83,1.08.3,1.86.19,2.62-.34Z"/>
              <path class="cls-10" d="M545.45,201.98c-1.61.95-2.37,2.13-1.02,3.87,2,.53,4.27.17,5.69-.8.23-.86.14-1.37-.11-2.16-1.07-.76-2.62-.97-4.55-.91Z"/>
              <path class="cls-10" d="M650.37,230.77c-.46-.08-.91-.15-1.37-.23-2.03,1.06-6.85,7.56-2.5,9.22,3.93,1.49,5.86-6.39,3.87-8.99Z"/>
              <path class="cls-10" d="M626.36,194.47c.19-6.11.38-12.21.57-18.32,0-3.97.42-7.73-3.64-7.74-.92.51-1.76.81-2.05,1.93.11,1.48.23,2.96.34,4.44-.08,4.78-.15,9.56-.23,14.34-1.64,10.46.96,21.56,4.78,27.65,2.15,3.42,5.44,5.82,7.62,9.1,1.88,2.82,3.44,11.17,7.85,9.9,2.05-2.97-.53-9.18-1.82-11.38-2.75-4.7-6.93-7.88-9.67-12.63-2.77-4.79-2.67-10.54-3.76-17.3Z"/>
              <path class="cls-10" d="M633.75,148.95c-.56.35-1.13.58-1.48,1.14-.58.93-1.97,6.71-1.25,7.97.39.85,1.1,1.08,2.05,1.37,2.94-.19,6.65-10.7.68-10.47Z"/>
              <path class="cls-10" d="M633.3,164.77c-.88.48-1.83.82-2.28,1.71-.67,1.34.73,9.48,1.37,10.58.31.54.89.85,1.48,1.14,5.03.09,3.5-13.31-.57-13.43Z"/>
              <path class="cls-10" d="M646.73,19.69c3.56.75,6.03-3.49,4.1-6.03-.7-.2-1.27-.36-2.28-.34-1.33.82-4.23,4.58-1.82,6.37Z"/>
              <path class="cls-10" d="M499.03,131.09c-1.64.74-2.97,1.18-3.64,2.84-1.93,4.75,5.13,10.42,9.44,7.85,4.51-2.69-1.71-10.76-5.8-10.7Z"/>
              <path class="cls-10" d="M500.39,160.22c-4.73,2.9,4.18,9.67,6.14,8.53.47-.23.57-.45.8-.91-.08-3.28-3.38-7.6-6.94-7.62Z"/>
              <path class="cls-10" d="M503.69,153.84c1.98-2.39-2.53-6.57-5.23-6.49-4.98,3.34,3.43,10.5,5.23,6.49Z"/>
              <path class="cls-10" d="M644.68,170.57c-.83.46-1.71.67-2.05,1.59-.95,2.58,4.16,11.35,5.12,13.88,1.76,1.08,4.26.13,3.76-2.62-.75-4.09-2.38-12.72-6.83-12.86Z"/>
              <path class="cls-10" d="M539.88,234.52c-1.53-.5-2.64,1.45-3.3,2.28-2.2,2.75-5.39,5.29-8.65,6.94-11.03,5.58-25.17,1.45-32.54-4.44-8.58-6.85-13.06-21.95-8.08-36.07,3.43-9.72,10.38-17.51,20.94-20.14,7.63-1.9,15.83.55,20.6,3.41,1.35.81,5.58,4.71,7.51,3.64,3.26-1.55-1.66-6.98-2.73-8.08-4.98-5.09-11.85-7.72-22.19-7.51-1.33.23-2.66.46-3.98.68-2.77.76-5.51,1.91-7.74,3.3-4.53,2.83-7.97,6.84-11.15,11.04-6.44,8.5-15.57,21.77-11.15,37.66.9,3.24,2.18,6.52,3.76,9.22,3.46,5.9,8.03,10.13,14,13.54,2.33,1.33,5.44,1.8,7.62,3.3,2.25,10.63-1.56,19.72-3.07,28.79-1.22,7.32,2.75,17.14,9.9,15.82,3.02-.56,6.83-3.36,6.14-7.4-.38-2.27-1.46-3.97-2.16-5.92-.64-2.54-1.29-5.08-1.93-7.62-1.44-7.24.06-15.43.11-22.99,2.35-.34,4.7-.68,7.05-1.02,7.24-1.83,13.92-5.18,17.98-10.24.68-.85,5.65-6.34,3.07-8.19Z"/>
              <path class="cls-10" d="M646.38,55.53c-.64-.08-1.29-.15-1.93-.23-1.51.9-3.75,5-.57,5.8,3.92.99,3.96-3.76,2.5-5.58Z"/>
              <path class="cls-10" d="M555.47,226.22c1.36,1.28,3.64-.1,3.98-1.37.63-2.35-1.26-3.55-3.3-3.41-1.5.82-3.09,3.68-.68,4.78Z"/>
              <path class="cls-10" d="M527.47,309.62c-.94,5.74,3.05,10.59,8.99,9.44,6.15-1.19,10.49-13.3,8.88-21.85-1.83-9.69-8.05-15.75-11.15-24.58-1.39-3.95-1.75-13.75-3.87-16.5-.74-.96-1.91-1.13-3.64-1.14-2.03,1.09-3.56,1.89-4.67,3.87-1.27,2.28-.87,7.01-.34,9.79,1.64,8.67,3.74,14.7,7.4,20.94.99,1.69,1.84,3.8,2.28,5.92.67,3.27-1.61,5.59-2.5,7.85-.75,1.9-.99,3.97-1.37,6.26Z"/>
              <path class="cls-10" d="M508.36,307.35c-2.23-.51-4.13-1.93-5.69-3.19-3.72-2.99-4.67-9.32-11.38-9.22-1.1.51-2.19.59-3.07,1.25-3.12,2.33-2.52,8.15-1.02,11.72,2.48,5.91,7.2,10.43,12.74,13.31,2.76,1.43,7.21,3.81,10.58,1.37,2.61-1.89,4.11-6.38,5.01-9.9.4-1.56.39-4.03-.68-4.78-1.41-.98-4.55-.13-6.49-.57Z"/>
              <path class="cls-10" d="M683.94,105.14c2.12.39,4.53-.17,6.03-.57,6.51-1.75,9.94-6.36,8.19-15.25-1.74-8.86-4.81-16.13-7.28-24.24-1.39-4.56-1.64-9.42-2.5-14.68-.82-5.01.5-10.71,1.37-14.68,1.14-6.75,2.28-13.5,3.41-20.25.62-3.21,1.45-9.97-.91-11.49-.73-.47-2.22-.37-3.41-.34-1.12.6-2.07.91-2.73,1.93-2.39,3.7-1.56,15.4-2.96,20.48-1,3.63-1.87,7.57-2.62,11.49-.19,2.24-.38,4.48-.57,6.71.08,2.05.15,4.1.23,6.14.75,4.71.6,11.07-.23,15.48-.66,3.49-1.08,7-2.28,10.01-1.96,4.95-4.4,8.49-5.46,14.79-1.54,9.17,5.02,13.22,11.72,14.45Z"/>
              <path class="cls-10" d="M659.24,30.72c3.85-1.06,3.05-7.05-1.71-6.83-4.37,2.07-2.67,8.04,1.71,6.83Z"/>
              <path class="cls-10" d="M741.74,84.66c.15.04.3.08.46.11.02-1.88.49-9.23-.23-10.24-2.19,4.14-1.75,5.8-.23,10.13Z"/>
              <path class="cls-10" d="M663.45,42.1c-.53,5.31-1.06,10.62-1.59,15.93-1.59,7.3-3.59,14.07-5.01,21.85-3.59,19.71,5.98,35.34,17.41,41.76,13.47,7.57,33.66-1.67,41.99-7.74,2.84-2.07,5.4-4.61,6.14-8.76.68-3.8-1.73-6.63-3.07-8.65-2.88-4.35-6.71-10.08-4.44-17.52,2-6.54,6.66-11.02,10.35-15.93,4.34-5.77,7.28-11.54,8.99-20.14.23-2.92.46-5.84.68-8.76.15-3.15.3-6.3.46-9.44.15-2.69.3-5.39.46-8.08.68-4.22,1.07-8.27,2.16-11.83.59-1.91,2.72-8.44,4.21-8.88v-3.76h-7.06c-.8,2.12-1.59,4.25-2.39,6.37-1.88,5.32-2.02,11.45-3.07,18.09-.08,3.15-.15,6.3-.23,9.44-.34,4.1-.68,8.19-1.02,12.29-2.14,10.37-5.37,19.05-12.29,24.58-1.25,1-2.51,2.31-4.21,2.84-2.52.79-4.26-1.07-5.23-2.28-3.02-3.72-5.76-9.83-4.55-17.3.42-3.3.83-6.6,1.25-9.9,1.61-7.72,2.75-14.99,4.21-23.21.55-3.08,1.18-8.14.34-11.49-.95-3.78-4.38-7.97-7.62-9.44h-21.96c-9.99,5.08-7.69,22.78-10.7,35.05-1.26,5.14-3.03,9.48-4.21,14.91ZM672.21,41.19c1.27-7.67,2.98-13.44,4.32-20.6,1.42-7.6.47-15.85,4.32-20.82,1.92-2.47,4.2-2.65,7.4-3.98,7.99-.08,14.24,4.83,12.74,13.77-1.28,7.65-1.52,14.78-3.07,22.08-1.32,6.21-3,14.63-1.59,22.08,2.41,12.73,7.55,21.89,9.79,34.71.51,2.89.16,6.87-.34,9.33-1.94,9.43-6.67,12.56-16.39,14.22-1.97.04-3.94.08-5.92.11-9.73-1.65-15.45-5.03-18.09-13.65-3.8-12.39,4.35-20.52,6.71-29.93,1.18-4.71,1.49-12.12.57-17.52-.46-2.69-.98-6.63-.46-9.79Z"/>
              <path class="cls-10" d="M660.61,18.43c3.35-.83,2.48-6.23-1.37-6.14-3.97,1.71-3.01,7.23,1.37,6.14Z"/>
              <path class="cls-10" d="M711.81,54.73c1.3-1.03,2.14-2.68,3.07-4.1,2.38-3.62,4.25-7.8,5.46-12.63,1.38-5.51.72-11.58,1.71-17.75.3-3.64.61-7.28.91-10.92,1.08-6.23,1.95-12,3.87-17.18h-12.4c2.32,4.24,3.17,10.65,1.93,17.18-1.71,9.6-3.41,19.19-5.12,28.79-.69,3.16-2.07,15.19.57,16.61Z"/>
              <path class="cls-10" d="M544.54,212.67c-.42.15-.83.3-1.25.46-.42.58-.86,1.31-.57,2.28.9,1.95,6.42,2.03,8.08.8.14-.48.36-1.16.11-1.71-.66-1.81-3.84-1.92-6.37-1.82Z"/>
              <path class="cls-10" d="M557.63,161.24c3.69-.9,4.45-8.69-.91-8.53-1.68.67-3.13.94-3.64,2.73-.83,2.89,1.37,6.58,4.55,5.8Z"/>
              <path class="cls-10" d="M544.31,148.27c-.38.15-.76.3-1.14.46-1.63,2.36-.59,4.97.8,6.71.93.25,1.66.16,2.5-.11,1.23-1.83.16-4.76-.57-6.6-.45-.26-.86-.43-1.59-.46Z"/>
              <path class="cls-10" d="M656.28,4.67c5.25-2.11,9.12-7.75,11.72-12.52h-6.71c-1.87.92-10.63,8.17-10.58,0h-4.32c-.44,1.04-1.11,1.89-1.37,3.19-1.24,6.28,5.44,11.68,11.27,9.33Z"/>
              <path class="cls-10" d="M547.73,162.27c-3.8,2.94,1.4,6.96,3.87,5.12,2.45-1.82-1.95-5.17-3.87-5.12Z"/>
              <path class="cls-10" d="M531.23,172.28c2.97-1.18,1.31-7.54-2.5-7.4-3.44,2.23-.45,8.24,2.5,7.4Z"/>
              <path class="cls-10" d="M527.13,146.33c4.17-.81,2.52-9.02-1.82-8.88-.9.53-1.8.88-2.16,1.93-.92,2.65,1.35,7.45,3.98,6.94Z"/>
              <path class="cls-10" d="M549.55,136.09c-1.16.57-2.21.98-2.84,2.05-1.88,3.14,1.54,8.3,5.12,7.17,4.53-1.43,3.85-9.45-2.28-9.22Z"/>
              <path class="cls-10" d="M522.81,149.86c-.34.11-.68.23-1.02.34-3.64,1.63.45,7.57,4.55,4.21.74-2.72-1.34-3.99-3.53-4.55Z"/>
              <path class="cls-10" d="M521.56,164.88c-.38.27-.76.53-1.14.8-.73,2.71.32,4.34,2.05,5.35.66-.03,1.03-.12,1.37-.46,1.96-1.14.37-4.45-.46-5.46-.61-.08-1.21-.15-1.82-.23Z"/>
              <path class="cls-10" d="M543.86,163.74c2.46-1.64.2-6.56-2.96-6.49-.46.3-.91.61-1.37.91-.83,2.93,1.12,7.71,4.32,5.58Z"/>
              <path class="cls-10" d="M539.99,173.3c.67-2.4-.43-4.98-3.07-4.89-.19.08-.38.15-.57.23-1.73,2.73.8,6.87,3.64,4.67Z"/>
              <path class="cls-10" d="M536.46,156.92c.57-2.7-2.1-4.65-4.78-4.55-.65.41-1.25.53-1.59,1.25-2.3,2.67,4.43,6.09,6.37,3.3Z"/>
              <path class="cls-10" d="M536.01,148.38c3.01-.61,3.23-6.61-1.02-6.37-3.14,1.8-2.25,7.03,1.02,6.37Z"/>
              <path class="cls-10" d="M558.31,232.7c-3.94,1.82-1.59,6.73,2.05,5.23,2.95-1.21,1.2-5.38-2.05-5.23Z"/>
              <path class="cls-10" d="M216.6,354.12c-3.23,1.37-3.23,5.17.34,5.46,2-.77,2.46-2.44,1.71-4.67-.6-.44-.98-.78-2.05-.8Z"/>
              <path class="cls-10" d="M226.61,343.99c1.19-1.74.85-3.85,0-5.8-2.25-5.16-3.78-10.67-4.89-17.3-.59-3.5,1.16-8.14-2.96-8.19-2.53,1.56-2.71,7.19-2.05,11.38,1.05,6.68,1.74,22.48,9.9,19.91Z"/>
              <path class="cls-10" d="M198.73,346.72c.7-1.91.34-4.55-.23-6.37-.51-.33-.93-.58-1.71-.68-4.03,1.84-2.2,9.2,1.93,7.05Z"/>
              <path class="cls-10" d="M209.77,337.62c1.12-.18,2.6-1.28,2.28-2.84-.28-1.36-1.52-2.31-1.82-4.1-.83-4.96,2.61-17.64-2.96-17.87-.65.34-1.42.45-1.82,1.02-1.6,2.29-.13,15.56.34,18.32.45,2.58.63,6.01,3.98,5.46Z"/>
              <path class="cls-10" d="M198.62,351.04c-4.12,2.5-2.17,7.08-.11,10.47.43.71,1.25,1.17,1.48,2.05h3.07c-.02-.71.82-.9,1.02-1.71.25-.98-2.12-9.29-2.62-9.9-.57-.71-1.53-.92-2.84-.91Z"/>
              <path class="cls-10" d="M212.05,340.57c-.58-.43-1.46-.48-2.5-.46-.76.46-1.65.8-2.05,1.59-1.31,2.61,3.47,10.96,6.94,9.22,2.94-1.48-.87-9.22-2.39-10.35Z"/>
              <path class="cls-10" d="M246.3,363.56h7.4c-.57-4.02-7.37-5.12-7.4,0Z"/>
              <path class="cls-10" d="M237.08,323.96c-.68-4.28,1.75-11.16-2.39-12.06-2.99,1.35-3.84,5.61-3.07,10.35.27,3.07.53,6.14.8,9.22,1.11,5.75,2.38,11.17,4.32,15.93.9,2.21,1.97,7.33,5.8,6.37,1.62-.4,2.14-2.62,1.25-4.21-4.01-7.14-5.14-15.74-6.71-25.6Z"/>
              <path class="cls-10" d="M228.77,346.95c-.51-.35-1.29-.36-2.16-.34-5.18,3.12-.85,11.78,3.53,10.24,3.38-1.19,1.16-4.6.23-6.49-.55-1.12-.62-2.74-1.59-3.41Z"/>
              <path class="cls-10" d="M229.68,362.76c-.38.19-.76.38-1.14.57.6.35,2,.26,2.96.23.04-.08.08-.15.11-.23-.19-.15-.38-.3-.57-.46-.46-.04-.91-.08-1.37-.11Z"/>
              <path class="cls-10" d="M131.14,300.07c-2.61-4.4-.53-13.17-2.5-18.09-4.45-11.12-16.68-19.84-16.95-33.8l-.46-.23c-4.6,3.63-6.7,8.88-2.96,15.25,1.96,3.34,4.57,6.84,7.51,9.22,1.8,1.45,3.67,3.23,4.89,5.23,3.03,4.95,3.3,15.59,4.32,22.42.29,1.94-.43,3.64-.57,5.23,4.02,1.55,8.39,2.15,12.18,3.76,13.75,5.84,33.27,21.92,28.11,43.92-.87,3.71-2.1,7.15-3.41,10.35.83.6,6.2.26,7.74.23-.33-1.86,1.13-4.93,1.59-6.83,1.14-4.63,2.02-11.51,1.02-17.07-3.69-20.52-21.6-34.42-40.51-39.6Z"/>
              <path class="cls-10" d="M127.16,316.68c-22.07-6.77-39.63,10.56-42.79,27.54-1,5.41.19,11.43,1.48,15.48.53,1.29,1.06,2.58,1.59,3.87,10.73-.04,21.47-.08,32.2-.11h.23v-.11c-2.27-1.38-3.03-3.04-1.02-5.35,3.74-.99,5.14,2.9,3.19,5.35.77.55,3.12.23,4.32.23h11.49c.07-.63.09-.6.57-.8.84-.43,1.7.02,1.82.8h9.22c.19-.57.38-1.14.57-1.71,2.6-5.13,3.86-14.22,1.82-21.05-3.67-12.3-12.48-20.38-24.69-24.12ZM91.54,358.67c-.53-1.85-.1-2.9,1.14-3.87,1.5-.01,1.83.41,2.62,1.02,1.17,3.79-1.19,5-3.76,2.84ZM98.26,341.6c-.4.89-1.09,1.25-2.05,1.59-1.7.07-3.16-1.62-2.28-3.19.42-.98,1.09-1.14,2.05-1.59,1.19.04,1.61.4,2.28.91.19.65.37,1.65,0,2.28ZM103.95,328.06c4.1,0,3.74,7.26-.46,5.92-2.97-1.13-1.42-4.85.46-5.92ZM107.59,353.43c-.69.15-1.86.2-2.39-.11-2.27-1.02-.74-3.66.57-4.44,2.91-.12,3.96,3.18,1.82,4.55ZM119.99,343.76c-3.38.33-2.96-4.28-.8-5.58,3.99-.18,4.02,5.26.8,5.58ZM121.7,327.94c-3.65,1-5.96-4.69-1.93-7.05,4.47-.18,4.5,5.27,1.93,7.05ZM134.21,334.66c-2.72-.93-1-3.69.34-4.67,1.18-.01,1.77.17,2.5.46,1.29,1.75.18,5.64-2.84,4.21ZM140.25,350.02c-2.39,1.75-4.77-1.33-3.98-3.53.33-.8.79-.94,1.48-1.37,2.88-.16,4.79,3.22,2.5,4.89Z"/>
              <path class="cls-10" d="M182.01,260.01c-1.1-6.67-1.69-12.87-2.84-19.91-.43-2.61-.59-6.78-.11-9.56.44-2.56.76-5.01,1.48-7.28.84-2.67,2.1-4.9,2.62-7.97.61-3.58-1.01-8.58-3.07-9.67-.76-.4-1.92-.36-3.07-.34-4.08,1.9-6.81,3.34-8.99,7.05-4.78,8.15-.79,21.27,1.25,29.36.61,3.45,1.21,6.9,1.82,10.35.87,5.26-2.45,20.05,1.93,21.05,5.45,1.25,9.96-7.19,8.99-13.09Z"/>
              <path class="cls-10" d="M259.38,363.56h7.97c-.51-3.93-7.7-3.99-7.97,0Z"/>
              <path class="cls-10" d="M99.62,306.89c4.2-2.45,14.38-2.18,16.16-6.37,1.27-2.99-.71-6.01-1.14-8.42-.48-2.7,1.31-5.56.23-8.31-1.04-2.65-3.69-4.49-5.58-6.37-5.4-5.4-16.66-19.51-9.44-30.27,1.57-2.34,3.62-4.06,6.03-5.58,2.38-1.49,6.23-4.57,10.58-3.64,4.14.88,5.17,7.99,6.37,11.95,1.91,6.31,3.13,12.87,6.26,17.87,3.29,5.25,9.13,9.33,10.7,16.04.08,1.93.15,3.87.23,5.8,0,4.85.6,8.12,2.62,10.81.81,1.08,2.98,3.4,5.01,2.05.84-.56,1.45-2.39.91-3.64-.76-1.75-2.38-2.46-2.84-4.78-.29-1.44-.1-3.28.11-4.67.47-3.09-.53-6.4-1.37-8.53-3.65-9.34-11.2-13.22-14.45-23.9-2.09-6.87-1.63-20.56-6.49-24.35-3.17-2.47-9.33-1.04-12.97.34-7.49,2.85-14.32,8.48-16.73,16.39-.63,2.07-.53,4.06-.91,6.49-.67,4.29.32,8.64,1.59,11.49,2.77,6.18,9.87,8.7,12.63,15.13,1.83,4.26,2.41,12.45-2.16,14-1.08.36-2.53.25-3.3-.34-2.03-1.56-1.32-6.12-2.05-8.99-.61-1.33-1.21-2.66-1.82-3.98-1.35-1.99-3.48-3.84-5.35-5.35-2.97-2.39-5.45-6.55-6.71-10.58-7.46-23.84,13.57-41.38,31.75-44.26,4.21-.67,8.58.9,10.81,2.5,7.18,5.16,13.95,25.08,17.64,34.59,1.62,4.19,2.6,8.61,3.87,13.2.4,1.44.68,4.12,2.84,3.64,3.04-.67,6.3-8.95,7.51-12.06,4.75-12.23-1.15-40.47-7.97-47-1.9-1.82-4.77-3.42-8.31-3.53-3.11,1.29-3.66,2.21-1.59,5.35,1.9,2.88,4.56,5.11,6.37,8.19,3.71,6.29,5.71,14.45,7.85,22.19,1.12,4.06,3.22,13.21-1.14,15.13-4.08-.16-6.4-12.54-7.74-16.39-4.02-11.57-7.31-22.67-16.04-29.47-2.97-2.31-7.42-5.67-13.43-4.67-13.36,2.23-23.04,9.41-30.04,18.09-2.8,3.47-6.74,6.38-8.65,10.7v24.58c2.87,8.25,8.29,14.25,11.49,22.42,1.11,2.84,2.66,7.84,1.14,11.49-1.39,3.34-4.96,5.17-7.62,7.28-1.67,1.82-3.34,3.64-5.01,5.46v14.34c.46-.95.91-1.9,1.37-2.84,1.06-1.78,2.12-3.57,3.19-5.35,3.94-5.54,9.61-10.39,15.59-13.88Z"/>
              <path class="cls-10" d="M198.51,335.57c1.57-2.34,2.15-8.02-2.16-7.85-1.8,1.14-2.74,4.58-1.25,7.05.56,1.26,2.08,1.26,3.41.8Z"/>
              <path class="cls-10" d="M195.89,323.16c-.08-1.14-.15-2.28-.23-3.41-.06-3.69,1.13-7.88-3.07-7.85-.86.45-1.57.67-1.93,1.59-1.17,2.96.09,11.88,3.41,11.15.69-.15,1.61-.84,1.82-1.48Z"/>
              <path class="cls-10" d="M174.27,363.56h5.12c0-3.47-5.08-3.38-5.12,0Z"/>
              <path class="cls-10" d="M190.31,359.12c-3.06-2.07-4.69,1.86-4.55,4.44h5.92c.03-1.58-.41-3.79-1.37-4.44Z"/>
              <path class="cls-10" d="M181.89,344.56c-4.64,2.43-1.1,10.67,2.73,9.33,3.31-1.16,1.01-9.35-2.73-9.33Z"/>
              <path class="cls-10" d="M525.65,347.63c-1.88-7.31,7.12-16.8.57-21.73-3.39-2.55-10.04-1.62-12.4,1.25-2.91,3.53-4.01,8.92-6.83,12.52-5.98,7.63-19.28,14.68-28.9,18.89-3.19,1.48-6.37,2.96-9.56,4.44-.04.08-.08.15-.11.23v.23c.08.04.15.08.23.11h21.05c.17-.13.14-.64.34-.8.95-.42,1.9-.83,2.84-1.25.73.58,1.64.9,1.82,2.05,10.31.02,17.17.03,27.42,0,.04-.23.08-.46.11-.68,1.28-.21,2.12.27,2.96.68h12.97c.04-.08.08-.15.11-.23-3.93-5.22-10.78-8.52-12.63-15.7ZM500.62,357.76c-4.02,1.57-5.3-3.44-2.28-5.35,3.24-.07,3.56,3.26,2.28,5.35ZM507.67,350.59c-2.21-.98-.96-4.97.68-5.58.19-.08.38-.15.57-.23,5.33.87,2.28,7.96-1.25,5.8ZM515.75,359.81c-.23-.27-.46-.53-.68-.8-1.36-1.51.6-2.91,1.48-3.41.79.01,1.07.15,1.59.34,1.37,1.89.41,4.03-2.39,3.87Z"/>
              <path class="cls-10" d="M710.22,286.64c2.73-10.47,8.21-17.1,14-24.35,2.68-3.36,7.75-7.43,5.69-13.65-.27-.15-.53-.3-.8-.46-4.45.35-11.27,10.54-13.65,13.88-5.56,7.78-9.66,15.56-11.61,27.2-2.16,12.9,3.5,24.42,5.92,34.25,3.5,14.22.48,29.19-3.87,39.71v.34h5.35c.23-2.68,2.04-5.37,2.96-7.74,2.25-5.78,4.66-16.39,3.19-24.69-2.58-14.54-11.68-27.23-7.17-44.49Z"/>
              <path class="cls-10" d="M741.85,296.42c.08-.04.15-.08.23-.11.04-.11.08-.23.11-.34v-5.58h-.46c-1.82,2.43-.23,3.49.11,6.03Z"/>
              <path class="cls-10" d="M701.23,320.09c-3.1-12.03-7.4-25.96-3.07-39.71,3.52-11.16,8.98-20.57,15.48-28.79,2.35-2.28,4.7-4.55,7.05-6.83,1.34-1.03,3.18-1.86,3.98-3.41-.03-1.27-.43-1.58-.8-2.39-.63-.4-1.14-.6-2.28-.57-15.22,7.35-24.88,25.92-30.04,43.35-1.07,3.61-1.3,7.5-1.93,11.61-.89,5.8.69,11.75,1.71,16.16,2.32,10.08,6.93,25.69,4.21,37.44-1.56,6.72-4.46,11.72-7.97,16.39.95.68,7.68.26,9.44.23.03-2.08,2.25-5.06,3.07-7.17,2.19-5.61,4.61-13.97,3.19-22.3-.83-4.88-.91-9.57-2.05-14Z"/>
              <path class="cls-10" d="M720.01,144.06c3.21-2.14,7.97-4.91,14.11-3.87,1.21.15,2.43.3,3.64.46.64-.15,1.29-.3,1.93-.46.83.27,1.67.53,2.5.8v-7.85c-6.97.19-12.56,1.89-17.87,3.76-10.98,3.86-21.54,7.94-25.72,18.55-2.48,6.31-2.02,14.61-3.3,22.3-.08,1.97-.15,3.94-.23,5.92-.15,5.04-.3,10.09-.46,15.13v6.83c.46,5.2.91,10.39,1.37,15.59.82,4.33,2.27,11.47,1.37,16.73-1.36,7.91-5.09,12.08-7.74,18.21-1.14,2.64-1.67,5.42-2.5,8.42-.44,1.58-2.61,9.51-1.71,10.92.08.08.15.15.23.23,1.91.63,4.84-8.29,5.58-10.13,2.88-7.21,6.32-13.96,10.35-20.03,1.85-2.78,5.69-8.01,4.78-13.2-.67-3.83-2.35-6.72-3.41-10.13-1.47-4.74-1.95-9.79-2.84-15.25-1.39-8.47,1-20.84,2.62-27.76,3.28-14.06,6.9-28.25,17.3-35.16Z"/>
              <path class="cls-10" d="M716.71,208.01c-3.94-12.75-2.21-24.68,4.44-33.23,4.5-5.78,16.66-3.98,20.6,1.14h.46v-25.72c-13.47-2.57-16.53,8.38-21.62,15.02-5.31,6.93-9.84,14.24-12.18,24.24-1.72,7.35.58,15.68,2.28,21.39,2.42,8.15,5.16,18.6,11.83,22.53,3.53,2.08,9.21,2.1,13.54,3.19,2.05.61,4.1,1.21,6.14,1.82v-7.28c-16.33-.26-21.55-10.33-25.49-23.1Z"/>
              <path class="cls-10" d="M737.3,201.75c.49,2.9,2.19,5.38,4.89,6.03.02-12.4,2.06-22.5-6.37-26.85-2.3-1.19-6.56-2.47-9.1-.57-3.46,2.58-5.05,13.11-3.87,19.69,2.25,12.58,4.8,22.8,19.34,22.87v-6.94c-6.56-.54-11.25-5.55-12.4-11.72-.74-4,.16-10.76,2.84-11.83.85-.34,2.28-.07,2.84.23,3.04,1.63,1.18,5.26,1.82,9.1Z"/>
              <path class="cls-10" d="M728.31,300.86c1.64,7.72,5.6,12.01,8.31,18.21,2.15,4.91,2.87,10.25,3.98,16.39.6,3.34.69,8.47,0,11.83-1.2,5.8-3.4,10.9-5.01,16.04v.11c2.2.04,4.4.08,6.6.11v-48.93c-3.32-5.64-7.64-11.03-9.1-18.32-1.21-6.04,4.11-16.11,9.1-15.02v-5.01c-1.96.05-3.26,1.06-4.55,1.82-6.26,3.7-11.66,11.79-9.33,22.76Z"/>
              <path class="cls-10" d="M684.05,309.74c-.87-5.27-1.74-10.55-2.62-15.82-.11-1.97-.23-3.94-.34-5.92-.48-2.98-.63-7.1-.11-10.24.77-4.71.54-9.43,1.59-13.65,2.81-11.28,6.24-21.5,8.31-33.91,1.24-7.44-1-14.96-2.28-20.82-.84-3.86-.93-7.81-1.59-11.95-.5-3.13.02-6.99.46-9.67.3-3.94.61-7.89.91-11.83.15-5.8.3-11.61.46-17.41.11-7.13.23-14.26.34-21.39,1.29-.59,3.22-.07,4.89-.34,3.43-.56,6.65-.72,9.56-1.71,5.07-1.73,9.73-4,14.57-5.92,3.21-1.27,6.97-1.81,9.79-3.53,2.2-1.34,2.88-4.99,5.58-5.58,2.5-.55,3.63,1.13,5.12,1.71,1.14.23,2.28.46,3.41.68h.11v-10.01c-.68-.87-1.43-1.2-1.71-2.62-.71-3.69,1.16-7.22-.23-10.47-2.42-5.68-7.67-6.53-9.22-14.57-1.81-9.4,4-14.28,7.62-18.78.54-.67,3.13-4.08,3.53-4.1-.08-11.91-.15-23.82-.23-35.73-.08,3.83-.15,7.66-.23,11.49-.08,1.63-.15,3.26-.23,4.89-.64,3.82-1.11,7.46-2.16,10.81-1.52,4.85-4.35,7.03-7.05,10.47-2.98,3.8-5.82,8.43-7.05,13.88-2.63,11.62,6.63,20.1,4.1,32.77-.6,3-1.38,5.92-2.96,7.97-2.66,3.45-7.39,5.27-11.72,7.05-9.77,4.02-24.52,8.71-38.12,5.01-7.94-2.16-12.86-7.75-16.95-13.77-6.53-9.6-12.3-20.47-8.88-37.55,1.5-7.5,2.85-14.43,4.67-21.51.78-3.06,2.46-8.84,1.82-12.74-.87-5.32-3.04-12.18-9.67-10.7-1.59.36-3.04.95-3.87,2.05-1.95,2.6-.95,6.55.68,8.65,3.06,3.92,9.27,2.3,7.51,11.04-1.69,8.35-4.9,14.45-6.37,23.21-.65,3.89-.09,8.86.57,12.06,2.38,11.66,5.62,20.45,10.92,28.9,1.44,1.93,2.88,3.87,4.32,5.8.87.91,1.74,1.82,2.62,2.73.42,15.66.83,31.33,1.25,47,1.56,9.63,1.81,18.68,3.76,27.54,1.15,5.23,1.78,10.86,2.73,16.39.11,2.2.23,4.4.34,6.6.44,2.71.34,6.58-.11,9.22-1.73,10.11-4.83,17.5-7.28,26.4-1.22,4.42-1.24,9.34-2.05,14.34-.66,4.04-.5,11.37.11,15.25,1.72,10.89.78,23.92-2.62,31.63-3.5,7.94-11.2,12.87-19.57,15.93-2.69.83-5.39,1.67-8.08,2.5-4.26,1.84-6.71,6.08-11.27,7.51-4.87,1.53-9.13-1.49-11.04-3.87-3.47-4.33-7.08-10.41-8.88-16.16-.53-2.47-1.06-4.93-1.59-7.4-1.01-3.31-4.35-8.15-7.74-3.76-3.51,4.55-.82,10.73.91,15.25,1.41,3.66.95,9.63,3.07,12.63,4.56,6.44,13.18,6.54,13.2,17.87h9.44c.3-4.71,10.77-11.51,15.13-13.43,13.5-5.94,31.13-9.11,35.73-24.01,2.54-8.22,1.23-18.96-.23-27.31-1.26-7.25-1.5-18.73-.34-26.4.62-4.11.56-8.26,1.48-12.06,1.63-6.76,3.93-12.88,5.58-19.46.82-3.27.93-6.83,1.48-10.47.89-5.87-.32-12.42-1.25-17.07-.95-5.92-1.9-11.83-2.84-17.75-1.01-6.03-.41-12.15-1.37-18.55-.15-4.55-.3-9.1-.46-13.65-.08-3.83-.15-7.66-.23-11.49-.04-5.99-.08-11.99-.11-17.98.36-.08,8.68,1.35,9.56,1.71.94.69.32,9.57.68,11.83.15,4.48.3,8.95.46,13.43.04,3,.08,5.99.11,8.99,0,7.05.14,13.77-.91,20.25-.53,3.28-.29,7.63.23,10.7,1.05,6.16,1.78,11.62,2.84,17.64.15,2.88.3,5.77.46,8.65-.04,2.31-.08,4.63-.11,6.94-.58,3.52-.71,7.03-1.59,10.24-2.08,7.54-4.6,14.7-6.37,22.76-1.8,8.17-1.94,17.43-1.93,27.31.01,12.2,3.59,22.15,5.8,32.77,1.63,7.8.94,16.25-2.5,21.39-3.21,4.79-10.08,10.19-19,8.65-4.59-.79-9.52-2.73-15.02-1.59-4.5.93-8.58,2.33-11.95,4.44-1.4,1.02-2.81,2.05-4.21,3.07.44.88,3.63.46,4.89.46h37.55c1.66-.85,3.84-1.29,5.58-2.05,5.94-2.61,10.23-8.04,11.95-14.91,3.02-12.04-1.16-26.78-3.53-36.87Z"/>
              <path class="cls-10" d="M737.64,260.24c-1.18,2.09-5.75,5.23-7.74,6.83-4.97,4-10.25,12.45-12.29,19.34-4.89,16.52,4.32,29.59,7.17,43.13,1.6,7.59.67,20.04-1.14,26.51-.7,2.52-2.46,5.11-2.73,7.51h6.37c.76-2.31,1.52-4.63,2.28-6.94,1.93-6.18,4.41-14.71,2.96-22.87-.8-4.48-1.72-8.4-3.3-12.06-4.16-9.62-12.63-20.6-7.06-35.27,1.69-4.45,4.36-7.67,7.06-11.04,2.79-3.49,7.01-7.96,12.97-8.08v-22.42c-4.69,1.1-6.22,9.92-4.55,15.36Z"/>
              <path class="cls-10" d="M570.26,291.53c-1.61-6.32-6.83-8.32-10.24-12.74-4.17-5.42-7.47-12.57-9.67-19.8-1.3-4.28-1.96-11.28-7.17-11.49-5.36,2.52-3.49,11-1.82,16.27,2.43,7.66,6.08,15.25,10.35,21.28,2.72,3.84,6.55,6.87,8.65,11.27.85,1.79,1.63,5.66.68,8.08-.57,1.1-1.14,2.2-1.71,3.3-.48,1.71.1,3.37,1.25,3.87,2.32,1.1,4.96-1.53,5.92-2.73,2.88-3.62,5.46-10.63,3.76-17.3Z"/>
              <path class="cls-10" d="M422.22,349.79c-.76-4.21.31-8.98,1.25-12.06,2.21-7.25,6-13.66,11.27-17.87,4.44-3.54,8.87-6.69,11.61-11.95,3.33-6.4,2.71-15.28,4.44-23.67,1.77-8.56,4.84-15.18,6.49-23.55,1.11-5.66-1.83-10.35-3.41-14-3.8-8.73-11.5-22.75-6.26-35.27,2.8-6.69,9.92-9.88,14-15.48,4.35-5.96,6.36-14.09,10.7-20.14,2.67-3.73,8.21-4.45,9.22-9.79.99-5.27-3.29-10.9-5.23-13.65-5.23-7.43-10.92-14.21-13.09-24.69-.72-3.48-.17-8.13.46-11.15,1.18-5.73,2.36-10.81,4.44-15.7,2.52-5.93,6.47-14.18,4.67-23.33-2.44-12.34-9.24-20.04-15.7-28.33-3.92-5.03-8.56-9.7-10.7-16.5-2.7-8.59.82-17.27,2.84-24.12,1.38-4.68,1.35-10.56,1.25-16.39h-9.79c3.07,15.06-6.96,25.33-3.41,39.26,2.34,9.2,8.92,14.45,13.88,21.05,6.66,8.86,11.98,18.37,14.45,31.41.57,3,.39,7.3-.11,10.13-.79,4.4-1.29,8.08-2.73,11.72-2.83,7.14-6.46,12.8-7.97,21.62-.36,2.1.25,4.27.68,5.69,3,9.89,15.29,12.68,11.83,27.31-2.15,9.12-5.87,16.76-9.67,24.24-2.98,5.85-5.71,11.53-9.33,16.73-4.7,6.74-11.58,11.43-13.31,21.05-.8,4.44,1.73,8.01,3.3,10.35,3.56,5.31,13.64,14.77,11.95,24.46-1.46,8.37-3.28,15.75-5.23,23.44-2.71,10.66-4.85,20.77-9.79,29.02-1.69,2.81-3.97,6.06-6.49,8.08-1.55,1.33-3.11,2.66-4.67,3.98-3.53,3.88-6.45,8.84-7.97,14.68-1.49,5.74-1.33,14.12.34,19.57.8,2.54,1.59,5.08,2.39,7.62h7.51c-.8-2.05-1.59-4.1-2.39-6.14-.89-2.28-1.24-5.01-1.71-7.62Z"/>
              <path class="cls-10" d="M448.5,340.92c2.42-8.76,10.4-18.94,16.04-24.81,2.47-2.57,9.36-7.23,10.35-10.35,1.99-6.25-6.45-11.64-10.58-12.86-1.87-.55-3.59.28-4.32,1.25-1.53,2.03-1.19,5.43-1.82,8.42-.75,3.57-1.79,6.91-3.41,9.67-2.63,4.48-5.8,8.81-9.79,11.95-6.35,5-11.57,8.2-13.88,17.41-.47,1.86-.85,4.68-.46,6.94.59,3.37,1.31,6.52,2.62,9.22.84,1.73,2.52,3.68,2.73,5.8h16.39c-.03-4.33-2.41-6.07-3.64-9.1-1.5-3.69-1.34-9.52-.23-13.54Z"/>
              <path class="cls-10" d="M480.71,350.7c3.44-2.02,6.52-4.45,8.08-8.31,3.14-7.76-2.49-15.72-10.35-15.59-1.25.38-2.5.76-3.76,1.14-3.58,1.58-6.73,4.8-8.65,8.08-4.57,7.8-1.29,14.69,6.49,16.5,3.29.77,6.3-.71,8.19-1.82Z"/>
              <path class="cls-10" d="M406.17,351.5c.04-2.39.08-4.78.11-7.17.5-3.01.38-5.6,1.02-8.31,1.66-6.92,4.65-12.99,8.42-17.87,2.5-3.23,6.02-5.49,8.42-8.88,5.28-7.45,8.41-16.51,11.38-26.4,2.02-6.74,2.89-13.59,4.44-20.82.72-3.39,1.11-8.4-.11-11.49-3.62-9.14-16.57-17.26-13.65-31.52,2.21-10.82,8.75-16.96,14.22-24.46,6.89-9.44,15.1-23.93,17.64-37.32,1.04-5.47-3.49-7.73-5.69-10.47-3.22-4.01-5.58-7.18-6.71-13.54-.6-3.34.17-7.22.8-9.9.76-3.26,1.34-6.06,2.5-8.88,3.38-8.19,10.04-17.14,7.51-29.47-2.58-12.59-8.09-21.03-14.57-29.59-4.52-5.97-9.49-10.63-12.52-18.32-4.2-10.68-.53-23.02,1.37-33.34.71-3.87-.22-7.96-.34-11.61h-10.92c.82,5.47,1.62,12.73.68,19-.04,1.82-.08,3.64-.11,5.46-1.19,7.84-1.07,19.31,1.37,25.26,3.6,8.81,11.05,12.91,16.5,19.69,5.73,7.12,11.03,15.89,13.2,26.4,2.33,11.29-3.49,18.19-7.28,24.46-2.48,4.1-4.25,9.23-5.35,14.57-1.35,6.58-.35,14.02,2.28,18.55,2.68,4.61,7.01,9.91,5.35,17.64-2.18,10.13-6.04,18.8-11.15,26.06-2.47,3-4.93,5.99-7.4,8.99-4.89,6.34-8.88,13.45-11.49,22.08-1.69,5.59-1.72,11.4-2.73,17.98-.08,2.77-.15,5.54-.23,8.31.8,5.29,1.11,12.73.23,18.21-1.73,10.66-4.25,16.96-8.65,24.58-1.84,3.19-6.19,14.49-11.27,13.43-7.08-1.48-.5-11.87,1.14-14.68,3.99-6.84,7.65-13.68,9.33-22.87.83-4.56.8-10.8.11-15.48-.04-1.78-.08-3.57-.11-5.35-.04-1.97-.08-3.94-.11-5.92.23-2.81.46-5.61.68-8.42.94-5.34,1.71-10.3,3.19-15.02,6.61-21.11,24.01-30.55,28.79-52.91,1.35-6.31-3.29-10.52-5.12-14.79-2.63-6.15-3.5-15.71-1.71-23.55,1.55-6.8,3.81-12.93,6.94-18.21,2.65-4.47,6.82-9.92,5.23-17.75-2.76-13.61-11.99-19.94-19.23-28.9-3.27-4.04-7.31-7.26-9.56-12.4-2.85-6.52-3.51-18.33-2.16-27.42.15-3.68.3-7.36.46-11.04.85-5.74-.93-11.09-1.02-15.93h-29.47c-.76,8.09,5.48,12.17,12.18,13.54,2.32.48,6.63-.84,8.08.11,2.35,1.55,1.75,8.54.11,10.47-1.88,2.21-10.83.07-13.31-.68-9.95-3.01-17.76-10.51-17.41-23.44h-15.82c-5.41,18.06-11.01,27.48-31.06,31.06-3.4.61-8.13.85-11.83.23-3.15-.38-6.3-.76-9.44-1.14-4.78-.91-9.56-1.82-14.34-2.73-3.83-.83-7.66-1.67-11.49-2.5v.11c4.05,4.78,8.23,9.5,12.18,14.45,1.54,1.94,3.55,3.54,4.89,5.69,1.84,2.95,1.46,7.31-1.71,8.65-4.1,1.73-6.7-3.17-8.31-5.23-5.62-7.21-11.85-14.37-19.91-19.12-1.78-.8-3.57-1.59-5.35-2.39-2.01-.62-5.54-.34-6.6-1.93-1.86-2.78,1.87-6.27,3.19-7.28,7.09-5.46,18.16-3.48,27.31-1.37,4.51.83,9.03,1.67,13.54,2.5,8.59,1.9,21.71,4.12,30.95,1.37,8.52-2.54,13.04-7.77,16.39-15.48.64-1.63,1.29-3.26,1.93-4.89h-7.28c-2.52,5.49-7.91,6.32-6.83,14.22-2.88,2.8-16.51,3.03-22.08,2.05-10.48-1.85-19.62-3.87-28.9-6.71-5.44-1.67-13.08-4.64-20.25-2.96-9.14,2.14-12.27,8.09-17.18,14.34-3.53,4.49-8.06,8.49-12.74,11.83-2.21,1.58-4.56,4.08-7.62,4.67-3.7.71-4.18-5.26-5.8-6.94-2.47-2.56-6.24-3-9.79-4.55-4.2-1.84-8.04-4.75-10.58-8.31-.86-1.21-2.64-2.96-4.67-1.59-3.19,2.15.23,6.15,1.71,7.74,2.93,3.15,6.11,6.51,10.01,8.65,2.54,1.39,7.4,2.33,8.88,4.78,1.47,2.45-1.94,7.53-2.5,9.79-.93,3.75.14,8.35.68,11.72.08,2.5.15,5.01.23,7.51,1.43,8.19,7.33,11.92,10.92,18.09,3.67,6.3,4.04,15.81,6.37,23.44.64,2.05,1.29,4.1,1.93,6.14,1.22,2.92,3.78,7.56-.57,9.33-3.11,1.26-6.09-.72-7.28-2.5-2.21-3.3-1.36-8.33-2.16-13.2-.91-5.5-1.4-10.45-3.3-14.79-1.45-3.32-3.7-6.74-6.37-8.88-3.19-2.56-6.67-4.9-8.42-8.88-1.83-4.14-1.39-8.02-2.28-13.43-.11-1.59-.23-3.19-.34-4.78.52-1.7,2.41-2.68,2.96-4.67.9-3.28-1.23-8.77-2.05-11.38-3.23-10.3-11.1-14.54-16.61-22.3-2.17-3.05-4.07-6.43-5.23-10.47-.53-2.58-1.06-5.16-1.59-7.74-.8-.73-4.56-.26-5.92-.23.89,13.25,7.51,21.46,13.65,29.47,2.1,2.74,8.72,11.51,7.85,16.5-.77,4.44-3.88,7.24-5.12,11.38-1.31,4.35,1.9,5.25,3.19,7.51,1.24,2.19-.87,4.68-2.16,5.23-1.06.45-3.76.9-5.23.57-1.99-.45-3.02-1.8-5.01-2.16-6.32-1.15-14.96,1.82-17.87-3.07-.96-1.61-.42-5.4-.23-7.4.52-5.3,1.54-11.95.46-17.52-1.47-7.56-4.02-13.93-6.14-20.71-1.1-3.91-2.2-7.81-3.3-11.72-.91-2.01-1.82-4.02-2.73-6.03-2.5-1.34-10.82-.02-14.45-.57-3.94-.15-7.89-.3-11.83-.46-6.63-1-13.7-1.07-21.39-1.02-.53,2.47-1.06,4.93-1.59,7.4,8.82-.41,19.04-.75,28.68-.68,4.19.03,10.38-.48,13.2,1.25,2.83,1.74,2.75,10.25,3.98,13.88,2.84,8.37,11.11,15.96,8.88,27.99-.49,2.09-.99,4.17-1.48,6.26-.83,3.3-.3,7.1-2.73,8.76-2.62,1.79-5.64-.37-6.14-2.62-.56-2.48.65-4.61,1.14-6.26,1.01-3.4,2.05-8.52,1.25-12.86-1.16-6.35-4.28-10.59-6.49-15.82-1.64-3.88-2.17-8.51-3.07-13.2-2.66-1.21-8.36-.48-11.61-.34-8.68.38-17.33.88-26.29.68-.27,2.28-.53,4.55-.8,6.83,1.67.73,4.93.02,6.94,0,5.8-.3,11.61-.61,17.41-.91,3.44,0,8.37-.52,9.1,2.16,1.21,4.44-3.72,3.96-6.83,4.44-8.34,1.29-17.6,1.32-26.74,1.14-.85,1.81-.8,5.72-.8,7.97,8.52-.75,19.34-1.2,27.65.23,2.89.5,6.52-.03,8.65,1.25,4.48,2.69,7.01,11.6,5.69,19.46-.49,2.31-.99,4.63-1.48,6.94-3.11,8.91-10.16,12.31-15.36,18.78-2.41,3-4.56,6.02-6.37,9.67-3.57,7.19-4.85,15.8-6.6,24.92-.89,4.67-.53,9.8-5.58,10.24-4.45.39-4.29-5.33-3.3-8.65,2.92-9.78,4.92-21.31,8.88-30.27,2.61-5.9,7.35-9.48,11.04-14.22,3.36-4.32,5.97-9.47,8.42-14.68,2.24-4.77,2.17-12.2-1.93-14.91-3.35-2.21-15.81-2.5-21.39-1.59-2.28.37-6,.75-8.31.11-1.15,1.54-.31,5.16-.68,7.4-.72,4.36-.49,8.76-1.48,12.63-.89,3.48-2.16,6.83-3.98,9.44-2.51,3.6-5.99,6.48-6.94,11.61-.6,3.24,1.11,5.93,2.16,7.74,2.31,3.98,4.61,7.94,5.8,12.97,1.37,5.79-1.01,18.35-7.51,15.36-4.34-1.99-.31-8.06-1.02-12.29-.42-2.48-1.43-3.66-2.16-5.46-.19-.15-.38-.3-.57-.46-.04,8.99-.08,17.98-.11,26.97,1.71.38,3.41.76,5.12,1.14,2.28,1.34,3.32,3.61,6.49,4.21,2.85.54,5.35-.68,7.17-1.37,4.21-1.58,10.16-2.66,14.45-.34,10.19,5.51,14.99,17.2,25.83,21.96,3.58,1.57,10.29,3.25,15.59,1.82,8.23-2.22,14.52-9.45,19.23-15.36,1.94-2.43,4.18-5.16,7.17-6.49,6.9-3.05,19.62,1.45,25.38-2.96,2-1.54,1.4-6.4.8-9.22-1.6-7.44-1.47-26.42-7.85-28.33-5.21-1.57-11.88,2.09-16.39,2.96-2.96.57-6.63.26-7.97-1.48-1.3-1.69-.55-4.12.91-5.01,1.9-1.15,5.5-.34,8.08-.8,5-.88,10.95-4.25,16.95-3.19,11.97,2.13,9.28,20.31,11.72,32.09.84,4.05,2.87,10.78,1.02,15.25-2.13,5.14-11.73,3.29-12.74,7.17-.99,3.78,5.75,8.5,7.51,10.81,7.2,9.41,9.57,25.1,22.99,28.22,5.33,1.24,10.39-.96,13.88-2.5,1.67-.74,2.78-1.83,5.23-1.82,1.82,2.33-.12,6.63-.8,9.1-1.45,5.28-2.14,10.4-3.19,16.27-.32,1.78-.7,4.45-.34,6.6,1.26,7.65,2.87,16.33,6.83,21.51,1.86,2.44,5.58,3.18,7.4,5.58,1.92,2.55,1.22,6.33,3.98,8.08,4.98,3.15,16.22.57,23.21.57,8.42.11,16.84.23,25.26.34h11.49c4.03-.63,7.81.05,11.49-.68,3.05-.61,6.34-1.1,8.65-2.5,1.3-.79,2.28-2.46,3.87-2.84,4.09-1,5.15,4.7,3.87,7.51-2.61,5.75-12.33,4.74-19.69,5.92-4.05.65-8.75.34-13.2.34-2.81-.04-5.61-.08-8.42-.11-4.85-.08-9.71-.15-14.57-.23h-13.77c-5.4.85-12.1-.89-15.59,1.71-1.67,6.31,6.99,5.83,12.29,5.01,1.78-.08,3.57-.15,5.35-.23,4.18-.67,11.21-.78,15.48-.11,3.6.19,7.21.38,10.81.57,4.4.19,8.8.38,13.2.57,3.31.52,8.35.44,11.38-.23,1.76-.38,3.55-.98,4.78-1.93.91-.87,1.82-1.74,2.73-2.62,3.14-1.46,6.55.78,7.05,3.19.26,1.23-.33,2.49-.68,3.19-2.58,5.12-8.49,4.73-15.25,5.8-4.57.73-11.45.71-16.04,0-8.99-.23-17.98-.46-26.97-.68-6.48,0-14.52-.71-18.66,1.82-2.14,1.31-3.93,6.12-2.05,9.22,1.02,1.33,2.05,2.66,3.07,3.98,2.13,3.47,3.2,7.83,4.1,12.52.62,3.25,0,6.55.57,10.13.58,3.65.32,8.78-.23,12.29-.15,3.41-.3,6.83-.46,10.24-1.15,7.19-1.27,17.2-.11,24.46.58,3.66.79,9.16-.46,12.06-.97,2.26-5.66,3.68-5.12,6.49.49.83.99,1.67,1.48,2.5,6.71-.04,13.43-.08,20.14-.11h.23v-.11c-3.61-2.16-6.61-3.47-8.53-7.28-4.15-8.23-2.62-28.86-1.02-39.37.15-4.36.3-8.72.46-13.09-.04-2.39-.08-4.78-.11-7.17-.15-3.72-.3-7.43-.46-11.15-.68-3.82-1.8-7.04-2.39-10.58-1.05-6.29,5.68-10.53,12.18-9.44,5.72.95,7.26,5.54,8.99,10.47,3.21,9.16,3.82,24.41,2.05,36.07-.23,3.6-.46,7.21-.68,10.81-.83,5.44-1.16,15.97,1.37,19.23,2.42,3.12,10.38,5.07,14.22,2.05,1.01-.79,1.68-2.71,2.16-3.98,3.95-10.5.91-27.01,3.76-38.57,1.23-5.02,3.27-10.21,10.81-7.85,1.97.62,3.27,3.23,1.82,5.46-.93,1.43-2.32.96-3.87,1.82-1.97,1.1-2.78,5.31-3.3,7.85-2.66,13.07,3.04,38.63-7.74,43.13-2.22.92-5.25,1.3-8.19,1.37-5.43.12-10.85-.28-13.88-2.62-4.03-3.12-6.52-12.15-5.35-19.8.64-7.51,1.29-15.02,1.93-22.53.56-3.65.94-8.79.34-12.74-.11-2.12-.23-4.25-.34-6.37-.57-3.15-1.14-6.3-1.71-9.44-.42-1.83-.28-4.43-1.71-5.23-2.2-1.75-5.91,1.31-5.35,4.44.8,4.25,1.59,8.5,2.39,12.74.19,2.77.38,5.54.57,8.31.04,2.62.08,5.23.11,7.85-.27,3.72-.53,7.43-.8,11.15-1.43,8.67-2.23,24.98.91,31.98,2.89,6.43,15.04,10.37,25.38,8.53,3.97-.7,7.74-1.45,10.7-3.19,5.25-3.07,8.82-7.41,10.01-14.57v-13.77c.85-4.99,2.73-8.75,4.1-13.09.91-2.9,1.29-6.04,1.82-9.33,1.6-9.86-2.91-19.72-.23-28.9,2.47-8.43,8.1-12.78,12.63-19,2.74-3.77,4.63-8.47,6.03-13.54.83-4.36,1.67-8.72,2.5-13.09,1.48-5.54,2.96-11.08,4.44-16.61,1.07-3.79,3.92-9.5,9.33-6.26,1.78,1.07,2.93,3.54,1.82,6.14-.8,1.33-1.59,2.66-2.39,3.98-1.25,3.26-2.5,6.52-3.76,9.79-1.44,6.22-2.88,12.44-4.32,18.66-2.16,7.2-5.24,12.3-9.33,17.41-3.7,4.62-8.44,7.47-10.24,14.11-1.11,4.08-1.16,10.87-.46,15.48.04,1.67.08,3.34.11,5.01.08,2.43.15,4.86.23,7.28-.27,2.81-.53,5.61-.8,8.42-1.16,5.34-2.35,9.98-3.3,15.93v7.17c0,5.21-.47,9.78-2.05,13.43-1.84,4.27-4.81,7.93-8.42,10.47-1.33.68-2.66,1.37-3.98,2.05,1.53.87,8.58.23,10.92.23h3.3c1.18-1.11,2.86-4.1,3.87-5.8,7.16-12.01,2.84-32.85,5.58-49.38.15-2.54.3-5.08.46-7.62.27-2.47.53-4.93.8-7.4,1.15-5.6,2.19-10.67,4.21-15.25,3.93-8.88,11.13-14.77,14.79-24.01,2.19-5.52,3.05-11.75,4.89-17.75,3.77-12.29,7.38-24.43,12.52-35.39,2.07-4.42,5.1-7.8,7.97-11.38,2.05-2.56,4.89-4.44,6.83-7.17,3.56-5.02,6.41-11.03,8.42-17.52.9-2.89.84-7.39,2.39-9.9.87-1.41,3.02-2.97,5.58-2.28,3.55.96,3.44,5.71,2.5,9.56-2.03,8.36-4.55,16.37-8.53,22.87-5.09,8.3-13.22,13.39-17.3,22.76-4.74,10.89-8.29,23.11-11.95,34.93-1.88,6.08-3.17,12.33-5.58,17.87-3.17,7.31-8.32,12.48-12.18,19-2.39,4.05-3.75,9.11-4.89,14.34-1.75,8.03-1.1,16.87-2.5,25.26-.15,3.68-.3,7.36-.46,11.04v11.83c-.19,2.16-.38,4.32-.57,6.49-1.18,5.6-2.6,10.42-5.12,14.57v.34h9.44c.64-3.41,1.29-6.83,1.93-10.24.72-6.18,1.44-12.37,2.16-18.55.34-4.25.68-8.5,1.02-12.74,2.4-14.84,1.89-29.04,6.83-41.08,1.96-4.78,4.5-8.74,7.17-12.74,1-1.5,2.3-3.84,5.35-3.19,8,1.72,0,12.43-1.59,15.36-1.87,3.46-3.52,7.15-4.78,11.38-1.47,4.93-1.3,10.48-2.28,16.04-1.18,10.85-2.35,21.7-3.53,32.54-1.29,7.7-.86,16.23-3.3,22.87v.34h9.33c-.5-5.48.23-11.48,1.14-16.39,2.26-12.23,2.93-24.86,8.88-33.34,2.32-3.32,5.47-6.07,8.76-8.42,2.03-1.45,4.37-2.85,5.92-4.78,4.66-5.82,7.31-14.01,9.79-21.96,1.69-5.44,5.32-17.98,3.76-25.03-.93-4.22-3.59-6.64-4.44-10.58-.6-2.77,1.29-5.17,4.21-4.32,2.67.77,3.93,3.72,5.23,5.92,5.93,9.99,4.51,22.06,1.02,33.68-3.11,10.38-6.32,20.28-12.18,27.88-3.92,5.08-10.66,7.46-14.11,12.97-2.3,3.67-3.28,8.13-4.67,12.74-2.78,9.26-4.74,19.74-4.55,31.63h14.45c-.57-2.2-1.14-4.4-1.71-6.6-.23-1.82-.46-3.64-.68-5.46ZM94.05,81.93c-3.71-1.32-2.7-7.13-1.02-9.9,3.42-5.65,16.87-10.57,14-20.03-1.15-.72-3.64-.54-4.78-1.37-2.1-1.52-2.04-5.55,0-7.05.8-.59,1.78-.51,2.84-.91,2.79-.03,5.36.06,7.28.91,4.62,2.04,6.48,9.47,4.1,15.36-1.78,4.4-5.25,8-8.76,10.7-1.65,1.27-3.6,2.48-4.89,4.1-1.76,2.21-4.14,9.83-8.76,8.19ZM201.35,112.43c.21,4.57-7.43,5.63-7.17.23.67-.77,1.12-1.04,2.05-1.59,2.67-.04,3.76.26,5.12,1.37ZM196.34,97.52c8.65.26.59,10.76-4.32,8.31-.96-.48-1.49-1.59-1.82-2.73-1.33-4.52,3.07-4.52,6.14-5.58ZM193.27,70.89c-2.07,2.5-7.56,3.7-11.15,4.55-6.51,1.55-16.04.62-21.51-1.02-2.97-.89-6.65-2.69-10.92-1.93-10.49,1.84-19.89,16.34-23.67,25.38-1.63,3.89-4.09,9.54-1.93,14.57,1.67,3.88,4.61,6.29,7.05,9.33,4,4.98,11.32,12.93,18.55,14.34,2.59.51,5.41-.26,7.28-.91,8.88-3.1,11.51-9.57,13.54-19.57,1.15-5.68.53-13.42-1.82-17.41-2.83-4.8-7.88-8.9-14.34-10.01-3.11-.53-4.88,1.54-6.37,2.73-3.47,2.76-9.77,11.12-7.05,17.64,1.56,3.73,6.56,6.81,10.47,8.19,2.18.77,5.01.73,6.26-.91,2.55-3.35-.47-8.71-2.96-10.24-1.36-.83-3.78-1.11-4.44-2.62-1.72-3.97,3.07-6.68,6.6-5.35,4.9,1.85,8.06,6.55,9.22,12.18,1.73,8.42-5.69,16.66-14,15.13-7.91-1.45-18.19-8.99-20.03-16.39-1.01-4.05.84-8.19,2.16-10.81,3.46-6.86,10.2-20.27,21.96-17.87,10.61,2.17,18.43,12.15,21.16,22.19,3.06,11.23-2.43,25.46-6.94,31.63-2.15,2.94-5.58,5.63-8.99,7.28-6.45,3.12-15.43,2.73-21.05-.8-5.6-3.51-9.2-9.16-14.22-13.2-4.11-3.31-9.06-7.88-10.81-13.43-1.86-5.9.03-12.84,1.82-17.41,4.39-11.2,15.94-25.15,26.85-29.59,8.35-3.39,18.25,1.44,25.94,2.84,7.44,1.36,13.88-1.74,18.78-4.1,3.89-.09,7.37,2.17,4.55,5.58ZM322.2,288.46c-.77,4.17-2.54,7.91-3.3,12.52-.38,8.08-.76,16.16-1.14,24.24-.57,3.6-.17,11.99-4.78,11.04-3.55-.74-3.31-9.56-2.62-14,.3-7.74.61-15.48.91-23.21.46-2.73,1.21-5.1,1.82-7.51,1.13-4.5.29-6.79,4.32-8.65,2.98.11,5.42,2.06,4.78,5.58ZM339.26,270.37c-3.91,2.43-13.86,2.8-19.91,2.62-4.12-.13-8.48.32-9.22-3.19-.83-3.94,3.49-4.32,6.83-4.32,5.07,0,10.3.27,14.91-.46,1.37-.08,2.73-.15,4.1-.23,1.18.04,2.35.08,3.53.11,2.47.98,1.38,4.46-.23,5.46ZM359.06,6.71c7.74-.03,3.78,4.81,4.67,9.67.49,2.68,2.08,4.96,3.87,6.37,5,3.96,10.86,5.74,18.78,6.94,3.9.59,6.99-1.68,10.35-.57,2.2.73,4.47,3.69,2.5,6.37-2.09,2.85-12.72,5.12-18.66,4.21-11.61-1.78-20.78-5.66-25.26-14.45-3.62-7.1-2.7-15.14,3.76-18.55ZM388.42,76.01c-3.8.81-4.51-3.12-5.12-5.69-1.33-5.57-2.61-10.97,2.28-13.43,5.73-.15,5.02,3.99,5.8,8.88.68,4.25,1.05,9.39-2.96,10.24ZM337.22,30.95c5.89-.05,6.91,7.97,10.81,10.7,1.75,1.23,3.98,1.83,6.03,2.73,3.9,1.72,8.27,4.91,10.81,8.08,4.19,5.23,7.05,12.32,9.9,18.78,3.02,6.83,7.11,13.23,10.92,19.34,2.81,4.51,7.2,8.18,8.42,14,.64,3.03-.63,9.36-4.1,7.85-1.97-.75-2.49-4.3-3.64-5.92-3.93-5.52-7.49-11.11-10.92-17.3-5.7-10.27-10.23-22.58-17.41-31.52-3.83-4.77-11.12-6.1-15.7-10.13-3.29-2.9-10.91-12.24-5.12-16.61ZM326.52,40.85c4.92-.05,11.5,12.56,6.14,14.91-2.84,1.24-4.43-1.31-5.35-2.84-2.19-3.68-6.12-9.04-.8-12.06ZM304.1,33.8c.68-2.02,2.27-2.6,4.21-3.41,9.43-.2,14.49,10.28,5.01,13.88-4.39,1.67-10.78-5.81-9.22-10.47ZM295.11,52.12c3.83.61,7.66,1.21,11.49,1.82,2.28.36,4.65-.06,6.14,1.02.93.68,1.6,2.66.91,4.21-2.29,5.16-17.86,1.64-20.71-.8-3.07-2.62-.18-5.26,2.16-6.26ZM220.58,148.16c-.76-1.4-1.52-2.81-2.28-4.21-1.74-2.23-10.74-6.27-2.84-9.67,5.75.1,9.54,9.38,11.04,14.22.83,2.68,1.83,7.13-1.02,8.31-4.47,1.85-4.03-6.2-4.89-8.65ZM225.7,165v-.57c1.44-1.54,3.12-4.27,5.12-5.12.27-.04.53-.08.8-.11.11.19.23.38.34.57,1.25,2.9-3.68,5.27-6.26,5.23ZM239.13,153.62c-2.6,1.52-4.34-1.06-4.89-2.84-1.94-6.3-1.84-10.03-5.35-14.79-2.11-2.86-7.03-5.24-8.53-7.85-1.42-2.48.75-4.16,2.16-5.01,5.37-.07,12.62,8.92,14.34,12.86.61,2.16,1.21,4.32,1.82,6.49.7,2.53,3.31,9.48.46,11.15ZM246.41,57.81c-2.89-3.84-11.47-7.58-2.84-12.74,4.05-.04,5.24,1.69,7.4,3.41,10.23,8.17,8.63,29.54-1.37,36.87-1.54,1.12-6.69,4.66-9.56,3.98-2-.47-3.82-3.52-2.39-5.92,1.22-2.05,4.21-2.95,6.03-4.44,3.15-2.57,4.11-7.45,4.89-12.4.55-3.48-.81-6.97-2.16-8.76ZM254.83,106.39c-.91-4.68-7.7-8.12-1.02-12.06,4.82-.08,9.77,9.98,8.31,16.04-.49,2.04-1.65,3.17-2.73,4.55-.84,1.07-1.73,3.77-3.64,3.64-1.99-.13-4.02-3.04-3.41-5.58.49-2.07,3.02-3.95,2.5-6.6ZM240.38,163.4c-.11-.04-.23-.08-.34-.11-.58-2.88,1.24-4.48,2.84-5.58.83,0,1.21.1,1.71.34.86,2.23-2.01,6.25-4.21,5.35ZM244.48,130.52c-3.02-1.69-1.37-4.31-2.05-7.97-.53-2.39-1.06-4.78-1.59-7.17-.41-1.32-1.73-2.8-1.25-4.78.35-1.47,1.66-1.94,2.84-2.62,6.35-.15,6.73,10.66,7.85,16.04.7,3.37-.54,6.29-2.96,6.94-1.1.3-2.14-.06-2.84-.46ZM250.05,148.5c-1.39-3.3-4.95-7.3-.8-9.79,4.42-.13,6.23,4.63,7.17,7.97.69,2.46-.03,5-1.93,5.58-2.79.84-3.8-2.25-4.44-3.76ZM329.02,225.08c-2.5,1.29-6.4.39-9.79.8-6.37-.11-12.75-.23-19.12-.34h-5.92c-5.99,0-12.55.44-17.75-.57-13.43-2.6-20.64-10.68-23.67-23.67-.71-3.03-1.32-7.79-.68-11.61,3.04-18.22,12.32-29.18,20.25-42.44,2.67-4.47,9.01-15.22,7.85-22.87-1.53-10.09-6.9-16.05-11.27-23.33-2.64-4.4-4.11-9.7-5.12-15.7-2.42-14.32,6.7-30.8.23-41.76-6.94-11.76-21.09-9.47-30.5-2.05-1.66,1.31-3.91,3.1-4.55,5.35-.71,2.5.9,4.78,1.71,6.26,2.32,4.25,5.32,8.4,6.94,13.2,1.26,3.72-1.39,8.33-5.69,6.6-3.97-1.6-4.7-7.54-6.6-11.27-2.01-3.96-5.11-7.49-6.03-12.4-.88-4.72,2.51-7.52,4.32-9.79,4.22-5.29,10.39-9.63,17.18-12.29,1.99-.78,4.32-.66,6.49-1.48,15.21-.03,23.75,7.62,27.2,19.34.8,2.72,1.47,6.72.91,10.35-1.06,6.88-1.58,13.41-2.73,20.48-.4,2.42-1,5.81-.57,8.65,1.9,12.65,8.74,18.62,13.09,28.56,2.05,4.7,4.35,10.8,2.96,17.64-3.42,16.84-14.08,27.9-21.73,40.85-3.27,5.53-8,15.5-6.49,25.03,1.58,9.9,6.18,16.92,14.91,19.57,9.09,2.76,21.55.74,31.86,2.28,4.35.65,10.27.53,14.45-.11,1.94-.3,5.26-.59,7.17,0,2.66.82,3.32,5.36.68,6.71ZM263.94,140.65c-.61-3.14-2.54-4.6,1.02-6.49,5.01.14,6.09,13.41,1.37,14.57-2.21.54-3.24-1.83-2.84-3.98.2-1.09.75-2.54.46-4.1ZM327.2,144.17c.97-3.17,3.17-3.87,6.14-5.12,9.68-.22,11.8,12.94,3.19,15.02-6.26,1.51-11.17-3.91-9.33-9.9ZM324.13,135.18c-5.09,1.24-7.21-4.93-5.12-8.53.53-.92,1.47-1.38,2.39-1.93,8.24-.27,8.31,9.11,2.73,10.47ZM327.32,114.36c-.77-.24-1.66-1.07-2.05-1.71-.55-.91-.7-2.47-.34-3.64,1.68-5.52,8.63-2.6,13.77-4.44,5.85-.14,10.57,3.26,6.37,8.19-1.33,1.56-14.52,2.61-17.75,1.59ZM346.89,129.49c.63-.96,1.6-1.21,2.73-1.71,7.22-.26,7.65,8.06,2.39,9.56-3.93,1.12-7.26-4.62-5.12-7.85ZM352.12,144.51c.8-1.14,1.93-1.43,3.3-2.05,5.32-.15,6.44,2.32,7.62,6.14.98,3.18.72,6.83-2.05,7.85-6.15,2.27-12.17-7.23-8.88-11.95ZM352.58,106.17c-1.35-3.07-3.58-9.41-6.03-11.15-2.08-1.48-7.57-.33-10.13.11-5.87,1.02-22.89,2.78-28.33.46-2.88-1.23-5.57-6.97-2.05-9.67.72-.55,1.58-.62,2.5-1.02,3.28-.04,3.29,1.4,4.89,2.84,2.44.43,5.52.02,7.74-.34,2.05-.15,4.1-.3,6.14-.46,4.84-.8,15.14-1.81,19.91-.23,5.33,1.77,7.36,7.14,9.67,11.95,4.84,10.07,9.39,20.68,15.02,30.04,1.5,2.49,6.6,11.07,2.28,14.22-4.6,3.35-7.96-6.66-9.1-9.33-4.17-9.14-8.35-18.28-12.52-27.42ZM305.01,122.33c.6-.82,1.51-1.03,2.5-1.48,6.93-.22,6.28,8.99,1.25,9.9-4.38.8-5.85-5.54-3.76-8.42ZM301.03,147.7c-4.01.98-6.14-3.46-4.78-6.94.53-1.36,1.54-2.01,2.73-2.73,7.36-.26,6.9,8.49,2.05,9.67ZM305.81,155.67c1.09-2.28,2.97-2.44,5.46-3.41,9.26-.25,8.42,10.81,2.28,12.18-4.48,1-9.73-4.61-7.74-8.76ZM301.15,113.79c-4.26.92-7.77-4.19-6.6-8.19.72-2.47,2.54-3.09,4.78-4.1,9.77-.28,7.94,10.97,1.82,12.29ZM288.29,96.95c-4.91-1.36-3.4-8.34-1.14-11.27,1.1-1.42,2.48-1.88,4.21-2.73,9.93-.28,3.7,15.87-3.07,14ZM330.5,201.75c-5.62,1.12-7.18-7.96-1.71-10.24,7.3-.2,7.16,9.16,1.71,10.24ZM334.03,180.02c-5.07.98-8.82-5.23-7.4-10.01.82-2.76,2.55-3.14,5.12-4.21,10.73-.27,10.21,12.69,2.28,14.22ZM346.43,217.34c-4.81,1.14-9.62-3.9-7.51-8.76.89-2.05,2.82-2.37,4.89-3.3,9.37-.27,8.2,10.74,2.62,12.06ZM347.23,173.99c.93-2.36,2.88-2.39,5.35-3.3,7.85-.19,7.47,10.78,1.25,11.95-4.22.79-8.17-4.65-6.6-8.65ZM363.96,201.64c-5.78,1.52-9.85-3.66-8.31-9.22.8-2.89,2.62-3.76,5.12-5.01,1.84-.05,3.2.05,4.21.8,3.62,2.66,3.98,12.11-1.02,13.43ZM371.69,175.24c-3.96.7-7.66-5.19-6.6-9.33.72-2.82,2.61-3.92,5.01-5.12,7.9-.17,10.05,12.95,1.59,14.45ZM386.37,181.61c-3.27.63-5.38-3.39-4.55-6.37.52-1.87,1.9-2.39,3.53-3.19,7.93-.3,6.71,8.46,1.02,9.56ZM391.72,160.9c-1.91,1.42-5.38.65-7.17-.23-5.21-2.56-10.26-9.93-2.73-13.88,5.39-.1,9.09,3.71,10.81,7.28,1.06,2.21.82,5.54-.91,6.83ZM395.14,135.64c-.43,1.8-1.12,3.17-2.39,4.1-2.71,1.99-6.03-.12-6.6-2.73-.39-1.78.81-3.18.23-4.67-1.55-1.86-3.11-3.72-4.67-5.58-3.15-3.93-6.32-7.95-8.99-12.4-4.43-7.39-8.01-15.58-12.4-22.99-3.38-5.71-6.5-11.99-12.97-14.57-4.15-1.65-11.28-.48-15.59.23-5.04.83-10.13.09-15.48.91h-11.38c-2.65-.08-5.31-.15-7.97-.23-6.29-.95-10.24,1.87-14.57-1.14-1.05-.73-2.06-1.77-2.39-3.19-1.32-5.62,4.94-5,8.65-4.44,1.52.04,3.03.08,4.55.11,4.48.19,8.95.38,13.43.57,6.75,1.04,16.88.42,23.1-.57,4.1-.49,8.19-.99,12.29-1.48,15.91-.08,18.12,10.8,23.9,20.71,6.97,11.95,12.47,23.94,21.85,33.34,3.13,3.14,8.94,7.51,7.4,14ZM396.39,80.91c4.61-.08,7.13,4.23,8.42,7.51,1.02,2.6.35,5.92-1.82,6.71-3.16,1.15-4.73-1.83-5.8-3.3-2.58-3.54-7.05-7.82-.8-10.92ZM407.77,101.62c11.79-.29,1.88,15.78-3.41,14.68-2.88-.6-5.08-5.53-3.53-9.1,1.33-3.05,3.88-4.18,6.94-5.58ZM407.2,151.91c-2.82,1.42-5.12-.85-6.26-2.28-3.1-3.91-4-7.88,1.37-10.35,5.75-.1,10.4,9.86,4.89,12.63ZM415.39,136.21c-3.52.91-9.3-6.58-8.42-10.24.61-2.52,2.67-2.88,5.01-3.76,6.5.25,10.03,12.29,3.41,14ZM421.65,93.54c-3.97,2.28-5.68-2.5-6.83-4.44-3.83-5.95-7.66-11.91-11.49-17.87-1.88-3.08-1.24-5.44,1.71-6.94,3.66-.04,4.48,2.3,6.03,4.32,3.85,5.02,7.93,9.44,10.92,15.48,1.36,2.73,2.94,7.56-.34,9.44Z"/>
              <path class="cls-10" d="M79.48,287.66v14.45h.11c2.62-2.42,3.54-12.37-.11-14.45Z"/>
              <path class="cls-10" d="M583.46,321.69c1.21-7.48,2-13.58,3.19-20.71.95-5.68.15-11.72,1.37-16.84,1.36-5.74,3.85-10.81,8.76-12.97,2.18-.96,5.23-.87,7.05-2.16,1.12-.8,2.39-3.78,1.14-5.46-1.41-1.91-6.54-.86-8.42-.11-4.66,1.84-9.14,11.17-16.27,7.05-4.03-2.33-6.94-6.48-9.33-10.47-1.73-2.89-2.76-6.83-7.4-6.83-5.6,2.92-3.86,8.65-1.37,13.54,5.27,10.31,15.06,10.58,17.41,24.24,1.76,10.25-3,17.85-5.58,24.46-2.12,5.44-2.4,12.55-3.76,18.78-1.32,6.09-3.79,28.86,5.23,26.97,7.24-1.52,7.02-13,8.31-20.94,1.01-6.21-1.35-12.29-.34-18.55Z"/>
              <path class="cls-10" d="M265.98,340.8c-1.23-4.99-1.22-12.21-.23-17.41.61-3.18,3.2-11.11-.34-12.29-4.32-1.44-4.11,3.93-4.67,6.94-.94,5.12-2.18,12.24-1.14,18.21.33,1.92.91,3.89,1.25,5.58.4,1.96-.61,4.06-1.93,4.32-1.96.39-3.95-3.98-4.55-5.35-2.58-5.83-4.48-21.64-1.71-28.9-.48-1.44-1.21-2-3.19-1.93-1.08.52-1.91.73-2.5,1.71-1.18,1.96-.51,12.55-.57,16.04-.16,10.04,2.4,17.56,7.51,22.64,1.76,1.75,5.04,4.39,8.76,3.3,2.28-.67,5.87-3.19,5.46-6.37-.72-2.16-1.44-4.32-2.16-6.49Z"/>
              <path class="cls-10" d="M585.73,363.56h8.08c.51-7.34-8.23-6.59-8.08,0Z"/>
              <path class="cls-10" d="M550.12,350.93c-.94-5.65,2.95-11.01,3.3-16.95.2-3.36-1.23-9.09-4.89-8.53-3,.46-4.98,2.56-6.49,4.55-5.42,7.16-4.26,16.69-.68,24.81,1.1,2.49,4.51,6.1,4.78,8.76h7.85c-.53-1.29-1.06-2.58-1.59-3.87-1.09-2.77-1.73-5.49-2.28-8.76Z"/>
              <path class="cls-10" d="M524.29,15.7c13.67,5.9,27.38-.32,40.4-3.19,4.03-.89,8.24-.77,12.63-1.48,2.05.08,4.1.15,6.14.23,2.39.23,4.78.46,7.17.68,3.45.8,6.9,1.59,10.35,2.39,4.58,1,9.99.43,12.74-1.71,4.7-3.64,3.69-12.98,4.55-20.48h-7.4c-.27,5.97-2.07,12.55-6.03,15.02-8.55,5.33-21.1-2.75-31.75-1.02-6.15,1-11.77,1.12-17.18,2.5-6.54,1.67-16.02,5.09-23.78,2.39-4.75-1.66-7.41-5.06-9.79-9.1-1.48-2.53-3.09-5.9-3.07-9.79h-5.92c.41,6.68,1.01,15.46,4.32,19.46,1.56,1.88,4.2,3.06,6.6,4.1Z"/>
              <path class="cls-10" d="M309.11.8c1.01.2,2.34.1,3.07-.34,3.73-2.26-1.75-5.79-2.05-8.31h-5.23c-1.84,4.21.13,7.84,4.21,8.65Z"/>
              <path class="cls-10" d="M466.94,270.37c-12.76,5.85,5.7,24.84,14.91,17.98,2.6-1.94,2.04-6.17.46-8.76-2.69-4.41-8.27-9.37-15.36-9.22Z"/>
              <path class="cls-10" d="M241.52,3.41c.95-2.33.6-4.58-2.16-4.78-1.04.44-1.95.59-2.62,1.37-1.43,1.68-5.66,9.12-3.76,11.95,3.75,1,7.43-5.82,8.53-8.53Z"/>
              <path class="cls-10" d="M220.47,5.92c2.94-1.12,8.93-8.77,7.74-12.63-.47-.34-.76-.54-1.48-.68-.76.23-1.52.46-2.28.68-1.41.96-3.92,6.28-4.67,8.08-.57,1.39-1.4,4.26.68,4.55Z"/>
              <path class="cls-10" d="M466.94,47.91c6.95,9.86,12.1,18.54,14.57,33.11.8,4.71-.69,9.74-1.71,13.09-2.39,7.84-5.72,13.81-7.74,22.3-.54,2.27-1.2,5.82-.68,8.76,2.03,11.53,9.61,18.26,14.79,27.08,2.14,3.64,5.02,10.01,3.64,16.39-1.84,8.48-7.11,7.45-11.04,12.52-3.9,5.02-5.55,12.24-9.22,17.41-4.1,5.79-11.85,10.83-13.77,18.21-1.82,7.01,1.48,14.18,3.41,18.89,5.63,13.74,14.24,33.43,30.15,36.41,4.91.92,7.02-4.03,4.78-7.4-3.72-3.68-7.43-7.36-11.15-11.04-5.12-6.37-9.67-12.06-12.97-20.48-1.68-4.28-3.22-10.82-2.05-16.73,2.17-10.91,6.7-20.1,12.52-27.42,6.01-7.57,12.94-10.03,15.02-22.08.99-5.74-2.18-12.6-3.76-16.27-3.88-9.06-8.24-16.67-10.92-27.08-.85-3.31-2.01-8.33-1.25-12.74.59-3.42.92-6.6,2.05-9.44,3.19-8.07,8.53-14.04,12.74-20.94,3.55-5.8,6.08-12.37,7.51-20.25,1.47-8.07-2.88-16.04-6.03-20.14-1.37-1.77-6.04-4.28-3.53-7.97,2.43-3.57,8.06-.13,9.79,1.59,4.22,4.21,10.38,15.26,8.65,25.15-2.1,12-6.48,19.83-11.83,28.33-3.29,5.23-7,10.49-8.99,16.95-3.16,10.23.65,19.74,9.44,21.39,3.07.57,6.56-1.95,5.01-5.01-.9-1.77-2.99-.84-4.67-1.82-3.45-2.03-5.51-7.74-3.87-13.09,2.07-6.73,4.83-13.66,8.19-19.34,3.59-6.07,7.96-11.7,10.7-18.55,2.67-6.68,2.83-15.29,4.32-23.33.3-2.58.61-5.16.91-7.74v-1.14c-5.44-.56-10.75-2.92-14.68-5.23-13.57-8-17.32-17.31-17.98-38.12h-8.53c0,7.05.11,13.49-1.37,19.34-1.22,4.83-3.2,12.08-1.14,17.3,1.33,3.36,4.43,5.97,7.05,8.08,3.09,2.49,6,6.44,7.85,10.13,1.55,3.09,5.99,16.18,0,17.64-5.06,1.23-4.74-5.33-5.69-8.42-.69-2.27-1.7-4.6-2.96-6.37-4.37-6.17-12.11-9.31-15.25-16.61-2.83-6.59-.63-16.47.68-23.1,1.07-5.41.82-11.81.8-17.98h-8.31c1.42,7.52-.64,15.79-2.73,21.28-1.72,4.51-3.96,11.07-2.16,16.95,2.23,7.29,7.42,11.92,11.38,17.52Z"/>
              <path class="cls-10" d="M664.02,238.96c2.07-10.31-.08-24.2-2.16-32.66-1-4.09-1.32-13.26-5.46-13.88-.46.15-.91.3-1.37.46-1.99,2.91-.16,6.96.68,10.01,1.55,5.63,1.76,11.31,2.84,17.87.08,2.16.15,4.32.23,6.49-.11,2.05-.23,4.1-.34,6.14-.65,3.81-1.11,7.47-2.28,10.81-2.15,6.15-5.49,11.26-7.4,17.52-1.33,4.36-2.16,14.37,2.62,15.36,4.55.94,5.37-13.44,6.37-17.07,1.99-7.17,4.7-13.27,6.26-21.05Z"/>
              <path class="cls-10" d="M599.73,309.28c2.67,2.08,7.4,1.72,9.33-.8,1.45-1.9,1.3-5.95,2.05-8.42,1.75-5.78,3.85-11.58,8.31-14.68,3.57-2.48,11.73-1.77,14.34-5.23,2.34-3.11,1.52-10.58-2.62-11.04-4.34,2.11-10.57,2.02-15.13,3.98-8.32,3.58-11.25,12.57-14.45,21.28-.92,2.5-4.81,12.58-1.82,14.91Z"/>
              <path class="cls-10" d="M606.22,253.64c3.3-.8,1.29-4.34.11-5.8-1.74-1.63-3.49-3.26-5.23-4.89-4.57-5.66-8.11-10.11-9.67-19.12-.81-4.67.43-9.9-.34-14.91-.08-2.05-.15-4.1-.23-6.14-.63-4.05-.98-7.93-1.93-11.38-1.09-3.95-.31-7.96-5.58-7.97-.86.49-1.65.79-2.05,1.71-1.27,2.9,1.04,16.11,1.71,19.46,1.93,9.67,2.01,21.17,5.35,29.7,1.99,5.09,4.74,8.98,7.85,12.86,1.33,1.66,6.79,7.26,10.01,6.49Z"/>
              <path class="cls-10" d="M564.91,200.84c3.12,19.43-.13,43.09,11.04,54.28,2.31,2.31,7.86,7.85,13.31,5.92,1.57-.56,3.74-2.81,2.05-4.78-1.43-1.68-6.53-2.57-8.53-4.1-5.7-4.34-7.81-12.28-9.44-20.71-2.67-13.75-.42-31.79-4.21-43.92-1.05-3.34-1.63-8.84-6.03-8.88-.65.41-1.14.72-1.71,1.14-.63,2.7.94,5.67,1.59,8.08,1.08,4,1.23,8.59,1.93,12.97Z"/>
              <path class="cls-10" d="M616.8,337.5c3.14.84,6.36-.83,8.31-2.05,3.33-2.08,5.59-5.41,8.99-7.4,2.94-1.72,6.65-1.53,10.58-2.5,3.4-.84,5.86-2.64,7.74-5.01,1.08-1.37,2.64-3.1,1.82-5.69-.68-2.16-3.62-2.53-6.14-1.82-4.33,1.21-9.04,4.11-12.4-.23-2.12-2.73-3.42-6.59-4.78-10.01-.69-1.74-1.11-3.98-2.5-5.01-.6-.44-1.36-.55-2.39-.57-4.73,2.81-6.43,7.74-7.74,14-.59,2.81-.59,5.53-1.59,7.85-1.42,3.3-5.46,4.49-6.26,8.19-1.04,4.84,3.23,9.4,6.37,10.24Z"/>
              <path class="cls-10" d="M224.22,14.11c-3.58,2.18-.71,7.49,2.62,4.89.4-1.54.31-3.72-.8-4.44-.41-.41-.94-.49-1.82-.46Z"/>
              <path class="cls-10" d="M519.62,27.99c4.2,1.06,10.63,1.73,15.7.8,7.7-1.29,15.4-2.58,23.1-3.87,4.27-1,12.72-3.06,18.21-2.16,5.98.97,11.58.84,17.07,2.05,12.7,2.8,27.14,7.47,37.66-.91,6-4.78,4.4-21.83,5.58-31.75h-9.79c-.37,6,.1,13.84-1.59,18.66-1.03,2.95-2.56,5.2-4.55,7.17-11.65,11.55-31.8-1.32-49.38,1.59-18.95,3.13-49.13,13.55-61.45-2.39-4.41-5.7-4.73-16.03-5.8-25.03h-7.4c-.03,20.55,6.3,31.7,22.64,35.84Z"/>
              <path class="cls-10" d="M563.09-1.25c3.68-.38,7.36-.76,11.04-1.14,5.52-.89,12.79.57,17.07,1.59,1.64.39,4.09,1.38,6.26.91,3.05-.66,3.98-4.7,4.44-7.97h-34.93c-4.08,1.95-10.07,2.61-15.02,3.64-5.23,1.09-12.28.67-13.65-3.64h-9.67c2.46,17.21,21.97,9.31,34.48,6.6Z"/>
              <path class="cls-10" d="M561.04,244.99c.68-2.66-1.9-3.32-4.21-3.19-1.75,1.01-2.62,1.88-1.82,4.21,1.79,1.31,5.34,1.67,6.03-1.02Z"/>
              <path class="cls-10" d="M655.72,174.55c-.64.38-1.29.76-1.93,1.14-1.4,1.95,1.43,7.57,2.39,8.88,7.03,2.01,3.69-10.07-.46-10.01Z"/>
              <path class="cls-10" d="M82.78,202.43c3.45-7.81,4.28-14.29-.23-21.73-.87-1.43-1.62-3.03-3.07-3.87v31.18h.11c1.47-1.37,2.32-3.62,3.19-5.58Z"/>
              <path class="cls-10" d="M184.62,325.9c-.77-2.61-.64-6.03-3.76-6.26-4.98,2.37-1.06,10.68,3.07,11.04.86-.44,1.44-.53,1.59-1.71.29-.96-.65-2.19-.91-3.07Z"/>
              <path class="cls-10" d="M189.97,338.75c.82-2.78-.17-5.22-3.3-5.12-4.74,2.39-.2,7.98,3.3,5.12Z"/>
              <path class="cls-10" d="M221.95,234.29c-3.82-.57-7.38-.71-10.7-1.71-5.72-1.72-10.89-4.78-17.98-4.78-1.83.68-3.7.25-4.78,1.59-3.34,4.17,5.42,7.24,8.31,7.85,3.72.3,7.43.61,11.15.91h20.37c4.23-.66,8.59.05,12.4-.57,3.77-.62,7.27-.6,9.1-3.07,1.79-2.43.7-5.56-1.71-6.49-2.28.1-2.82,2.32-4.67,3.07-3.85,1.58-15.85,4.03-21.51,3.19Z"/>
              <path class="cls-10" d="M201.46,303.25h53.6c3.91,0,15.35.83,17.98-.34.75-.33,1.39-1.18,1.48-2.16.09-1.03-.7-1.86-1.37-2.16-2.29-1.05-15.56-.99-19.23-.57h-64.06c-1.88.74-3,.23-4.55,1.25-.08.23-.15.46-.23.68.09,4.45,11.45,3.3,16.39,3.3Z"/>
              <path class="cls-10" d="M209.32,270.25c9.63-.46,19.27-.91,28.9-1.37,3.28-.51,7.41.56,10.13-.57,1.63-.68,3.58-4.41,1.37-6.03-1.82-1.33-6.43-.97-9.44-.91-11.07.04-22.15.08-33.23.11-4.95,0-11.72-.64-10.58,5.23.82,4.22,7.64,4.37,12.86,3.53Z"/>
              <path class="cls-10" d="M246.53,246.81h-5.46c-4.93-.04-9.86-.08-14.79-.11-10.24-.23-20.48-.46-30.72-.68-1.59.59-2.89.26-3.87,1.37-2.54,2.86-.44,6.65,2.62,7.28,4.63.96,11.14.34,16.27.34,9.78.04,19.57.08,29.36.11,5.6,0,14.81,1.44,15.7-3.41.96-5.19-4.65-4.89-9.1-4.89Z"/>
              <path class="cls-10" d="M205.45,167.61c-8.16,4.2-10,15.27-11.83,25.72-.3,3.49-.61,6.98-.91,10.47-.19,1.74-.38,3.49-.57,5.23-.72,3.12-2.73,8.93,1.14,10.01,5.62,1.57,4.7-7.28,4.89-11.83.4-9.36,1.75-23.64,7.97-26.85.65,0,.93.05,1.25.34,1.99,1.16,1.83,5.23,2.28,7.97,1.45,8.84-.54,20.26-1.93,27.76-.92,4.97,2.03,10.24,7.51,8.19,4.36-1.63,2.44-12.52,3.3-18.09,2.32-14.99,2.17-39.05-13.09-38.92Z"/>
              <path class="cls-10" d="M259.38,279.58c-17.83.19-35.66.38-53.48.57-6.99,0-18.56-2.5-16.95,6.49.81,4.55,5.73,4.9,11.04,4.1,2.31-.08,4.63-.15,6.94-.23,4.4-.15,8.8-.3,13.2-.46,9.56-.19,19.12-.38,28.68-.57,4.71,0,15.42.71,18.78-.68,2.46-1.02,2.83-4.37,1.25-6.6-1.75-2.46-5.13-2.7-9.44-2.62Z"/>
              <path class="cls-10" d="M237.65,188.89c-.91-1.24-2.47-1.73-4.67-1.71-1.3.62-2.26.86-2.96,2.05-1.41,2.38-1.75,18.42-1.14,22.64.74,5.1-.57,12.33,6.37,10.92,4.57-.93,4.1-6.48,4.1-11.95,0-5.96.8-18.55-1.71-21.96Z"/>
              <path class="cls-10" d="M115.1,156.58c-4.56-9.51-9.51-21.14-23.55-21.05-3.88,1.45-8.47.07-9.56,4.21-.22.83-.11,2.06.23,2.73,1.21,2.38,6.2.76,9.33,1.37,4.33.84,7.75,3.11,9.9,6.14,5.69,8.04,6.69,20.66,11.72,29.24,5.49,9.37,14.19,15.34,23.1,21.28,5.63,3.76,14.45,10.31,24.24,6.49,13.51-5.28,17.23-26.29,24.46-38.35,2.12-3.54,4.79-7.52,8.19-9.79,3.27-2.18,7.41-1.86,8.31-6.49.83-4.29-2.56-7.59-6.6-6.37-3.4,1.02-6.04,4.1-8.31,6.37-4.59,4.59-9.39,9.34-12.86,15.02-5.93,9.72-10.81,27.6-28.56,23.9-17.68-3.68-23.09-20.21-30.04-34.71Z"/>
              <path class="cls-10" d="M167.44,31.98c.77,3.64,1.3,8.79.46,12.74-.34,1.6-1.63,5.3-.57,7.17.98,1.73,7.72.56,9.56.11.64-5.09,1.78-7.64,3.41-11.38.65-1.49,2.29-3.68,1.93-5.92-.89-5.59-6.91-10.7-9.9-14.68-5.21-6.92-9.6-16.19-9.9-27.88h-7.51v.11c2.67,5.36,3.73,12.28,5.69,18.66,2.16,7.02,5.22,13.43,6.83,21.05Z"/>
              <path class="cls-10" d="M201.92,5.69c5.88-1.19.31-6.32-.57-8.19-.62-1.31-.42-3.23-1.71-3.87-.36-.33-.84-.37-1.59-.34-4.53,2.46-.91,13.37,3.87,12.4Z"/>
              <path class="cls-10" d="M187.58.68c3.29-.58,4.23-7.73-1.25-7.51-.94.37-1.94.52-2.5,1.25-1.99,2.59.76,6.79,3.76,6.26Z"/>
              <path class="cls-10" d="M155.61,177.74c4.96-2.12,16.33-13.52,8.42-19.8-3.2-2.54-12.63-2.48-18.32-2.39-3.41,1.37-5.74,1.98-7.17,5.23-5.68,12.98,4.56,22.3,17.07,16.95Z"/>
              <path class="cls-10" d="M212.84,5.23c-.92.37-1.69.48-2.39,1.02-1.98,1.54-3.79,6.24-.23,7.4,7.06,2.29,8.15-8.24,2.62-8.42Z"/>
              <path class="cls-10" d="M79.6,230.99c3.28-2.49,5.61-6.8,8.19-10.01,3.47-4.33,9.08-7.99,14.45-10.35,4.51-1.98,16.79-5.67,18.55-9.56,2.63-5.83-3.96-4.3-7.17-5.58-1.91-.76-3.53-2.31-4.67-3.87-2.87-3.93-4.72-8.62-7.05-13.09-3.37-6.44-6.69-12.8-10.92-18.32-2.59-3.37-6.63-7.62-11.49-8.53v10.24c2.95,1.21,4.91,5.28,6.49,7.97,4.38,7.46,9.67,20.39,5.8,31.41-2.78,7.91-7.17,10.54-12.06,15.93-.7.8-.25,11.74-.23,13.77h.11Z"/>
              <path class="cls-10" d="M167.1,279.92c-.61-.42-1.06-.7-2.16-.68-3.9,2.1-6.05,17.49-.46,18.89,5.89,1.48,1.54-9.07,1.71-11.72.15-2.4,1.63-4.4.91-6.49Z"/>
              <path class="cls-10" d="M85.63,15.13c.53-3.79,1.06-7.59,1.59-11.38.95-3.87,1.9-7.74,2.84-11.61h-6.94c-1.21,4.4-2.43,8.8-3.64,13.2v57.58c4.58-4.31,3.79-13.29,5.01-21.05.38-8.91.76-17.83,1.14-26.74Z"/>
            </g>
          </g>
        </g>
        <g>
          <path class="cls-3" d="M349.28,369.76c-3.92,0-8.06-.61-12.34-1.81-1.41-.4-2.22-1.85-1.83-3.26.39-1.41,1.86-2.24,3.26-1.83,5.21,1.47,10.12,1.94,14.58,1.4,4.05-.49,7.24-2.18,9.77-5.16.94-1.11,2.6-1.26,3.73-.31,1.11.94,1.25,2.61.31,3.73-3.38,4-7.81,6.35-13.17,7-1.4.17-2.84.25-4.31.25Z"/>
          <path class="cls-5" d="M363.9,297.32c-15.49-23.39-51.64-35.24-67.74,0-16.1,35.24,27.65,73.12,57.11,69.56,28.56-3.45,16.87-60.15,10.63-69.56Z"/>
          <g>
            <path class="cls-3" d="M351.72,349.71c-.19,0-.39-.02-.58-.06-1.42-.32-2.32-1.73-2-3.15,4.23-18.97.14-35.72-10.94-44.82-7.26-5.96-16.26-7.47-24.05-4.02-1.33.58-2.9-.02-3.48-1.35-.59-1.33.02-2.89,1.35-3.48,9.53-4.19,20.84-2.36,29.53,4.78,12.66,10.39,17.42,29.1,12.75,50.05-.28,1.23-1.37,2.07-2.58,2.07Z"/>
            <path class="cls-3" d="M353.34,335.8c-1.07,0-2.07-.65-2.47-1.71-3.02-8-17.97-12.87-29.09-9.45-1.39.43-2.87-.35-3.3-1.75-.43-1.4.35-2.87,1.75-3.3,13.92-4.29,31.56,1.97,35.58,12.64.52,1.36-.17,2.89-1.54,3.4-.31.12-.62.17-.93.17Z"/>
          </g>
          <path class="cls-5" d="M363.9,297.32c-15.49-23.39-51.64-35.24-67.74,0-16.1,35.24,27.65,73.12,57.11,69.56,28.56-3.45,16.87-60.15,10.63-69.56Z"/>
          <g>
            <path class="cls-3" d="M351.72,349.71c-.19,0-.39-.02-.58-.06-1.42-.32-2.32-1.73-2-3.15,4.23-18.97.14-35.72-10.94-44.82-7.26-5.96-16.26-7.47-24.05-4.02-1.33.58-2.9-.02-3.48-1.35-.59-1.33.02-2.89,1.35-3.48,9.53-4.19,20.84-2.36,29.53,4.78,12.66,10.39,17.42,29.1,12.75,50.05-.28,1.23-1.37,2.07-2.58,2.07Z"/>
            <path class="cls-3" d="M353.34,335.8c-1.07,0-2.07-.65-2.47-1.71-3.02-8-17.97-12.87-29.09-9.45-1.39.43-2.87-.35-3.3-1.75-.43-1.4.35-2.87,1.75-3.3,13.92-4.29,31.56,1.97,35.58,12.64.52,1.36-.17,2.89-1.54,3.4-.31.12-.62.17-.93.17Z"/>
          </g>
        </g>
      </g>
      <path class="cls-3" d="M437.5,335.97c-1.3,0-2.43-.96-2.61-2.28-.2-1.44.81-2.78,2.25-2.98,19.05-2.65,37.36-10.02,52.94-21.31,1.19-.86,2.83-.59,3.69.59.86,1.18.59,2.83-.59,3.69-16.28,11.79-35.4,19.49-55.31,22.26-.12.02-.25.02-.37.02Z"/>
      <path class="cls-3" d="M571.42,335.97c1.3,0,2.43-.96,2.61-2.28.2-1.44-.81-2.78-2.25-2.98-19.05-2.65-37.36-10.02-52.94-21.31-1.19-.86-2.83-.59-3.69.59-.86,1.18-.59,2.83.59,3.69,16.28,11.79,35.4,19.49,55.31,22.26.12.02.25.02.37.02Z"/>
      <path class="cls-2" d="M496.58,301.33c0,22.27-18.05,40.32-40.32,40.32s-40.32-18.05-40.32-40.32,80.65-22.27,80.65,0Z"/>
      <path class="cls-2" d="M592.09,302.98c0,22.27-18.05,40.32-40.32,40.32s-40.32-18.05-40.32-40.32,80.65-22.27,80.65,0Z"/>
      <line class="cls-2" x1="497.79" y1="302.98" x2="511.44" y2="302.98"/>
    </g>
  </g>
</svg>