<?xml version="1.0" encoding="UTF-8"?>
<svg id="Camada_1" xmlns="http://www.w3.org/2000/svg" xmlns:xlink="http://www.w3.org/1999/xlink" viewBox="0 0 800 800">
  <defs>
    <style>
      .cls-1 {
        fill: none;
      }

      .cls-2 {
        fill: #af4301;
      }

      .cls-3 {
        fill: #433f43;
      }

      .cls-4 {
        fill: #eb681c;
      }

      .cls-5 {
        fill: #71d1cf;
      }

      .cls-6 {
        clip-path: url(#clippath);
      }
    </style>
    <clipPath id="clippath">
      <circle class="cls-1" cx="400" cy="397.41" r="395.72"/>
    </clipPath>
  </defs>
  <g class="cls-6">
    <g>
      <g>
        <g>
          <path class="cls-4" d="M138.14,437.11c41.79,28.32,146.06,131.85,169.66,155.5,30.76,30.82,7.74,127.98-43.12,94.76-51.13-33.4-169.16-182.54-184.2-222.01-15.04-39.47,37.42-41.96,57.67-28.25Z"/>
          <path class="cls-4" d="M80.47,465.36c-18.39-35.29-19.75-248.41-17.4-275.99,2.35-27.58,40.84-38.19,41.63-9.19,3.8,138.52,66.02,207.62,43,263.42-22.7,55.02-67.23,21.76-67.23,21.76Z"/>
          <path class="cls-2" d="M109.25,461.4c-.91,0-1.71-.67-1.84-1.6-.14-1.02.57-1.96,1.59-2.1,13.42-1.87,26.31-7.06,37.29-15.01.84-.61,2-.42,2.6.41.6.83.42,2-.41,2.6-11.47,8.3-24.94,13.73-38.96,15.68-.09.01-.17.02-.26.02Z"/>
        </g>
        <g>
          <path class="cls-4" d="M66.06,187.42l39.97,12.25c14.51-7.41,26.43-41.91,29.01-51.25,2.58-9.35-3.55-39.01-3.87-40.78-.32-1.77-8.38-1.93-9.03,3.55-.64,5.48-2.42,19.99-2.26,23.53-4.03.48-13.06,3.87-14.02,5.96-1.29-5.48-6.77-15.8-9.83-17.41.64-8.22,8.38-33.69,10.96-39.65,2.58-5.96-4.35-8.06-8.86-1.93-4.51,6.13-10.96,22.08-10.96,22.08,0,0,3.87-26.92,5.64-31.75,1.77-4.84-3.87-10.8-8.54-4.19-4.67,6.61-13.7,37.39-13.7,37.39,0,0,.32-32.07.97-37.23.65-5.16-8.7-8.38-10.96.16-2.26,8.54-7.09,39.01-7.09,39.01,0,0-5.8-16.76-6.93-24.34-1.13-7.58-8.54-5-9.03,5.16-.48,10.15,4.03,39.33,7.58,47.87,3.55,8.54,9.19,34.65,20.95,51.58Z"/>
          <path class="cls-2" d="M91.44,164.62c-1.03,0-1.86-.83-1.86-1.86,0-8.89,11.5-20.2,15.03-23.45.76-.7,1.94-.65,2.63.1.7.76.65,1.93-.1,2.63-6.38,5.89-13.83,14.84-13.83,20.71,0,1.03-.83,1.86-1.86,1.86Z"/>
          <path class="cls-2" d="M101.58,202.51c-2.74,0-5.66-.68-7.87-1.68-3.05-1.38-4.95-3.4-5.37-5.68-.19-1.01.48-1.98,1.49-2.17,1-.19,1.98.48,2.17,1.49.19,1.02,1.4,2.13,3.25,2.97,3.36,1.52,7.86,1.82,9.84.63.88-.52,2.03-.24,2.55.65.53.88.24,2.02-.65,2.55-1.47.87-3.39,1.24-5.41,1.24Z"/>
          <path class="cls-2" d="M51.19,138.14c-.43,0-.87-.15-1.22-.46-.78-.67-.86-1.85-.18-2.63,6.86-7.9,35.13-14.47,44.47-13.69,1.02.08,1.79.98,1.7,2.01-.08,1.02-1.01,1.79-2.01,1.7-8.34-.72-35.38,5.53-41.36,12.42-.37.42-.89.64-1.41.64Z"/>
          <path class="cls-2" d="M83.34,125.99c-.08,0-.16,0-.24-.01-1.02-.13-1.74-1.06-1.61-2.08,1.3-10.2,2.72-17.41,4.21-21.44.36-.96,1.42-1.46,2.39-1.1.96.36,1.45,1.43,1.1,2.39-.96,2.58-2.43,8.25-4.01,20.61-.12.94-.92,1.63-1.84,1.63Z"/>
          <path class="cls-2" d="M71.16,128.74c-.97,0-1.78-.75-1.85-1.73-.04-.5-.11-1.22-.19-2.09-.44-4.41-1.25-12.62-.39-19.93.12-1.02,1.02-1.72,2.07-1.63,1.02.12,1.75,1.04,1.63,2.07-.81,6.9-.02,14.85.4,19.12.09.91.16,1.66.2,2.19.07,1.02-.7,1.92-1.72,1.99-.05,0-.09,0-.14,0Z"/>
          <path class="cls-2" d="M60.6,132.36c-.61,0-1.21-.3-1.56-.85-1.91-2.94-5.69-14.6-7.38-24.03-.18-1.01.49-1.98,1.5-2.16,1.02-.16,1.98.49,2.16,1.5,1.66,9.25,5.32,20.33,6.84,22.66.56.86.31,2.01-.55,2.57-.31.2-.66.3-1.01.3Z"/>
        </g>
      </g>
      <g>
        <path class="cls-3" d="M613.16,277.5c.91-12.11,11.14-22.19,18.05-32.95,18.34-28.58,12.94-64.53-6.7-92.4-16.75-23.76-42.55-42.32-71.01-57.14.26-2.42.4-4.87.4-7.36,0-37.37-30.3-67.67-67.67-67.67-6.33,0-12.44.89-18.25,2.51-12.39-15.75-31.61-25.87-53.2-25.87-29,0-53.73,18.25-63.36,43.88-9.14-4.61-19.46-7.21-30.4-7.21-37.37,0-67.67,30.3-67.67,67.67,0,.76.03,1.51.06,2.26-24.85,17.32-41.57,42.31-45.68,68.74-11.51,45.34,30.01,77.5,54.57,112.44,7.05,23.19-16.15,43.74-19.48,66.04-7.06,29.97,27.39,49.32,39.26,73.48,19.68,77.69,126.64,92.12,168.53,66.88,47.95,48.48,169.74,30.16,139.71-79.23,37.24-22.41,51.5-65.89,34.98-101.03-5.1-10.84-13.02-21.45-12.14-33.05Z"/>
        <g>
          <path class="cls-5" d="M311.43,829.32c4.83,22.77.45,51.79-9.15,88.47h278.76c-13.91-159.22,77.43-232.48,72.69-349.15-15.73-9.61-116.03-40.71-139.05-43.27l-142.25,9.58c-26.46,5.98-82.87,16.91-89.21,22.09-6.33,5.18,7.76,54.69,15.97,67.92,8.21,13.24-.43,82.32-7.91,97.86-7.48,15.54-36.26,61.02,20.15,106.49Z"/>
          <g>
            <g>
              <path class="cls-4" d="M334.27,217.31c-19.72,23.11-20.19,89.34-21.98,142.59s24.9,106.3,48.57,110.25c23.67,3.94,75.81,3.22,110.18-44.68l25.98-47.39v-156.88l-162.75-3.89Z"/>
              <g>
                <path class="cls-4" d="M372.43,534.95s9.22-39.61,7.71-67.36l59.88-78.42,57-11.1s-16.14,93.82,17.65,147.29c-38.62,80.61-147.18,63.34-142.25,9.58Z"/>
                <path class="cls-2" d="M462.94,419.21c-3.21,28.38-38.5,57.06-82.94,64.68.39-4.56.22-7.33.28-12.27,24.81-2.92,57.97-18.03,82.66-52.41Z"/>
              </g>
            </g>
            <g>
              <path class="cls-4" d="M474.12,321.05c13.36-20.18,44.54-30.39,58.43,0,13.89,30.39-23.85,63.07-49.26,60-24.63-2.97-14.55-51.88-9.17-60Z"/>
              <path class="cls-2" d="M486.72,383.53c-1.26,0-2.5-.07-3.71-.22-4.62-.56-8.45-2.59-11.36-6.03-.81-.96-.69-2.4.27-3.21.96-.8,2.39-.69,3.21.27,2.18,2.58,4.93,4.03,8.43,4.46,3.85.46,8.08.06,12.58-1.21,1.24-.34,2.47.37,2.81,1.58.34,1.21-.37,2.47-1.58,2.81-3.7,1.04-7.27,1.57-10.65,1.57Z"/>
              <g>
                <path class="cls-2" d="M484.62,366.24c-1.04,0-1.99-.72-2.23-1.78-4.03-18.07.08-34.21,11-43.17,7.5-6.16,17.25-7.74,25.47-4.12,1.15.51,1.67,1.85,1.16,3.01-.5,1.15-1.86,1.66-3,1.17-6.73-2.98-14.48-1.67-20.74,3.47-9.56,7.85-13.09,22.3-9.44,38.66.27,1.23-.5,2.44-1.73,2.72-.17.04-.34.05-.5.05Z"/>
                <path class="cls-2" d="M483.23,354.23c-.27,0-.54-.05-.81-.15-1.17-.45-1.77-1.76-1.32-2.94,3.47-9.2,18.68-14.6,30.69-10.9,1.21.37,1.88,1.65,1.51,2.85-.37,1.2-1.63,1.87-2.85,1.51-9.59-2.96-22.48,1.23-25.09,8.15-.34.91-1.21,1.47-2.13,1.47Z"/>
              </g>
            </g>
            <path class="cls-3" d="M474.14,321.04c1.46,16.89-1.88,26.8-6.68,31.29-8.45,8.14-21.21-.3-19.14-15.55,3.71-28.01,9.72-76.19-9.96-67.81-37.19,15.92-56.14,8.69-62.28-44.6-2.37,33.42-46,66.17-61.67,42.96l-2.07-15.86,21.14-40.28,168,4.01,5.77,86.71c-12.52-.36-25.64,7.84-33.12,19.14Z"/>
          </g>
          <g>
            <path class="cls-4" d="M653.73,568.68c35.3,19.39,74.65,335.27,62.6,345.31-12.05,10.04-68.76-39.5-80.05-58.25-11.29-18.75-36.03-163.36-34.13-203.53,1.9-40.17,38.46-90.74,51.58-83.53Z"/>
            <path class="cls-4" d="M702.97,781.28c27.25,63.96,16.67,273.49,9.74,296.33l-39.91,3.86c-11.38-131.07-52.53-159.09-40.05-235.27l70.22-64.92Z"/>
          </g>
          <path class="cls-4" d="M372.43,534.95l-.08,67.97c-.05,37.73,30.53,68.35,68.26,68.35h10.14c39.24,0,70.4-33,68.15-72.17l-4.23-73.73-142.25,9.58Z"/>
        </g>
      </g>
    </g>
  </g>
</svg>