<?xml version="1.0" encoding="UTF-8"?>
<svg id="Camada_1" xmlns="http://www.w3.org/2000/svg" xmlns:xlink="http://www.w3.org/1999/xlink" viewBox="0 0 800 800">
  <defs>
    <style>
      .cls-1 {
        fill: none;
      }

      .cls-2 {
        fill: #e89fa8;
      }

      .cls-3 {
        fill: #af4301;
      }

      .cls-4 {
        fill: #433f43;
      }

      .cls-5 {
        fill: #eb681c;
      }

      .cls-6 {
        fill: #71d1cf;
      }

      .cls-7 {
        clip-path: url(#clippath);
      }
    </style>
    <clipPath id="clippath">
      <rect class="cls-1" y="-1.23" width="800" height="800"/>
    </clipPath>
  </defs>
  <rect class="cls-2" x="100" y="100" width="600" height="600"/>
  <g class="cls-7">
    <g>
      <g>
        <g>
          <path class="cls-5" d="M119.02,543.78c50.25,34.05,175.63,158.54,204,186.97,36.98,37.06,9.31,153.89-51.85,113.94-61.48-40.16-203.4-219.49-221.49-266.95-18.09-47.46,45-50.46,69.34-33.97Z"/>
          <path class="cls-5" d="M49.68,577.74c-22.11-42.43-23.75-298.69-20.92-331.85,2.83-33.16,49.11-45.93,50.06-11.05,4.57,166.56,79.39,249.65,51.7,316.75-27.3,66.15-80.84,26.16-80.84,26.16Z"/>
          <path class="cls-3" d="M84.29,572.98c-1.1,0-2.06-.81-2.21-1.93-.17-1.22.68-2.35,1.91-2.53,16.14-2.25,31.64-8.49,44.84-18.05,1.01-.73,2.4-.5,3.13.5.73,1,.5,2.4-.5,3.13-13.79,9.98-29.99,16.51-46.85,18.86-.1.01-.21.02-.31.02Z"/>
        </g>
        <g>
          <path class="cls-5" d="M32.35,243.54l48.06,14.73c17.44-8.92,31.78-50.39,34.88-61.63,3.1-11.24-4.26-46.9-4.65-49.03-.39-2.13-10.08-2.33-10.85,4.26-.78,6.59-2.91,24.03-2.71,28.3-4.85.58-15.7,4.65-16.86,7.17-1.55-6.59-8.14-18.99-11.82-20.93.78-9.88,10.08-40.51,13.18-47.68,3.1-7.17-5.23-9.69-10.66-2.33-5.43,7.36-13.18,26.55-13.18,26.55,0,0,4.65-32.37,6.78-38.18,2.13-5.81-4.65-12.99-10.27-5.04-5.62,7.95-16.47,44.96-16.47,44.96,0,0,.39-38.57,1.16-44.77.78-6.2-10.47-10.08-13.18.19-2.71,10.27-8.53,46.9-8.53,46.9,0,0-6.98-20.16-8.33-29.26-1.36-9.11-10.27-6.01-10.85,6.2-.58,12.21,4.85,47.29,9.11,57.56,4.26,10.27,11.05,41.67,25.19,62.02Z"/>
          <path class="cls-3" d="M62.87,216.12c-1.24,0-2.24-1-2.24-2.24,0-10.7,13.83-24.28,18.07-28.19.92-.84,2.33-.78,3.16.12.84.91.78,2.33-.13,3.16-7.67,7.08-16.63,17.85-16.63,24.91,0,1.24-1,2.24-2.24,2.24Z"/>
          <path class="cls-3" d="M75.05,261.69c-3.29,0-6.8-.81-9.47-2.03-3.66-1.66-5.96-4.09-6.46-6.84-.22-1.22.58-2.38,1.79-2.6,1.21-.23,2.38.58,2.6,1.79.23,1.23,1.69,2.56,3.91,3.57,4.03,1.83,9.45,2.19,11.83.76,1.06-.63,2.44-.28,3.07.78.63,1.06.29,2.43-.78,3.07-1.77,1.05-4.08,1.49-6.5,1.49Z"/>
          <path class="cls-3" d="M14.47,184.29c-.52,0-1.04-.18-1.47-.55-.93-.81-1.03-2.22-.22-3.16,8.25-9.5,42.24-17.4,53.47-16.46,1.23.1,2.15,1.18,2.05,2.41-.1,1.23-1.21,2.15-2.41,2.05-10.03-.86-42.54,6.65-49.73,14.94-.44.51-1.07.77-1.69.77Z"/>
          <path class="cls-3" d="M53.12,169.68c-.09,0-.19,0-.29-.02-1.23-.16-2.09-1.28-1.94-2.5,1.56-12.27,3.27-20.94,5.06-25.78.43-1.16,1.71-1.76,2.88-1.32,1.16.43,1.75,1.72,1.32,2.88-1.15,3.1-2.92,9.92-4.82,24.78-.15,1.13-1.11,1.96-2.22,1.96Z"/>
          <path class="cls-3" d="M38.48,172.99c-1.16,0-2.14-.9-2.23-2.08-.04-.61-.13-1.46-.23-2.51-.52-5.31-1.5-15.18-.47-23.96.14-1.22,1.22-2.07,2.49-1.96,1.23.15,2.1,1.26,1.96,2.49-.98,8.3-.03,17.86.48,23,.11,1.1.2,2,.24,2.63.09,1.23-.84,2.3-2.07,2.39-.05,0-.11,0-.16,0Z"/>
          <path class="cls-3" d="M25.78,177.33c-.73,0-1.45-.36-1.88-1.02-2.3-3.53-6.84-17.56-8.87-28.89-.22-1.22.59-2.38,1.81-2.6,1.23-.2,2.38.59,2.6,1.81,2,11.13,6.4,24.45,8.22,27.25.67,1.04.38,2.42-.66,3.09-.38.24-.8.36-1.21.36Z"/>
        </g>
      </g>
      <g>
        <path class="cls-4" d="M690.2,351.86c1.1-14.56,13.4-26.68,21.7-39.62,22.05-34.36,15.56-77.6-8.06-111.11-20.14-28.57-51.16-50.89-85.39-68.71.31-2.91.49-5.86.49-8.85,0-44.94-36.43-81.37-81.37-81.37-7.61,0-14.96,1.07-21.95,3.02-14.9-18.94-38-31.11-63.97-31.11-34.87,0-64.61,21.94-76.18,52.77-10.99-5.54-23.4-8.68-36.55-8.68-44.94,0-81.37,36.43-81.37,81.37,0,.91.04,1.82.07,2.72-29.88,20.82-49.98,50.88-54.92,82.66-13.84,54.52,36.09,93.18,65.61,135.2,8.48,27.89-19.42,52.6-23.42,79.41-8.49,36.03,32.94,59.3,47.2,88.35,23.66,93.41,152.28,110.77,202.65,80.42,57.65,58.29,204.1,36.26,167.99-95.27,44.78-26.95,61.93-79.23,42.06-121.48-6.13-13.03-15.65-25.79-14.6-39.74Z"/>
        <g>
          <path class="cls-6" d="M327.39,1015.38c5.81,27.38.54,62.27-11.01,106.38h335.19c-16.72-191.45,93.11-279.54,87.41-419.83-18.91-11.56-139.51-48.95-167.2-52.03l-171.04,11.52c-31.82,7.19-99.65,20.34-107.26,26.57-7.61,6.23,9.33,65.75,19.2,81.67,9.87,15.92-.51,98.98-9.51,117.67-9,18.69-43.61,73.37,24.23,128.05Z"/>
          <g>
            <g>
              <path class="cls-5" d="M354.85,279.48c-23.72,27.78-24.28,107.43-26.43,171.45-2.14,63.69,29.94,127.82,58.4,132.57,28.46,4.74,91.15,3.88,132.49-53.73l31.24-56.98v-188.63l-195.7-4.68Z"/>
              <g>
                <path class="cls-5" d="M400.74,661.42s11.09-47.63,9.27-80.99l72-94.3,68.54-13.34s-19.41,112.81,21.23,177.11c-46.43,96.92-176.97,76.16-171.04,11.52Z"/>
                <path class="cls-3" d="M509.57,522.25c-3.86,34.12-46.29,68.61-99.73,77.77.46-5.48.27-8.81.34-14.75,29.83-3.51,69.7-21.67,99.39-63.02Z"/>
              </g>
            </g>
            <g>
              <path class="cls-5" d="M523.01,404.22c16.07-24.26,53.56-36.55,70.26,0,16.7,36.55-28.68,75.84-59.23,72.15-29.61-3.58-17.49-62.39-11.03-72.15Z"/>
              <path class="cls-3" d="M538.16,479.35c-1.52,0-3-.09-4.46-.26-5.56-.67-10.16-3.11-13.66-7.26-.98-1.16-.83-2.89.32-3.86,1.15-.97,2.87-.83,3.86.32,2.62,3.1,5.93,4.85,10.13,5.36,4.62.55,9.71.07,15.13-1.46,1.49-.41,2.98.44,3.38,1.89.41,1.46-.44,2.97-1.9,3.38-4.45,1.26-8.74,1.88-12.81,1.88Z"/>
              <g>
                <path class="cls-3" d="M535.64,458.56c-1.26,0-2.39-.87-2.68-2.14-4.84-21.73.1-41.14,13.23-51.91,9.02-7.41,20.75-9.31,30.62-4.96,1.38.61,2.01,2.23,1.4,3.61-.61,1.38-2.24,2-3.61,1.4-8.09-3.58-17.41-2-24.94,4.18-11.49,9.44-15.74,26.81-11.35,46.48.33,1.48-.6,2.94-2.08,3.27-.21.04-.41.06-.6.06Z"/>
                <path class="cls-3" d="M533.96,444.13c-.32,0-.65-.06-.97-.17-1.41-.54-2.13-2.12-1.59-3.53,4.17-11.06,22.46-17.56,36.9-13.1,1.45.45,2.25,1.98,1.81,3.43-.44,1.44-1.96,2.25-3.42,1.81-11.53-3.56-27.03,1.48-30.17,9.8-.41,1.1-1.46,1.77-2.56,1.77Z"/>
              </g>
            </g>
            <path class="cls-4" d="M523.03,404.21c1.75,20.31-2.26,32.22-8.04,37.63-10.16,9.79-25.5-.37-23.01-18.7,4.46-33.68,11.69-91.62-11.98-81.54-44.71,19.14-67.51,10.45-74.89-53.63-2.85,40.18-55.31,79.56-74.16,51.65l-2.48-19.07,25.43-48.44,202.01,4.82,6.94,104.26c-15.05-.44-30.83,9.42-39.82,23.01Z"/>
          </g>
          <path class="cls-5" d="M738.98,701.98c42.45,23.32,89.76,403.13,75.27,415.21-14.49,12.08-82.68-47.5-96.25-70.04-13.58-22.54-43.32-196.43-41.04-244.73,2.29-48.3,46.25-109.1,62.02-100.44Z"/>
          <path class="cls-5" d="M400.74,661.42l-.1,81.73c-.05,45.37,36.71,82.18,82.08,82.18h12.19c47.18,0,84.65-39.68,81.95-86.78l-5.08-88.65-171.04,11.52Z"/>
        </g>
      </g>
    </g>
  </g>
</svg>