<?xml version="1.0" encoding="UTF-8"?>
<svg id="Camada_1" data-name="Camada 1" xmlns="http://www.w3.org/2000/svg" xmlns:xlink="http://www.w3.org/1999/xlink" viewBox="0 0 2400 1888.41">
  <defs>
    <style>
      .cls-1, .cls-2 {
        fill: none;
      }

      .cls-3 {
        fill: #030826;
      }

      .cls-4 {
        fill: #030212;
      }

      .cls-5 {
        fill: #02051a;
      }

      .cls-6 {
        fill: #fcfdfa;
      }

      .cls-7 {
        fill: #e89fa8;
      }

      .cls-8 {
        fill: #e8a51c;
      }

      .cls-9 {
        fill: #e8a51b;
      }

      .cls-10 {
        fill: #e8c5c9;
      }

      .cls-11 {
        fill: #e79fa7;
      }

      .cls-12 {
        fill: #e6a92a;
      }

      .cls-13 {
        fill: #e00304;
      }

      .cls-14 {
        fill: #d81f20;
      }

      .cls-15 {
        fill: #df1513;
      }

      .cls-16 {
        fill: #1658ad;
      }

      .cls-17 {
        fill: #085fc9;
      }

      .cls-18 {
        fill: #085fc8;
      }

      .cls-19 {
        fill: #0f060d;
      }

      .cls-20 {
        fill: #186acd;
      }

      .cls-21 {
        fill: #4589d1;
      }

      .cls-22 {
        fill: #9a9b6e;
      }

      .cls-23 {
        fill: #56ac3f;
      }

      .cls-24 {
        fill: #4ca532;
      }

      .cls-25 {
        fill: #fff;
        opacity: .49;
        stroke: #050505;
        stroke-miterlimit: 10;
        stroke-width: 3px;
      }

      .cls-2 {
        clip-path: url(#clippath);
      }
    </style>
    <clipPath id="clippath">
      <rect class="cls-1" x="-2575.56" y="4" width="2389.4" height="8467.64"/>
    </clipPath>
  </defs>
  <path class="cls-25" d="m2288.24,341.83c-58.09-30.94-66.39-30.94-124.48-43.32-58.09-12.38-141.07-12.38-190.86-37.13-49.79-24.76-91.28-37.13-157.67-61.89-66.39-24.76-107.88-24.76-165.97-43.32-58.09-18.57-99.58-6.19-124.48,6.19-24.9,12.38-58.09,43.32-116.18,55.7-58.09,12.38-99.58,37.13-149.37,55.7-49.79,18.57-132.78,18.57-165.97,43.32-33.19,24.76-116.18,43.32-149.37,55.7-33.19,12.38-107.88-6.19-132.78-6.19s-66.39-6.19-99.58-18.57c-33.19-12.38-99.58-30.94-124.48-37.13-24.9-6.19-75.96-5.87-99.58,0-99.58,24.76-120.08,34.95-149.37,49.51-49.79,24.76-16.6,0-49.79,24.76l-66.39,37.13c-58.09,18.57-91.28,18.57-91.28,18.57-74.69,0-141.07,12.38-141.07,12.38-2.05.38-4.08.75-6.09,1.1v639.46h2456.35V374.88c-15.12-2.67-27.85-5.48-35.41-8.3-33.19-12.38-58.09,6.19-116.18-24.76Z"/>
  <g class="cls-2">
    <g>
      <path class="cls-7" d="m113.42,1647.5c.22,1.37.62,2.73.63,4.1.07,18.25.02,36.51.18,54.76.03,2.9-.79,4.62-3.43,5.87-6.06,2.87-12,5.99-17.98,9.01-.23-.03-.46-.03-.69,0-.13-8.17-.21-16.34-.44-24.51-.04-1.55-.72-3.08-1.1-4.61-.25-.13-.52-.21-.81-.24-.91-1.59-1.81-3.18-2.72-4.77-.69-.63-1.38-1.25-2.07-1.88l.04.04c-.33-.33-.66-.66-1-.99l.04.04c-1.9-2.21-3.81-4.41-5.71-6.62l.03.03c-.32-.34-.64-.68-.96-1.02l.05.04c-.65-.97-1.29-1.94-1.94-2.91-1.99-1.54-3.85-4.2-5.98-4.43-9.97-1.09-20.01-1.52-30.03-2.19-.3-2.47-.84-4.94-.85-7.41-.08-19.12-.06-38.25-.07-57.37.63-.15,1.27-.3,1.9-.45,12.95-2.4,25.9-4.86,38.87-7.18,9.68-1.73,19.4-3.27,29.09-4.89.63-.21,1.27-.43,1.9-.64.69-.1,1.38-.2,2.07-.3.29.31.57.61.86.92,0,.35.01.69.02,1.04,0,0-.1-.04-.1-.04-.3,1-.86,2.01-.86,3.01-.05,16.76-.06,33.51,0,50.27,0,1.12.68,2.24,1.05,3.36Zm-23.77-9.41c3.91-1.56,7.14-2.86,10.61-4.25-.5-3.07-.97-5.92-1.4-8.58-2.75.18-5.41,0-7.84.67-1.3.36-3.1,2.21-3.07,3.36.06,2.84,1.03,5.67,1.7,8.79Zm8.98,35.88c-2.94.33-5.61.36-8.1,1.05-1.09.3-2.64,2.01-2.55,2.95.26,3,1.19,5.94,1.86,8.93q10.67-3.37,8.79-12.93Zm-51.31-27.3c7.23-1.03,7.02-1,6-14.01h-6v14.01Zm20.18-4.02c7-3.82,7.42-4.91,5.48-14.24-2.43,1.77-7.35-.08-6.87,5.33.25,2.88.88,5.73,1.39,8.91Z"/>
      <path class="cls-18" d="m89.21,1531.35c-.21,9.45-.42,18.9-.62,28.35-1.46-1.21-2.83-3.32-4.41-3.48-9.09-.98-18.23-1.59-27.37-2.13-4.52-.27-9.09.11-13.6-.23-9.39-.72-18.76-1.73-28.14-2.61-.34-12.9-.68-25.8-1.03-38.69.02-8.21.05-16.42.07-24.64,1.61-1.81,3.22-3.61,5.3-5.94,3.3.12,7.47-3.5,7.14-5.39,2.56-2.08,5.13-3.31,6.37-5.35,3.81-6.24,9.62-10.42,14.26-14.72-.8-2.26-1.39-3.92-1.98-5.58,1.07-.57,2.09-1.46,3.22-1.67,8.78-1.63,17.57-3.24,26.4-4.62,4.51-.7,9.1-.9,13.66-1.33.02,1.01.04,2.03.06,3.04-.57,1.24-1.65,2.49-1.62,3.71.09,4.75.54,9.5.85,14.25-.02,8.19-.04,16.37-.05,24.56-.3,1.01-.96,2.06-.83,3.01.68,4.88-2.47,7.48-5.49,10.48-8.01,7.93-15.76,16.11-23.75,24.32,1.74,2.11,3.58,4.34,5.41,6.57q2.97,7.02,10.75,3.92c.53-.21,1.05-.47,1.41-.63v-8.81h-6.29c-1.15-1.59-6.28-2.83-.38-5.09.65-.25.74-1.97.97-2.68,8.38-1.52,9.81-9.84,15.17-15.85.93,2.46,1.89,4.01,2.05,5.64.28,2.96.08,5.97.08,8.95,0,4.4,0,8.8,0,13.2.29-.03.58-.03.86-.11.07-.02.06-.29.09-.44h1.42Zm-24.54-39.97c3.77-1.26,7.21-2.41,10.49-3.51q.97-10.3-11.91-7.78c0,1.31-.15,2.72.03,4.08.29,2.13.79,4.23,1.38,7.22Zm-41.71,44v13.78c7-1.27,7.64-2.88,5.71-13.78h-5.71Zm5.99-48.95h-5.91v13.66q6.98-1.46,5.91-13.66Zm14.1,8.77c6.39-1,7.41-3.34,5.5-12.73-7.72.16-8.2,1.28-5.5,12.73Zm5.63,36.31c-7.63.42-8.13,1.63-5.53,12.74,6.2-1.19,6.92-2.78,5.53-12.74Z"/>
      <path class="cls-7" d="m86.07,1318.06c.21,20.4.42,40.8.63,61.2-.29.36-.59.72-.88,1.07-.31-.05-.62-.02-.91.09-.42-.36-.84-.72-1.27-1.08-1.06-1.36-2.11-2.71-3.17-4.07l-.18.21.16-.23c-2.6-3.75-5.78-4.91-10.03-2.56-1.26.7-2.91.72-4.37,1.05-.59-.06-1.19-.12-1.78-.17-.66-.29-1.33-.59-1.99-.88h-.02c-.15-.25-.3-.48-.45-.72-.16.23-.31.45-.47.68-.33.07-.67.15-1,.22-2.82-.1-5.65-.12-8.46-.32-11.96-.83-23.91-1.72-35.86-2.59-2.56,1.69-5.5,3-7.58,5.15-3.17,3.29-5.75,7.15-8.57,10.78.05-2.82-.09-5.67.18-8.47.33-3.49-1.08-5.16-4.81-5.44,0,3.33.2,6.48-.05,9.59-.29,3.72,1.4,4.8,4.75,4.26-4.05,5.39-8.09,10.78-12.14,16.17-.34-6.34-.69-12.68-1.03-19.01.03-.57.07-1.14.11-1.7,0-10.72,0-21.45,0-32.17-.1-.31-.19-.62-.29-.92-.03-4.04-.07-8.09-.1-12.13.01-2.92.03-5.84.04-8.76.62-1.05,1.21-2.12,1.88-3.15,2.34-3.63,4.71-7.24,7.06-10.86,3.41-4.06,6.82-8.12,10.22-12.18.29-.39.57-.78.86-1.16,0,0,0,0,0,0,.54-.62,1.08-1.25,1.62-1.87.26-.16.38-.4.37-.71.4-.56.81-1.13,1.21-1.69.47-.47.94-.94,1.42-1.42.34-.31.68-.62,1.02-.93.69.32,1.38.64,2.07.97,8.42,10.09,16.8,20.23,25.36,30.2.73.85,2.82,1.01,4.16.78,6.35-1.07,12.68-2.32,18.99-3.62,7.45-1.53,14.88-3.17,22.32-4.76.24.02.49.07.72.13.08.34.16.68.25,1.01Zm-77.4,23.9v12.57h5.29q-2.27-12.88-5.29-12.57Zm-13.3,14.03c6.86-1.76,4.11-6.84,4.36-10.42.08-1.1-2.25-2.38-4.36-4.43v14.85Zm30.55-13.37v12.99c1.81-.49,3.13-1.38,3.21-2.36.27-3.48.1-6.98.1-10.63h-3.31Zm45.5,4.72q7.14-2.28,5.03-7.82c-1.84.5-3.7,1.01-5.9,1.6.29,2.09.57,4.09.87,6.21Zm-21.33-2.62h-4.52v8.11c6.3-.21,3.92-4.72,4.52-8.11Zm8.41,5.24c5.04-1.71,4.03-5.02,3.36-8.43-5.29,1.29-5.03,4.4-3.36,8.43Z"/>
      <path class="cls-18" d="m5.69,1301.13c-3.41,4.06-6.82,8.12-10.22,12.18-3.64-4.41-7.27-8.82-10.91-13.23v-7.49h-7.19l-.42-.11c-.68-.55-1.32-1.53-2.04-1.59-4.5-.4-9.02-.59-13.54-.85-2.59-.07-5.18-.14-7.77-.2l-2.77-.04.07-.35c1.09-4.62,4.73-6.14,8.73-7.37,1.24-.38,2.3-1.34,3.45-2.03.04-1.22.08-2.45.12-3.67,2.4-3.25,4.8-6.49,7.34-9.92.7.35,1.76.88,2.81,1.41.05,3.27-.1,6.57.27,9.8.13,1.19,1.48,2.25,2.28,3.36,1.09-1.04,3.16-2.14,3.11-3.12-.24-4.4-1.08-8.76-1.7-13.13-.37-2.56-.73-5.12-1.16-8.08-5.03,3.96-9.03,7.1-13.03,10.24-1.4-.38-2.8-.75-4.83-1.3v8.84c-2.41,1.65-4.82,3.29-7.77,5.3-.56-5.38-1-9.61-1.44-13.83-.04-4.12-.08-8.23-.12-12.35-.35-5.64-.7-11.29-1.05-16.93,0-7.85.01-15.7.02-23.54.15-.35.29-.71.44-1.06.16-.34.32-.68.48-1.02,0-.28-.03-.55-.08-.82l.18-.17c1.49-2.09,2.99-4.19,4.48-6.28,5.04-6.17,10.13-12.31,15.09-18.54,2.49-3.13,4.66-6.52,7.23-9.57.57-.67,2.24-.41,3.41-.58.49.39,1.06.71,1.45,1.18,9.59,11.67,19.16,23.35,28.74,35.04-.05,3.78-.1,7.56-.15,11.34-.09.06-.26.15-.25.19.04.18.14.34.21.51.02.72.03,1.44.05,2.17-.24,1.03-.7,2.06-.7,3.09,0,22.93.03,45.85.06,68.78.02.31-.11.54-.37.71-.54.62-1.08,1.25-1.62,1.87,0,0,0,0,0,0-.29.39-.57.78-.86,1.16Zm-46.34-70.21l-1.55-.1c.08,4.92.15,9.84.28,14.75,0,.05.85.07,1.3.11.93.04,1.86.07,2.8.11.2-.19.39-.39.59-.58.1-3.23.11-6.47.34-9.69.2-2.83-1-4.3-3.77-4.6Zm37.78-.59c-.96.02-1.93.04-2.89.07-.14.18-.28.36-.41.53,0,4.74-.02,9.48-.02,14.21.46.25.91.5,1.37.74.63-.04,1.27-.08,1.9-.12.25-4.27.5-8.53.75-12.8-.03-.66-.07-1.33-.1-1.99l-.6-.64Zm-24.56-.04c0,4.28-.23,7.9.11,11.47.14,1.43,1.56,3.9,2.32,3.88,2.32-.08,4.9-.7,4.2-4.36-.69-3.61-.95-7.3-1.44-11.27-1.72.09-3.21.17-5.19.28Zm20.71,35.18c0,4.15-.14,8.22.09,12.26.06,1.09,1.24,2.12,1.9,3.17.9-1.05,2.44-2.02,2.59-3.17.38-2.94-.01-5.97.2-8.94.23-3.18-.87-4.46-4.78-3.32Z"/>
      <path class="cls-18" d="m89.78,1691.86c.28.03.55.11.81.24.01,21.34.02,42.68.03,64.02-2.79,2.69-5.66,5.31-8.36,8.09-5.71,5.87-11.34,11.81-16.98,17.73-.73.76-1.34,1.64-2.24,2.76,1.36,1.28,2.53,2.39,4.2,3.97.5-2.05.81-3.33.82-3.4,3.28-1.74,5.69-3.03,8.1-4.31-.53-1.37-.94-2.42-.84-2.18,2.12-1.28,3.92-1.86,4.94-3.1,2.4-2.91,4.32-6.21,6.64-9.19.89-1.14,2.32-1.85,3.51-2.75.36,4.98.71,9.95,1.07,14.93-7.09,4.09-14.14,8.24-21.27,12.24-8.87,4.98-17.79,9.87-26.72,14.75-1.2.66-2.57,1.02-3.86,1.52-.01-24.69-.12-49.38.04-74.07.04-6.36,2.64-11.79,8.26-15.37,1.88-1.2,3.78-2.38,5.96-3.75-1.95-1.43-3.35-2.46-4.64-3.41-2.93,2.64-5.75,5.17-9.64,8.68v-16.79c8.01-1.62,16.03-3.19,24.03-4.88,8.72-1.85,17.43-3.81,26.14-5.72Zm-8.31,25.88c-2.63.78-5.78.9-7.46,2.54-.95.93.51,4.33.9,6.69q7.65-2.09,6.55-9.22Zm-6.46,43.81c7.4-1.11,7.9-1.75,6.27-8.53-2.56.46-5.14.93-7.89,1.43.64,2.78,1.09,4.73,1.63,7.1Zm-30.33-3.27v9.86c5.81-.57,6.48-2.11,4.6-9.86h-4.6Zm15.19-28.03c4.88-2.37,5.36-3.78,3.5-9.61-5.58,1.49-6.41,3.66-3.5,9.61Zm4.21,25.39c-4.6-1.02-5.79,1.42-5.5,4.77.13,1.43,1.81,4.04,2.28,3.93,4.94-1.15,2.94-5.14,3.22-8.7Zm-14.62-31.23h-4.81v9.06c7.13-.44,3.41-5.67,4.81-9.06Z"/>
      <path class="cls-18" d="m14.27,1294.32c-.69-.32-1.38-.64-2.07-.97-.56-.02-1.13-.03-1.69-.05-.04-13.29-.2-26.59-.08-39.88.07-8.41.56-16.82.86-25.23.57,0,1.48.24,1.66-.02,1.65-2.34,2.7-5.33,4.81-7.07,5.8-4.79,12.01-9.07,18.07-13.55,8.49-1.62,16.98-3.24,25.47-4.86.32,3.47.64,6.95.97,10.42-.31,1.63-.87,3.26-.88,4.89-.08,10.97-.14,21.95,0,32.92.06,4.45.39,8.68-4.73,10.9-1.13.49-1.78,2.11-2.64,3.21-1.92-6.63-5.62-.54-8.33-1.64-.89,7.63-.29,8.19,6.17,6.28,1.32.64,2.63,1.29,4.28,2.09.33-1.72.55-2.86.72-3.78,1.5.21,2.79.39,4.47.62v19.09l.08,1.15c-4.15,2.52-8.29,5.04-12.44,7.56-11.57-.69-23.14-1.38-34.71-2.07Zm3.73-27.36c-.31.11-.63.23-.94.34-.24,2.74-.49,5.48-.73,8.21-.2.24-.21.48-.02.72.54.47,1.07.93,1.61,1.4.31-.06.62-.12.93-.19.65-.36,1.29-.72,1.94-1.08.29-.35.57-.69.86-1.04,0-2.15,0-4.31,0-6.46-.11-.33-.21-.66-.32-.99-1.11-.31-2.21-.62-3.32-.93Zm26.56-38.32c.92,2.61,1.13,5.44,2.64,6.69.94.77,4.66-.26,5.68-1.59,1.02-1.33.22-4.04.22-6.25-2.96.4-5.06.68-8.54,1.14Zm-23.61,4.07c-2.21.29-3.52.46-4.47.58v9.78c6.89-1.54,3.35-6.34,4.47-10.36Zm9.17,41.92c6.5-1.72,4.63-5.82,4.44-9.72-6.65,1.04-3.68,5.73-4.44,9.72Zm4.53-44.15c-5.12.89-6.02,3.58-3.3,9.49,4.72-1.96,3.65-5.79,3.3-9.49Z"/>
      <path class="cls-4" d="m15.08,1551.24c9.38.89,18.75,1.89,28.14,2.61,4.51.35,9.08-.04,13.6.23,9.13.54,18.27,1.16,27.37,2.13,1.58.17,2.94,2.27,4.41,3.48,5.46,6.51,10.96,12.98,16.36,19.54,2.6,3.15,5.01,6.46,7.51,9.7-.69.1-1.38.2-2.07.29-.63.21-1.27.43-1.9.64-9.7,1.62-19.41,3.16-29.09,4.89-12.97,2.32-25.91,4.78-38.87,7.18-3.54-3.35-7.08-6.7-10.61-10.06-4.31-5.11-8.61-10.22-12.92-15.33,1.16-2.66,2.66-7.71,3.43-7.6,5.51.77,5.38-4.71,6.14-4.47-1.28-1.5-2.56-3.01-3.28-3.85-2.82,2.21-7.41,5.81-12,9.41-5.4-6.3-10.76-12.63-16.26-18.84-.82-.93-2.33-1.25-3.52-1.86,0-6.06.01-12.12.02-18.17.67-.04,1.35-.08,2.02-.11.64.05,1.29.1,1.93.15.5.05,1,.11,1.51.16v18.6c3.16.39,5.9.73,8.65,1.07,2.47.07,4.95.14,7.42.21.67,0,1.35-.02,2.02-.03Z"/>
      <path class="cls-7" d="m61.29,1202.69c-8.49,1.62-16.98,3.24-25.47,4.86-1.53.08-3.08.03-4.58.28-6.96,1.13-13.9,2.34-20.85,3.53-.36-.02-.71-.04-1.07-.06-9.58-11.68-19.15-23.37-28.74-35.04-.39-.47-.96-.79-1.45-1.18,2.71.07,5.43.08,8.14.23,17.81.97,35.61,1.93,53.42,3,1.29.08,2.93.61,3.72,1.53,6.13,7.11,12.09,14.36,18.1,21.56-.41.43-.81.86-1.22,1.29Z"/>
      <path class="cls-4" d="m14.27,1294.32c11.57.69,23.14,1.38,34.71,2.07,1.46.25,2.92.6,4.39.71,4.91.37,9.95.14,14.7,1.19,2.21.49,4.02,3.27,5.76,5.24,3.85,4.39,7.54,8.92,11.29,13.39-7.44,1.59-14.87,3.23-22.32,4.76-6.31,1.3-12.64,2.55-18.99,3.62-1.34.22-3.43.07-4.16-.78-8.57-9.97-16.94-20.11-25.36-30.2Z"/>
      <path class="cls-9" d="m88.55,1446.36c-.02-1.01-.04-2.03-.06-3.04-.61-1.2-1.11-2.48-1.85-3.59-1.46-2.2-3.05-4.32-4.58-6.47.03-.71.07-1.43.1-2.14,1.78-.25,3.64-.24,5.31-.81,3.03-1.03,3.17-5.47.35-7.73-2.03-.51-4.07-1.03-6.86-1.74,5.13-3.07,9.79-5.71,14.27-8.63.99-.65,1.33-2.3,1.95-3.5.53-1.01,1.02-2.04,1.52-3.07.15,6.61.31,13.22.47,19.82-.03,19.47-.06,38.95-.09,58.42-2.83,1.43-5.66,2.86-8.49,4.29-.2-7.61-.4-15.22-.6-22.83-.11-.66-.21-1.33-.32-1.99l.15.06c.46-.33.91-.65,1.37-.98-.45-.32-.9-.65-1.35-.97-.43-5.03-.86-10.07-1.29-15.1Z"/>
      <path class="cls-20" d="m39.62,1702.47v16.79c3.89-3.5,6.71-6.04,9.64-8.68,1.29.95,2.69,1.97,4.64,3.41-2.18,1.37-4.08,2.55-5.96,3.75-5.62,3.58-8.22,9.01-8.26,15.37-.16,24.69-.05,49.38-.04,74.07-.37.37-.74.74-1.11,1.11.12-.15.16-.32.12-.51-7.56-.25-15.12-.5-22.67-.75,5.58-.28,11.16-.86,16.73-.75,3.84.07,5.12-.96,5.08-4.97-.18-22.32-.08-44.64-.09-66.96,0-.99-.13-1.98-.28-4.19-5.46,5.06-10.07,9.34-14.98,13.89-3.34-1.46-3.17-4.16-.55-7.32h4.24c.16-2.14.28-3.64.39-5.15.88-.45,1.95-.73,2.62-1.4,1.84-1.85,3.67-3.75,5.2-5.85,1.33-1.82,3.05-3.87,3.21-5.92.44-5.63.14-11.31.13-16.97.64.34,1.29.68,1.93,1.03Z"/>
      <path class="cls-12" d="m98.71,1405.63c-.51,1.02-1,2.05-1.53,3.07-.62,1.2-.96,2.85-1.95,3.5-4.47,2.93-9.13,5.57-14.27,8.63,2.79.71,4.83,1.22,6.86,1.74-2.27,1-4.54,2.01-6.81,3.01-.45-.63-.78-1.42-1.37-1.86-4.33-3.17-3.18-5.86.35-8.86,4.35-3.69,8.46-7.65,12.57-11.6,1.36-1.31,4.17-2.66.87-4.92.95-.38,1.91-.76,2.86-1.15.97,0,1.95.02,2.92.02.27-.03.53,0,.79.06.04.62.08,1.25.12,1.87,0,0-.33,0-.33,0-.36,2.16-.72,4.32-1.09,6.48Z"/>
      <path class="cls-16" d="m90.62,1756.12c-.01-21.34-.02-42.68-.03-64.02.38,1.54,1.05,3.07,1.1,4.61.23,8.17.31,16.34.44,24.51,0,.3.01.6.02.9-.02,11.62-.03,23.23-.05,34.85-.24-.07-.48-.07-.72.02-.25-.29-.51-.59-.76-.88Z"/>
      <path class="cls-16" d="m61.29,1202.69c.4-.43.81-.86,1.22-1.29.31.83.62,1.65.93,2.47,0,3.32,0,6.64.01,9.96.02,3.59.04,7.17.05,10.75,0,1.45,0,2.9,0,4.36.09,17.44.17,34.88.25,52.32,0,0-.18.3-.18.3l.21.28c-1.04,2.24,1.7,5.78-2.39,6.97-.03-.38-.05-.76-.08-1.15.32-1.62.9-3.25.91-4.87.05-23.23.02-46.47.01-69.7-.32-3.47-.64-6.95-.97-10.42Z"/>
      <path class="cls-16" d="m87.72,1488.87c.02-8.19.04-16.37.05-24.56,0,0,.47-.01.47-.01,0,0,.47,0,.47,0,.08,8.2.16,16.4.25,24.6-.05,5.94-.11,11.88-.16,17.81.14,1.6.27,3.2.41,4.8,0,6.61,0,13.22.01,19.83-.47,0-.95,0-1.42,0-.02-14.16-.04-28.31-.07-42.47Z"/>
      <path class="cls-12" d="m99.08,1483.89c.03-19.47.06-38.95.09-58.42.24.07.49.1.74.09.09,10.08.19,20.17.28,30.25,0,9.12,0,18.24,0,27.37-.37.24-.74.48-1.12.72Z"/>
      <path class="cls-11" d="m113.42,1647.5c-.37-1.12-1.04-2.24-1.05-3.36-.07-16.76-.06-33.51,0-50.27,0-1.01.56-2.01.86-3.01.04,5.01.09,10.02.13,15.03.02,5.41.04,10.83.05,16.24,0,8.46,0,16.91,0,25.37Z"/>
      <path class="cls-3" d="m-1.69,1808.26c-.32-.08-.64-.15-.96-.23.19-.62.39-1.25.58-1.87,0-.63,0-1.26,0-1.89.14-.29.15-.59.03-.89.18-1.53.36-3.07.54-4.6.35,2.39.69,4.77,1.07,7.41,3,0,5.67-.22,8.29.05,3.66.37,4.51-1.22,4.43-4.6-.1-3.82.47-7.66.75-11.49.15,5.04.3,10.08.45,15.12-.17.9-.34,1.8-.51,2.69-4.89.1-9.79.2-14.68.29Z"/>
      <path class="cls-6" d="m100.19,1455.8c-.09-10.08-.19-20.17-.28-30.25.14-7.55.28-15.1.41-22.65.22,1.36.64,2.71.65,4.07.03,16.29,0,32.58,0,48.86-.26-.03-.51-.04-.77-.03Z"/>
      <path class="cls-21" d="m91.38,1757c.24-.09.47-.1.72-.02.13,6.81.29,13.62.36,20.42,0,.42-.63.84-.96,1.27-.36-4.98-.71-9.95-1.07-14.93.32-2.25.64-4.49.96-6.74Z"/>
      <path class="cls-11" d="m100.32,1402.9c-.14,7.55-.28,15.1-.41,22.65-.25.01-.5-.02-.74-.09-.16-6.61-.31-13.22-.47-19.83.37-2.16.73-4.32,1.09-6.48.18,1.25.35,2.5.53,3.75Z"/>
      <path class="cls-10" d="m100.19,1455.8c.26,0,.51,0,.77.03.01,7.47.07,14.95,0,22.42-.02,1.64-.5,3.28-.76,4.91,0-9.12,0-18.25,0-27.37Z"/>
      <path class="cls-22" d="m88.95,1488.91c-.08-8.2-.16-16.4-.25-24.6.32-.32.64-.64.95-.96.11.66.21,1.33.32,1.99.04,7.69.07,15.38.11,23.08-.38.16-.76.32-1.14.48Z"/>
      <path class="cls-12" d="m90.09,1488.42c-.04-7.69-.08-15.39-.11-23.08.2,7.61.4,15.22.6,22.83-.12.18-.28.26-.49.25Z"/>
      <path class="cls-14" d="m86.92,1382.99c2.2,2.52,4.4,5.04,6.6,7.56-.12.12-.23.23-.35.35-2.2-2.53-4.4-5.06-6.6-7.58,0,0,.34-.32.34-.32Z"/>
      <path class="cls-14" d="m99.22,1397.22c-.97,0-1.95-.02-2.92-.02-1.04-2.1-2.08-4.2-3.12-6.29.12-.12.23-.23.35-.35,1.9,2.22,3.79,4.44,5.69,6.67Z"/>
      <path class="cls-10" d="m113.41,1622.13c-.02-5.41-.04-10.83-.05-16.24.02,5.41.04,10.83.05,16.24Z"/>
      <path class="cls-10" d="m63.44,1213.83c0-3.32,0-6.64-.01-9.96,0,3.32,0,6.64.01,9.96Z"/>
      <path class="cls-21" d="m89.19,1511.52c-.14-1.6-.27-3.2-.41-4.8.14,1.6.27,3.2.41,4.8Z"/>
      <path class="cls-10" d="m63.5,1228.94c0-1.45,0-2.91,0-4.36,0,1.45,0,2.91,0,4.36Z"/>
      <path class="cls-14" d="m84.91,1380.43c.3-.12.6-.15.91-.09.29.35.58.7.87,1.05.07.53.15,1.07.22,1.6,0,0-.34.32-.34.32-.55-.96-1.11-1.92-1.67-2.89Z"/>
      <path class="cls-10" d="m86.69,1381.39c-.29-.35-.58-.7-.87-1.05.29-.36.59-.72.88-1.07,0,.71,0,1.42-.01,2.13Z"/>
      <path class="cls-6" d="m100.13,1399.15c-.04-.62-.08-1.25-.12-1.87.04.63.08,1.25.12,1.87Z"/>
      <path class="cls-10" d="m113.34,1590.9c0-.35-.01-.69-.02-1.04.11.24.26.48.32.73.02.07-.2.2-.3.31Z"/>
      <polygon class="cls-10" points="63.8 1281.85 63.58 1281.57 63.76 1281.27 64.03 1281.54 63.8 1281.85"/>
      <path class="cls-22" d="m92.15,1722.13c0-.3-.02-.6-.02-.9.23-.02.46-.02.7.01-.22.3-.45.59-.67.89Z"/>
      <path class="cls-10" d="m86.07,1318.06c-.08-.34-.16-.68-.25-1.01.08.34.16.68.25,1.01Z"/>
      <path class="cls-4" d="m39.62,1702.47c-.64-.34-1.29-.68-1.93-1.03-1.87-2.26-3.69-4.55-5.6-6.77-6.23-7.24-12.49-14.46-18.74-21.68-.37-.64-.74-1.27-1.12-1.91-.3-.3-.61-.61-.91-.91-.99-1.5-1.99-3-2.98-4.5,2.01-.06,4.04-.29,6.04-.16,7.8.51,15.59,1.13,23.38,1.71.6,0,1.19-.01,1.79-.02,10.02.67,20.06,1.09,30.03,2.19,2.13.23,3.99,2.89,5.98,4.43.65.97,1.29,1.94,1.94,2.91,0,0-.05-.04-.05-.04.32.34.64.68.96,1.02,0,0-.03-.03-.03-.03.02,3.83,2.41,5.62,5.71,6.62,0,0-.04-.04-.04-.04.33.33.66.66,1,.99,0,0-.04-.04-.04-.04.69.63,1.38,1.25,2.07,1.88.91,1.59,1.81,3.18,2.72,4.77-8.71,1.91-17.41,3.88-26.14,5.72-8,1.69-16.02,3.26-24.03,4.88Z"/>
      <path class="cls-19" d="m89.65,1638.09c-.67-3.12-1.64-5.95-1.7-8.79-.02-1.15,1.78-3,3.07-3.36,2.43-.67,5.09-.49,7.84-.67.43,2.65.9,5.51,1.4,8.58-3.48,1.39-6.71,2.68-10.61,4.25Z"/>
      <path class="cls-19" d="m98.63,1673.97q1.88,9.56-8.79,12.93c-.68-2.99-1.6-5.93-1.86-8.93-.08-.94,1.46-2.65,2.55-2.95,2.49-.68,5.16-.71,8.1-1.05Z"/>
      <path class="cls-19" d="m47.31,1646.67v-14.01h6c1.03,13.01,1.24,12.98-6,14.01Z"/>
      <path class="cls-19" d="m67.49,1642.65c-.51-3.18-1.14-6.03-1.39-8.91-.47-5.4,4.44-3.56,6.87-5.33,1.94,9.33,1.52,10.42-5.48,14.24Z"/>
      <path class="cls-10" d="m39.55,1667.2c-.6,0-1.19.01-1.79.02,0-21.7-.02-43.4-.03-65.1.31.08.6.18.89.3.01,19.12-.01,38.25.07,57.37.01,2.47.56,4.94.85,7.41Z"/>
      <path class="cls-19" d="m38.62,1602.41c-.29-.13-.59-.23-.89-.3-2.61-3.4-5.21-6.8-7.82-10.21,3.54,3.35,7.08,6.7,10.61,10.06-.63.15-1.27.3-1.9.45Z"/>
      <path class="cls-19" d="m84.08,1684.3c-3.3-1-5.69-2.79-5.71-6.62,1.9,2.21,3.81,4.41,5.71,6.62Z"/>
      <path class="cls-19" d="m77.49,1676.73c-.65-.97-1.29-1.94-1.94-2.91.65.97,1.29,1.94,1.94,2.91Z"/>
      <path class="cls-19" d="m87.07,1687.09c-.69-.63-1.38-1.25-2.07-1.88.69.63,1.38,1.25,2.07,1.88Z"/>
      <path class="cls-11" d="m108.49,1589.88c.63-.21,1.27-.43,1.9-.64-.64.21-1.27.43-1.9.64Z"/>
      <path class="cls-19" d="m85.03,1685.25c-.33-.33-.66-.66-1-.99.33.33.66.66,1,.99Z"/>
      <path class="cls-19" d="m78.4,1677.71c-.32-.34-.64-.68-.96-1.02.32.34.64.68.96,1.02Z"/>
      <path class="cls-24" d="m82.06,1433.25c1.53,2.15,3.12,4.27,4.58,6.47.74,1.12,1.24,2.39,1.85,3.59-4.56.42-9.15.62-13.66,1.33-8.83,1.37-17.62,2.99-26.4,4.62-1.14.21-2.15,1.1-3.22,1.67-.62.09-1.23.18-1.85.28-7.98,1.27-16.01,2.26-23.9,3.92-3.73.78-6.22.94-8.71-2.69-3.12-4.54-7.17-8.45-10.81-12.63l-.05-.06c-.29-.31-.58-.63-.87-.94-.27-.33-.54-.65-.82-.98-.35-.33-.7-.65-1.05-.98l.05.03c-1.19-1.33-2.38-2.66-3.57-3.99l-.28.15s.27-.17.27-.17c-1.07-1.74-2.14-3.49-3.2-5.23,2.22-3.98,2.98-9.13,8.63-10.37.75-.16,1.64-1.61,1.73-2.53.25-2.66.13-5.35.15-8.03,2.6-.05,5.19-.1,7.79-.15.54.02,1.07.04,1.61.06,3.52.32,7.04.65,10.56.97,10.13.35,20.27.66,30.4,1.05,6.1.24,11.07,2.1,15.08,7.44,4.63,6.18,10.44,11.49,15.74,17.17Z"/>
      <path class="cls-17" d="m43.36,1451.21c.62-.09,1.23-.18,1.85-.28.59,1.66,1.18,3.33,1.98,5.58-4.64,4.3-10.45,8.47-14.26,14.72-1.24,2.04-3.81,3.27-6.37,5.35.33,1.88-3.84,5.51-7.14,5.39-2.08,2.33-3.69,4.14-5.3,5.94-.32,0-.65,0-.97,0-.31-4.09-.62-8.18-.93-12.27,1.38.64,2.75,1.27,4.67,2.16,6.48-6.19,13.6-12.88,20.58-19.71,2.15-2.1,3.93-4.58,5.89-6.89Z"/>
      <path class="cls-17" d="m87.72,1488.87c.02,14.16.04,28.31.07,42.47-.03.15-.02.42-.09.44-.27.08-.57.08-.86.11,0-4.4,0-8.8,0-13.2,0-2.99.2-5.99-.08-8.95-.15-1.63-1.12-3.18-2.05-5.64-5.36,6-6.79,14.33-15.17,15.85-.24.71-.32,2.43-.97,2.68-5.9,2.26-.77,3.5.38,5.09-1.81.46-3.61.92-5.5,1.4-.13,1.44-.25,2.78-.37,4.12-1.83-2.23-3.67-4.45-5.41-6.57,7.99-8.21,15.74-16.39,23.75-24.32,3.02-2.99,6.17-5.6,5.49-10.48-.13-.95.53-2,.83-3.01Z"/>
      <path class="cls-5" d="m64.67,1491.38c-.59-2.99-1.09-5.09-1.38-7.22-.18-1.36-.03-2.76-.03-4.08q12.88-2.52,11.91,7.78c-3.29,1.1-6.73,2.25-10.49,3.51Z"/>
      <path class="cls-5" d="m63.06,1533.24c.12-1.34.24-2.68.37-4.12,1.89-.48,3.69-.94,5.5-1.4,2.01,0,4.01,0,6.29,0v8.81c-.36.16-.88.42-1.41.63q-7.77,3.11-10.75-3.92Z"/>
      <path class="cls-4" d="m22.96,1535.37h5.71c1.94,10.9,1.29,12.51-5.71,13.78v-13.78Z"/>
      <path class="cls-4" d="m28.94,1486.43q1.07,12.21-5.91,13.66v-13.66h5.91Z"/>
      <path class="cls-5" d="m43.04,1495.2c-2.7-11.44-2.22-12.57,5.5-12.73,1.91,9.38.9,11.73-5.5,12.73Z"/>
      <path class="cls-5" d="m48.66,1531.51c1.38,9.96.67,11.55-5.53,12.74-2.6-11.11-2.1-12.32,5.53-12.74Z"/>
      <path class="cls-21" d="m15.08,1551.24c-.67,0-1.35.02-2.02.03,0-1.32.02-2.64.03-3.96,0-11.28,0-22.56,0-33.84.05-.29.1-.59.13-.88.28-.02.56-.03.83-.04.34,12.9.68,25.8,1.03,38.69Z"/>
      <path class="cls-20" d="m89.66,1463.35c-.32.32-.64.64-.95.96,0,0-.47,0-.47,0,0,0-.47.01-.47.01-.31-4.75-.76-9.5-.85-14.25-.02-1.23,1.05-2.47,1.62-3.71.43,5.03.86,10.07,1.29,15.1,0,.65-.01,1.3-.02,1.96l-.15-.06Z"/>
      <path class="cls-16" d="m14.05,1512.55c-.28.01-.56.03-.83.04-.02-8.23-.05-16.45-.07-24.68.32,0,.65,0,.97,0-.02,8.21-.05,16.42-.07,24.64Z"/>
      <path class="cls-8" d="m-12.47,1403.73c.09-.57.17-1.14.26-1.71,4.05-5.39,8.09-10.78,12.14-16.17l-.06.06c2.83-3.62,5.4-7.49,8.57-10.78,2.08-2.15,5.02-3.46,7.58-5.15,2.17,2.53,4.34,5.07,6.5,7.6,6.86,8.23,13.67,16.51,20.62,24.66,1.37,1.61,3.26,2.77,4.92,4.15,5.98-1.19,11.96-2.39,17.94-3.58.95-.14,1.91-.28,2.86-.42,3.25-.72,6.5-1.43,9.74-2.15.54-.05,1.08-.09,1.62-.14,2.51-.35,5.01-.71,7.52-1.06,1.9-.23,3.79-.46,5.69-.7,3.3,2.26.49,3.6-.87,4.92-4.11,3.95-8.22,7.92-12.57,11.6-3.54,3-4.68,5.69-.35,8.86.59.43.92,1.23,1.37,1.86.38,1.84.77,3.69,1.15,5.53-.03.71-.07,1.43-.1,2.14-5.3-5.69-11.1-10.99-15.74-17.17-4-5.35-8.97-7.21-15.08-7.44-10.13-.39-20.27-.71-30.4-1.05-1.06-.28-2.13-.56-3.19-.83-.83-.01-1.66-.03-2.49-.04-1.62-.03-3.25-.07-4.87-.1-.54-.02-1.07-.04-1.61-.06-3.17-.42-6.33-.85-9.5-1.27-3.88-.52-7.77-1.03-11.65-1.55Z"/>
      <path class="cls-13" d="m80.23,1400.1c-.54.05-1.08.09-1.62.14-3.25.72-6.5,1.43-9.74,2.15-.95.14-1.91.28-2.86.43-.7-.27-1.43-.85-2.08-.77-4.76.56-9.52,1.16-14.24,1.99-.66.12-1.09,1.54-1.62,2.37-1.65-1.37-3.55-2.54-4.92-4.15-6.95-8.16-13.76-16.43-20.62-24.67-.58-1.83-1.17-3.65-1.76-5.51h11.6c1.14,2.56,1.99,4.47,3.13,7.02,3.72-4.47,7.42-5.69,11.93-5.55,4.3.13,8.61-.41,12.92-.66.33-.07.67-.15,1-.22,0,0,.46.03.46.03h.46s.02,0,.02,0c.66.29,1.33.59,1.99.88.59.06,1.19.12,1.78.17.86.57,1.7,1.6,2.57,1.62,3.94.12,7.89-.05,11.83-.12l-.16.23s.18-.21.18-.21c1.05,1.36,2.11,2.71,3.17,4.07.42.36.84.72,1.27,1.08.56.96,1.11,1.92,1.67,2.89,2.2,2.53,4.4,5.06,6.59,7.58,1.04,2.1,2.08,4.2,3.12,6.3-.95.38-1.91.76-2.86,1.15-1.9.23-3.79.46-5.69.7-2.67-.83-5.47-2.51-7.52,1.06Z"/>
      <path class="cls-15" d="m60.34,1372.89c-4.31.25-8.63.79-12.92.66-4.51-.14-8.21,1.09-11.93,5.55-1.14-2.55-1.99-4.47-3.13-7.02h-11.6c.59,1.85,1.18,3.68,1.76,5.51-2.17-2.53-4.34-5.07-6.51-7.6,11.95.87,23.91,1.75,35.86,2.59,2.81.2,5.64.22,8.46.32Z"/>
      <path class="cls-21" d="m9.31,1211.3c.36.02.71.04,1.07.06.3,5.61.6,11.22.9,16.84-.3,8.41-.79,16.82-.86,25.23-.12,13.29.04,26.59.08,39.88.22.33.45.65.67.98-.47.47-.94.94-1.42,1.41-.13-2.19-.35-4.38-.36-6.57-.09-21.2-.15-42.41-.21-63.61-.02-.72-.03-1.44-.05-2.16.1-.23.11-.47.03-.7.05-3.78.1-7.56.15-11.34Z"/>
      <path class="cls-16" d="m9.18,1225.51c.07,21.2.12,42.41.21,63.61,0,2.19.23,4.38.36,6.57-.4.57-.81,1.13-1.21,1.69-.03-22.93-.07-45.85-.06-68.78,0-1.03.46-2.06.7-3.09Z"/>
      <path class="cls-19" d="m8.67,1341.96q3.02-.31,5.29,12.57h-5.29v-12.57Z"/>
      <path class="cls-19" d="m-.07,1385.84c-3.34.54-5.04-.54-4.75-4.26.25-3.11.05-6.26.05-9.59,3.74.28,5.15,1.95,4.81,5.44-.27,2.8-.14,5.65-.18,8.47,0,0,.06-.06.06-.06Z"/>
      <path class="cls-19" d="m-4.62,1355.99v-14.85c2.11,2.05,4.44,3.33,4.36,4.43-.26,3.57,2.5,8.65-4.36,10.42Z"/>
      <path class="cls-19" d="m25.93,1342.62h3.31c0,3.65.16,7.16-.1,10.63-.08.99-1.4,1.87-3.21,2.36v-12.99Z"/>
      <path class="cls-19" d="m71.43,1347.33c-.3-2.12-.57-4.13-.87-6.21,2.2-.6,4.06-1.1,5.9-1.6q2.11,5.54-5.03,7.82Z"/>
      <path class="cls-19" d="m50.1,1344.71c-.6,3.39,1.79,7.9-4.52,8.11v-8.11h4.52Z"/>
      <path class="cls-14" d="m80.45,1375.26c-3.94.07-7.89.23-11.83.12-.87-.03-1.72-1.06-2.57-1.62,1.47-.33,3.11-.35,4.37-1.05,4.25-2.35,7.43-1.19,10.03,2.56Z"/>
      <path class="cls-19" d="m58.51,1349.96c-1.67-4.03-1.93-7.14,3.36-8.43.67,3.41,1.68,6.72-3.36,8.43Z"/>
      <path class="cls-14" d="m83.65,1379.35c-1.06-1.36-2.11-2.71-3.17-4.07,1.06,1.36,2.11,2.71,3.17,4.07Z"/>
      <path class="cls-16" d="m6.55,1299.96c.54-.62,1.08-1.25,1.62-1.87-.54.62-1.08,1.25-1.62,1.87Z"/>
      <path class="cls-20" d="m11.17,1294.28c-.23-.33-.45-.65-.67-.98.57.02,1.13.03,1.69.05-.34.31-.68.62-1.02.93Z"/>
      <path class="cls-15" d="m64.27,1373.58c-.66-.29-1.33-.59-1.99-.88.66.29,1.33.59,1.99.88Z"/>
      <path class="cls-15" d="m62.27,1372.68h-.46s-.46-.02-.46-.02c.16-.23.32-.45.47-.68.15.23.3.47.45.7Z"/>
      <path class="cls-16" d="m5.69,1301.13c.29-.39.57-.78.86-1.16-.29.39-.57.78-.86,1.16Z"/>
      <path class="cls-16" d="m9.16,1222.64c.08.24.07.47-.03.7-.08-.17-.17-.34-.21-.52,0-.04.16-.12.25-.19Z"/>
      <path class="cls-17" d="m11.32,1670.17c.3.3.61.61.91.91.37.64.74,1.27,1.12,1.91,6.25,7.23,12.51,14.44,18.74,21.68,1.91,2.22,3.74,4.51,5.6,6.77,0,5.66.3,11.34-.13,16.97-.16,2.05-1.88,4.1-3.21,5.92-1.54,2.1-3.36,4-5.2,5.85-.67.67-1.73.94-2.62,1.4,0-3.57,0-7.13,0-10.5-3.82-1.49-4.87-.21-4.76,2.94.15,4.23.09,8.47.13,12.71-2.62,3.16-2.78,5.86.55,7.32,4.91-4.55,9.51-8.82,14.98-13.89.15,2.22.28,3.21.28,4.19,0,22.32-.09,44.64.09,66.96.03,4.01-1.24,5.04-5.08,4.97-5.57-.11-11.15.47-16.73.75-.83-.59-1.66-1.17-2.48-1.76-.15-5.04-.3-10.08-.45-15.12.14-.65.27-1.31.41-1.96,0-1.23,0-2.46,0-3.68-.73-.25-1.47-.51-2.2-.76-3.76,0-7.52,0-11.28,0-.61.77-1.72,1.53-1.75,2.33-.09,3.19.15,6.38.27,9.58,0,1.04,0,2.08,0,3.12-.18,1.53-.36,3.07-.54,4.6-.11.08-.33.19-.31.24.06.22.19.43.29.64,0,.63,0,1.26,0,1.89-4.84,0-9.68-.14-14.51.08-3.21.15-4.43-.85-4.34-4.2.09-3.32-.53-6.67-.84-10,0-.62,0-1.25,0-1.87,1.59-2.44,3.02-6.73,4.82-6.89,2.98-.27,4.04-1.48,4.43-3.57.46-2.47.19-5.08.24-7.63,1.23-.51,2.45-1.03,3.71-1.56,0-3.87.21-7.49-.12-11.06-.11-1.13-1.68-2.12-2.58-3.17-.67,1.04-1.86,2.06-1.92,3.14-.23,3.9-.07,7.83-.06,11.74.12,5.03-4.52,6.01-7.24,8.55-.43-.63-.86-1.25-1.28-1.87-.29-.95-.59-1.89-.88-2.84-.29-.08-.55-.2-.8-.37-.1-.52-.21-1.04-.31-1.56-.01-7.83-.03-15.66-.04-23.48,0,0,.39-.11.39-.11-.04-2.52-.08-5.03-.12-7.55.07-2.53.14-5.06.21-7.59-.05-.61-.09-1.22-.14-1.82-.11-6.35-.22-12.69-.34-19.04-.17-6.83-.66-13.77,6.57-17.88.47-.73.94-1.46,1.41-2.19,0,0,.26-.29.26-.29,1.45-.52,2.97-.89,4.33-1.59,7.74-3.95,7.89-15.72,17.89-17.4.22-.04.33-.53.56-.72,1.36-1.1,2.74-2.18,4.11-3.26Zm-4.04,64.22c0-.63,0-1.27,0-1.9-.23-1.26-.47-2.52-.7-3.79-.1-2.49-.19-4.98-.29-7.47-1.59-.39-3.19-.77-5.37-1.3,0,5.08-.15,9.25.09,13.41.07,1.28,1.2,2.5,1.84,3.74,1.48-.9,2.96-1.79,4.44-2.69Zm.07,35.93c-.28-4.01-.75-8.01-.77-12.02-.02-2.97-1.33-3.5-3.8-2.87-.46.06-1.32.11-1.32.17-.06,5.08-.06,10.16,0,15.24,0,.05.86.1,1.31.15,1.26.04,2.51.08,3.77.12.26-.26.53-.52.79-.78Zm19.02.68c0-4.39.18-8.44-.11-12.46-.08-1.14-1.52-2.18-2.34-3.27-.77,1.14-2.09,2.24-2.19,3.44-.29,3.57-.11,7.19-.08,10.78,0,.44.23.87.41,1.51h4.32Zm-39.65-48.57c0,3.83-.15,7.74.1,11.63.07,1.05,1.34,2.02,2.07,3.03.82-1,2.21-1.92,2.35-3.01.35-2.79.14-5.65.18-8.48.05-3.01-1.5-3.88-4.69-3.17Z"/>
      <path class="cls-20" d="m91.38,1757c-.32,2.25-.64,4.49-.96,6.74-1.19.91-2.63,1.62-3.51,2.75-2.32,2.98-4.24,6.28-6.64,9.19-1.01,1.23-2.82,1.81-4.94,3.1-.1-.25.31.81.84,2.18-2.41,1.28-4.83,2.57-8.1,4.31-.02.06-.33,1.34-.82,3.4-1.67-1.58-2.84-2.68-4.2-3.97.9-1.12,1.51-2,2.24-2.76,5.64-5.93,11.27-11.87,16.98-17.73,2.7-2.78,5.57-5.39,8.36-8.09.25.29.51.59.76.88Z"/>
      <path class="cls-5" d="m81.47,1717.74q1.09,7.13-6.55,9.22c-.39-2.35-1.85-5.76-.9-6.69,1.67-1.63,4.82-1.75,7.46-2.54Z"/>
      <path class="cls-5" d="m75,1761.54c-.54-2.36-.99-4.32-1.63-7.1,2.75-.5,5.34-.97,7.89-1.43,1.63,6.77,1.13,7.41-6.27,8.53Z"/>
      <path class="cls-3" d="m44.67,1758.27h4.6c1.89,7.75,1.21,9.29-4.6,9.86v-9.86Z"/>
      <path class="cls-3" d="m59.87,1730.25c-2.91-5.95-2.08-8.12,3.5-9.61,1.86,5.83,1.39,7.24-3.5,9.61Z"/>
      <path class="cls-3" d="m64.07,1755.64c-.28,3.56,1.72,7.55-3.22,8.7-.47.11-2.15-2.5-2.28-3.93-.29-3.34.9-5.79,5.5-4.77Z"/>
      <path class="cls-3" d="m49.45,1724.4c-1.39,3.39,2.32,8.62-4.81,9.06v-9.06h4.81Z"/>
      <path class="cls-20" d="m11.28,1228.19c-.3-5.61-.6-11.22-.9-16.84,6.95-1.18,13.9-2.4,20.85-3.53,1.5-.24,3.05-.19,4.58-.28-6.05,4.48-12.27,8.76-18.07,13.55-2.11,1.74-3.16,4.73-4.81,7.07-.19.27-1.09.03-1.66.02Z"/>
      <path class="cls-20" d="m62.25,1213.11c0,23.23.04,46.47-.01,69.7,0,1.62-.59,3.25-.91,4.87v-19.09c-1.68-.23-2.98-.41-4.47-.62-.18.92-.39,2.06-.72,3.78-1.65-.81-2.97-1.45-4.28-2.09.72-1.55,1.44-3.09,2.16-4.64.87-1.1,1.51-2.72,2.64-3.21,5.12-2.22,4.79-6.45,4.73-10.9-.15-10.97-.09-21.95,0-32.92.01-1.63.57-3.26.88-4.89Z"/>
      <path class="cls-5" d="m54.01,1265.02c-.72,1.55-1.44,3.09-2.16,4.64-6.46,1.91-7.06,1.35-6.17-6.28,2.71,1.09,6.41-5,8.33,1.64Z"/>
      <path class="cls-5" d="m44.55,1228.64c3.48-.46,5.58-.75,8.54-1.14,0,2.21.79,4.92-.22,6.25-1.02,1.33-4.74,2.36-5.68,1.59-1.52-1.25-1.73-4.09-2.64-6.69Z"/>
      <path class="cls-5" d="m17.91,1277.64c-.54-.47-1.07-.93-1.61-1.4.27-.24.27-.48.02-.73.24-2.74.49-5.48.73-8.21.31-.11.63-.23.95-.35,1.11.31,2.21.62,3.32.93.11.33.22.66.32.99,0,2.15,0,4.31,0,6.46-.29.35-.57.69-.86,1.03-.65.36-1.29.72-1.94,1.08-.31.06-.62.12-.93.19Z"/>
      <path class="cls-3" d="m20.95,1232.71c-1.11,4.02,2.43,8.82-4.47,10.36v-9.78c.95-.12,2.26-.29,4.47-.58Z"/>
      <path class="cls-5" d="m30.11,1274.63c.76-3.98-2.21-8.68,4.44-9.72.19,3.89,2.06,8-4.44,9.72Z"/>
      <path class="cls-5" d="m34.64,1230.48c.35,3.7,1.42,7.53-3.3,9.49-2.72-5.91-1.82-8.6,3.3-9.49Z"/>
      <path class="cls-16" d="m17.91,1277.64c.31-.06.62-.13.93-.19-.31.06-.62.13-.93.19Z"/>
      <path class="cls-16" d="m21.64,1268.88c-.11-.33-.22-.66-.32-.99.11.33.22.66.32.99Z"/>
      <path class="cls-16" d="m18,1266.96c-.32.12-.63.23-.95.35.32-.12.63-.23.95-.35Z"/>
      <path class="cls-16" d="m16.32,1275.51c.26.25.25.49-.02.73-.2-.25-.19-.49.02-.73Z"/>
      <path class="cls-16" d="m20.78,1276.37c.29-.34.57-.69.86-1.03-.29.34-.57.69-.86,1.03Z"/>
      <path class="cls-17" d="m-51.96,1426.72c5.75-6.99,11.69-13.83,17.12-21.05,1.77-2.35,3.1-2.93,5.49-1.65,4.42,5.61,8.84,11.22,13.26,16.83-.42,1.54-.38,3.51-1.34,4.54-3.26,3.51-6.96,6.6-10.32,10.01-3.46,3.52-3.28,4.07.85,6.38,4.92-3.29,6.81-9.44,12.69-11.48,2.6.85,5.2,1.7,7.81,2.56l-.27.17s.28-.15.28-.15c1.19,1.33,2.38,2.66,3.58,3.99,0,0-.05-.03-.05-.03.35.33.7.65,1.05.98.27.33.54.65.82.98.29.31.58.63.88.94,0,0,.05.06.05.06.81,2.08,1.02,4.88,2.52,6.13,8.09,6.75,11.31,15.06,9.52,25.42-.24,1.37.15,2.85.25,4.28.31,4.09.62,8.18.93,12.27.02,8.23.05,16.45.07,24.68-.04.3-.08.59-.13.88-.29,1.48-.81,2.96-.82,4.44-.08,8.32-.08,16.64,0,24.95.01,1.48.54,2.96.82,4.44,0,1.32-.02,2.64-.03,3.96-2.47-.07-4.95-.14-7.42-.21-2.41-.92-4.81-1.84-7.58-2.9,0-2.11.13-4.46-.03-6.78-.23-3.34-.68-6.66-1.03-9.99-.5-.05-1-.11-1.51-.16-.65-.05-1.29-.1-1.93-.16-.67.04-1.35.08-2.02.11-.37.06-.74.12-1.11.19-.03,5.65-.06,11.3-.09,16.95.08.76.16,1.52.24,2.28-.38.5-.75.99-1.13,1.49-.26.35-.53.69-.79,1.04-2.82,3.47-5.63,6.94-8.45,10.41-.33.61-.67,1.22-1,1.84h0c-.3.34-.61.69-.91,1.05l.06-.08c-.32.41-.64.81-.96,1.22-.38.51-.76,1.01-1.14,1.52-5.03.02-10.06-.09-15.08.13-1.27.05-2.5,1.1-3.75,1.69-.3,1.78-.66,3.55-.89,5.34-.35,2.71-.62,5.43-.93,8.15-1.96.27-3.95.89-5.88.75-7.2-.52-14.38-1.3-21.56-1.98-.4-.95-.79-1.91-1.19-2.86-.14-4.08-.27-8.16-.41-12.24.16-5.35.32-10.71.47-16.06.11-.23.22-.46.31-.7.22-.41.63-.81.64-1.22.07-12.96.14-25.92.06-38.88,0-.92-1.21-1.84-1.86-2.75.11-.56.23-1.12.34-1.68.25-5.65.5-11.3.75-16.95,1.35-7.92,9.42-9.78,13.58-15.23-1.43-1.1-2.96-2.27-5.34-4.09-2.22,2.49-4.44,4.98-7.37,8.26,0-2.77.22-4.63-.07-6.41-.24-1.47-1.09-2.84-1.67-4.26-.32-1.29-.65-2.58-.97-3.86.28-1.03.93-2.13.77-3.08-.75-4.47,1.59-7.58,4.15-10.78,3.24-4.06,6.2-8.34,9.29-12.53,2.8-3.7,5.59-7.41,8.39-11.11Zm20.64,109.39c.13-.32.26-.64.39-.96,3.36-7.1,9.26-11.81,16.05-16.15-1.74-1.46-3-2.51-4.91-4.11-4.87,5.27-9.58,10.36-14.28,15.44-2.68-.04-5.29.01-4.81,3.88-3.72,3.6-7.45,7.2-11.39,11.01,1.74,1.88,3.14,3.4,4.39,4.75,2.06-2.43,3.8-4.49,5.6-6.61.55.85.95,1.48,1.35,2.11.05,1.23-.1,2.52.21,3.68.43,1.62,1.22,4.48,1.85,4.48,2.45,0,4.9-.93,7.35-1.51-.6-5.34-1.2-10.67-1.79-16.01Zm25.39-31.62c3.23.71,3.05-1.26,2.67-3.39.17-.29.16-.58-.01-.86.02-5.69.04-11.38.07-17.07l-.63-.7c-1.57,0-3.13.01-4.7.02-.6.32-1.72.62-1.73.95-.12,6.55-.34,13.11-.01,19.65.13,2.56,1.98,3.71,4.34,1.41Zm-23.55-1.49c-.73-6.9-1.47-13.79-2.2-20.69-2.21-.39-4.43-.78-7.07-1.25,0,6.96-.12,12.9.08,18.83.06,1.64,1.12,4.64,1.68,4.63,2.51-.03,5-.94,7.5-1.52Zm-27.97,50.81c.83-.07,1.66-.13,2.49-.2.66-1.22,1.8-2.41,1.9-3.67.27-3.75-.14-7.55.21-11.29.44-4.68-1.81-6.49-6.09-6.86,0,6.2-.08,12.28.07,18.35.03,1.23.93,2.44,1.42,3.67Zm-1.24-49.84c.31.18.62.36.93.53,1.31-.01,2.62-.03,3.93-.04l.65-.48c.08-4.55-.12-9.12.32-13.64.46-4.6-1.21-7.13-5.75-7.8-.14.47-.28.94-.42,1.41.11,6.67.22,13.34.33,20Z"/>
      <path class="cls-7" d="m-19.81,1563.55c2.82-3.47,5.63-6.94,8.45-10.41.26-.35.53-.69.8-1.04.38-.5.75-.99,1.13-1.49.31-.42.63-.83.94-1.25,1.19.6,2.7.93,3.52,1.86,5.5,6.21,10.86,12.55,16.26,18.84,1.9,2.17,3.81,4.34,5.71,6.51,4.31,5.11,8.61,10.22,12.92,15.33,2.61,3.4,5.21,6.8,7.82,10.21,0,21.7.02,43.4.03,65.1-7.79-.58-15.58-1.2-23.38-1.71-2-.13-4.03.1-6.04.16-1.52.44-3.56.4-4.49,1.4-3.78,4.05-7.21,8.42-10.77,12.67-1.88-.83-3.77-1.66-6.09-2.68-.38,4.69-.66,8.17-.94,11.66-.54,1.47-1.09,2.94-1.63,4.42,0,0-.26.29-.25.3-.47.73-.94,1.46-1.41,2.19-7.23,4.11-6.73,11.06-6.57,17.88-.28-.27-.55-.53-.83-.8-1.18-1.26-2.27-3.5-3.57-3.63-6.34-.64-12.73-.71-19.1-.99-.62-.42-1.23-.85-1.85-1.27-.03-3.71-.07-7.43-.1-11.14-.02-22.71-.03-45.41-.05-68.12.14-.27.11-.53-.09-.77.02-.98.03-1.95.05-2.93.03-5.01.06-10.01.09-15.02,0-1.27,0-2.55,0-3.82-.01-.3-.02-.61-.03-.91.15-.27.24-.56.3-.87.18-.38.37-.77.55-1.15,3.9-5.57,7.79-11.15,11.69-16.72,3.74-4.75,7.48-9.5,11.21-14.25.6-.67,1.19-1.34,1.79-2.01.38-.51.76-1.01,1.14-1.52.32-.41.64-.81.96-1.22,0,0-.06.08-.06.08.3-.35.61-.71.91-1.06,0,0,0,.01,0,.01.33-.61.67-1.22,1-1.84Zm35.87,64.77c-.41.43-.83.86-1.24,1.29,0,6.9,0,13.79-.01,20.69,1.81.42,3.62.83,5.91,1.36v-23.12c-1.55-.07-3.1-.14-4.65-.22Zm-50.72,70.11c1.84.61,3.68,1.22,5.52,1.82.26-.17.52-.35.78-.52-.01-4.55-.37-9.14.06-13.65.45-4.74-1.19-7.31-6.37-8.06v19.34c-.07.11-.22.23-.21.33.03.25.14.49.22.74Zm20.43-69.63c0,1.1,0,1.85,0,2.61,0,5.48-.03,10.95,0,16.43.04,5.64,4.39,3.21,6.92,3.31,2.83.11,2.56-1.76,1.93-4.21-.94-3.69-1.12-7.62-1.26-11.46-.25-7.05-.13-7.05-7.61-6.67Zm-19.97.17v21.97h5.69v-19.09c-1.75-.88-3.36-1.7-5.69-2.88Z"/>
      <path class="cls-3" d="m17,1576.57c-1.9-2.17-3.81-4.34-5.71-6.51,4.59-3.6,9.18-7.19,12-9.41.72.84,2,2.35,3.28,3.85-.76-.24-.63,5.23-6.14,4.47-.78-.11-2.27,4.94-3.43,7.6Z"/>
      <path class="cls-16" d="m-3.02,1531.39c.35,3.33.8,6.65,1.03,9.99.16,2.33.03,4.68.03,6.78,2.77,1.06,5.18,1.98,7.58,2.9-2.74-.34-5.49-.68-8.65-1.07v-18.6Z"/>
      <path class="cls-19" d="m82.16,1431.11c-.38-1.84-.77-3.69-1.15-5.53,2.27-1,4.54-2.01,6.81-3.01,2.82,2.26,2.68,6.7-.35,7.73-1.67.57-3.53.56-5.31.81Z"/>
      <path class="cls-12" d="m89.81,1463.41c0-.65.01-1.3.02-1.96.45.32.9.65,1.35.97-.46.33-.91.65-1.37.98Z"/>
      <path class="cls-3" d="m21.89,1736.72c-.03-4.24.02-8.48-.13-12.71-.11-3.15.94-4.43,4.76-2.94,0,3.37,0,6.93,0,10.5-.12,1.5-.23,3.01-.39,5.15h-4.24Z"/>
      <path class="cls-4" d="m-1.5,1798.78c0-1.04,0-2.08,0-3.12.49-3.97.98-7.93,1.48-11.9,3.76,0,7.52,0,11.28,0,.58.56,1.16,1.12,1.74,1.68.16.92.31,1.84.47,2.76-.14.65-.27,1.31-.41,1.96-.28,3.83-.85,7.67-.75,11.49.08,3.38-.76,4.98-4.43,4.6-2.62-.27-5.28-.05-8.29-.05-.38-2.64-.73-5.03-1.07-7.41Z"/>
      <path class="cls-20" d="m-6.92,1679.73c3.56-4.25,7-8.62,10.77-12.67.93-1,2.96-.96,4.49-1.4.99,1.5,1.99,3,2.98,4.5-1.37,1.08-2.75,2.16-4.11,3.26-.23.19-.34.68-.56.72-10,1.68-10.15,13.45-17.89,17.4-1.36.69-2.88,1.07-4.33,1.59.54-1.48,1.08-2.95,1.63-4.42,2.34-2.99,4.69-5.99,7.03-8.98Z"/>
      <path class="cls-20" d="m13.35,1672.99c-.37-.64-.74-1.27-1.12-1.91.37.64.74,1.27,1.12,1.91Z"/>
      <path class="cls-18" d="m12.22,1475.63c-.1-1.43-.48-2.91-.25-4.28,1.79-10.36-1.43-18.67-9.52-25.42-1.5-1.25-1.72-4.05-2.52-6.13,3.65,4.18,7.69,8.09,10.81,12.63,2.49,3.63,4.98,3.48,8.71,2.69,7.89-1.66,15.93-2.65,23.9-3.92-1.95,2.31-3.73,4.78-5.89,6.89-6.98,6.83-14.1,13.52-20.58,19.71-1.92-.89-3.29-1.53-4.67-2.16Z"/>
      <path class="cls-23" d="m.89,1406.7c-.02,2.68.1,5.37-.15,8.03-.09.92-.98,2.36-1.73,2.53-5.65,1.24-6.41,6.39-8.63,10.37-.6-.36-1.19-.73-1.79-1.09-.96-1.52-1.93-3.04-2.89-4.56.65-.22,1.5-.24,1.91-.69,4.46-4.83,8.84-9.73,13.25-14.61l.03.02Z"/>
      <path class="cls-23" d="m-.82,1405.28c3.17.42,6.33.85,9.5,1.27-2.59.05-5.19.1-7.79.15,0,0-.03-.02-.03-.02-.56-.47-1.13-.93-1.69-1.4Z"/>
      <path class="cls-24" d="m10.29,1406.61c1.62.03,3.25.07,4.87.1.83.01,1.66.03,2.5.04,1.06.28,2.13.56,3.19.83-3.52-.33-7.04-.65-10.56-.98Z"/>
      <path class="cls-16" d="m13.08,1547.3c-.29-1.48-.81-2.96-.82-4.44-.08-8.32-.08-16.64,0-24.95.01-1.48.54-2.96.82-4.44,0,11.28,0,22.56,0,33.84Z"/>
      <path class="cls-24" d="m-.82,1405.28c.56.47,1.13.93,1.69,1.4-4.41,4.88-8.79,9.78-13.25,14.61-.41.44-1.26.47-1.91.68-.6-.38-1.2-.76-1.8-1.13-4.42-5.61-8.84-11.22-13.26-16.83,4.01.24,8.01.61,12.03.67,1.61.02,3.23-.62,4.85-.96,3.88.52,7.77,1.03,11.65,1.55Z"/>
      <path class="cls-15" d="m48.06,1406.39c.53-.82.96-2.25,1.62-2.37,4.72-.83,9.48-1.44,14.24-1.99.65-.08,1.39.5,2.08.77-5.98,1.19-11.96,2.39-17.94,3.58Z"/>
      <path class="cls-15" d="m68.86,1402.39c3.25-.72,6.49-1.43,9.74-2.15-3.25.72-6.49,1.43-9.74,2.15Z"/>
      <path class="cls-15" d="m80.23,1400.1c2.05-3.57,4.85-1.89,7.52-1.06-2.51.35-5.01.71-7.52,1.06Z"/>
      <path class="cls-23" d="m17.66,1406.75c-.83-.01-1.66-.03-2.5-.04.83.01,1.66.03,2.5.04Z"/>
      <path class="cls-5" d="m26.38,1771h-4.32c-.18-.64-.4-1.07-.41-1.51-.03-3.6-.21-7.21.08-10.78.1-1.2,1.42-2.29,2.19-3.44.82,1.09,2.26,2.13,2.34,3.27.29,4.02.11,8.07.11,12.46Z"/>
      <path class="cls-5" d="m2.79,1755.42c2.47-.64,3.78-.11,3.8,2.87.02,4.01.49,8.02.77,12.02-.26.26-.53.52-.79.78-1.26-.04-2.51-.08-3.77-.12,0-5.18,0-10.37,0-15.55Z"/>
      <path class="cls-4" d="m7.28,1732.48c0,.63,0,1.27,0,1.9-3.04,1.23-4.82.55-4.48-3.07.27-2.89.53-5.8,1.1-8.63.12-.62,1.55-.98,2.38-1.45.1,2.49.19,4.98.29,7.47.23,1.26.47,2.52.7,3.79Z"/>
      <path class="cls-3" d="m6.29,1721.22c-.83.48-2.26.84-2.38,1.45-.57,2.84-.83,5.74-1.1,8.63-.34,3.62,1.44,4.31,4.48,3.07-1.48.9-2.96,1.79-4.44,2.69-.64-1.25-1.77-2.46-1.84-3.74-.24-4.16-.09-8.33-.09-13.41,2.18.53,3.77.92,5.37,1.3Z"/>
      <path class="cls-3" d="m2.79,1755.42c0,5.18,0,10.37,0,15.55-.46-.05-1.31-.09-1.31-.15-.06-5.08-.07-10.16,0-15.24,0-.06.86-.11,1.32-.17Z"/>
      <path class="cls-3" d="m12.98,1785.43c-.58-.56-1.16-1.12-1.74-1.68.73.25,1.47.51,2.2.76-.16.31-.31.61-.46.92Z"/>
      <path class="cls-16" d="m12.98,1785.43c.15-.31.31-.61.46-.92,0,1.23,0,2.46,0,3.68-.15-.92-.31-1.84-.46-2.76Z"/>
      <path class="cls-3" d="m7.28,1732.48c-.23-1.26-.47-2.52-.7-3.79.23,1.26.47,2.52.7,3.79Z"/>
      <path class="cls-3" d="m6.57,1771.09c.26-.26.53-.52.79-.78-.26.26-.53.52-.79.78Z"/>
      <path class="cls-19" d="m14.82,1629.62c.41-.43.83-.86,1.24-1.29,1.55.07,3.1.14,4.65.22v23.12c-2.29-.53-4.1-.94-5.91-1.36,0-6.9,0-13.79.01-20.69Z"/>
      <path class="cls-11" d="m14.82,1629.62c0,6.9,0,13.79-.01,20.69,0-6.9,0-13.79.01-20.69Z"/>
      <path class="cls-11" d="m20.71,1628.54c-1.55-.07-3.1-.14-4.65-.22,1.55.07,3.1.14,4.65.22Z"/>
    </g>
  </g>
</svg>