<?xml version="1.0" encoding="UTF-8"?>
<svg id="Camada_1" xmlns="http://www.w3.org/2000/svg" xmlns:xlink="http://www.w3.org/1999/xlink" viewBox="0 0 2400 1889.41">
  <defs>
    <style>
      .cls-1 {
        fill: #e8a51b;
      }

      .cls-2 {
        fill: none;
      }

      .cls-3 {
        fill: #9a9b6e;
      }

      .cls-4 {
        fill: #e8c5c9;
      }

      .cls-5 {
        fill: #e89fa8;
      }

      .cls-6 {
        fill: #030212;
      }

      .cls-7 {
        fill: #0f060d;
      }

      .cls-8 {
        fill: url(#Gradiente_sem_nome_44);
        stroke: #1d1d1b;
        stroke-miterlimit: 10;
      }

      .cls-9 {
        fill: #e79fa7;
      }

      .cls-10 {
        fill: #e6a92a;
      }

      .cls-11 {
        fill: #030826;
      }

      .cls-12 {
        fill: #56ac3f;
      }

      .cls-13 {
        fill: #02051a;
      }

      .cls-14 {
        fill: #fcfdfa;
      }

      .cls-15 {
        fill: #085fc8;
      }

      .cls-16 {
        fill: #d81f20;
      }

      .cls-17 {
        fill: #e8a51c;
      }

      .cls-18 {
        fill: #df1513;
      }

      .cls-19 {
        fill: #186acd;
      }

      .cls-20 {
        fill: #085fc9;
      }

      .cls-21 {
        fill: #e00304;
      }

      .cls-22 {
        fill: #4ca532;
      }

      .cls-23 {
        fill: #1658ad;
      }

      .cls-24 {
        fill: #4589d1;
      }

      .cls-25 {
        fill: url(#Gradiente_sem_nome_44-2);
      }

      .cls-26 {
        clip-path: url(#clippath);
      }
    </style>
    <linearGradient id="Gradiente_sem_nome_44" data-name="Gradiente sem nome 44" x1="-13.74" y1="1168.67" x2="-13.74" y2="1157.91" gradientUnits="userSpaceOnUse">
      <stop offset="0" stop-color="#fff" stop-opacity="0"/>
      <stop offset=".03" stop-color="#fff" stop-opacity=".04"/>
      <stop offset=".08" stop-color="#fff" stop-opacity=".14"/>
      <stop offset=".15" stop-color="#fff" stop-opacity=".31"/>
      <stop offset=".23" stop-color="#fff" stop-opacity=".54"/>
      <stop offset=".31" stop-color="#fff" stop-opacity=".83"/>
      <stop offset=".36" stop-color="#fff"/>
    </linearGradient>
    <linearGradient id="Gradiente_sem_nome_44-2" data-name="Gradiente sem nome 44" x1="1197.67" y1="1886.41" x2="1197.67" y2="1138.02" xlink:href="#Gradiente_sem_nome_44"/>
    <clipPath id="clippath">
      <rect class="cls-2" x="-2654.23" y="-375" width="2528.11" height="1876.65"/>
    </clipPath>
  </defs>
  <g>
    <path class="cls-8" d="M-26.75,1168.67c8.98-.98,17.75-2.67,26.03-5.03-8.33-2.46-17.07-4.37-26.03-5.73v10.77Z"/>
    <path class="cls-25" d="M2426.75,1175.3c-9.93,1.62-20.38,5.39-29.47,13.06,0,0-37.49-7.73-42.49,21.65,0,0,0-10.82-35.62-10.82-7.5,2.32,7.5,16.23,20.62,18.55-13.12,2.32-37.49,0-44.99,6.96-5.62,2.32,11.25,6.96,28.12,9.28-5.62,5.8-22.5,1.16-26.25,13.92-3.75,12.76-7.5,2.32-22.5,12.76-3.63,2.53-5.93,4.5-7.53,6.11-7.16-.1-14.32-.2-21.48-.3-8.22-.12-16.61-.22-24.46,1.29-2.73.52-5.36,1.24-7.98,1.95-.17.05-.33.09-.5.14l1.63-3.44c5.99-1.09,11.98-2.18,17.97-3.26,3.67-.67,7.36-1.34,10.79-2.39,4.65-1.43,8.69-3.51,13.28-5.02,7.35-2.41,15.75-3.22,23.7-4.74,5.39-1.03,10.83-2.23,15.78-3.9-19.69.89-39.18,3.45-57.76,7.57-2.72.6-5.42,1.24-8.05,2-4.8,1.38-9.28,3.14-13.52,5.1l2.14-4.51c7.06-1.77,14.01-3.72,20.8-5.86,6.25-1.96,12.42-4.09,19.13-5.35,5.28-.99,10.79-1.42,16.27-1.85,7.22-.56,14.45-1.13,21.72-1.33-7.09-1.17-14.37-1.77-21.7-1.77-2.6,0-5.2.07-7.76.34-2.38.25-4.7.66-7.01,1.08-3.27.58-6.55,1.17-9.82,1.75-3.14.56-6.29,1.12-9.32,1.88-7.67,1.91-14.37,5.01-20.91,8.17l2.28-4.81s-.04.04-.06.06c-2.81,2.62-5.45,5.3-7.92,8.05-.19.18-.37.37-.51.57h0c-.74.83-1.47,1.67-2.19,2.52-1.82,2.16-3.53,4.35-5.06,6.58-.25.23-.51.46-.76.67.12-.02.23-.04.35-.06-1.95,2.9-3.59,5.88-5.08,8.89-.53-.7-1.16-1.43-1.95-2.17,0-.65.02-1.3.08-1.96.09-.89.25-1.79.35-2.68.09-.85.13-1.7.13-2.55.68,2.47,1.36,4.93,2.04,7.4,3.17-3.85,2.86-8.41,2.51-12.73-.1-1.23-.19-2.46-.28-3.69l.53-5.74c.76,4.06,2.02,8.08,3.77,12.02,1.58-1.65,1.53-3.69,1.43-5.6-.25-4.78-.51-9.57-.76-14.35.64-.04,1.29,0,1.9.17-.56-.33-1.22-.56-1.93-.71-.07-1.25-.13-2.51-.2-3.76-.16-2.94-.31-5.9.49-8.79.77-2.79,2.41-5.47,4.34-8.03-5.46,3.59-8.96,8.3-9.82,13.21-.37,2.12-.27,4.27-.16,6.4.02.43.04.86.07,1.29-.68.2-1.31.46-1.84.78-2.44,1.41-3.44,3.53-3.93,5.58-.2.85-.33,1.7-.4,2.56-.23-1.29-.33-2.58,0-3.86-2.99,2.49-4.4,5.61-4.76,8.71-.36,3.1.26,6.21.98,9.28.3,1.27.67,2.54,1.01,3.81-.88-.5-1.83-.99-2.89-1.45-.45-2.61-.79-5.22-1.06-7.84-.37-3.56-.68-7.26-3.39-10.41-.08.64-.12,1.29-.14,1.93-.05-.1-.09-.21-.13-.31l.13.54c-.05,3.53.62,7.09-.3,10.58-.31,1.17-.79,2.32-1.24,3.48-.79-.2-1.66-.36-2.53-.53-.96-2.24-2.8-4.34-3.34-6.64-.11.06-.16.15-.24.22.41-3.01-.59-6.69-6.11-9.54-9.37-2.32-15,15.08-15,15.08,0,0-5.62-15.08-18.75-15.08-9.37,2.32-1.87,13.92-1.87,13.92,0,0-22.5-10.44-33.74-6.96-5.62,5.8,5.62,12.76,5.62,12.76,0,0-28.12-5.8-52.49-3.48-5.62,3.48,5.62,12.76,5.62,12.76,0,0-4.97-1.21-12.09-.67-.15-.95-.3-1.9-.51-2.85v-.42c0,.08-.02.16-.04.25-.12-.5-.25-.99-.41-1.48-.92,1.5-1.16,3.09-1.17,4.7-.67.08-1.36.19-2.05.31-.81-2.22-2.33-4.38-4.88-6.02.46.96.59,1.96.62,2.96-.19-.65-.42-1.3-.71-1.94-.7-1.54-1.8-3.11-3.9-4.05-.46-.21-.99-.37-1.54-.48-.05-.33-.1-.66-.15-.99-.26-1.65-.52-3.3-1.14-4.91-1.44-3.71-4.88-7.12-9.64-9.55,1.89,1.85,3.57,3.81,4.61,5.91,1.07,2.18,1.42,4.46,1.77,6.73.15.97.3,1.94.44,2.9-.52.15-.99.37-1.37.66.44-.16.93-.24,1.43-.25.56,3.69,1.13,7.38,1.69,11.07.1.64.23,1.3.44,1.93-.24.12-.49.22-.73.35-.33-.3-.61-.62-.95-.91-.68-.61-1.38-1.21-2.08-1.8h0c-.15-.14-.31-.28-.49-.41-2.34-1.96-4.79-3.86-7.36-5.7-.02-.01-.04-.03-.06-.04l2.51,3.56c-5.52-2.02-11.16-4-17.35-5-2.45-.4-4.96-.64-7.46-.88-2.61-.25-5.22-.5-7.82-.75-1.84-.18-3.69-.35-5.56-.4-2.01-.05-4.02.05-6.02.21-5.63.45-11.13,1.35-16.39,2.68,5.62-.29,11.26-.29,16.89-.3,4.28,0,8.57,0,12.79.44,5.35.56,10.43,1.82,15.54,2.95,5.56,1.23,11.2,2.31,16.91,3.23l2.36,3.34c-3.57-1.25-7.29-2.33-11.19-3.1-2.13-.42-4.31-.75-6.5-1.04-14.92-2.04-30.3-2.82-45.57-2.31,4.07.98,8.44,1.58,12.74,2.04,6.35.68,12.93.8,18.96,2.2,3.76.88,7.2,2.23,10.99,3.05,2.8.6,5.74.89,8.67,1.18,3.69.37,7.39.73,11.08,1.1-.31.22-.62.41-.93.64-.11.46-.24.85-.39,1.21-.16-.02-.32-.05-.48-.07-6.27-.68-12.7-.09-18.99.5-6.6.62-13.21,1.23-19.81,1.85-6.79.63-13.66,1.27-20.5.89,4.56,1.55,9.59,2.45,14.77,2.79,1.75.12,3.52.16,5.27.26,3.8.22,7.54.72,11.34.89.73.03,1.47,0,2.2.02-2.77,2.05-4.49,4.09-6.25,5.81-2.96.63-5.92,1.26-8.88,1.89-1.32.28-2.63.56-3.92.89-1.6.41-3.15.88-4.76,1.27-2.33.56-4.78.94-7.28,1.04.76.17,1.55.31,2.34.42l-.23.03c.21.02.41.03.61.04-6.49,1.66-10.48,4.86-14.41,8.11-4.14,3.41-8.3,8.07-17.67,8.45,1.09-.22,2.07-.45,3.02-.72.02,0,.05-.02.08-.02.17-.05.35-.1.52-.16.04-.01.08-.02.11-.04.17-.05.33-.11.49-.16.04-.01.08-.03.12-.04.17-.06.34-.12.51-.18.04-.01.08-.03.12-.04.18-.07.36-.13.54-.2.03-.01.06-.02.09-.04.2-.08.4-.16.6-.24.02,0,.04-.02.06-.02.23-.09.46-.19.7-.3,3.63-1.58,6.2-3.3,7.9-5.12-2.47-.06-4.55-.05-7.77.08-.23,0-.46.02-.71.04-.06,0-.13,0-.19.01-.24.02-.49.04-.75.07-.03,0-.06,0-.09.01-.23.02-.47.05-.71.08-.08.01-.17.02-.25.03-.26.03-.52.07-.79.11-.07.01-.14.02-.21.03-.21.03-.43.06-.64.1-.11.02-.22.03-.32.05-.26.04-.53.09-.79.13-.1.02-.2.04-.31.05-.2.04-.39.07-.59.11-.12.02-.23.04-.35.07-.27.05-.54.1-.81.16-.09.02-.18.04-.27.05-.23.05-.46.09-.69.14-.08.02-.16.03-.24.05-.31.06-.62.13-.93.2h0c-.18.04-.36.08-.54.12,0,0,.02,0,.02,0-1.83.4-3.53.82-4.84,1.16-2.7.64-5,1.4-7.12,2.23-4.61-1.26-7.64-2.47-9.98-3.76,2.89.12,8.03-.04,13.82-.84.02,0,.04,0,.05,0,.2-.03.41-.06.61-.09.07-.01.14-.02.22-.03.15-.02.31-.05.46-.07.13-.02.25-.04.38-.06.1-.02.21-.03.31-.05.13-.02.26-.04.39-.06,0,0,0,0-.01,0,4.37-.72,8.95-1.82,13.09-3.43,0,0,0,0-.01,0,1.28-.5,2.53-1.05,3.71-1.66.04-.02.07-.04.11-.06.19-.1.39-.2.58-.31.14-.08.28-.16.42-.24.08-.05.17-.09.25-.14,2.02-1.16,3.82-2.5,5.29-4.05-.53.02-1.06.05-1.59.08-.15,0-.31.02-.46.03-.5.03-.99.06-1.48.1-.15.01-.3.02-.45.04-.38.03-.75.06-1.13.1-.18.02-.36.03-.54.05-.46.04-.91.09-1.36.14-.19.02-.38.04-.58.07-.34.04-.67.08-1,.13-.19.02-.37.05-.56.07-.42.06-.84.12-1.25.18-.2.03-.41.06-.61.09-.34.05-.68.11-1.02.17-.25.04-.49.08-.74.13-.3.05-.61.11-.91.16-.2.04-.41.08-.61.12-.39.08-.78.15-1.17.24-.2.04-.39.08-.58.13-.25.05-.51.11-.76.17-.2.05-.4.09-.6.14,0,0-.02,0-.03,0h0c-3,.7-5.75,1.52-8.14,2.42-6.04,2.25-10.85,4.05-13.59,5.12-.03.01-.06.02-.08.03-.05.02-.09.04-.14.05-.49.19-.91.36-1.25.49h0s-.07.03-.11.04c-2.73-1.69-4.59-3.56-7.39-5.92-.1-.35-.2-.72-.29-1.03,1.67-.54,3.45-.96,5.05-1.58.01,0,.02-.01.03-.02.14,0,.28-.01.42-.02.08,0,.16,0,.25-.01.25-.01.5-.03.76-.05.06,0,.12,0,.18-.01.24-.02.49-.04.74-.06.1,0,.2-.02.3-.03.25-.02.5-.04.76-.07.08,0,.16-.02.23-.02.25-.02.49-.05.74-.08.1-.01.2-.02.3-.03.28-.03.56-.07.84-.1.05,0,.11-.01.16-.02.27-.03.55-.07.82-.11.09-.01.18-.02.26-.04.31-.04.62-.09.94-.14.01,0,.03,0,.04,0,.31-.05.63-.1.95-.15.07-.01.13-.02.2-.03.67-.11,1.35-.23,2.03-.36.04,0,.08-.02.12-.02.71-.13,1.42-.28,2.13-.43.02,0,.04,0,.06-.01,9.47-2.03,19.18-5.61,24.03-10.05,0,0,0,0,0,.01.07-.07.14-.13.21-.2.07-.07.15-.14.21-.21.08-.08.17-.17.25-.25.07-.07.13-.14.2-.21.11-.12.22-.24.33-.37.07-.09.15-.17.22-.26.05-.07.11-.14.16-.21.11-.15.23-.3.33-.45-.1,0-.21-.02-.32-.02-.02,0-.05,0-.07,0-.09,0-.18,0-.27,0-.03,0-.06,0-.09,0-.09,0-.19,0-.28,0-.03,0-.06,0-.09,0-.1,0-.21,0-.31,0-.03,0-.05,0-.08,0-.12,0-.25.01-.38.02,0,0-.02,0-.03,0-.29.02-.59.05-.91.08,0,0,0,0-.01,0-.15.02-.3.03-.45.05-.03,0-.06,0-.09.01-.13.02-.26.04-.39.05-.04,0-.08.01-.12.02-.13.02-.26.04-.39.06-.04,0-.08.01-.12.02-.14.02-.28.05-.42.07-.03,0-.07.01-.1.02-.35.06-.71.13-1.08.21-.03,0-.07.01-.1.02-.12.02-.23.05-.35.07h0c-8.81,1.85-22.43,6.9-30.47,11.5,0,0,0,0-.02,0-.31.18-.62.36-.92.54-.02,0-.03.02-.05.03-.29.17-.57.35-.84.52-.02,0-.03.02-.05.03-.18.11-.35.22-.52.33-.04,0-.09,0-.13.02-1.55.6-3.27,1.02-4.9,1.53-.8-2.75-1.51-5.5-2.24-8.25,1.54-.56,2.93-1.24,4.36-1.89l1.07.16c.27.04.55.07.82.09.1,0,.2.02.3.03.18.01.35.03.53.04.11,0,.22.01.33.02.18,0,.35.01.53.02.1,0,.2,0,.3,0,.27,0,.54,0,.81,0,.05,0,.09,0,.14,0,.24,0,.47-.02.71-.03.08,0,.17-.01.25-.02.21-.01.42-.03.63-.05.07,0,.15-.01.22-.02.26-.03.51-.06.77-.09.02,0,.04,0,.06,0,12.14-1.61,23.9-11.53,28.59-18.49,0,0,.01-.02.02-.03.08-.12.16-.25.24-.37.02-.03.04-.06.05-.08.07-.1.13-.2.19-.3.03-.05.06-.1.09-.15.05-.08.09-.16.14-.23.04-.08.09-.15.13-.23.03-.05.06-.1.09-.15.07-.13.14-.25.2-.37-.49.16-.99.32-1.48.48-.22.07-.45.15-.67.22-.28.09-.55.18-.83.28-.24.08-.49.17-.73.25-.26.09-.52.18-.78.27-.24.08-.48.17-.71.25-.27.1-.54.19-.82.29-.22.08-.44.16-.67.24-.3.11-.59.22-.88.32-.2.07-.4.15-.59.22-.33.12-.66.25-1,.38-.16.06-.32.12-.47.18-.39.15-.79.3-1.18.46-.1.04-.19.08-.29.11-10.06,3.99-19.37,8.9-24.64,14.16,0,0,0-.01.01-.02-.2.2-.4.4-.59.61-.02.02-.03.03-.05.05-.2.21-.39.42-.57.64-.04.04-.07.08-.11.12-.12.14-.24.28-.35.42-.06,0-.12,0-.18.03-1.36.61-2.67,1.26-4.11,1.8-.58-2.17-1.17-4.34-1.83-6.5,1.48-.78,3.04-1.55,4.01-2.6.27-.08.54-.16.81-.24.08-.02.15-.05.23-.07.33-.11.66-.22.98-.33.06-.02.11-.04.16-.06.29-.11.58-.22.86-.34.05-.02.11-.04.16-.06.31-.13.61-.27.9-.4.06-.03.12-.06.18-.09.6-.29,1.17-.6,1.72-.93.05-.03.11-.06.16-.1.27-.16.53-.33.79-.5.03-.02.06-.04.09-.06.24-.16.47-.33.7-.5.02-.02.05-.03.07-.05,0,0,0,0,0,0,7.64-5.7,9.47-15.21,9.7-22.3,0-.02,0-.05,0-.07,0-.23.01-.46.02-.69,0-.04,0-.07,0-.11,0-.18,0-.36,0-.54,0-.06,0-.11,0-.17,0-.19,0-.38,0-.57,0-.06,0-.13,0-.19,0-.2,0-.39-.01-.58-.39.22-.77.44-1.14.67-.17.1-.33.21-.5.32-.2.13-.41.26-.61.39-.17.11-.34.23-.51.35-.19.13-.39.27-.58.4-.16.12-.31.24-.47.35-.19.15-.39.29-.58.44-.14.11-.28.23-.43.35-.2.16-.4.32-.59.48-.13.11-.26.23-.39.34-.2.17-.4.35-.59.52-.12.11-.24.23-.36.34-.19.18-.39.36-.58.55-.12.12-.24.24-.36.35-.18.18-.36.37-.54.55-.04.04-.09.09-.13.13,0,0,.02-.02.03-.03-2.15,2.26-3.98,4.73-5.44,7.24h0s-.02.02-.02.03c-.16.27-.31.54-.46.82-.04.06-.07.13-.11.19-.15.28-.3.57-.44.85-.03.05-.06.11-.08.16-.15.3-.29.59-.43.88-.02.04-.04.09-.06.13-.14.31-.28.61-.41.92-.01.03-.03.06-.04.09-.14.32-.26.64-.39.95,0,.02-.02.04-.02.06-.13.33-.25.66-.36.98,0,0,0,.01,0,.02-1.13,3.23-1.63,6.32-1.44,8.93-.89.95-2.27,1.67-3.62,2.37-.86-2.78-1.83-5.55-3.02-8.31,0-.04,0-.07,0-.11,0-.16,0-.33-.01-.5,0-.11,0-.22,0-.33,0-.21,0-.43,0-.65,0-.02,0-.04,0-.05-.01-1.33,0-2.72.02-4.18h0c.02-3.64,0-7.65-.62-11.83-.59-3.98-2.02-7.9-3.89-11.35,0,0,0,0,0,.01-.04-.07-.07-.13-.11-.2-.1-.17-.19-.34-.29-.52-.06-.1-.12-.21-.18-.31-.11-.18-.21-.36-.32-.54-.05-.09-.11-.17-.16-.26-.13-.22-.27-.43-.4-.64-.03-.05-.06-.09-.09-.14-.34-.53-.7-1.04-1.06-1.54-.04-.05-.07-.1-.11-.14-.14-.19-.29-.39-.43-.58-.05-.06-.09-.12-.14-.18-.14-.18-.28-.35-.41-.52-.05-.06-.1-.12-.15-.18-.14-.17-.29-.34-.43-.51-.04-.05-.09-.1-.13-.15-.17-.19-.33-.37-.5-.55-.02-.02-.04-.05-.07-.07-.39-.41-.77-.8-1.17-1.17-.04-.04-.08-.07-.12-.11-.15-.14-.3-.27-.45-.41-.06-.05-.12-.1-.17-.15-.13-.11-.27-.22-.4-.33-.06-.05-.13-.1-.19-.15-.13-.1-.26-.2-.39-.29-.06-.05-.13-.1-.19-.14-.14-.1-.27-.19-.41-.28-.06-.04-.11-.08-.17-.11-.19-.12-.38-.24-.56-.35-.12.58-.25,1.24-.38,1.95,0,.02,0,.03,0,.05-.02.13-.05.27-.07.41,0,.06-.02.11-.03.17,0,.05-.02.1-.02.15-.08.51-.17,1.04-.24,1.6,0,0,0,0,0-.01-.81,6.2-.72,15.54,5.72,25.74,0,0,0,0,0,0,.16.25.33.51.5.77.03.04.06.09.09.13.13.2.27.4.4.6.04.05.07.11.11.16.14.21.29.42.44.63.02.03.05.07.07.1.36.5.74,1.01,1.14,1.52,0,0,0,.01.01.02.19.24.38.48.58.73.02.03.05.06.07.09.19.23.38.46.58.7.02.02.03.04.05.06.65.77,1.34,1.54,2.07,2.31.02.02.05.05.07.07.21.22.43.45.65.67.04.04.09.09.13.13.21.21.42.42.64.63.04.04.09.09.13.13.05.05.1.09.14.14.88,2.02,1.64,4.05,2.34,6.09-1.49-.98-2.85-1.96-3.86-3.17-.02-.04-.03-.08-.05-.11-.03-.07-.06-.13-.09-.2-.09-.21-.19-.42-.3-.63-.02-.05-.05-.09-.07-.14-.06-.12-.12-.24-.19-.35,0,0,0,0,0,0-4.17-7.44-16.63-15.28-25.26-19.99-2.77-1.51-7.01-3.24-10.07-4.42,0,0-.01,0-.02,0-.11-.04-.21-.08-.31-.12-.04-.01-.07-.03-.11-.04-.29-.11-.56-.21-.83-.31-.05-.02-.1-.04-.15-.06-.07-.02-.13-.05-.19-.07-.06-.02-.12-.04-.17-.07-.05-.02-.11-.04-.16-.06-.1-.04-.19-.07-.29-.11-.04-.02-.08-.03-.13-.05-.06-.02-.12-.04-.18-.07-.04-.01-.08-.03-.11-.04-.07-.03-.13-.05-.19-.07-.02,0-.04-.01-.06-.02-.08-.03-.16-.06-.23-.08-.02,0-.05-.02-.07-.02-.04-.02-.09-.03-.12-.05-.02,0-.05-.02-.07-.02-.04-.01-.08-.03-.11-.04-.02,0-.04-.01-.05-.02-.04-.01-.07-.03-.1-.04-.01,0-.02,0-.03-.01-.02,0-.03,0-.04-.01-.01,0-.02,0-.03,0-.01,0-.02,0-.02,0,.02.12.04.25.06.37,0,.04.02.09.03.13.02.09.04.17.06.26.01.05.02.09.04.14.03.12.07.24.11.36.02.06.04.12.06.18.03.07.05.14.08.21.03.07.05.14.08.2.03.06.06.13.09.19.06.13.12.27.19.4.02.05.05.09.07.14.05.09.09.18.14.27.02.04.04.08.07.12,4.11,7.25,18.62,17.21,30.31,22.1h0s0,0,.01,0c.37.15.73.3,1.09.44.06.02.11.04.17.07.32.13.63.25.95.36.05.02.09.03.14.05.33.12.65.24.98.35.09.03.18.06.27.09.27.09.53.18.79.26.07.02.13.04.2.06.3.09.59.18.88.27.1.03.2.06.3.08.25.07.49.14.73.2.06.01.12.03.17.05.28.07.56.14.83.2.08.02.17.04.25.05.11.02.22.05.33.07,1.13,1.26,2.63,2.28,4.25,3.33.04.02.08.04.12.05.9,2.71,1.68,5.43,2.41,8.15-1.32-.34-2.67-.64-3.95-1.02-.1-.08-.2-.15-.3-.23-.08-.06-.16-.12-.23-.18-.28-.2-.55-.41-.84-.61-.06-.04-.12-.09-.18-.13-.25-.18-.5-.35-.76-.53-.09-.06-.17-.12-.26-.18-.32-.22-.65-.44-.99-.66,0,0,0,0,0,0h0c-6.29-4.1-14.75-8.22-23.14-11.3-5.36-2.13-12.41-3.78-18.16-5.27-1.27-.34-2.6-.64-3.95-.9h0c-.06-.01-.12-.02-.19-.03-.28-.05-.55-.1-.83-.15-.14-.03-.28-.05-.42-.08-.13-.02-.26-.04-.39-.07-.1-.02-.2-.03-.31-.05-3.89-3.15-8.71-5.58-15.95-6.08-3.15-.22-5.91-.76-8.31-1.49-1.73-1.15-3.84-1.97-6.11-2.63-5.85-3.35-8.08-7.48-8.08-7.48l18.75,2.32s-2.11-5.87-11.07-8.81c-1.97-.65-4.31-1.13-7-1.39,3.24-2.07,6.31-4.27,9.23-6.52,2.77-2.14,5.67-4.44,9.66-5.3-3.19-.45-6.48-.19-9.6.49,4.22-2.55,7.76-5.45,8.78-8.62,0,0-28.12,2.32-37.49,11.6,0,0,0-4.64-26.24-16.23-7.5-1.16,5.62,15.08,5.62,15.08,0,0-18.75-9.28-39.37-5.8-20.62,3.48-18.75,8.12-28.12,11.6s-28.12-3.48-37.49,4.64c-7.78,6.74-11.74,10.24-19.28,11.25.66-.62,1.32-1.25,1.95-1.94-5.95-6.96-4.79-8.26-5.9-10.18-.46-.8-10.29,4.56-12.98,3.61-.12-.04-.23-.09-.31-.16-.21-.16-.15-.53.07-1.04,1.13-2.47,6.36-8.2,4.46-9.46-.43-.28-.89-.56-1.38-.82-4.73-2.55-11.98-4.17-11.98-4.17,0,0-.04,0-.11.03-.03.01-.09.02-.14.04-.11.04-.26.08-.44.13-.28.08-.63.18-1.05.31-.57.17-1.26.39-2.07.64-.21.07-.42.13-.63.2-.22.07-.44.14-.67.21-.46.15-.95.31-1.46.48-.51.17-1.05.35-1.61.54-.57.19-1.15.39-1.76.6-.31.11-.62.21-.93.32-.95.33-1.94.68-2.97,1.06-2.76,1-5.82,2.17-9.07,3.48.02.98.13,1.92.29,2.81.11.59.24,1.17.41,1.72.24.83.54,1.62.87,2.36.34.74.7,1.44,1.1,2.1.26.44.54.86.81,1.27.41.6.84,1.16,1.26,1.69.14.17.28.35.43.51,3.44,4.12,6.19,5.63-.68,5.46-3.35-.08-5.93-1.58-7.91-3.88-.12-.14-.25-.29-.36-.44-1.19-1.48-2.15-3.27-2.93-5.2-.17-.39-.31-.78-.45-1.18-.28-.79-.54-1.61-.78-2.44-.11-.41-.23-.83-.33-1.25-1.73.78-3.48,1.58-5.23,2.43-1.32.63-2.65,1.29-3.98,1.97-.44.22-.88.46-1.33.68.93,3.41,2.39,6.12,4.14,8.31.14.18.29.37.44.54.59.7,1.22,1.35,1.87,1.95t0,0c.32.3.65.58.98.86h0c.33.28.66.54,1,.79.17.13.34.26.51.38.33.24.67.48,1.02.7,0,0,0,0,0,0,.34.23.68.44,1.02.65,2.23,1.36,4.45,2.36,6.29,3.27.28.14.56.27.82.4,1.81.91,3.18,1.75,3.74,2.77-3.52.23-7.66.01-12.6,1.55-6.03-4.19-12.88-11.3-17.89-17.38-1.45.86-2.89,1.75-4.3,2.66-1.41.91-2.81,1.85-4.17,2.81,1.31,2.79,2.83,5.15,4.46,7.16.18.22.36.44.55.66.55.64,1.12,1.24,1.69,1.82,3.69,3.67,7.75,5.88,11.25,7.4-.86,1.57-.62,3.09-.52,4.41-.02,0-.03-.02-.05-.03-.27-.16-.54-.33-.81-.52-2.89-1.9-6.07-4.53-9.13-7.47-.23-.21-.45-.43-.67-.65-2.24-2.19-4.41-4.53-6.34-6.84-.13-.15-.25-.3-.37-.45-.12-.15-.25-.3-.37-.45-.85-1.04-1.64-2.07-2.38-3.08h0c-1.06.79-2.1,1.6-3.11,2.43-2.95,2.4-5.66,4.95-8.09,7.61-.21.03-.42.06-.63.09-.07.01-.14.02-.21.03-.21.03-.43.06-.65.1-.11.02-.22.03-.32.05-.26.04-.53.09-.79.13-.1.02-.2.04-.31.05-.2.04-.39.07-.59.11-.12.02-.23.04-.35.07-.27.05-.54.1-.81.16-.09.02-.18.04-.27.05-.23.05-.46.09-.69.14-.08.02-.16.03-.24.05-.31.06-.62.13-.93.2h0c-.18.04-.36.08-.54.12,0,0,.02,0,.02,0-1.83.4-3.53.82-4.84,1.16-2.93.69-5.43,1.52-7.69,2.44.01,0,.02-.01.04-.02-.06.02-.11.05-.17.07-.33.14-.66.27-.98.41-.07.03-.15.06-.22.1-.36.16-.71.32-1.06.48-.03.01-.06.03-.09.04-.62.29-1.2.6-1.8.9-2.62-2.28-4.46-4.28-6.11-6.02,2.57.21,8.27.13,14.82-.78.02,0,.04,0,.05,0,.2-.03.41-.06.61-.09.07-.01.14-.02.22-.03.15-.02.31-.05.46-.07.13-.02.25-.04.38-.06.1-.02.21-.03.31-.05.13-.02.26-.04.39-.06,0,0,0,0-.01,0,4.37-.72,8.95-1.82,13.09-3.43,0,0,0,0-.01,0,1.29-.5,2.53-1.05,3.71-1.66.04-.02.07-.04.11-.06.19-.1.39-.2.58-.31.14-.08.28-.16.42-.24.08-.05.17-.09.25-.14,2.02-1.16,3.82-2.5,5.29-4.05-.53.02-1.06.05-1.59.08-.15,0-.31.02-.46.03-.5.03-.99.06-1.48.1-.15.01-.3.02-.45.04-.38.03-.75.06-1.13.1-.18.02-.36.03-.54.05-.46.04-.91.09-1.36.14-.19.02-.38.04-.58.07-.33.04-.67.08-1,.13-.19.02-.37.05-.56.07-.42.06-.84.12-1.25.18-.2.03-.41.06-.61.09-.34.05-.68.11-1.01.17-.25.04-.49.08-.74.13-.3.05-.61.11-.91.16-.2.04-.41.08-.61.12-.39.08-.78.15-1.17.24-.2.04-.39.08-.58.13-.25.05-.51.11-.76.17-.2.05-.4.09-.6.14,0,0-.02,0-.03,0h0c-3,.7-5.75,1.52-8.14,2.42-6.04,2.25-10.85,4.05-13.59,5.12-.03.01-.06.02-.08.03-.05.02-.09.04-.14.05-.49.19-.91.36-1.25.49h0c-.08.03-.15.06-.22.09-.02,0-.04.01-.05.02-.04.02-.08.03-.12.05,0,0-.01,0-.02,0-.01,0-.02,0-.04,0-2.02-2.1-3.9-3.8-6.79-5.15-.2-.71-.38-1.37-.55-1.94,1.67-.54,3.45-.96,5.05-1.58.01,0,.02-.01.03-.02.14,0,.28-.01.42-.02.08,0,.16,0,.25-.01.25-.01.5-.03.76-.05.06,0,.12,0,.18-.01.24-.02.49-.04.74-.06.1,0,.2-.02.3-.03.25-.02.5-.04.76-.07.08,0,.16-.02.23-.02.25-.02.49-.05.74-.08.1-.01.2-.02.3-.03.28-.03.56-.07.84-.1.05,0,.11-.01.16-.02.27-.03.55-.07.82-.11.09-.01.18-.02.26-.04.31-.04.62-.09.94-.14.01,0,.03,0,.04,0,.31-.05.63-.1.95-.15.07-.01.13-.02.2-.03.67-.11,1.35-.23,2.03-.36.04,0,.08-.02.12-.02.71-.13,1.42-.28,2.13-.43.02,0,.04,0,.06-.01,9.47-2.03,19.18-5.61,24.03-10.05,0,0,0,0,0,.01.07-.07.14-.13.21-.2.07-.07.14-.14.21-.21.08-.08.17-.17.25-.25.07-.07.13-.14.2-.21.11-.12.22-.24.33-.37.07-.09.15-.17.22-.26.06-.07.11-.14.16-.21.12-.15.23-.3.33-.45-.1,0-.21-.02-.32-.02-.02,0-.05,0-.07,0-.09,0-.18,0-.28,0-.03,0-.06,0-.09,0-.09,0-.19,0-.28,0-.03,0-.06,0-.09,0-.1,0-.21,0-.31,0-.03,0-.05,0-.08,0-.12,0-.25.01-.38.02,0,0-.02,0-.03,0-.29.02-.59.05-.91.08,0,0,0,0-.01,0-.15.02-.3.03-.45.05-.03,0-.06,0-.09.01-.13.02-.26.04-.39.05-.04,0-.08.01-.12.02-.13.02-.26.04-.39.06-.04,0-.08.01-.12.02-.14.02-.28.05-.42.07-.03,0-.07.01-.1.02-.35.06-.71.13-1.08.21-.03,0-.07.01-.1.02-.12.02-.23.05-.35.07h0c-8.81,1.85-22.43,6.9-30.47,11.5,0,0,0,0-.01,0-.31.18-.62.36-.92.54-.02,0-.03.02-.05.03-.29.17-.57.35-.84.52-.02,0-.03.02-.05.03-.18.11-.35.22-.52.33-.04,0-.09,0-.13.02-1.55.6-3.27,1.02-4.91,1.53-.8-2.75-1.51-5.5-2.24-8.25,1.53-.56,2.93-1.24,4.36-1.89l1.07.16c.27.04.55.07.82.09.1,0,.2.02.3.03.18.01.35.03.53.04.11,0,.22.01.34.02.18,0,.35.01.53.02.1,0,.2,0,.3,0,.27,0,.54,0,.81,0,.05,0,.09,0,.14,0,.24,0,.47-.02.71-.03.08,0,.17-.01.25-.02.21-.01.42-.03.63-.05.07,0,.15-.01.22-.02.26-.03.51-.06.77-.09.02,0,.04,0,.06,0,12.14-1.61,23.9-11.53,28.59-18.49,0,0,.01-.02.02-.03.08-.12.16-.25.24-.37.02-.03.04-.06.05-.08.07-.1.13-.2.19-.3.03-.05.06-.1.09-.15.05-.08.09-.16.14-.23.04-.08.09-.15.13-.23.03-.05.06-.1.09-.15.07-.13.14-.25.2-.37-.49.16-.99.32-1.48.48-.22.07-.45.15-.67.22-.27.09-.55.18-.83.28-.24.08-.49.17-.73.25-.26.09-.52.18-.78.27-.24.08-.47.17-.71.25-.27.1-.55.19-.82.29-.22.08-.44.16-.67.24-.3.11-.59.22-.88.32-.2.07-.39.15-.59.22-.33.12-.66.25-1,.38-.16.06-.32.12-.47.18-.39.15-.79.3-1.18.46-.1.04-.19.08-.29.11-10.06,3.99-19.37,8.9-24.64,14.16,0,0,0-.01.01-.02-.2.2-.4.4-.59.61-.02.02-.03.03-.05.05-.2.21-.39.42-.57.64-.04.04-.07.08-.11.12-.12.14-.24.28-.35.42-.06,0-.12,0-.18.03-1.36.61-2.67,1.26-4.11,1.8-.58-2.17-1.17-4.34-1.83-6.5,1.48-.78,3.04-1.55,4.01-2.6.27-.08.54-.16.81-.24.08-.02.15-.05.23-.07.33-.11.66-.22.98-.33.06-.02.11-.04.16-.06.29-.11.58-.22.86-.34.05-.02.11-.04.16-.06.31-.13.61-.27.9-.4.06-.03.12-.06.18-.09.6-.29,1.17-.6,1.72-.93.05-.03.11-.06.16-.1.27-.16.53-.33.79-.5.03-.02.06-.04.09-.06.24-.16.47-.33.7-.5.02-.02.05-.03.07-.05,0,0,0,0-.01,0,7.64-5.7,9.47-15.21,9.7-22.3,0-.02,0-.05,0-.07,0-.23.01-.46.02-.69,0-.04,0-.07,0-.11,0-.18,0-.36,0-.54,0-.06,0-.11,0-.17,0-.19,0-.38,0-.57,0-.06,0-.13,0-.19,0-.2,0-.39-.01-.58-.39.22-.77.44-1.14.67-.17.1-.33.21-.5.32-.2.13-.41.26-.61.39-.17.11-.34.23-.51.35-.19.13-.39.27-.58.4-.16.12-.31.24-.47.35-.19.15-.39.29-.58.44-.14.11-.28.23-.43.35-.2.16-.4.32-.59.48-.13.11-.26.23-.39.34-.2.17-.4.35-.59.52-.12.11-.24.23-.36.34-.19.18-.39.36-.58.55-.12.12-.24.24-.36.35-.18.18-.36.37-.54.55-.04.04-.09.09-.13.13,0,0,.02-.02.03-.03-2.15,2.26-3.98,4.73-5.44,7.24,0,0,0,0,0-.01,0,.01-.02.03-.02.04-.16.27-.31.54-.46.82-.04.06-.07.13-.11.19-.15.28-.3.57-.44.85-.03.05-.06.11-.08.16-.15.3-.29.59-.43.88-.02.04-.04.09-.06.13-.14.31-.28.61-.41.92-.01.03-.03.06-.04.09-.14.32-.26.64-.39.95,0,.02-.02.04-.02.06-.13.33-.25.66-.36.98,0,0,0,.01,0,.02-1.13,3.23-1.63,6.32-1.44,8.93-.89.95-2.27,1.67-3.62,2.37-.86-2.78-1.83-5.55-3.02-8.31,0-.04,0-.07,0-.11,0-.16,0-.33-.01-.5,0-.11,0-.22,0-.33,0-.21,0-.43,0-.65,0-.02,0-.04,0-.05-.01-1.33,0-2.72.02-4.18h0c.03-3.64,0-7.65-.61-11.83-.59-3.98-2.02-7.9-3.89-11.35,0,0,0,0,0,.01-.04-.07-.07-.13-.11-.2-.1-.17-.19-.34-.29-.52-.06-.1-.12-.21-.18-.31-.11-.18-.21-.36-.32-.54-.05-.09-.11-.17-.16-.26-.13-.22-.27-.43-.4-.64-.03-.05-.06-.09-.09-.14-.34-.53-.7-1.04-1.06-1.54-.04-.05-.07-.1-.11-.14-.14-.19-.29-.39-.43-.58-.05-.06-.09-.12-.14-.18-.14-.18-.28-.35-.41-.52-.05-.06-.1-.12-.15-.18-.14-.17-.29-.34-.43-.51-.04-.05-.09-.1-.13-.15-.17-.19-.33-.37-.5-.55-.02-.02-.04-.05-.07-.07-.39-.41-.77-.8-1.17-1.17-.04-.04-.08-.07-.12-.11-.15-.14-.3-.27-.45-.41-.06-.05-.11-.1-.17-.15-.13-.11-.27-.22-.4-.33-.06-.05-.13-.1-.19-.15-.13-.1-.26-.2-.39-.29-.06-.05-.13-.1-.19-.14-.14-.1-.27-.19-.41-.28-.06-.04-.11-.08-.17-.11-.19-.12-.38-.24-.57-.35-.12.58-.25,1.24-.38,1.95,0,.02,0,.03,0,.05-.02.13-.05.27-.07.41,0,.06-.02.11-.03.17,0,.05-.02.1-.02.15-.08.51-.17,1.04-.24,1.6,0,0,0,0,0-.01-.81,6.2-.72,15.54,5.72,25.74,0,0,0,0,0,0,.16.25.33.51.5.77.03.04.06.09.09.13.13.2.27.4.4.6.04.05.07.11.11.16.14.21.29.42.44.63.02.03.05.07.07.1.36.5.74,1.01,1.14,1.52,0,0,0,.01.01.02.19.24.38.48.58.73.02.03.05.06.07.09.19.23.38.46.58.7.02.02.03.04.05.06.65.77,1.34,1.54,2.07,2.31.02.02.05.05.07.07.21.22.43.45.65.67.04.04.09.09.13.13.21.21.42.42.64.63.04.04.09.09.13.13.05.05.1.09.14.14.88,2.02,1.64,4.05,2.34,6.09-1.49-.98-2.85-1.96-3.86-3.17-.02-.04-.03-.08-.05-.11-.03-.07-.06-.13-.09-.2-.09-.21-.19-.42-.3-.63-.02-.05-.05-.09-.07-.14-.06-.12-.12-.24-.19-.35,0,0,0,0,0,0-4.17-7.44-16.63-15.28-25.26-19.99-2.77-1.51-7.01-3.24-10.07-4.42,0,0-.01,0-.02,0-.11-.04-.21-.08-.31-.12-.04-.01-.07-.03-.11-.04-.29-.11-.56-.21-.83-.31-.05-.02-.1-.04-.15-.06-.07-.02-.13-.05-.19-.07-.06-.02-.12-.04-.18-.07-.06-.02-.11-.04-.16-.06-.1-.04-.19-.07-.29-.11-.04-.02-.08-.03-.13-.05-.06-.02-.12-.04-.18-.07-.04-.01-.08-.03-.11-.04-.07-.03-.13-.05-.19-.07-.02,0-.04-.01-.06-.02-.08-.03-.16-.06-.23-.08-.02,0-.05-.02-.07-.02-.04-.02-.09-.03-.12-.05-.02,0-.05-.02-.07-.02-.04-.01-.08-.03-.11-.04-.02,0-.04-.01-.05-.02-.04-.01-.07-.03-.1-.04-.01,0-.02,0-.03-.01-.02,0-.03,0-.04-.01-.01,0-.02,0-.03,0-.01,0-.02,0-.02,0,.02.12.04.25.06.37,0,.04.02.09.03.13.02.09.04.17.06.26.01.05.02.09.04.14.03.12.07.24.11.36.02.06.04.12.06.18.03.07.05.14.08.21.03.07.05.14.08.2.03.06.06.13.09.19.06.13.12.27.19.4.02.05.05.09.07.14.05.09.09.18.14.27.02.04.04.08.07.12,4.11,7.25,18.62,17.21,30.31,22.1h0s0,0,.01,0c.37.15.73.3,1.09.44.06.02.11.04.17.07.32.13.63.25.95.36.05.02.09.03.14.05.33.12.65.24.98.35.09.03.18.06.27.09.27.09.53.18.79.26.07.02.13.04.2.06.3.09.59.18.88.27.1.03.2.06.3.08.25.07.49.14.73.2.06.01.12.03.17.05.28.07.56.14.83.2.08.02.17.04.25.05.11.02.22.05.33.07,1.13,1.26,2.63,2.28,4.25,3.33.04.02.08.04.12.05.9,2.71,1.68,5.43,2.41,8.15-1.32-.34-2.67-.64-3.95-1.02-.1-.08-.2-.15-.3-.23-.08-.06-.16-.12-.23-.18-.28-.2-.55-.41-.84-.61-.06-.04-.12-.09-.18-.13-.25-.18-.5-.35-.76-.53-.09-.06-.17-.12-.26-.18-.32-.22-.65-.44-.99-.66,0,0,0,0,0,0h0c-6.29-4.1-14.75-8.22-23.14-11.3-5.36-2.13-12.41-3.78-18.16-5.27-1.27-.34-2.6-.64-3.95-.9h0c-.06-.01-.12-.02-.19-.03-.28-.05-.55-.1-.83-.15-.14-.03-.28-.05-.42-.08-.13-.02-.26-.04-.39-.07-.16-.03-.32-.05-.48-.08-.11-.02-.23-.04-.34-.05-.26-.04-.52-.08-.78-.12-.06,0-.12-.02-.18-.03-.22-.03-.43-.06-.65-.09-.09-.01-.19-.02-.28-.04-.2-.03-.39-.05-.59-.07-.08,0-.16-.02-.23-.03-.26-.03-.52-.06-.78-.08-.07,0-.13-.01-.2-.02-.2-.02-.39-.04-.59-.05-.09,0-.17-.01-.26-.02-.2-.02-.4-.03-.59-.04-.06,0-.12,0-.17-.01-.24-.02-.48-.03-.72-.04-.07,0-.14,0-.22,0-.18,0-.35-.01-.52-.02-.07,0-.15,0-.22,0-.23,0-.46,0-.68-.01.25.18.5.35.75.53,2.12,1.51,4.29,3.12,6.65,4.62h0s0,0,0,0c1.46.93,3,1.81,4.65,2.59,5.17,2.45,9.55,4.18,14.66,6.33,8.41,3.18,17.26,5.43,26.88,6.76.41.06.82.11,1.23.17.31.04.61.08.92.12.36.04.71.09,1.07.13.3.03.59.07.89.1.37.04.75.08,1.13.12,1.41.42,2.89.73,4.33,1.12.34,1.26.67,2.53,1,3.8-1.48-.21-2.97-.4-4.43-.64h0c-.34-.11-.68-.22-1.03-.33-.23-.07-.46-.15-.7-.22-.12-.04-.24-.08-.36-.11-.26-.08-.53-.16-.79-.25-.09-.03-.19-.06-.28-.09-.29-.09-.58-.18-.88-.27-.03,0-.05-.02-.08-.02-.98-.29-1.98-.58-3.02-.87-.1-.03-.21-.06-.31-.09-.29-.08-.58-.16-.87-.23-.06-.02-.13-.03-.19-.05,0,0,0,0,0,0-7.27-1.93-15.92-3.59-25.32-4.1-.11-.07-.21-.13-.32-.2-7.5-4.64-18.75-13.92-26.25-12.76-7.5,1.16-5.62-12.76-22.5-8.12-16.87,4.64-46.87,2.32-44.99-4.64,1.87-6.96,31.87-6.96,22.5-12.76-9.37-5.8-20.62,1.16-24.37-9.28-3.75-10.44,18.75-12.76,3.75-15.08-15-2.32-3.75,5.8-18.75,6.96-15,1.16-9.37-8.12-9.37-8.12,0,0,11.25-15.08-13.12-12.76-24.37,2.32-15-6.96-26.24-10.44-11.25-3.48-7.5-8.12-35.62-8.12s-35.62,16.23-35.62,16.23c0,0-20.62-9.28-44.99,0,0,0-26.25-20.87-35.62-19.71-2.68.83,7.1,9.96,12.89,15.09-3.77-2.2-10.63-4.3-22.26-2.34-9.37,4.64,20.62,19.71,20.62,19.71,0,0-13.12,1.16-24.37,8.12-11.25,6.96-5.62,15.08-20.62,17.39-8.97,1.39-15.27.3-22.48,1.18-.35-.67-.62-1.35-1.01-2.02.36.67.69,1.34,1.01,2.02-4.85.59-10.1,2.05-16.88,5.78-.58.32-1.11.59-1.65.89-1.53-3.37-3.07-6.73-4.6-10.1-.25-.54-.58-1.15-1.4-1.39.58,1.82.04,3.7.33,5.54.2,1.29.81,2.54,1.16,3.82.05.16.09.33.12.5-.19-.4-.41-.8-.68-1.19-1.18-1.73-3.14-3.2-4.59-4.84-2.12-2.4-3.11-5.11-4.62-7.68l-.13-.42c0,.08.02.17.03.25-.28-.47-.58-.93-.91-1.39-.67,2.73.64,5.48,1.85,8.14,1.88,4.12,3.56,8.28,4.61,12.51.04.14.07.28.1.43-.73.29-1.43.55-2.12.8-.7-3.1-1.5-6.2-2.47-9.27-.75-2.36-1.59-4.73-3.14-6.94-1.55-2.21-3.88-4.26-7.1-5.6.78.88,1.24,1.84,1.61,2.82-.41-.61-.85-1.22-1.35-1.8-1.21-1.42-2.82-2.8-5.19-3.45-.52-.14-1.09-.23-1.67-.27-.16-.32-.33-.64-.49-.95-.81-1.58-1.62-3.16-2.78-4.65-2.67-3.44-7.19-6.33-12.67-8.08,2.48,1.57,4.79,3.26,6.51,5.18,1.79,1.99,2.9,4.18,4.01,6.35.47.93.95,1.85,1.42,2.78-.46.22-.84.49-1.12.82.38-.22.83-.36,1.32-.43,1.8,3.53,3.61,7.07,5.41,10.6.72,1.42,1.53,2.91,3.37,3.87-.36-3.16-1.11-6.29-2.24-9.38l2.77,4.11c.45.91.89,1.83,1.33,2.74,1.54,3.21,3.2,6.59,7.12,8.9-.53-1.91-1.06-3.82-1.59-5.73.35.62.73,1.24,1.15,1.84.44.64.93,1.26,1.37,1.9.73,1.06,1.33,2.15,1.78,3.27.26.64.55,1.31.98,1.92-.05.02-.1.03-.15.05-3.03-2.63-6.18-5.21-9.66-7.61.09,0,.19,0,.28,0-.27-.11-.55-.24-.83-.37-2.05-1.39-4.21-2.72-6.44-4-.87-.5-1.75-1-2.64-1.49h0c-.19-.12-.4-.23-.61-.34-2.95-1.61-6-3.15-9.13-4.62-.02-.01-.05-.02-.07-.03l3.67,3.15c-6.08-1.26-12.27-2.46-18.66-2.64-2.53-.07-5.06.02-7.59.11-2.63.09-5.27.19-7.9.28-1.86.07-3.73.13-5.57.33-1.98.21-3.92.57-5.81.98-5.36,1.17-10.43,2.76-15.11,4.75,5.39-1.01,10.91-1.75,16.41-2.49,4.18-.56,8.38-1.12,12.65-1.24,5.42-.15,10.81.42,16.19.86,5.85.48,11.73.8,17.63.97l3.44,2.96c-3.91-.76-7.91-1.33-11.99-1.58-2.23-.13-4.47-.17-6.71-.18-15.28-.06-30.58,1.18-45.34,3.66,4.31.43,8.78.45,13.15.34,6.44-.16,12.91-.9,19.29-.31,3.97.37,7.79,1.25,11.78,1.55,2.94.22,5.91.13,8.87.03,4.83-.16,9.66-.32,14.48-.48l2.62,2.26c-.14,0-.28-.01-.42-.02-2.21-.1-4.43-.2-6.64-.15-6.36.15-12.45,1.56-18.4,2.95-6.25,1.46-12.49,2.92-18.74,4.38-6.42,1.5-12.93,3.02-19.74,3.53,4.99.92,10.21,1.15,15.39.81,1.75-.11,3.49-.3,5.24-.43,3.79-.28,7.62-.28,11.4-.6,3.78-.32,7.46-.97,11.12-1.64,8.34-1.53,16.69-3.25,24.36-5.77l2.75,2.37c-12.53,1.01-23.88,5.17-34.76,9.23-4.5,1.68-9,3.36-13.5,5.04-1.19.44-2.38.89-3.53,1.38-1.42.6-2.78,1.27-4.22,1.86-2.08.85-4.36,1.54-6.76,1.96.81.07,1.62.1,2.43.1l-.22.06c.34-.02.68-.04,1.02-.07,3.82-.07,7.67-.77,11.29-1.54,3.33-.71,6.67-1.42,10-2.12-.74,2.33-.16,4.03-.16,4.03,0,0-15-5.8-22.5,5.8-7.5,11.6-20.62,13.92-33.74,6.96s0-20.87-18.75-24.35c-18.75-3.48-29.99-3.48-29.99-3.48,0,0,11.25-4.64-7.5-10.44-18.75-5.8-22.5-9.28-22.5-9.28,1.88-6.96,16.87-15.08,13.12-24.35-7.5-1.16-24.37,17.39-24.37,17.39,0,0-1.87-35.95-18.75-40.59-5.62,2.32-5.62,22.03-5.62,22.03,0,0-11.25-8.12-29.99-9.28-3.75,1.16,9.37,17.39,9.37,17.39,0,0-15-3.48-33.74,1.16-18.75,4.64-21.25-2.71-51.24,1.93-1.74.27-3.32.5-4.79.7-.05-.24-.09-.48-.14-.73,0-.04-.02-.08-.03-.12-.02-.1-.04-.2-.07-.31,0-.04-.02-.09-.03-.13-.02-.11-.05-.23-.07-.34,0-.03-.01-.07-.02-.1-.02-.1-.05-.21-.07-.31-.01-.05-.02-.1-.03-.14-.02-.11-.05-.22-.08-.34,0-.04-.02-.07-.03-.11-.03-.13-.06-.26-.09-.4,0-.02,0-.04-.01-.05-.03-.13-.06-.26-.09-.39,0-.02-.01-.05-.02-.07-.03-.12-.06-.25-.09-.37,0-.03-.01-.06-.02-.09-.03-.13-.07-.27-.1-.4,0-.02,0-.03-.01-.05-.04-.15-.07-.3-.11-.45,0,0,0,0,0,0-1.1-4.44-2.37-8.82-2.64-10.27,0,0,0,0,0-.01,0-.05-.02-.1-.02-.14-.03-.24-.06-.48-.1-.72,0-.05-.01-.1-.02-.14-.04-.23-.07-.46-.12-.68,0-.03-.01-.06-.02-.1-.04-.21-.08-.41-.13-.6,0-.03-.01-.06-.02-.09-.05-.21-.11-.42-.17-.62-.01-.04-.02-.08-.04-.12-.12-.41-.27-.8-.44-1.17-.02-.04-.03-.07-.05-.11-.08-.18-.17-.36-.27-.53-.01-.02-.03-.05-.04-.07-.09-.16-.19-.31-.29-.46-.02-.02-.03-.05-.05-.07-.11-.16-.23-.31-.35-.46-.02-.03-.05-.06-.07-.09-.26-.3-.55-.58-.88-.84-.03-.03-.06-.05-.09-.07-.16-.13-.33-.25-.51-.37-.02-.02-.05-.03-.07-.04-.17-.11-.35-.21-.54-.31-.03-.01-.05-.03-.08-.04-.2-.1-.42-.2-.64-.3-.04-.02-.08-.03-.12-.05-.46-.19-.97-.35-1.52-.5-.03,0-.05-.01-.08-.02,0,0,0,0,0,0-1.22-.31-2.67-.51-4.39-.6-2.2-.23-24.38-1.34-15-4.97,3.51-1.34,11.07.61,16.31,2.28.1.03.2.07.3.1.13.04.25.08.37.12.14.05.28.09.41.14.14.05.27.09.41.14.11.04.21.07.32.11.1.03.19.07.29.1.1.03.19.07.28.1.16.06.31.11.46.16.08.03.16.06.24.08.1.04.21.07.3.11.06.02.12.04.17.06.15.05.3.11.44.16.02,0,.04.02.07.02.93.34,1.49.56,1.49.56,0,0,0,0,0-.01h0c-.02-.15-.05-.31-.08-.46,0-.04-.01-.09-.02-.13-.03-.16-.08-.32-.13-.49-.01-.04-.02-.09-.03-.13-.05-.16-.11-.33-.17-.5-.02-.05-.03-.09-.05-.14-.06-.16-.13-.32-.2-.48-.02-.06-.05-.11-.07-.17-.07-.16-.16-.32-.24-.48-.03-.06-.06-.12-.09-.18-.08-.16-.17-.31-.26-.47-.04-.07-.07-.13-.11-.2-.09-.15-.18-.3-.28-.45-.05-.08-.09-.15-.14-.23-.09-.14-.19-.28-.28-.42-.06-.09-.12-.17-.18-.26-.09-.13-.18-.25-.28-.38-.07-.1-.15-.2-.22-.3-.09-.12-.18-.23-.27-.35-.09-.11-.17-.23-.27-.34-.09-.11-.18-.21-.26-.32-.1-.12-.2-.24-.31-.37-.08-.09-.16-.18-.24-.28-.12-.13-.23-.27-.36-.4-.07-.07-.13-.14-.2-.22-.14-.15-.28-.31-.42-.46-.05-.05-.11-.11-.16-.16-.16-.17-.32-.34-.49-.5-.05-.05-.09-.09-.14-.14-.18-.17-.35-.35-.53-.52-.02-.02-.04-.04-.06-.05-.21-.2-.42-.4-.63-.59-.01,0-.02-.02-.03-.03-2.07-1.9-4.32-3.61-6.38-4.88,0,0,0,0-.01,0-.69-.42-1.35-.79-1.98-1.11-.06-.03-.11-.05-.17-.08-.15-.07-.3-.15-.45-.22-.06-.03-.11-.05-.17-.07-.14-.06-.29-.13-.43-.18-.03-.01-.06-.02-.08-.03-.16-.06-.32-.13-.48-.18-.18-.06-.36-.12-.53-.16-.2-.06-.41-.1-.61-.15-.05-.01-.11-.02-.16-.03-.19-.04-.39-.07-.59-.1-.01,0-.03,0-.04,0-.21-.03-.43-.06-.65-.08-.05,0-.1,0-.16-.01-.2-.02-.4-.03-.61-.04-.02,0-.03,0-.05,0h0c-9.81-.42-23.22,8.01-25.24,4.08-1.99-3.89,4.75-5.34,11.83-5.84.37-.03.75-.05,1.13-.07.05,0,.11,0,.16,0,.37-.02.75-.04,1.12-.05.05,0,.11,0,.16,0,.37-.02.74-.03,1.11-.04.05,0,.1,0,.15,0,.37-.01.73-.02,1.09-.03.05,0,.1,0,.15,0,.36,0,.71-.01,1.06-.01.05,0,.1,0,.14,0,.35,0,.69,0,1.02,0h.13c.33,0,.66,0,.97,0,.04,0,.08,0,.12,0,.32,0,.62,0,.92.01.03,0,.07,0,.1,0,.3,0,.59.01.86.02.03,0,.05,0,.08,0,.27,0,.54.01.79.02.02,0,.04,0,.07,0,.25,0,.48.01.7.02.02,0,.03,0,.05,0,.22,0,.42.02.6.02.01,0,.02,0,.03,0,.18,0,.35.01.49.02,0,0,.02,0,.03,0,.14,0,.26.01.36.02,0,0,0,0,.01,0,.2,0,.31.02.31.02,1.09-3.75-14.08-13.35-21.55-14.54-.29-.05-.6-.08-.91-.11-.08,0-.15-.01-.23-.02-.29-.02-.59-.03-.89-.03-.02,0-.03,0-.05,0h0c-7.28-.03-17.95,4.65-19.96,2.58-2.59-2.67,4.25-3.76,10.76-4.2.13,0,.27-.02.4-.03.21-.01.42-.03.62-.04.15,0,.3-.02.46-.03.18-.01.37-.02.55-.03.16,0,.31-.02.47-.02.17,0,.35-.02.52-.02.16,0,.31-.01.46-.02.16,0,.33-.01.49-.02.15,0,.3-.01.45-.02.16,0,.31,0,.47-.01.14,0,.28,0,.42-.01.16,0,.32,0,.47-.01.12,0,.25,0,.37,0,.26,0,.51-.01.74-.01.13,0,.24,0,.36,0,.12,0,.24,0,.35,0,.12,0,.23,0,.34,0,.1,0,.2,0,.3,0,.1,0,.2,0,.29,0,.09,0,.19,0,.27,0,.08,0,.15,0,.23,0,.08,0,.16,0,.23,0h.19c.06,0,.11,0,.16,0,.05,0,.09,0,.13,0,.05,0,.09,0,.12,0,.02,0,.05,0,.06,0,.03,0,.06,0,.06,0-.35-.31-.7-.6-1.06-.89-.11-.09-.23-.18-.35-.27-.25-.19-.5-.38-.75-.56-.14-.1-.28-.19-.42-.29-.24-.16-.49-.32-.73-.48-.14-.09-.28-.18-.43-.26-.26-.16-.53-.31-.79-.46-.13-.07-.26-.15-.38-.21-.37-.2-.74-.39-1.12-.57-.03-.01-.05-.03-.08-.04-.4-.19-.81-.37-1.21-.54-.14-.06-.27-.11-.41-.17-.28-.11-.55-.22-.83-.33-.16-.06-.32-.12-.48-.18-.26-.09-.52-.18-.79-.27-.16-.05-.33-.11-.49-.16-.27-.09-.55-.17-.82-.24-.15-.04-.3-.09-.46-.13-.35-.1-.7-.19-1.05-.27-.07-.02-.15-.04-.22-.06-.42-.1-.84-.19-1.25-.27-.16-.03-.32-.06-.47-.09-.27-.05-.54-.1-.8-.15-.18-.03-.36-.06-.54-.09-.25-.04-.5-.08-.75-.11-.18-.03-.36-.05-.54-.08-.08-.01-.16-.02-.24-.03-.02,0-.05,0-.07,0-8.47-1.07-16.28.19-18.61.42-4.34.43-8.92,1.89-13.07,3.36-.01,0-.02,0-.03-.01-.03,0-.05-.02-.08-.03-4.72-1.56-9.89-2.76-14.73-2.84-6.67-.2-10.5,1.28-11.02,3.22.35.27.69.53,1.02.79.06.05.12.09.18.14.29.23.56.45.84.67,3.18,2.56,5.34,4.68,7,6.69-1.9.95-3.82,1.9-5.7,2.81-.65-.82-1.15-1.61-1.34-2.18-1.33-3.8-5.53-9.38-5.53-9.38-2.43-3.86-5.1-1.22-8.88,2.19-3.6,3.26-8.49,6.95-10.28,10.63-3.37-.79-6.47-1.46-8.83-2.43-7.5-3.09,22.5-18.55-25-13.92-47.49,4.64-29.99,18.55-52.49,26.29-20.14,6.92-28.27-3.49-40.51,9.79-3.11-2.03-5.91-4.25-8.98-6.31l-.57-.53c.09.11.18.22.28.33-.82-.55-1.66-1.08-2.53-1.59,1.57,3.92,5.79,7.19,9.86,10.37-.36.45-.72.91-1.09,1.41-1.59-1.25-3.26-2.46-5.12-3.56-4.18-2.49-9.28-4.49-14.96-5.2,1.88.93,3.41,2.09,4.82,3.31-1.13-.7-2.3-1.37-3.54-2-2.97-1.52-6.48-2.86-10.34-2.91-.85-.01-1.72.07-2.55.22-.52-.38-1.04-.76-1.56-1.14-2.58-1.88-5.16-3.77-8.14-5.41-6.87-3.79-15.76-6.16-24.93-6.64,4.86,1.28,9.61,2.79,13.76,4.82,4.3,2.1,7.87,4.72,11.4,7.31,1.51,1.11,3.02,2.22,4.53,3.32-.43.46-.71.98-.77,1.53.32-.44.81-.79,1.42-1.06,5.76,4.23,11.52,8.45,17.27,12.68,2.31,1.69,4.81,3.47,8.22,4.13-3.42-4.22-7.36-8.27-11.78-12.11l7.62,4.67c1.46,1.1,2.92,2.2,4.37,3.31,1.38,1.05,2.78,2.1,4.24,3.13-.51.69-1.01,1.35-1.5,1.97-3.56-.99-7.17-1.91-10.82-2.75-1.67-.38-3.34-.75-5.02-1.12h0c-.38-.1-.77-.18-1.16-.25-5.55-1.17-11.17-2.21-16.85-3.12-.04,0-.09-.01-.13-.02l7.97,3.04c-9.54.42-19.16.96-28.14,2.99-3.55.8-6.95,1.82-10.34,2.84-3.54,1.06-7.08,2.13-10.62,3.19-2.5.75-5.01,1.51-7.36,2.43-2.53.99-4.86,2.17-7.09,3.42-6.29,3.51-11.79,7.5-16.41,11.9,6.49-3.3,13.39-6.28,20.29-9.24,5.23-2.25,10.5-4.51,16.27-6.19,7.33-2.13,15.28-3.25,23.09-4.56,8.5-1.42,16.89-3.06,25.16-4.92l7.47,2.85c-6.09.34-12.13.97-17.97,2.08-3.19.61-6.31,1.35-9.4,2.13-21.09,5.34-41,12.47-59.01,21.12,6.33-.94,12.5-2.5,18.41-4.2,8.72-2.5,16.94-5.82,26.26-7.26,5.81-.9,11.89-1.04,17.66-2.04,4.25-.74,8.26-1.93,12.24-3.11,6.5-1.93,13-3.86,19.5-5.79l2.41.92c-.8.9-1.58,1.72-2.34,2.46-1.44.33-2.86.67-4.25,1.07-8.61,2.46-15.69,6.56-22.6,10.59-7.25,4.23-14.49,8.45-21.74,12.68-6.22,3.63-12.55,7.24-19.64,10.16-11.76-3.03-19.62-6.01-29.76,4.45-1.3,1.34-2.5,2.46-3.64,3.41-5.67-1.79-11.83-3.26-18.51-4.2,0,0,0,0,0,0h0c.45,2.31.86,4.97,1.08,7.69-2.68-.57-5.76-1.28-9.53-1.77-.77-2.16-1.99-4.5-3.82-7.01-.31,0-.62-.02-.93-.03-.48-.02-.97-.03-1.46-.04-2.46-.04-4.7-.1-6.78-.17.92,2.16,1.76,4.42,2.38,6.63-1.21.01-2.46.05-3.78.12-1.72.1-3.32.2-4.82.32-.72-2.31-2.01-4.84-4.24-7.57-12.65-.86-13.73-2.18-16.94-2.69-1.33-.21.33,7.82-2.45,8.67-.12.04-.25.06-.39.07-.34.02-.8-.22-1.35-.62-2.67-1.96-7.41-7.85-10.16-7.59-.62.06-1.25.14-1.88.25-6.07.99-12.3,3.8-12.3,3.8,0,0-.01.03-.02.07,0,.02-.02.06-.03.1-.01.08-.05.18-.07.3-.05.19-.11.42-.17.71-.09.39-.19.86-.31,1.41-.02.14-.06.29-.09.43-.02.15-.05.31-.09.46-.06.32-.12.66-.18,1.02-.06.36-.13.73-.18,1.13-.07.4-.12.81-.18,1.24-.03.22-.06.44-.09.66-.09.67-.18,1.37-.25,2.11-.17,1.67-.3,3.55-.37,5.53-24.46-10.49-29.7-7.36-40.92-12.91-9.52-4.71-21.92-5.83-30.61-6.1.69-.32,1.38-.64,2.08-.96,3.01-1.39,6.1-2.83,8.03-4.93,9.58-2.42,18.83-5.43,27.6-9-6.01.48-11.99,1.16-17.94,1.93l10.84-13.42s-37.49,1.55-52.49,13.92c0,0-5-18.55-20-21.65-5,3.09,0,23.19,0,23.19,0,0-13.2-11.64-39.57-14.71-.64-4.26-2.04-8.61-4.5-12.93,0,0,0,0,0,0h0c-3.29,1.95-7.31,4.18-11.48,6.19-2.04-.95-4.57-1.89-7.73-2.85,4.7-2.04,9.72-5.18,14.29-10.23-.15-.16-.29-.33-.44-.49-.23-.26-.46-.51-.7-.77-1.2-1.29-2.27-2.47-3.25-3.56-8.58,6.7-19.77,13.62-26.5,10.59-.15-.07-.29-.13-.43-.2-8.55-4.04,10.32-1.52,22.2-16.03-5.4-6.96-4.35-8.26-5.36-10.18-.42-.8-9.35,4.56-11.79,3.61-.11-.04-.2-.09-.29-.16-.19-.16-.14-.53.07-1.04,1.02-2.47,5.78-8.2,4.05-9.46-.39-.28-.81-.56-1.26-.82-4.3-2.55-10.89-4.17-10.89-4.17,0,0-.04,0-.1.03-.03.01-.08.02-.13.04-.1.04-.24.08-.4.13-.25.08-.57.18-.96.31-.51.17-1.14.39-1.88.64-.19.07-.38.13-.57.2-.2.07-.4.14-.61.21-.42.15-.86.31-1.32.48-.46.17-.96.35-1.46.54-.52.19-1.05.39-1.6.6-.28.11-.56.21-.84.32-.86.33-1.76.68-2.7,1.06-2.51,1-5.28,2.17-8.24,3.48.02.99.11,1.92.26,2.81.1.59.22,1.17.37,1.72.22.83.49,1.62.79,2.36.31.74.64,1.44,1,2.1.23.44.49.86.74,1.27.37.6.76,1.16,1.14,1.69.13.17.25.35.39.51,3.12,4.12,5.62,5.63-.62,5.46-3.04-.08-5.39-1.58-7.19-3.88-.11-.14-.22-.29-.33-.44-1.08-1.48-1.95-3.27-2.66-5.2-.15-.39-.28-.78-.41-1.18-.26-.79-.49-1.61-.71-2.44-.1-.41-.21-.83-.3-1.25-1.57.78-3.16,1.58-4.75,2.43-1.2.63-2.41,1.29-3.62,1.97-.4.22-.8.46-1.21.68.84,3.41,2.17,6.12,3.76,8.31.13.18.26.37.4.54.54.7,1.11,1.35,1.69,1.95t0,0c.29.3.59.58.89.86h0c.3.28.6.54.91.79.16.13.31.26.47.38.3.24.61.48.92.7,0,0,0,0,0,0,.31.23.62.44.93.65,2.02,1.36,4.04,2.36,5.72,3.27.26.14.51.27.75.4,2.19,1.21,3.67,2.29,3.66,3.87,0,.63-.24,1.34-.77,2.17-.06.09-.12.17-.17.26-.19.28-.4.52-.62.73-.23.2-.48.38-.73.51-2.73,1.43-7.14-1.07-11.82-5.18,1.61-3.46,1.65-6.6-4.99-8.3-1.37-.35-2.65-.63-3.87-.88-1.78-2.1-3.47-4.22-4.98-6.23-1.32.86-2.62,1.75-3.91,2.66-1.14.81-2.27,1.65-3.38,2.5-7.1.38-12.6,2.53-22.47,3.49-2.17.21-3.89.24-5.36.13l-4.65,704.11h2453.5l4.65-711.11ZM25.01,1201.43c-.34.69-.83,1.13-1.43,1.36-.09.03-.19.04-.29.06-.68-.09-1.36-.17-2.04-.26-3.57-1.42-3.94-3.57-3.07-6.02,1.44.64,2.76,1.17,3.85,1.64.24.1.47.2.68.29.32.15.62.29.89.43.18.09.34.18.49.28h0c.15.1.28.19.41.29.68.54.91,1.14.52,1.93ZM94.59,1218.66c-.49-.1-1.01-.19-1.56-.28-.11-1.14-.29-2.34-.54-3.59,1.56,1.26,3.14,2.47,4.58,3.54-.79.11-1.62.21-2.48.32ZM97.46,1219.4c.05-.22.11-.43.15-.66.73.54,1.44,1.06,2.05,1.5-.61-.29-1.35-.57-2.21-.85ZM285.42,1265.6c.23-.04.46-.09.68-.13,2.97-.55,5.34-.78,7.44.11.85.35,1.64.89,2.43,1.65.08.08.16.16.24.24.26.27.45.52.59.76.13.25.21.48.24.7.26,2.63-7.39,3.67-17.39,3.85,2.21-2.45,5.91-3.82,5.78-7.17ZM277.56,1258.02c-.08.07-.19.1-.28.16-4.67-1.23-10.8-1.88-17.12-4.89-.32-.15-.6-.28-.92-.43.64.15,1.3.33,1.92.46,1.18.24,2.32.45,3.43.61.73.11,1.45.21,2.15.29,1.03.12,2.03.22,2.97.3.31.02.62.05.93.07,7.44.55,11.01-.01,6.93,3.41ZM280.38,1282.98c-.07-.1-.15-.2-.22-.31-.35-.57-.6-1.09-.86-1.61,7.42-.52,12.35-2.14,15.8-3.08.28-.08.56-.15.81-.22.39-.1.77-.19,1.13-.26.23-.05.46-.09.68-.12h0c.22-.03.43-.06.64-.07,1.15-.08,2.09.13,2.9.79.71.58,1.01,1.1.94,1.57-.16.95-1.81,1.68-4.5,2.21,0,0,0,0-.01,0-.6.12-1.26.22-1.96.32-.35.05-.72.09-1.1.14-.37.05-.75.09-1.15.13-3.66.37-8.22.52-13.11.5ZM301.94,1295.27c-2.81-.36-5.52-.99-8.04-1.94,3.65-1.35,5.99-2.5,7.94-2.27.58.07,1.12.26,1.66.59.93.58,1.32,1.13,1.25,1.65-.1.72-1.16,1.37-2.81,1.96ZM355.48,1275.16c-5.67,0-3.26-1.68,2.36-4.35,2.48.45,4.83,1.17,6.91,2.04-2.13.92-4.25,1.64-6.26,2.01-1.04.19-2.04.3-3.01.3ZM370.15,1284.22c-1.37.68-2.73,1.1-4.1,1.36-.5-.14-.93-.29-1.27-.44-.12-.05-.23-.11-.33-.16-1.91-1-.55-2.11,2.6-3.4.12-.05.25-.1.38-.15.05-.02.09-.04.13-.05.11-.04.23-.09.35-.13.06-.02.13-.05.19-.07,1.38-.52,3.03-1.08,4.83-1.66.55,1.75-.19,3.44-2.78,4.72ZM402.64,1233.2c-6.54,0-12.05-.95-16.89-2.08,4.98-.77,9.8-1.93,14.34-3.46,2.31-.78,4.53-1.65,6.82-2.45,2.89-1,5.88-1.89,8.85-2.8.03,5.81.43,10.8-13.12,10.8ZM702.58,1200.73c-27.49-4.64-7.5-9.28-37.49-17.01-29.99-7.73-20-9.28-47.49-7.73-23.38,1.31-3.39,1.51-1.5-5.12.03,0,.06,0,.09,0,11.5-.69,22.61.83,36.21,3,8.12,1.3,19.5,2.9,26.45,5.77.5.19,1,.38,1.5.58.43.17.87.35,1.3.54,6.52,2.76,12.97,6.45,14.35,7.27.21.13.42.25.63.38h0c.34.21.67.42,1,.63.06.04.12.08.18.12.12.08.24.16.35.23.08.05.15.1.23.15.11.08.23.15.34.23.08.05.15.1.23.16.11.07.22.15.32.22.08.05.16.11.23.16.1.07.2.14.3.21.08.06.16.12.25.18.1.07.19.14.29.21.08.06.16.12.24.18.09.07.19.14.28.21.08.06.16.12.24.18.09.07.18.14.27.21.08.06.15.12.23.18.09.07.18.14.26.21.07.06.15.11.22.17.09.07.17.13.26.2.07.06.15.12.22.17.08.06.16.13.24.19.07.06.14.12.22.18.08.06.16.13.23.19.07.05.13.11.2.16.08.06.16.13.23.19.06.05.13.11.19.16.07.06.14.12.22.18.06.05.12.11.18.16.07.06.14.12.21.18.06.05.12.1.18.15.06.06.13.11.19.17.06.05.12.1.17.15.06.05.12.11.18.16.06.05.11.1.16.15.06.05.12.1.17.15.05.05.1.09.15.14.05.05.11.1.16.14.05.05.1.09.14.13.05.05.1.09.15.14.04.04.08.08.13.12.05.05.1.09.14.13.04.04.08.08.12.11.04.04.08.08.12.11.04.04.08.08.12.11.04.03.07.07.1.1.04.03.07.07.1.1.03.03.07.06.1.09.03.03.06.06.09.09.03.03.06.05.08.08.03.03.05.05.08.08.02.02.05.05.07.07.02.02.04.04.05.05.02.02.05.05.07.07.01.01.03.03.04.04.02.02.04.04.06.06,0,0,.01.01.02.02.02.02.04.04.05.05h0s.05.06.05.06c.8.95,3.39,3.68,5.72,5.92-2.76-.81-6.24-1.64-10.88-2.42ZM716.5,1204.13c-2.03-2.6-6-5.63-6.55-7.05-1.55-4.03,4.57,3.86,7.96,7.57-.44-.17-.91-.35-1.41-.52ZM1498.07,1274.56c-8.32-1.03-13.67-2.52-17.72-4.25,1.9.08,3.89.16,5.96.21,0,0,0,0-.01,0,.08,0,.15,0,.23,0,.19,0,.38,0,.57.01.13,0,.26,0,.39,0,.32,0,.64.01.95.02.04,0,.09,0,.13,0,.29,0,.58,0,.87.01.09,0,.18,0,.28,0,.25,0,.51,0,.76,0,.08,0,.17,0,.25,0,.32,0,.63,0,.95,0h.03c.35,0,.7,0,1.04,0,.02,0,.04,0,.06,0,.31,0,.62,0,.92,0,.05,0,.11,0,.16,0,.3,0,.59,0,.88-.01.03,0,.07,0,.1,0,.66-.01,1.3-.03,1.93-.05.04,0,.08,0,.12,0,.27,0,.54-.02.8-.03.05,0,.1,0,.15,0,.29-.01.57-.03.84-.04.01,0,.02,0,.03,0,.3-.02.59-.03.87-.05.03,0,.06,0,.08,0,.24-.02.48-.03.71-.05.07,0,.13-.01.2-.02.2-.02.39-.03.59-.05.06,0,.13-.01.19-.02.23-.02.46-.05.68-.07,1.54.25,3.11.45,4.66.68,0,0,0,0,0,0,.26.99.52,1.98.78,2.97.23.86.51,1.93.82,3.1-2.49-.99-5.71-1.77-10.27-2.33ZM1538.66,1293.93c-2.18.59-4.27,1.22-6.26,1.87-1.31-.7-2.72-1.56-4.34-2.68-.85-.59-1.62-1.16-2.35-1.72.19-.01.38-.03.57-.04.17-.01.34-.03.51-.04.35-.03.69-.06,1.04-.1.18-.02.36-.04.55-.05.36-.04.72-.08,1.08-.12.14-.02.29-.03.43-.05,3.14-.37,6.27-.87,9.61-1.46.63-.11,1.21-.21,1.76-.32-.98,1.54-1.85,3.11-2.59,4.71ZM1549.76,1291.45c-.21.04-.42.07-.63.11-.13.02-.25.04-.38.07-.23.04-.46.08-.69.13-.1.02-.2.04-.3.06.01,0,.02,0,.03,0-.2.04-.41.09-.61.13-.92-.71-1.85-1.4-2.74-2.13-.4-.33-.78-.66-1.17-.99.83-.18,1.61-.36,2.36-.58.02,0,.05-.02.08-.02.02,0,.05-.01.07-.02,1.39,1.23,2.79,2.3,4.19,3.23-.06.01-.13.02-.19.03ZM1553.12,1295.94c.96-.42,1.84-.86,2.65-1.31.19.09.38.17.57.26.34.14.68.29,1.01.42.14.06.27.1.41.15-1.71.11-3.24.28-4.64.48ZM1897.2,1304.92c-.26-.08-.53-.16-.79-.25-.09-.03-.19-.06-.28-.09-.29-.09-.58-.18-.88-.27-.03,0-.05-.02-.08-.02-.43-.13-.89-.25-1.33-.38-13.25-6.63-23.47-3.25-32.09-9.65-1.73-1.28-3.26-2.72-4.72-4.22,3.04,1.31,5.99,2.52,9.23,3.88,8.41,3.18,17.26,5.43,26.88,6.76.41.06.82.11,1.23.17.31.04.61.08.92.12.36.04.71.09,1.07.13.3.03.59.07.89.1.37.04.75.08,1.13.12,1.41.42,2.89.73,4.33,1.12.34,1.26.67,2.53,1,3.8-1.48-.21-2.97-.4-4.43-.64h0c-.34-.11-.68-.22-1.03-.33-.23-.07-.46-.15-.7-.22-.12-.04-.24-.08-.36-.11ZM1897.72,1306.09c.19-.02.38-.03.57-.05.06,0,.13-.01.19-.02.23-.02.46-.05.68-.07,1.54.25,3.11.45,4.66.68,0,0,0,0,0,0,.26.99.52,1.98.78,2.97.13.51.28,1.08.45,1.69-1.87-1.51-4.17-3.22-7.33-5.19ZM2036.27,1276.99l1.32,4.38c.05.36.09.72.14,1.08-.63.24-1.26.47-1.9.75.3-2.06.49-4.13.45-6.21ZM2176.69,1266.44s1.15-1.44,1.87-3.53c.13,1.27.26,2.55.4,3.82-.75-.1-1.47-.21-2.27-.29ZM2209.7,1277.98c-.47.05-.94.08-1.41.14l1.71-3.62c3.07.28,6.17.47,9.27.59-3.03.53-6.21,1.43-9.57,2.88ZM2253.55,1275.72c-5.28,1.4-10.87.36-17.13-.48,2.42-.04,4.84-.1,7.25-.17,4.92-.15,9.86-.35,14.68-.95.12-.02.24-.04.36-.05-1.26.52-2.89,1.06-5.17,1.66Z"/>
  </g>
  <g class="cls-26">
    <g>
      <path class="cls-5" d="M113.42,1266.5c.22,1.37.62,2.73.63,4.1.07,18.25.02,36.51.18,54.76.03,2.9-.79,4.62-3.43,5.87-6.06,2.87-12,5.99-17.98,9.01-.23-.03-.46-.03-.69,0-.13-8.17-.21-16.34-.44-24.51-.04-1.55-.72-3.08-1.1-4.61-.25-.13-.52-.21-.81-.24-.91-1.59-1.81-3.18-2.72-4.77-.69-.63-1.38-1.25-2.07-1.88l.04.04c-.33-.33-.66-.66-1-.99l.04.04c-1.9-2.21-3.81-4.41-5.71-6.62l.03.03c-.32-.34-.64-.68-.96-1.02l.05.04c-.65-.97-1.29-1.94-1.94-2.91-1.99-1.54-3.85-4.2-5.98-4.43-9.97-1.09-20.01-1.52-30.03-2.19-.3-2.47-.84-4.94-.85-7.41-.08-19.12-.06-38.25-.07-57.37.63-.15,1.27-.3,1.9-.45,12.95-2.4,25.9-4.86,38.87-7.18,9.68-1.73,19.4-3.27,29.09-4.89.63-.21,1.27-.43,1.9-.64.69-.1,1.38-.2,2.07-.3.29.31.57.61.86.92,0,.35.01.69.02,1.04,0,0-.1-.04-.1-.04-.3,1-.86,2.01-.86,3.01-.05,16.76-.06,33.51,0,50.27,0,1.12.68,2.24,1.05,3.36ZM89.65,1257.09c3.91-1.56,7.14-2.86,10.61-4.25-.5-3.07-.97-5.92-1.4-8.58-2.75.18-5.41,0-7.84.67-1.3.36-3.1,2.21-3.07,3.36.06,2.84,1.03,5.67,1.7,8.79ZM98.63,1292.97c-2.94.33-5.61.36-8.1,1.05-1.09.3-2.64,2.01-2.55,2.95.26,3,1.19,5.94,1.86,8.93q10.67-3.37,8.79-12.93ZM47.31,1265.67c7.23-1.03,7.02-1,6-14.01h-6v14.01ZM67.49,1261.65c7-3.82,7.42-4.91,5.48-14.24-2.43,1.77-7.35-.08-6.87,5.33.25,2.88.88,5.73,1.39,8.91Z"/>
      <path class="cls-15" d="M89.21,1150.35c-.21,9.45-.42,18.9-.62,28.35-1.46-1.21-2.83-3.32-4.41-3.48-9.09-.98-18.23-1.59-27.37-2.13-4.52-.27-9.09.11-13.6-.23-9.39-.72-18.76-1.73-28.14-2.61-.34-12.9-.68-25.8-1.03-38.69.02-8.21.05-16.42.07-24.64,1.61-1.81,3.22-3.61,5.3-5.94,3.3.12,7.47-3.5,7.14-5.39,2.56-2.08,5.13-3.31,6.37-5.35,3.81-6.24,9.62-10.42,14.26-14.72-.8-2.26-1.39-3.92-1.98-5.58,1.07-.57,2.09-1.46,3.22-1.67,8.78-1.63,17.57-3.24,26.4-4.62,4.51-.7,9.1-.9,13.66-1.33.02,1.01.04,2.03.06,3.04-.57,1.24-1.65,2.49-1.62,3.71.09,4.75.54,9.5.85,14.25-.02,8.19-.04,16.37-.05,24.56-.3,1.01-.96,2.06-.83,3.01.68,4.88-2.47,7.48-5.49,10.48-8.01,7.93-15.76,16.11-23.75,24.32,1.74,2.11,3.58,4.34,5.41,6.57q2.97,7.02,10.75,3.92c.53-.21,1.05-.47,1.41-.63v-8.81h-6.29c-1.15-1.59-6.28-2.83-.38-5.09.65-.25.74-1.97.97-2.68,8.38-1.52,9.81-9.84,15.17-15.85.93,2.46,1.89,4.01,2.05,5.64.28,2.96.08,5.97.08,8.95,0,4.4,0,8.8,0,13.2.29-.03.58-.03.86-.11.07-.02.06-.29.09-.44h1.42ZM64.67,1110.38c3.77-1.26,7.21-2.41,10.49-3.51q.97-10.3-11.91-7.78c0,1.31-.15,2.72.03,4.08.29,2.13.79,4.23,1.38,7.22ZM22.96,1154.38v13.78c7-1.27,7.64-2.88,5.71-13.78h-5.71ZM28.94,1105.43h-5.91v13.66q6.98-1.46,5.91-13.66ZM43.04,1114.2c6.39-1,7.41-3.34,5.5-12.73-7.72.16-8.2,1.28-5.5,12.73ZM48.66,1150.51c-7.63.42-8.13,1.63-5.53,12.74,6.2-1.19,6.92-2.78,5.53-12.74Z"/>
      <path class="cls-5" d="M86.07,937.06c.21,20.4.42,40.8.63,61.2-.29.36-.59.72-.88,1.07-.31-.05-.62-.02-.91.09-.42-.36-.84-.72-1.27-1.08-1.06-1.36-2.11-2.71-3.17-4.07l-.18.21.16-.23c-2.6-3.75-5.78-4.91-10.03-2.56-1.26.7-2.91.72-4.37,1.05-.59-.06-1.19-.12-1.78-.17-.66-.29-1.33-.59-1.99-.88h-.02c-.15-.25-.3-.48-.45-.72-.16.23-.31.45-.47.68-.33.07-.67.15-1,.22-2.82-.1-5.65-.12-8.46-.32-11.96-.83-23.91-1.72-35.86-2.59-2.56,1.69-5.5,3-7.58,5.15-3.17,3.29-5.75,7.15-8.57,10.78.05-2.82-.09-5.67.18-8.47.33-3.49-1.08-5.16-4.81-5.44,0,3.33.2,6.48-.05,9.59-.29,3.72,1.4,4.8,4.75,4.26-4.05,5.39-8.09,10.78-12.14,16.17-.34-6.34-.69-12.68-1.03-19.01.03-.57.07-1.14.11-1.7,0-10.72,0-21.45,0-32.17-.1-.31-.19-.62-.29-.92-.03-4.04-.07-8.09-.1-12.13.01-2.92.03-5.84.04-8.76.62-1.05,1.21-2.12,1.88-3.15,2.34-3.63,4.71-7.24,7.06-10.86,3.41-4.06,6.82-8.12,10.22-12.18.29-.39.57-.78.86-1.16,0,0,0,0,0,0,.54-.62,1.08-1.25,1.62-1.87.26-.16.38-.4.37-.71.4-.56.81-1.13,1.21-1.69.47-.47.94-.94,1.42-1.42.34-.31.68-.62,1.02-.93.69.32,1.38.64,2.07.97,8.42,10.09,16.8,20.23,25.36,30.2.73.85,2.82,1.01,4.16.78,6.35-1.07,12.68-2.32,18.99-3.62,7.45-1.53,14.88-3.17,22.32-4.76.24.02.49.07.72.13.08.34.16.68.25,1.01ZM8.67,960.96v12.57h5.29q-2.27-12.88-5.29-12.57ZM-4.62,974.99c6.86-1.76,4.11-6.84,4.36-10.42.08-1.1-2.25-2.38-4.36-4.43v14.85ZM25.93,961.62v12.99c1.81-.49,3.13-1.38,3.21-2.36.27-3.48.1-6.98.1-10.63h-3.31ZM71.43,966.34q7.14-2.28,5.03-7.82c-1.84.5-3.7,1.01-5.9,1.6.29,2.09.57,4.09.87,6.21ZM50.1,963.71h-4.52v8.11c6.3-.21,3.92-4.72,4.52-8.11ZM58.51,968.96c5.04-1.71,4.03-5.02,3.36-8.43-5.29,1.29-5.03,4.4-3.36,8.43Z"/>
      <path class="cls-15" d="M5.69,920.14c-3.41,4.06-6.82,8.12-10.22,12.18-3.64-4.41-7.27-8.82-10.91-13.23v-7.49h-7.19l-.42-.11c-.68-.55-1.32-1.53-2.04-1.59-4.5-.4-9.02-.59-13.54-.85-2.59-.07-5.18-.14-7.77-.2l-2.77-.04.07-.35c1.09-4.62,4.73-6.14,8.73-7.37,1.24-.38,2.3-1.34,3.45-2.03.04-1.22.08-2.45.12-3.67,2.4-3.25,4.8-6.49,7.34-9.92.7.35,1.76.88,2.81,1.41.05,3.27-.1,6.57.27,9.8.13,1.19,1.48,2.25,2.28,3.36,1.09-1.04,3.16-2.14,3.11-3.12-.24-4.4-1.08-8.76-1.7-13.13-.37-2.56-.73-5.12-1.16-8.08-5.03,3.96-9.03,7.1-13.03,10.24-1.4-.38-2.8-.75-4.83-1.3v8.84c-2.41,1.65-4.82,3.29-7.77,5.3-.56-5.38-1-9.61-1.44-13.83-.04-4.12-.08-8.23-.12-12.35-.35-5.64-.7-11.29-1.05-16.93,0-7.85.01-15.7.02-23.54.15-.35.29-.71.44-1.06l.48-1.02c0-.28-.03-.55-.08-.82l.18-.17c1.49-2.09,2.99-4.19,4.48-6.28,5.04-6.17,10.13-12.31,15.09-18.54,2.49-3.13,4.66-6.52,7.23-9.57.57-.67,2.24-.41,3.41-.58.49.39,1.06.71,1.45,1.18,9.59,11.67,19.16,23.35,28.74,35.04-.05,3.78-.1,7.56-.15,11.34-.09.06-.26.15-.25.19.04.18.14.34.21.51.02.72.03,1.44.05,2.17-.24,1.03-.7,2.06-.7,3.09,0,22.93.03,45.85.06,68.78.02.31-.11.54-.37.71-.54.62-1.08,1.25-1.62,1.87,0,0,0,0,0,0-.29.39-.57.78-.86,1.16ZM-40.65,849.93l-1.55-.1c.08,4.92.15,9.84.28,14.75,0,.05.85.07,1.3.11.93.04,1.86.07,2.8.11.2-.19.39-.39.59-.58.1-3.23.11-6.47.34-9.69.2-2.83-1-4.3-3.77-4.6ZM-2.87,849.34c-.96.02-1.93.04-2.89.07-.14.18-.28.36-.41.53,0,4.74-.02,9.48-.02,14.21.46.25.91.5,1.37.74.63-.04,1.27-.08,1.9-.12.25-4.27.5-8.53.75-12.8-.03-.66-.07-1.33-.1-1.99l-.6-.64ZM-27.43,849.3c0,4.28-.23,7.9.11,11.47.14,1.43,1.56,3.9,2.32,3.88,2.32-.08,4.9-.7,4.2-4.36-.69-3.61-.95-7.3-1.44-11.27-1.72.09-3.21.17-5.19.28ZM-6.72,884.48c0,4.15-.14,8.22.09,12.26.06,1.09,1.24,2.12,1.9,3.17.9-1.05,2.44-2.02,2.59-3.17.38-2.94-.01-5.97.2-8.94.23-3.18-.87-4.46-4.78-3.32Z"/>
      <path class="cls-15" d="M89.78,1310.86c.28.03.55.11.81.24.01,21.34.02,42.68.03,64.02-2.79,2.69-5.66,5.31-8.36,8.09-5.71,5.87-11.34,11.81-16.98,17.73-.73.76-1.34,1.64-2.24,2.76,1.36,1.28,2.53,2.39,4.2,3.97.5-2.05.81-3.33.82-3.4,3.28-1.74,5.69-3.03,8.1-4.31-.53-1.37-.94-2.42-.84-2.18,2.12-1.28,3.92-1.86,4.94-3.1,2.4-2.91,4.32-6.21,6.64-9.19.89-1.14,2.32-1.85,3.51-2.75.36,4.98.71,9.95,1.07,14.93-7.09,4.09-14.14,8.24-21.27,12.24-8.87,4.98-17.79,9.87-26.72,14.75-1.2.66-2.57,1.02-3.86,1.52-.01-24.69-.12-49.38.04-74.07.04-6.36,2.64-11.79,8.26-15.37,1.88-1.2,3.78-2.38,5.96-3.75-1.95-1.43-3.35-2.46-4.64-3.41-2.93,2.64-5.75,5.17-9.64,8.68v-16.79c8.01-1.62,16.03-3.19,24.03-4.88,8.72-1.85,17.43-3.81,26.14-5.72ZM81.47,1336.74c-2.63.78-5.78.9-7.46,2.54-.95.93.51,4.33.9,6.69q7.65-2.09,6.55-9.22ZM75,1380.54c7.4-1.11,7.9-1.75,6.27-8.53-2.56.46-5.14.93-7.89,1.43.64,2.78,1.09,4.73,1.63,7.1ZM44.67,1377.28v9.86c5.81-.57,6.48-2.11,4.6-9.86h-4.6ZM59.87,1349.25c4.88-2.37,5.36-3.78,3.5-9.61-5.58,1.49-6.41,3.66-3.5,9.61ZM64.07,1374.64c-4.6-1.02-5.79,1.42-5.5,4.77.13,1.43,1.81,4.04,2.28,3.93,4.94-1.15,2.94-5.14,3.22-8.7ZM49.45,1343.41h-4.81v9.06c7.13-.44,3.41-5.67,4.81-9.06Z"/>
      <path class="cls-15" d="M14.27,913.32c-.69-.32-1.38-.64-2.07-.97-.56-.02-1.13-.03-1.69-.05-.04-13.29-.2-26.59-.08-39.88.07-8.41.56-16.82.86-25.23.57,0,1.48.24,1.66-.02,1.65-2.34,2.7-5.33,4.81-7.07,5.8-4.79,12.01-9.07,18.07-13.55,8.49-1.62,16.98-3.24,25.47-4.86.32,3.47.64,6.95.97,10.42-.31,1.63-.87,3.26-.88,4.89-.08,10.97-.14,21.95,0,32.92.06,4.45.39,8.68-4.73,10.9-1.13.49-1.78,2.11-2.64,3.21-1.92-6.63-5.62-.54-8.33-1.64-.89,7.63-.29,8.19,6.17,6.28,1.32.64,2.63,1.29,4.28,2.09.33-1.72.55-2.86.72-3.78,1.5.21,2.79.39,4.47.62v19.09l.08,1.15c-4.15,2.52-8.29,5.04-12.44,7.56-11.57-.69-23.14-1.38-34.71-2.07ZM18,885.96c-.31.11-.63.23-.94.34-.24,2.74-.49,5.48-.73,8.21-.2.24-.21.48-.02.72.54.47,1.07.93,1.61,1.4.31-.06.62-.12.93-.19.65-.36,1.29-.72,1.94-1.08l.86-1.04c0-2.15,0-4.31,0-6.46-.11-.33-.21-.66-.32-.99-1.11-.31-2.21-.62-3.32-.93ZM44.55,847.64c.92,2.61,1.13,5.44,2.64,6.69.94.77,4.66-.26,5.68-1.59,1.02-1.33.22-4.04.22-6.25-2.96.4-5.06.68-8.54,1.14ZM20.95,851.71c-2.21.29-3.52.46-4.47.58v9.78c6.89-1.54,3.35-6.34,4.47-10.36ZM30.11,893.63c6.5-1.72,4.63-5.82,4.44-9.72-6.65,1.04-3.68,5.73-4.44,9.72ZM34.64,849.48c-5.12.89-6.02,3.58-3.3,9.49,4.72-1.96,3.65-5.79,3.3-9.49Z"/>
      <path class="cls-6" d="M15.08,1170.24c9.38.89,18.75,1.89,28.14,2.61,4.51.35,9.08-.04,13.6.23,9.13.54,18.27,1.16,27.37,2.13,1.58.17,2.94,2.27,4.41,3.48,5.46,6.51,10.96,12.98,16.36,19.54,2.6,3.15,5.01,6.46,7.51,9.7-.69.1-1.38.2-2.07.29-.63.21-1.27.43-1.9.64-9.7,1.62-19.41,3.16-29.09,4.89-12.97,2.32-25.91,4.78-38.87,7.18-3.54-3.35-7.08-6.7-10.61-10.06-4.31-5.11-8.61-10.22-12.92-15.33,1.16-2.66,2.66-7.71,3.43-7.6,5.51.77,5.38-4.71,6.14-4.47-1.28-1.5-2.56-3.01-3.28-3.85-2.82,2.21-7.41,5.81-12,9.41-5.4-6.3-10.76-12.63-16.26-18.84-.82-.93-2.33-1.25-3.52-1.86,0-6.06.01-12.12.02-18.17.67-.04,1.35-.08,2.02-.11.64.05,1.29.1,1.93.15.5.05,1,.11,1.51.16v18.6c3.16.39,5.9.73,8.65,1.07,2.47.07,4.95.14,7.42.21.67,0,1.35-.02,2.02-.03Z"/>
      <path class="cls-5" d="M61.29,821.69c-8.49,1.62-16.98,3.24-25.47,4.86-1.53.08-3.08.03-4.58.28-6.96,1.13-13.9,2.34-20.85,3.53-.36-.02-.71-.04-1.07-.06-9.58-11.68-19.15-23.37-28.74-35.04-.39-.47-.96-.79-1.45-1.18,2.71.07,5.43.08,8.14.23,17.81.97,35.61,1.93,53.42,3,1.29.08,2.93.61,3.72,1.53,6.13,7.11,12.09,14.36,18.1,21.56-.41.43-.81.86-1.22,1.29Z"/>
      <path class="cls-6" d="M14.27,913.32c11.57.69,23.14,1.38,34.71,2.07,1.46.25,2.92.6,4.39.71,4.91.37,9.95.14,14.7,1.19,2.21.49,4.02,3.27,5.76,5.24,3.85,4.39,7.54,8.92,11.29,13.39-7.44,1.59-14.87,3.23-22.32,4.76-6.31,1.3-12.64,2.55-18.99,3.62-1.34.22-3.43.07-4.16-.78-8.57-9.97-16.94-20.11-25.36-30.2Z"/>
      <path class="cls-1" d="M88.55,1065.36c-.02-1.01-.04-2.03-.06-3.04-.61-1.2-1.11-2.48-1.85-3.59-1.46-2.2-3.05-4.32-4.58-6.47.03-.71.07-1.43.1-2.14,1.78-.25,3.64-.24,5.31-.81,3.03-1.03,3.17-5.47.35-7.73-2.03-.51-4.07-1.03-6.86-1.74,5.13-3.07,9.79-5.71,14.27-8.63.99-.65,1.33-2.3,1.95-3.5.53-1.01,1.02-2.04,1.52-3.07.15,6.61.31,13.22.47,19.82-.03,19.47-.06,38.95-.09,58.42-2.83,1.43-5.66,2.86-8.49,4.29-.2-7.61-.4-15.22-.6-22.83-.11-.66-.21-1.33-.32-1.99l.15.06c.46-.33.91-.65,1.37-.98-.45-.32-.9-.65-1.35-.97-.43-5.03-.86-10.07-1.29-15.1Z"/>
      <path class="cls-19" d="M39.62,1321.47v16.79c3.89-3.5,6.71-6.04,9.64-8.68,1.29.95,2.69,1.97,4.64,3.41-2.18,1.37-4.08,2.55-5.96,3.75-5.62,3.58-8.22,9.01-8.26,15.37-.16,24.69-.05,49.38-.04,74.07-.37.37-.74.74-1.11,1.11.12-.15.16-.32.12-.51-7.56-.25-15.12-.5-22.67-.75,5.58-.28,11.16-.86,16.73-.75,3.84.07,5.12-.96,5.08-4.97-.18-22.32-.08-44.64-.09-66.96,0-.99-.13-1.98-.28-4.19-5.46,5.06-10.07,9.34-14.98,13.89-3.34-1.46-3.17-4.16-.55-7.32h4.24c.16-2.14.28-3.64.39-5.15.88-.45,1.95-.73,2.62-1.4,1.84-1.85,3.67-3.75,5.2-5.85,1.33-1.82,3.05-3.87,3.21-5.92.44-5.63.14-11.31.13-16.97.64.34,1.29.68,1.93,1.03Z"/>
      <path class="cls-10" d="M98.71,1024.64c-.51,1.02-1,2.05-1.53,3.07-.62,1.2-.96,2.85-1.95,3.5-4.47,2.93-9.13,5.57-14.27,8.63,2.79.71,4.83,1.22,6.86,1.74-2.27,1-4.54,2.01-6.81,3.01-.45-.63-.78-1.42-1.37-1.86-4.33-3.17-3.18-5.86.35-8.86,4.35-3.69,8.46-7.65,12.57-11.6,1.36-1.31,4.17-2.66.87-4.92.95-.38,1.91-.76,2.86-1.15.97,0,1.95.02,2.92.02.27-.03.53,0,.79.06.04.62.08,1.25.12,1.87,0,0-.33,0-.33,0-.36,2.16-.72,4.32-1.09,6.48Z"/>
      <path class="cls-23" d="M90.62,1375.12c-.01-21.34-.02-42.68-.03-64.02.38,1.54,1.05,3.07,1.1,4.61.23,8.17.31,16.34.44,24.51,0,.3.01.6.02.9-.02,11.62-.03,23.23-.05,34.85-.24-.07-.48-.07-.72.02-.25-.29-.51-.59-.76-.88Z"/>
      <path class="cls-23" d="M61.29,821.69c.4-.43.81-.86,1.22-1.29.31.83.62,1.65.93,2.47,0,3.32,0,6.64.01,9.96.02,3.59.04,7.17.05,10.75,0,1.45,0,2.9,0,4.36.09,17.44.17,34.88.25,52.32,0,0-.18.3-.18.3l.21.28c-1.04,2.24,1.7,5.78-2.39,6.97-.03-.38-.05-.76-.08-1.15.32-1.62.9-3.25.91-4.87.05-23.23.02-46.47.01-69.7-.32-3.47-.64-6.95-.97-10.42Z"/>
      <path class="cls-23" d="M87.72,1107.87c.02-8.19.04-16.37.05-24.56,0,0,.47-.01.47-.01h.47c.08,8.2.16,16.4.25,24.6-.05,5.94-.11,11.88-.16,17.81.14,1.6.27,3.2.41,4.8,0,6.61,0,13.22.01,19.83-.47,0-.95,0-1.42,0-.02-14.16-.04-28.31-.07-42.47Z"/>
      <path class="cls-10" d="M99.08,1102.89c.03-19.47.06-38.95.09-58.42.24.07.49.1.74.09.09,10.08.19,20.17.28,30.25,0,9.12,0,18.24,0,27.37-.37.24-.74.48-1.12.72Z"/>
      <path class="cls-9" d="M113.42,1266.5c-.37-1.12-1.04-2.24-1.05-3.36-.07-16.76-.06-33.51,0-50.27,0-1.01.56-2.01.86-3.01.04,5.01.09,10.02.13,15.03.02,5.41.04,10.83.05,16.24,0,8.46,0,16.91,0,25.37Z"/>
      <path class="cls-11" d="M-1.69,1427.26c-.32-.08-.64-.15-.96-.23.19-.62.39-1.25.58-1.87,0-.63,0-1.26,0-1.89.14-.29.15-.59.03-.89.18-1.53.36-3.07.54-4.6.35,2.39.69,4.77,1.07,7.41,3,0,5.67-.22,8.29.05,3.66.37,4.51-1.22,4.43-4.6-.1-3.82.47-7.66.75-11.49.15,5.04.3,10.08.45,15.12-.17.9-.34,1.8-.51,2.69-4.89.1-9.79.2-14.68.29Z"/>
      <path class="cls-14" d="M100.19,1074.8c-.09-10.08-.19-20.17-.28-30.25.14-7.55.28-15.1.41-22.65.22,1.36.64,2.71.65,4.07.03,16.29,0,32.58,0,48.86-.26-.03-.51-.04-.77-.03Z"/>
      <path class="cls-24" d="M91.38,1376c.24-.09.47-.1.72-.02.13,6.81.29,13.62.36,20.42,0,.42-.63.84-.96,1.27-.36-4.98-.71-9.95-1.07-14.93.32-2.25.64-4.49.96-6.74Z"/>
      <path class="cls-9" d="M100.32,1021.9c-.14,7.55-.28,15.1-.41,22.65-.25.01-.5-.02-.74-.09-.16-6.61-.31-13.22-.47-19.83.37-2.16.73-4.32,1.09-6.48.18,1.25.35,2.5.53,3.75Z"/>
      <path class="cls-4" d="M100.19,1074.8c.26,0,.51,0,.77.03.01,7.47.07,14.95,0,22.42-.02,1.64-.5,3.28-.76,4.91,0-9.12,0-18.25,0-27.37Z"/>
      <path class="cls-3" d="M88.95,1107.91c-.08-8.2-.16-16.4-.25-24.6.32-.32.64-.64.95-.96.11.66.21,1.33.32,1.99.04,7.69.07,15.38.11,23.08-.38.16-.76.32-1.14.48Z"/>
      <path class="cls-10" d="M90.09,1107.42c-.04-7.69-.08-15.39-.11-23.08.2,7.61.4,15.22.6,22.83-.12.18-.28.26-.49.25Z"/>
      <path class="cls-16" d="M86.92,1001.99c2.2,2.52,4.4,5.04,6.6,7.56-.12.12-.23.23-.35.35-2.2-2.53-4.4-5.06-6.6-7.58,0,0,.34-.32.34-.32Z"/>
      <path class="cls-16" d="M99.22,1016.22c-.97,0-1.95-.02-2.92-.02-1.04-2.1-2.08-4.2-3.12-6.29.12-.12.23-.23.35-.35,1.9,2.22,3.79,4.44,5.69,6.67Z"/>
      <path class="cls-4" d="M113.41,1241.13c-.02-5.41-.04-10.83-.05-16.24.02,5.41.04,10.83.05,16.24Z"/>
      <path class="cls-4" d="M63.44,832.83c0-3.32,0-6.64-.01-9.96,0,3.32,0,6.64.01,9.96Z"/>
      <path class="cls-24" d="M89.19,1130.52c-.14-1.6-.27-3.2-.41-4.8.14,1.6.27,3.2.41,4.8Z"/>
      <path class="cls-4" d="M63.5,847.95c0-1.45,0-2.91,0-4.36,0,1.45,0,2.91,0,4.36Z"/>
      <path class="cls-16" d="M84.91,999.43c.3-.12.6-.15.91-.09.29.35.58.7.87,1.05.07.53.15,1.07.22,1.6,0,0-.34.32-.34.32-.55-.96-1.11-1.92-1.67-2.89Z"/>
      <path class="cls-4" d="M86.69,1000.39c-.29-.35-.58-.7-.87-1.05.29-.36.59-.72.88-1.07,0,.71,0,1.42-.01,2.13Z"/>
      <path class="cls-14" d="M100.13,1018.15c-.04-.62-.08-1.25-.12-1.87.04.63.08,1.25.12,1.87Z"/>
      <path class="cls-4" d="M113.34,1209.9c0-.35-.01-.69-.02-1.04.11.24.26.48.32.73.02.07-.2.2-.3.31Z"/>
      <polygon class="cls-4" points="63.8 900.85 63.58 900.57 63.76 900.27 64.03 900.54 63.8 900.85"/>
      <path class="cls-3" d="M92.15,1341.13c0-.3-.02-.6-.02-.9.23-.02.46-.02.7.01-.22.3-.45.59-.67.89Z"/>
      <path class="cls-4" d="M86.07,937.06c-.08-.34-.16-.68-.25-1.01.08.34.16.68.25,1.01Z"/>
      <path class="cls-6" d="M39.62,1321.47c-.64-.34-1.29-.68-1.93-1.03-1.87-2.26-3.69-4.55-5.6-6.77-6.23-7.24-12.49-14.46-18.74-21.68-.37-.64-.74-1.27-1.12-1.91-.3-.3-.61-.61-.91-.91-.99-1.5-1.99-3-2.98-4.5,2.01-.06,4.04-.29,6.04-.16,7.8.51,15.59,1.13,23.38,1.71.6,0,1.19-.01,1.79-.02,10.02.67,20.06,1.09,30.03,2.19,2.13.23,3.99,2.89,5.98,4.43.65.97,1.29,1.94,1.94,2.91,0,0-.05-.04-.05-.04.32.34.64.68.96,1.02,0,0-.03-.03-.03-.03.02,3.83,2.41,5.62,5.71,6.62,0,0-.04-.04-.04-.04.33.33.66.66,1,.99,0,0-.04-.04-.04-.04.69.63,1.38,1.25,2.07,1.88.91,1.59,1.81,3.18,2.72,4.77-8.71,1.91-17.41,3.88-26.14,5.72-8,1.69-16.02,3.26-24.03,4.88Z"/>
      <path class="cls-7" d="M89.65,1257.09c-.67-3.12-1.64-5.95-1.7-8.79-.02-1.15,1.78-3,3.07-3.36,2.43-.67,5.09-.49,7.84-.67.43,2.65.9,5.51,1.4,8.58-3.48,1.39-6.71,2.68-10.61,4.25Z"/>
      <path class="cls-7" d="M98.63,1292.97q1.88,9.56-8.79,12.93c-.68-2.99-1.6-5.93-1.86-8.93-.08-.94,1.46-2.65,2.55-2.95,2.49-.68,5.16-.71,8.1-1.05Z"/>
      <path class="cls-7" d="M47.31,1265.67v-14.01h6c1.03,13.01,1.24,12.98-6,14.01Z"/>
      <path class="cls-7" d="M67.49,1261.65c-.51-3.18-1.14-6.03-1.39-8.91-.47-5.4,4.44-3.56,6.87-5.33,1.94,9.33,1.52,10.42-5.48,14.24Z"/>
      <path class="cls-4" d="M39.55,1286.2c-.6,0-1.19.01-1.79.02,0-21.7-.02-43.4-.03-65.1.31.08.6.18.89.3.01,19.12-.01,38.25.07,57.37.01,2.47.56,4.94.85,7.41Z"/>
      <path class="cls-7" d="M38.62,1221.41c-.29-.13-.59-.23-.89-.3-2.61-3.4-5.21-6.8-7.82-10.21,3.54,3.35,7.08,6.7,10.61,10.06-.63.15-1.27.3-1.9.45Z"/>
      <path class="cls-7" d="M84.08,1303.3c-3.3-1-5.69-2.79-5.71-6.62,1.9,2.21,3.81,4.41,5.71,6.62Z"/>
      <path class="cls-7" d="M77.49,1295.73c-.65-.97-1.29-1.94-1.94-2.91.65.97,1.29,1.94,1.94,2.91Z"/>
      <path class="cls-7" d="M87.07,1306.09c-.69-.63-1.38-1.25-2.07-1.88.69.63,1.38,1.25,2.07,1.88Z"/>
      <path class="cls-9" d="M108.49,1208.88c.63-.21,1.27-.43,1.9-.64-.64.21-1.27.43-1.9.64Z"/>
      <path class="cls-7" d="M85.03,1304.25c-.33-.33-.66-.66-1-.99.33.33.66.66,1,.99Z"/>
      <path class="cls-7" d="M78.4,1296.71c-.32-.34-.64-.68-.96-1.02.32.34.64.68.96,1.02Z"/>
      <path class="cls-22" d="M82.06,1052.25c1.53,2.15,3.12,4.27,4.58,6.47.74,1.12,1.24,2.39,1.85,3.59-4.56.42-9.15.62-13.66,1.33-8.83,1.37-17.62,2.99-26.4,4.62-1.14.21-2.15,1.1-3.22,1.67-.62.09-1.23.18-1.85.28-7.98,1.27-16.01,2.26-23.9,3.92-3.73.78-6.22.94-8.71-2.69-3.12-4.54-7.17-8.45-10.81-12.63l-.05-.06c-.29-.31-.58-.63-.87-.94-.27-.33-.54-.65-.82-.98-.35-.33-.7-.65-1.05-.98l.05.03c-1.19-1.33-2.38-2.66-3.57-3.99l-.28.15s.27-.17.27-.17c-1.07-1.74-2.14-3.49-3.2-5.23,2.22-3.98,2.98-9.13,8.63-10.37.75-.16,1.64-1.61,1.73-2.53.25-2.66.13-5.35.15-8.03,2.6-.05,5.19-.1,7.79-.15.54.02,1.07.04,1.61.06,3.52.32,7.04.65,10.56.97,10.13.35,20.27.66,30.4,1.05,6.1.24,11.07,2.1,15.08,7.44,4.63,6.18,10.44,11.49,15.74,17.17Z"/>
      <path class="cls-20" d="M43.36,1070.21c.62-.09,1.23-.18,1.85-.28.59,1.66,1.18,3.33,1.98,5.58-4.64,4.3-10.45,8.47-14.26,14.72-1.24,2.04-3.81,3.27-6.37,5.35.33,1.88-3.84,5.51-7.14,5.39-2.08,2.33-3.69,4.14-5.3,5.94-.32,0-.65,0-.97,0-.31-4.09-.62-8.18-.93-12.27,1.38.64,2.75,1.27,4.67,2.16,6.48-6.19,13.6-12.88,20.58-19.71,2.15-2.1,3.93-4.58,5.89-6.89Z"/>
      <path class="cls-20" d="M87.72,1107.87c.02,14.16.04,28.31.07,42.47-.03.15-.02.42-.09.44-.27.08-.57.08-.86.11,0-4.4,0-8.8,0-13.2,0-2.99.2-5.99-.08-8.95-.15-1.63-1.12-3.18-2.05-5.64-5.36,6-6.79,14.33-15.17,15.85-.24.71-.32,2.43-.97,2.68-5.9,2.26-.77,3.5.38,5.09-1.81.46-3.61.92-5.5,1.4-.13,1.44-.25,2.78-.37,4.12-1.83-2.23-3.67-4.45-5.41-6.57,7.99-8.21,15.74-16.39,23.75-24.32,3.02-2.99,6.17-5.6,5.49-10.48-.13-.95.53-2,.83-3.01Z"/>
      <path class="cls-13" d="M64.67,1110.38c-.59-2.99-1.09-5.09-1.38-7.22-.18-1.36-.03-2.76-.03-4.08q12.88-2.52,11.91,7.78c-3.29,1.1-6.73,2.25-10.49,3.51Z"/>
      <path class="cls-13" d="M63.06,1152.24c.12-1.34.24-2.68.37-4.12,1.89-.48,3.69-.94,5.5-1.4,2.01,0,4.01,0,6.29,0v8.81c-.36.16-.88.42-1.41.63q-7.77,3.11-10.75-3.92Z"/>
      <path class="cls-6" d="M22.96,1154.38h5.71c1.94,10.9,1.29,12.51-5.71,13.78v-13.78Z"/>
      <path class="cls-6" d="M28.94,1105.43q1.07,12.21-5.91,13.66v-13.66h5.91Z"/>
      <path class="cls-13" d="M43.04,1114.2c-2.7-11.44-2.22-12.57,5.5-12.73,1.91,9.38.9,11.73-5.5,12.73Z"/>
      <path class="cls-13" d="M48.66,1150.51c1.38,9.96.67,11.55-5.53,12.74-2.6-11.11-2.1-12.32,5.53-12.74Z"/>
      <path class="cls-24" d="M15.08,1170.24c-.67,0-1.35.02-2.02.03,0-1.32.02-2.64.03-3.96,0-11.28,0-22.56,0-33.84.05-.29.1-.59.13-.88.28-.02.56-.03.83-.04.34,12.9.68,25.8,1.03,38.69Z"/>
      <path class="cls-19" d="M89.66,1082.36c-.32.32-.64.64-.95.96,0,0-.47,0-.47,0,0,0-.47.01-.47.01-.31-4.75-.76-9.5-.85-14.25-.02-1.23,1.05-2.47,1.62-3.71.43,5.03.86,10.07,1.29,15.1,0,.65-.01,1.3-.02,1.96l-.15-.06Z"/>
      <path class="cls-23" d="M14.05,1131.55c-.28.01-.56.03-.83.04-.02-8.23-.05-16.45-.07-24.68.32,0,.65,0,.97,0-.02,8.21-.05,16.42-.07,24.64Z"/>
      <path class="cls-17" d="M-12.47,1022.73c.09-.57.17-1.14.26-1.71,4.05-5.39,8.09-10.78,12.14-16.17l-.06.06c2.83-3.62,5.4-7.49,8.57-10.78,2.08-2.15,5.02-3.46,7.58-5.15,2.17,2.53,4.34,5.07,6.5,7.6,6.86,8.23,13.67,16.51,20.62,24.66,1.37,1.61,3.26,2.77,4.92,4.15,5.98-1.19,11.96-2.39,17.94-3.58.95-.14,1.91-.28,2.86-.42,3.25-.72,6.5-1.43,9.74-2.15.54-.05,1.08-.09,1.62-.14,2.51-.35,5.01-.71,7.52-1.06,1.9-.23,3.79-.46,5.69-.7,3.3,2.26.49,3.6-.87,4.92-4.11,3.95-8.22,7.92-12.57,11.6-3.54,3-4.68,5.69-.35,8.86.59.43.92,1.23,1.37,1.86.38,1.84.77,3.69,1.15,5.53-.03.71-.07,1.43-.1,2.14-5.3-5.69-11.1-10.99-15.74-17.17-4-5.35-8.97-7.21-15.08-7.44-10.13-.39-20.27-.71-30.4-1.05-1.06-.28-2.13-.56-3.19-.83-.83-.01-1.66-.03-2.49-.04-1.62-.03-3.25-.07-4.87-.1-.54-.02-1.07-.04-1.61-.06-3.17-.42-6.33-.85-9.5-1.27-3.88-.52-7.77-1.03-11.65-1.55Z"/>
      <path class="cls-21" d="M80.23,1019.1c-.54.05-1.08.09-1.62.14-3.25.72-6.5,1.43-9.74,2.15-.95.14-1.91.28-2.86.43-.7-.27-1.43-.85-2.08-.77-4.76.56-9.52,1.16-14.24,1.99-.66.12-1.09,1.54-1.62,2.37-1.65-1.37-3.55-2.54-4.92-4.15-6.95-8.16-13.76-16.43-20.62-24.67-.58-1.83-1.17-3.65-1.76-5.51h11.6c1.14,2.56,1.99,4.47,3.13,7.02,3.72-4.47,7.42-5.69,11.93-5.55,4.3.13,8.61-.41,12.92-.66.33-.07.67-.15,1-.22,0,0,.46.03.46.03h.46s.02,0,.02,0c.66.29,1.33.59,1.99.88.59.06,1.19.12,1.78.17.86.57,1.7,1.6,2.57,1.62,3.94.12,7.89-.05,11.83-.12l-.16.23s.18-.21.18-.21c1.05,1.36,2.11,2.71,3.17,4.07.42.36.84.72,1.27,1.08.56.96,1.11,1.92,1.67,2.89,2.2,2.53,4.4,5.06,6.59,7.58,1.04,2.1,2.08,4.2,3.12,6.3-.95.38-1.91.76-2.86,1.15-1.9.23-3.79.46-5.69.7-2.67-.83-5.47-2.51-7.52,1.06Z"/>
      <path class="cls-18" d="M60.34,991.89c-4.31.25-8.63.79-12.92.66-4.51-.14-8.21,1.09-11.93,5.55-1.14-2.55-1.99-4.47-3.13-7.02h-11.6c.59,1.85,1.18,3.68,1.76,5.51-2.17-2.53-4.34-5.07-6.51-7.6,11.95.87,23.91,1.75,35.86,2.59,2.81.2,5.64.22,8.46.32Z"/>
      <path class="cls-24" d="M9.31,830.3c.36.02.71.04,1.07.06.3,5.61.6,11.22.9,16.84-.3,8.41-.79,16.82-.86,25.23-.12,13.29.04,26.59.08,39.88.22.33.45.65.67.98-.47.47-.94.94-1.42,1.41-.13-2.19-.35-4.38-.36-6.57-.09-21.2-.15-42.41-.21-63.61-.02-.72-.03-1.44-.05-2.16.1-.23.11-.47.03-.7.05-3.78.1-7.56.15-11.34Z"/>
      <path class="cls-23" d="M9.18,844.51c.07,21.2.12,42.41.21,63.61,0,2.19.23,4.38.36,6.57-.4.57-.81,1.13-1.21,1.69-.03-22.93-.07-45.85-.06-68.78,0-1.03.46-2.06.7-3.09Z"/>
      <path class="cls-7" d="M8.67,960.96q3.02-.31,5.29,12.57h-5.29v-12.57Z"/>
      <path class="cls-7" d="M-.07,1004.84c-3.34.54-5.04-.54-4.75-4.26.25-3.11.05-6.26.05-9.59,3.74.28,5.15,1.95,4.81,5.44-.27,2.8-.14,5.65-.18,8.47,0,0,.06-.06.06-.06Z"/>
      <path class="cls-7" d="M-4.62,974.99v-14.85c2.11,2.05,4.44,3.33,4.36,4.43-.26,3.57,2.5,8.65-4.36,10.42Z"/>
      <path class="cls-7" d="M25.93,961.62h3.31c0,3.65.16,7.16-.1,10.63-.08.99-1.4,1.87-3.21,2.36v-12.99Z"/>
      <path class="cls-7" d="M71.43,966.34c-.3-2.12-.57-4.13-.87-6.21,2.2-.6,4.06-1.1,5.9-1.6q2.11,5.54-5.03,7.82Z"/>
      <path class="cls-7" d="M50.1,963.71c-.6,3.39,1.79,7.9-4.52,8.11v-8.11h4.52Z"/>
      <path class="cls-16" d="M80.45,994.26c-3.94.07-7.89.23-11.83.12-.87-.03-1.72-1.06-2.57-1.62,1.47-.33,3.11-.35,4.37-1.05,4.25-2.35,7.43-1.19,10.03,2.56Z"/>
      <path class="cls-7" d="M58.51,968.96c-1.67-4.03-1.93-7.14,3.36-8.43.67,3.41,1.68,6.72-3.36,8.43Z"/>
      <path class="cls-16" d="M83.65,998.35c-1.06-1.36-2.11-2.71-3.17-4.07,1.06,1.36,2.11,2.71,3.17,4.07Z"/>
      <path class="cls-23" d="M6.55,918.96c.54-.62,1.08-1.25,1.62-1.87-.54.62-1.08,1.25-1.62,1.87Z"/>
      <path class="cls-19" d="M11.17,913.28c-.23-.33-.45-.65-.67-.98.57.02,1.13.03,1.69.05-.34.31-.68.62-1.02.93Z"/>
      <path class="cls-18" d="M64.27,992.58c-.66-.29-1.33-.59-1.99-.88.66.29,1.33.59,1.99.88Z"/>
      <path class="cls-18" d="M62.27,991.69h-.46s-.46-.02-.46-.02c.16-.23.32-.45.47-.68.15.23.3.47.45.7Z"/>
      <path class="cls-23" d="M5.69,920.14c.29-.39.57-.78.86-1.16-.29.39-.57.78-.86,1.16Z"/>
      <path class="cls-23" d="M9.16,841.64c.08.24.07.47-.03.7-.08-.17-.17-.34-.21-.52,0-.04.16-.12.25-.19Z"/>
      <path class="cls-20" d="M11.32,1289.17c.3.3.61.61.91.91.37.64.74,1.27,1.12,1.91,6.25,7.23,12.51,14.44,18.74,21.68,1.91,2.22,3.74,4.51,5.6,6.77,0,5.66.3,11.34-.13,16.97-.16,2.05-1.88,4.1-3.21,5.92-1.54,2.1-3.36,4-5.2,5.85-.67.67-1.73.94-2.62,1.4,0-3.57,0-7.13,0-10.5-3.82-1.49-4.87-.21-4.76,2.94.15,4.23.09,8.47.13,12.71-2.62,3.16-2.78,5.86.55,7.32,4.91-4.55,9.51-8.82,14.98-13.89.15,2.22.28,3.21.28,4.19,0,22.32-.09,44.64.09,66.96.03,4.01-1.24,5.04-5.08,4.97-5.57-.11-11.15.47-16.73.75-.83-.59-1.66-1.17-2.48-1.76-.15-5.04-.3-10.08-.45-15.12.14-.65.27-1.31.41-1.96,0-1.23,0-2.46,0-3.68-.73-.25-1.47-.51-2.2-.76-3.76,0-7.52,0-11.28,0-.61.77-1.72,1.53-1.75,2.33-.09,3.19.15,6.38.27,9.58,0,1.04,0,2.08,0,3.12-.18,1.53-.36,3.07-.54,4.6-.11.08-.33.19-.31.24.06.22.19.43.29.64,0,.63,0,1.26,0,1.89-4.84,0-9.68-.14-14.51.08-3.21.15-4.43-.85-4.34-4.2.09-3.32-.53-6.67-.84-10,0-.62,0-1.25,0-1.87,1.59-2.44,3.02-6.73,4.82-6.89,2.98-.27,4.04-1.48,4.43-3.57.46-2.47.19-5.08.24-7.63,1.23-.51,2.45-1.03,3.71-1.56,0-3.87.21-7.49-.12-11.06-.11-1.13-1.68-2.12-2.58-3.17-.67,1.04-1.86,2.06-1.92,3.14-.23,3.9-.07,7.83-.06,11.74.12,5.03-4.52,6.01-7.24,8.55-.43-.63-.86-1.25-1.28-1.87-.29-.95-.59-1.89-.88-2.84-.29-.08-.55-.2-.8-.37-.1-.52-.21-1.04-.31-1.56-.01-7.83-.03-15.66-.04-23.48,0,0,.39-.11.39-.11-.04-2.52-.08-5.03-.12-7.55.07-2.53.14-5.06.21-7.59-.05-.61-.09-1.22-.14-1.82-.11-6.35-.22-12.69-.34-19.04-.17-6.83-.66-13.77,6.57-17.88.47-.73.94-1.46,1.41-2.19,0,0,.26-.29.26-.29,1.45-.52,2.97-.89,4.33-1.59,7.74-3.95,7.89-15.72,17.89-17.4.22-.04.33-.53.56-.72,1.36-1.1,2.74-2.18,4.11-3.26ZM7.29,1353.39c0-.63,0-1.27,0-1.9-.23-1.26-.47-2.52-.7-3.79-.1-2.49-.19-4.98-.29-7.47-1.59-.39-3.19-.77-5.37-1.3,0,5.08-.15,9.25.09,13.41.07,1.28,1.2,2.5,1.84,3.74,1.48-.9,2.96-1.79,4.44-2.69ZM7.36,1389.31c-.28-4.01-.75-8.01-.77-12.02-.02-2.97-1.33-3.5-3.8-2.87-.46.06-1.32.11-1.32.17-.06,5.08-.06,10.16,0,15.24,0,.05.86.1,1.31.15,1.26.04,2.51.08,3.77.12.26-.26.53-.52.79-.78ZM26.38,1390c0-4.39.18-8.44-.11-12.46-.08-1.14-1.52-2.18-2.34-3.27-.77,1.14-2.09,2.24-2.19,3.44-.29,3.57-.11,7.19-.08,10.78,0,.44.23.87.41,1.51h4.32ZM-13.27,1341.42c0,3.83-.15,7.74.1,11.63.07,1.05,1.34,2.02,2.07,3.03.82-1,2.21-1.92,2.35-3.01.35-2.79.14-5.65.18-8.48.05-3.01-1.5-3.88-4.69-3.17Z"/>
      <path class="cls-19" d="M91.38,1376c-.32,2.25-.64,4.49-.96,6.74-1.19.91-2.63,1.62-3.51,2.75-2.32,2.98-4.24,6.28-6.64,9.19-1.01,1.23-2.82,1.81-4.94,3.1-.1-.25.31.81.84,2.18-2.41,1.28-4.83,2.57-8.1,4.31-.02.06-.33,1.34-.82,3.4-1.67-1.58-2.84-2.68-4.2-3.97.9-1.12,1.51-2,2.24-2.76,5.64-5.93,11.27-11.87,16.98-17.73,2.7-2.78,5.57-5.39,8.36-8.09.25.29.51.59.76.88Z"/>
      <path class="cls-13" d="M81.47,1336.74q1.09,7.13-6.55,9.22c-.39-2.35-1.85-5.76-.9-6.69,1.67-1.63,4.82-1.75,7.46-2.54Z"/>
      <path class="cls-13" d="M75,1380.54c-.54-2.36-.99-4.32-1.63-7.1,2.75-.5,5.34-.97,7.89-1.43,1.63,6.77,1.13,7.41-6.27,8.53Z"/>
      <path class="cls-11" d="M44.67,1377.28h4.6c1.89,7.75,1.21,9.29-4.6,9.86v-9.86Z"/>
      <path class="cls-11" d="M59.87,1349.25c-2.91-5.95-2.08-8.12,3.5-9.61,1.86,5.83,1.39,7.24-3.5,9.61Z"/>
      <path class="cls-11" d="M64.07,1374.64c-.28,3.56,1.72,7.55-3.22,8.7-.47.11-2.15-2.5-2.28-3.93-.29-3.34.9-5.79,5.5-4.77Z"/>
      <path class="cls-11" d="M49.45,1343.41c-1.39,3.39,2.32,8.62-4.81,9.06v-9.06h4.81Z"/>
      <path class="cls-19" d="M11.28,847.19c-.3-5.61-.6-11.22-.9-16.84,6.95-1.18,13.9-2.4,20.85-3.53,1.5-.24,3.05-.19,4.58-.28-6.05,4.48-12.27,8.76-18.07,13.55-2.11,1.74-3.16,4.73-4.81,7.07-.19.27-1.09.03-1.66.02Z"/>
      <path class="cls-19" d="M62.25,832.11c0,23.23.04,46.47-.01,69.7,0,1.62-.59,3.25-.91,4.87v-19.09c-1.68-.23-2.98-.41-4.47-.62-.18.92-.39,2.06-.72,3.78-1.65-.81-2.97-1.45-4.28-2.09.72-1.55,1.44-3.09,2.16-4.64.87-1.1,1.51-2.72,2.64-3.21,5.12-2.22,4.79-6.45,4.73-10.9-.15-10.97-.09-21.95,0-32.92.01-1.63.57-3.26.88-4.89Z"/>
      <path class="cls-13" d="M54.01,884.02c-.72,1.55-1.44,3.09-2.16,4.64-6.46,1.91-7.06,1.35-6.17-6.28,2.71,1.09,6.41-5,8.33,1.64Z"/>
      <path class="cls-13" d="M44.55,847.64c3.48-.46,5.58-.75,8.54-1.14,0,2.21.79,4.92-.22,6.25-1.02,1.33-4.74,2.36-5.68,1.59-1.52-1.25-1.73-4.09-2.64-6.69Z"/>
      <path class="cls-13" d="M17.91,896.64c-.54-.47-1.07-.93-1.61-1.4.27-.24.27-.48.02-.73.24-2.74.49-5.48.73-8.21.31-.11.63-.23.95-.35,1.11.31,2.21.62,3.32.93.11.33.22.66.32.99,0,2.15,0,4.31,0,6.46-.29.35-.57.69-.86,1.03-.65.36-1.29.72-1.94,1.08-.31.06-.62.12-.93.19Z"/>
      <path class="cls-11" d="M20.95,851.71c-1.11,4.02,2.43,8.82-4.47,10.36v-9.78c.95-.12,2.26-.29,4.47-.58Z"/>
      <path class="cls-13" d="M30.11,893.63c.76-3.98-2.21-8.68,4.44-9.72.19,3.89,2.06,8-4.44,9.72Z"/>
      <path class="cls-13" d="M34.64,849.48c.35,3.7,1.42,7.53-3.3,9.49-2.72-5.91-1.82-8.6,3.3-9.49Z"/>
      <path class="cls-23" d="M17.91,896.64c.31-.06.62-.13.93-.19-.31.06-.62.13-.93.19Z"/>
      <path class="cls-23" d="M21.64,887.88c-.11-.33-.22-.66-.32-.99.11.33.22.66.32.99Z"/>
      <path class="cls-23" d="M18,885.96c-.32.12-.63.23-.95.35.32-.12.63-.23.95-.35Z"/>
      <path class="cls-23" d="M16.32,894.52c.26.25.25.49-.02.73-.2-.25-.19-.49.02-.73Z"/>
      <path class="cls-23" d="M20.78,895.37c.29-.34.57-.69.86-1.03-.29.34-.57.69-.86,1.03Z"/>
      <path class="cls-20" d="M-51.96,1045.72c5.75-6.99,11.69-13.83,17.12-21.05,1.77-2.35,3.1-2.93,5.49-1.65,4.42,5.61,8.84,11.22,13.26,16.83-.42,1.54-.38,3.51-1.34,4.54-3.26,3.51-6.96,6.6-10.32,10.01-3.46,3.52-3.28,4.07.85,6.38,4.92-3.29,6.81-9.44,12.69-11.48,2.6.85,5.2,1.7,7.81,2.56l-.27.17s.28-.15.28-.15c1.19,1.33,2.38,2.66,3.58,3.99,0,0-.05-.03-.05-.03.35.33.7.65,1.05.98.27.33.54.65.82.98.29.31.58.63.88.94,0,0,.05.06.05.06.81,2.08,1.02,4.88,2.52,6.13,8.09,6.75,11.31,15.06,9.52,25.42-.24,1.37.15,2.85.25,4.28.31,4.09.62,8.18.93,12.27.02,8.23.05,16.45.07,24.68-.04.3-.08.59-.13.88-.29,1.48-.81,2.96-.82,4.44-.08,8.32-.08,16.64,0,24.95.01,1.48.54,2.96.82,4.44,0,1.32-.02,2.64-.03,3.96-2.47-.07-4.95-.14-7.42-.21-2.41-.92-4.81-1.84-7.58-2.9,0-2.11.13-4.46-.03-6.78-.23-3.34-.68-6.66-1.03-9.99-.5-.05-1-.11-1.51-.16-.65-.05-1.29-.1-1.93-.16-.67.04-1.35.08-2.02.11-.37.06-.74.12-1.11.19-.03,5.65-.06,11.3-.09,16.95.08.76.16,1.52.24,2.28-.38.5-.75.99-1.13,1.49-.26.35-.53.69-.79,1.04-2.82,3.47-5.63,6.94-8.45,10.41l-1,1.84h0c-.3.34-.61.69-.91,1.05l.06-.08c-.32.41-.64.81-.96,1.22-.38.51-.76,1.01-1.14,1.52-5.03.02-10.06-.09-15.08.13-1.27.05-2.5,1.1-3.75,1.69-.3,1.78-.66,3.55-.89,5.34-.35,2.71-.62,5.43-.93,8.15-1.96.27-3.95.89-5.88.75-7.2-.52-14.38-1.3-21.56-1.98-.4-.95-.79-1.91-1.19-2.86-.14-4.08-.27-8.16-.41-12.24.16-5.35.32-10.71.47-16.06.11-.23.22-.46.31-.7.22-.41.63-.81.64-1.22.07-12.96.14-25.92.06-38.88,0-.92-1.21-1.84-1.86-2.75.11-.56.23-1.12.34-1.68.25-5.65.5-11.3.75-16.95,1.35-7.92,9.42-9.78,13.58-15.23-1.43-1.1-2.96-2.27-5.34-4.09-2.22,2.49-4.44,4.98-7.37,8.26,0-2.77.22-4.63-.07-6.41-.24-1.47-1.09-2.84-1.67-4.26-.32-1.29-.65-2.58-.97-3.86.28-1.03.93-2.13.77-3.08-.75-4.47,1.59-7.58,4.15-10.78,3.24-4.06,6.2-8.34,9.29-12.53,2.8-3.7,5.59-7.41,8.39-11.11ZM-31.32,1155.11c.13-.32.26-.64.39-.96,3.36-7.1,9.26-11.81,16.05-16.15-1.74-1.46-3-2.51-4.91-4.11-4.87,5.27-9.58,10.36-14.28,15.44-2.68-.04-5.29.01-4.81,3.88-3.72,3.6-7.45,7.2-11.39,11.01,1.74,1.88,3.14,3.4,4.39,4.75,2.06-2.43,3.8-4.49,5.6-6.61.55.85.95,1.48,1.35,2.11.05,1.23-.1,2.52.21,3.68.43,1.62,1.22,4.48,1.85,4.48,2.45,0,4.9-.93,7.35-1.51-.6-5.34-1.2-10.67-1.79-16.01ZM-5.93,1123.49c3.23.71,3.05-1.26,2.67-3.39.17-.29.16-.58-.01-.86.02-5.69.04-11.38.07-17.07l-.63-.7c-1.57,0-3.13.01-4.7.02-.6.32-1.72.62-1.73.95-.12,6.55-.34,13.11-.01,19.65.13,2.56,1.98,3.71,4.34,1.41ZM-29.48,1122c-.73-6.9-1.47-13.79-2.2-20.69-2.21-.39-4.43-.78-7.07-1.25,0,6.96-.12,12.9.08,18.83.06,1.64,1.12,4.64,1.68,4.63,2.51-.03,5-.94,7.5-1.52ZM-57.44,1172.81c.83-.07,1.66-.13,2.49-.2.66-1.22,1.8-2.41,1.9-3.67.27-3.75-.14-7.55.21-11.29.44-4.68-1.81-6.49-6.09-6.86,0,6.2-.08,12.28.07,18.35.03,1.23.93,2.44,1.42,3.67ZM-58.68,1122.97c.31.18.62.36.93.53,1.31-.01,2.62-.03,3.93-.04l.65-.48c.08-4.55-.12-9.12.32-13.64.46-4.6-1.21-7.13-5.75-7.8-.14.47-.28.94-.42,1.41.11,6.67.22,13.34.33,20Z"/>
      <path class="cls-5" d="M-19.81,1182.55c2.82-3.47,5.63-6.94,8.45-10.41.26-.35.53-.69.8-1.04.38-.5.75-.99,1.13-1.49.31-.42.63-.83.94-1.25,1.19.6,2.7.93,3.52,1.86,5.5,6.21,10.86,12.55,16.26,18.84,1.9,2.17,3.81,4.34,5.71,6.51,4.31,5.11,8.61,10.22,12.92,15.33,2.61,3.4,5.21,6.8,7.82,10.21,0,21.7.02,43.4.03,65.1-7.79-.58-15.58-1.2-23.38-1.71-2-.13-4.03.1-6.04.16-1.52.44-3.56.4-4.49,1.4-3.78,4.05-7.21,8.42-10.77,12.67-1.88-.83-3.77-1.66-6.09-2.68-.38,4.69-.66,8.17-.94,11.66-.54,1.47-1.09,2.94-1.63,4.42,0,0-.26.29-.25.3-.47.73-.94,1.46-1.41,2.19-7.23,4.11-6.73,11.06-6.57,17.88-.28-.27-.55-.53-.83-.8-1.18-1.26-2.27-3.5-3.57-3.63-6.34-.64-12.73-.71-19.1-.99-.62-.42-1.23-.85-1.85-1.27-.03-3.71-.07-7.43-.1-11.14-.02-22.71-.03-45.41-.05-68.12.14-.27.11-.53-.09-.77.02-.98.03-1.95.05-2.93.03-5.01.06-10.01.09-15.02,0-1.27,0-2.55,0-3.82-.01-.3-.02-.61-.03-.91.15-.27.24-.56.3-.87.18-.38.37-.77.55-1.15,3.9-5.57,7.79-11.15,11.69-16.72,3.74-4.75,7.48-9.5,11.21-14.25.6-.67,1.19-1.34,1.79-2.01.38-.51.76-1.01,1.14-1.52.32-.41.64-.81.96-1.22,0,0-.06.08-.06.08.3-.35.61-.71.91-1.06,0,0,0,.01,0,.01.33-.61.67-1.22,1-1.84ZM16.06,1247.33c-.41.43-.83.86-1.24,1.29,0,6.9,0,13.79-.01,20.69,1.81.42,3.62.83,5.91,1.36v-23.12c-1.55-.07-3.1-.14-4.65-.22ZM-34.65,1317.44c1.84.61,3.68,1.22,5.52,1.82.26-.17.52-.35.78-.52-.01-4.55-.37-9.14.06-13.65.45-4.74-1.19-7.31-6.37-8.06v19.34c-.07.11-.22.23-.21.33.03.25.14.49.22.74ZM-14.23,1247.81c0,1.1,0,1.85,0,2.61,0,5.48-.03,10.95,0,16.43.04,5.64,4.39,3.21,6.92,3.31,2.83.11,2.56-1.76,1.93-4.21-.94-3.69-1.12-7.62-1.26-11.46-.25-7.05-.13-7.05-7.61-6.67ZM-34.2,1247.98v21.97h5.69v-19.09c-1.75-.88-3.36-1.7-5.69-2.88Z"/>
      <path class="cls-11" d="M17,1195.58c-1.9-2.17-3.81-4.34-5.71-6.51,4.59-3.6,9.18-7.19,12-9.41.72.84,2,2.35,3.28,3.85-.76-.24-.63,5.23-6.14,4.47-.78-.11-2.27,4.94-3.43,7.6Z"/>
      <path class="cls-23" d="M-3.02,1150.39c.35,3.33.8,6.65,1.03,9.99.16,2.33.03,4.68.03,6.78,2.77,1.06,5.18,1.98,7.58,2.9-2.74-.34-5.49-.68-8.65-1.07v-18.6Z"/>
      <path class="cls-7" d="M82.16,1050.11c-.38-1.84-.77-3.69-1.15-5.53,2.27-1,4.54-2.01,6.81-3.01,2.82,2.26,2.68,6.7-.35,7.73-1.67.57-3.53.56-5.31.81Z"/>
      <path class="cls-10" d="M89.81,1082.41c0-.65.01-1.3.02-1.96.45.32.9.65,1.35.97-.46.33-.91.65-1.37.98Z"/>
      <path class="cls-11" d="M21.89,1355.73c-.03-4.24.02-8.48-.13-12.71-.11-3.15.94-4.43,4.76-2.94,0,3.37,0,6.93,0,10.5-.12,1.5-.23,3.01-.39,5.15h-4.24Z"/>
      <path class="cls-6" d="M-1.5,1417.78c0-1.04,0-2.08,0-3.12.49-3.97.98-7.93,1.48-11.9,3.76,0,7.52,0,11.28,0,.58.56,1.16,1.12,1.74,1.68.16.92.31,1.84.47,2.76-.14.65-.27,1.31-.41,1.96-.28,3.83-.85,7.67-.75,11.49.08,3.38-.76,4.98-4.43,4.6-2.62-.27-5.28-.05-8.29-.05-.38-2.64-.73-5.03-1.07-7.41Z"/>
      <path class="cls-19" d="M-6.92,1298.73c3.56-4.25,7-8.62,10.77-12.67.93-1,2.96-.96,4.49-1.4.99,1.5,1.99,3,2.98,4.5-1.37,1.08-2.75,2.16-4.11,3.26-.23.19-.34.68-.56.72-10,1.68-10.15,13.45-17.89,17.4-1.36.69-2.88,1.07-4.33,1.59.54-1.48,1.08-2.95,1.63-4.42,2.34-2.99,4.69-5.99,7.03-8.98Z"/>
      <path class="cls-19" d="M13.35,1291.99c-.37-.64-.74-1.27-1.12-1.91.37.64.74,1.27,1.12,1.91Z"/>
      <path class="cls-15" d="M12.22,1094.64c-.1-1.43-.48-2.91-.25-4.28,1.79-10.36-1.43-18.67-9.52-25.42-1.5-1.25-1.72-4.05-2.52-6.13,3.65,4.18,7.69,8.09,10.81,12.63,2.49,3.63,4.98,3.48,8.71,2.69,7.89-1.66,15.93-2.65,23.9-3.92-1.95,2.31-3.73,4.78-5.89,6.89-6.98,6.83-14.1,13.52-20.58,19.71-1.92-.89-3.29-1.53-4.67-2.16Z"/>
      <path class="cls-12" d="M.89,1025.7c-.02,2.68.1,5.37-.15,8.03-.09.92-.98,2.36-1.73,2.53-5.65,1.24-6.41,6.39-8.63,10.37-.6-.36-1.19-.73-1.79-1.09-.96-1.52-1.93-3.04-2.89-4.56.65-.22,1.5-.24,1.91-.69,4.46-4.83,8.84-9.73,13.25-14.61l.03.02Z"/>
      <path class="cls-12" d="M-.82,1024.28c3.17.42,6.33.85,9.5,1.27-2.59.05-5.19.1-7.79.15,0,0-.03-.02-.03-.02-.56-.47-1.13-.93-1.69-1.4Z"/>
      <path class="cls-22" d="M10.29,1025.61c1.62.03,3.25.07,4.87.1.83.01,1.66.03,2.5.04,1.06.28,2.13.56,3.19.83-3.52-.33-7.04-.65-10.56-.98Z"/>
      <path class="cls-23" d="M13.08,1166.31c-.29-1.48-.81-2.96-.82-4.44-.08-8.32-.08-16.64,0-24.95.01-1.48.54-2.96.82-4.44,0,11.28,0,22.56,0,33.84Z"/>
      <path class="cls-22" d="M-.82,1024.28c.56.47,1.13.93,1.69,1.4-4.41,4.88-8.79,9.78-13.25,14.61-.41.44-1.26.47-1.91.68-.6-.38-1.2-.76-1.8-1.13-4.42-5.61-8.84-11.22-13.26-16.83,4.01.24,8.01.61,12.03.67,1.61.02,3.23-.62,4.85-.96,3.88.52,7.77,1.03,11.65,1.55Z"/>
      <path class="cls-18" d="M48.06,1025.4c.53-.82.96-2.25,1.62-2.37,4.72-.83,9.48-1.44,14.24-1.99.65-.08,1.39.5,2.08.77-5.98,1.19-11.96,2.39-17.94,3.58Z"/>
      <path class="cls-18" d="M68.86,1021.39c3.25-.72,6.49-1.43,9.74-2.15-3.25.72-6.49,1.43-9.74,2.15Z"/>
      <path class="cls-18" d="M80.23,1019.1c2.05-3.57,4.85-1.89,7.52-1.06-2.51.35-5.01.71-7.52,1.06Z"/>
      <path class="cls-12" d="M17.66,1025.75c-.83-.01-1.66-.03-2.5-.04.83.01,1.66.03,2.5.04Z"/>
      <path class="cls-13" d="M26.38,1390h-4.32c-.18-.64-.4-1.07-.41-1.51-.03-3.6-.21-7.21.08-10.78.1-1.2,1.42-2.29,2.19-3.44.82,1.09,2.26,2.13,2.34,3.27.29,4.02.11,8.07.11,12.46Z"/>
      <path class="cls-13" d="M2.79,1374.42c2.47-.64,3.78-.11,3.8,2.87.02,4.01.49,8.02.77,12.02-.26.26-.53.52-.79.78-1.26-.04-2.51-.08-3.77-.12,0-5.18,0-10.37,0-15.55Z"/>
      <path class="cls-6" d="M7.28,1351.48c0,.63,0,1.27,0,1.9-3.04,1.23-4.82.55-4.48-3.07.27-2.89.53-5.8,1.1-8.63.12-.62,1.55-.98,2.38-1.45.1,2.49.19,4.98.29,7.47.23,1.26.47,2.52.7,3.79Z"/>
      <path class="cls-11" d="M6.29,1340.22c-.83.48-2.26.84-2.38,1.45-.57,2.84-.83,5.74-1.1,8.63-.34,3.62,1.44,4.31,4.48,3.07-1.48.9-2.96,1.79-4.44,2.69-.64-1.25-1.77-2.46-1.84-3.74-.24-4.16-.09-8.33-.09-13.41,2.18.53,3.77.92,5.37,1.3Z"/>
      <path class="cls-11" d="M2.79,1374.42c0,5.18,0,10.37,0,15.55-.46-.05-1.31-.09-1.31-.15-.06-5.08-.07-10.16,0-15.24,0-.06.86-.11,1.32-.17Z"/>
      <path class="cls-11" d="M12.98,1404.43c-.58-.56-1.16-1.12-1.74-1.68.73.25,1.47.51,2.2.76-.16.31-.31.61-.46.92Z"/>
      <path class="cls-23" d="M12.98,1404.43c.15-.31.31-.61.46-.92,0,1.23,0,2.46,0,3.68-.15-.92-.31-1.84-.46-2.76Z"/>
      <path class="cls-11" d="M7.28,1351.48c-.23-1.26-.47-2.52-.7-3.79.23,1.26.47,2.52.7,3.79Z"/>
      <path class="cls-11" d="M6.57,1390.09c.26-.26.53-.52.79-.78-.26.26-.53.52-.79.78Z"/>
      <path class="cls-7" d="M14.82,1248.62c.41-.43.83-.86,1.24-1.29,1.55.07,3.1.14,4.65.22v23.12c-2.29-.53-4.1-.94-5.91-1.36,0-6.9,0-13.79.01-20.69Z"/>
      <path class="cls-9" d="M14.82,1248.62c0,6.9,0,13.79-.01,20.69,0-6.9,0-13.79.01-20.69Z"/>
      <path class="cls-9" d="M20.71,1247.54c-1.55-.07-3.1-.14-4.65-.22,1.55.07,3.1.14,4.65.22Z"/>
    </g>
  </g>
</svg>