<?xml version="1.0" encoding="UTF-8"?>
<svg id="Camada_1" data-name="Camada 1" xmlns="http://www.w3.org/2000/svg" viewBox="0 0 2400 1886.41">
  <defs>
    <style>
      .cls-1 {
        fill: #fff;
        opacity: .62;
        stroke: #050505;
        stroke-miterlimit: 10;
        stroke-width: 3px;
      }
    </style>
  </defs>
  <path class="cls-1" d="m2441.87,610.51l-68.57-27.66-74.02,36.91-124.66,12.38s-59.05,18.57-104.98,37.13l-65.61,37.13s-32.81,6.19-85.3-6.19c0,0-52.49-12.38-111.54-12.38,0,0-26.24,0-72.17-18.57l-52.49-37.13c-26.24-24.76,0,0-39.37-24.76-23.16-14.57-39.37-24.76-118.1-49.51-18.67-5.87-59.05-6.19-78.73,0-19.68,6.19-72.17,24.76-98.42,37.13-26.24,12.38-59.05,18.57-78.73,18.57-19.68,0-78.73,18.57-104.98,6.19-26.24-12.38-91.86-30.94-118.1-55.7-26.24-24.76-91.86-24.76-131.22-43.32-39.37-18.57-72.17-43.32-118.1-55.7-45.93-12.38-72.17-43.32-91.86-55.7-19.68-12.38-52.49-24.76-98.42-6.19-45.93,18.57-78.73,18.57-131.22,43.32-52.49,24.76-85.3,37.13-124.66,61.89-39.37,24.76-104.98,24.76-150.91,37.13s-52.49,12.38-98.42,43.32c-45.93,30.94-65.61,12.38-91.86,24.76-5.97,2.82-16.04,5.63-27.99,8.3v718.91s2460.44,0,2460.44,0v-730.27Z"/>
</svg>