<svg xmlns='http://www.w3.org/2000/svg' version='1.1' width='794px' height='575px'><svg xmlns="http://www.w3.org/2000/svg" id="graphic" fill="currentColor" font-family="Source Sans Pro" width="773" height="554" x="10.5" y="10.5"><g class="facets"><g class="fl-facets"><g class="fl-facet" transform="translate(24.415985107421875, 0)" opacity="1"><rect class="fl-facet-rect" width="748.5840148925781" height="525.5" fill="none"/><rect class="fl-facet-primary-rect" width="748.5840148925781" height="525.5" y="0" fill="none"/><g class="fl-facet-title"><rect class="fl-facet-title-bg" height="0" width="0" fill="rgb(238, 238, 238)" x="0" opacity="0"/><text class="fl-facet-title-text" font-size="14" font-weight="600" transform="translate(0, 14.700000000000001)" opacity="0" text-anchor="start"><tspan x="0" y="0" dx="0" text-anchor="start"/></text></g><g class="fl-facet-primary" transform="translate(0, 0)"><g class="fl-chart ready"><rect class="fl-chart-debug-rectangle" x="0" y="0" style="stroke-width: 1px; fill: none; display: none; stroke: red;" width="748.5840148925781" height="525.5"/><clipPath class="fl-data-clip-path" id="fl-axes-1-clip-path"><rect x="0" y="43.9" width="739.1718215942383" height="481.6"/></clipPath><clipPath class="fl-grid-clip-path" id="fl-axes-1-grid-clip-path"><rect x="-1" y="42.9" width="741.1718215942383" height="483.6"/></clipPath><g class="fl-chart-background"><rect class="fl-chart-fill" x="0" y="43.9" width="739.1718215942383" height="481.6" fill="none"/><image class="fl-chart-image" x="0" y="43.9" width="739.1718215942383" height="481.6" preserveAspectRatio="none"/><rect class="fl-chart-interaction" x="0" y="43.9" width="739.1718215942383" height="481.6" style="opacity: 0;"/></g><g class="fl-data-background" clip-path="url(#fl-axes-1-clip-path)"/><g class="fl-gridlines" clip-path="url(#fl-axes-1-grid-clip-path)" style="pointer-events: none;"><g class="fl-gridlines-vertical"/><g class="fl-gridlines-horizontal"><line x1="0" x2="739.1718215942383" y1="525.5" y2="525.5" style="shape-rendering: crispedges; opacity: 1; stroke: rgb(238, 238, 238); stroke-width: 1;"/><line x1="0" x2="739.1718215942383" y1="414.3615384615384" y2="414.3615384615384" style="shape-rendering: crispedges; opacity: 1; stroke: rgb(238, 238, 238); stroke-width: 1;"/><line x1="0" x2="739.1718215942383" y1="303.2230769230769" y2="303.2230769230769" style="shape-rendering: crispedges; opacity: 1; stroke: rgb(238, 238, 238); stroke-width: 1;"/><line x1="0" x2="739.1718215942383" y1="192.0846153846154" y2="192.0846153846154" style="shape-rendering: crispedges; opacity: 1; stroke: rgb(238, 238, 238); stroke-width: 1;"/><line x1="0" x2="739.1718215942383" y1="43.9" y2="43.9" style="shape-rendering: crispedges; opacity: 1; stroke: rgb(238, 238, 238); stroke-width: 1;"/></g></g><g class="fl-axes" aria-hidden="true"><g class="fl-x-axes"><g class="fl-axis fl-x-axis fl-bottom-axis"><g class="fl-axis-line"><line x1="0" y1="525.5" y2="525.5" x2="739.1718215942383" style="shape-rendering: crispedges; stroke-linecap: square; stroke-width: 1; opacity: 1; stroke: rgb(238, 238, 238);"/></g><g class="fl-axis-ticks"><g transform="translate(0,525.5)" style="opacity: 1;"><line y2="7" style="stroke: rgb(238, 238, 238); stroke-width: 1;"/><text text-anchor="end" transform="translate(6.9579925537109375,19.740000000000002)" style="user-select: none; cursor: default; fill: rgb(74, 74, 74); font-size: 14px; font-weight: normal;"><tspan x="0" dy="0">34</tspan></text></g><g transform="translate(49.27812143961589,525.5)" style="opacity: 1;"><line y2="7" style="stroke: rgb(238, 238, 238); stroke-width: 1;"/><text text-anchor="end" transform="translate(6.9579925537109375,19.740000000000002)" style="user-select: none; cursor: default; fill: rgb(74, 74, 74); font-size: 14px; font-weight: normal;"><tspan x="0" dy="0">35</tspan></text></g><g transform="translate(98.55624287923177,525.5)" style="opacity: 1;"><line y2="7" style="stroke: rgb(238, 238, 238); stroke-width: 1;"/><text text-anchor="end" transform="translate(6.9579925537109375,19.740000000000002)" style="user-select: none; cursor: default; fill: rgb(74, 74, 74); font-size: 14px; font-weight: normal;"><tspan x="0" dy="0">36</tspan></text></g><g transform="translate(147.83436431884766,525.5)" style="opacity: 1;"><line y2="7" style="stroke: rgb(238, 238, 238); stroke-width: 1;"/><text text-anchor="end" transform="translate(6.9579925537109375,19.740000000000002)" style="user-select: none; cursor: default; fill: rgb(74, 74, 74); font-size: 14px; font-weight: normal;"><tspan x="0" dy="0">37</tspan></text></g><g transform="translate(197.11248575846355,525.5)" style="opacity: 1;"><line y2="7" style="stroke: rgb(238, 238, 238); stroke-width: 1;"/><text text-anchor="end" transform="translate(6.9579925537109375,19.740000000000002)" style="user-select: none; cursor: default; fill: rgb(74, 74, 74); font-size: 14px; font-weight: normal;"><tspan x="0" dy="0">38</tspan></text></g><g transform="translate(246.3906071980794,525.5)" style="opacity: 1;"><line y2="7" style="stroke: rgb(238, 238, 238); stroke-width: 1;"/><text text-anchor="end" transform="translate(6.9579925537109375,19.740000000000002)" style="user-select: none; cursor: default; fill: rgb(74, 74, 74); font-size: 14px; font-weight: normal;"><tspan x="0" dy="0">39</tspan></text></g><g transform="translate(295.6687286376953,525.5)" style="opacity: 1;"><line y2="7" style="stroke: rgb(238, 238, 238); stroke-width: 1;"/><text text-anchor="end" transform="translate(6.9579925537109375,19.740000000000002)" style="user-select: none; cursor: default; fill: rgb(74, 74, 74); font-size: 14px; font-weight: normal;"><tspan x="0" dy="0">40</tspan></text></g><g transform="translate(344.9468500773112,525.5)" style="opacity: 1;"><line y2="7" style="stroke: rgb(238, 238, 238); stroke-width: 1;"/><text text-anchor="end" transform="translate(6.9579925537109375,19.740000000000002)" style="user-select: none; cursor: default; fill: rgb(74, 74, 74); font-size: 14px; font-weight: normal;"><tspan x="0" dy="0">41</tspan></text></g><g transform="translate(394.2249715169271,525.5)" style="opacity: 1;"><line y2="7" style="stroke: rgb(238, 238, 238); stroke-width: 1;"/><text text-anchor="end" transform="translate(6.9579925537109375,19.740000000000002)" style="user-select: none; cursor: default; fill: rgb(74, 74, 74); font-size: 14px; font-weight: normal;"><tspan x="0" dy="0">42</tspan></text></g><g transform="translate(443.50309295654296,525.5)" style="opacity: 1;"><line y2="7" style="stroke: rgb(238, 238, 238); stroke-width: 1;"/><text text-anchor="end" transform="translate(6.9579925537109375,19.740000000000002)" style="user-select: none; cursor: default; fill: rgb(74, 74, 74); font-size: 14px; font-weight: normal;"><tspan x="0" dy="0">43</tspan></text></g><g transform="translate(492.7812143961588,525.5)" style="opacity: 1;"><line y2="7" style="stroke: rgb(238, 238, 238); stroke-width: 1;"/><text text-anchor="end" transform="translate(6.9579925537109375,19.740000000000002)" style="user-select: none; cursor: default; fill: rgb(74, 74, 74); font-size: 14px; font-weight: normal;"><tspan x="0" dy="0">44</tspan></text></g><g transform="translate(542.0593358357747,525.5)" style="opacity: 1;"><line y2="7" style="stroke: rgb(238, 238, 238); stroke-width: 1;"/><text text-anchor="end" transform="translate(6.9579925537109375,19.740000000000002)" style="user-select: none; cursor: default; fill: rgb(74, 74, 74); font-size: 14px; font-weight: normal;"><tspan x="0" dy="0">45</tspan></text></g><g transform="translate(591.3374572753906,525.5)" style="opacity: 1;"><line y2="7" style="stroke: rgb(238, 238, 238); stroke-width: 1;"/><text text-anchor="end" transform="translate(6.9579925537109375,19.740000000000002)" style="user-select: none; cursor: default; fill: rgb(74, 74, 74); font-size: 14px; font-weight: normal;"><tspan x="0" dy="0">46</tspan></text></g><g transform="translate(640.6155787150066,525.5)" style="opacity: 1;"><line y2="7" style="stroke: rgb(238, 238, 238); stroke-width: 1;"/><text text-anchor="end" transform="translate(6.9579925537109375,19.740000000000002)" style="user-select: none; cursor: default; fill: rgb(74, 74, 74); font-size: 14px; font-weight: normal;"><tspan x="0" dy="0">47</tspan></text></g><g transform="translate(689.8937001546224,525.5)" style="opacity: 1;"><line y2="7" style="stroke: rgb(238, 238, 238); stroke-width: 1;"/><text text-anchor="end" transform="translate(6.9579925537109375,19.740000000000002)" style="user-select: none; cursor: default; fill: rgb(74, 74, 74); font-size: 14px; font-weight: normal;"><tspan x="0" dy="0">48</tspan></text></g><g transform="translate(739.1718215942383,525.5)" style="opacity: 1;"><line y2="7" style="stroke: rgb(238, 238, 238); stroke-width: 1;"/><text text-anchor="end" transform="translate(6.9579925537109375,19.740000000000002)" style="user-select: none; cursor: default; fill: rgb(74, 74, 74); font-size: 14px; font-weight: normal;"><tspan x="0" dy="0">49</tspan></text></g></g><g class="fl-axis-title"/></g><g class="fl-axis fl-x-axis fl-top-axis"><g class="fl-axis-line"/><g class="fl-axis-ticks"/><g class="fl-axis-title"/></g></g><g class="fl-y-axes"><g class="fl-axis fl-y-axis fl-left-axis"><g class="fl-axis-line"><line x1="0" x2="0" y1="525.5" y2="43.9" style="shape-rendering: crispedges; stroke-linecap: square; stroke-width: 1; opacity: 1; stroke: rgb(238, 238, 238);"/></g><g class="fl-axis-ticks"><g transform="translate(0,525.5)" style="opacity: 1;"><line x2="-7" style="stroke: rgb(238, 238, 238); stroke-width: 1;"/><text text-anchor="end" transform="translate(-10.5,4.62)" style="user-select: none; cursor: default; fill: rgb(74, 74, 74); font-size: 14px; font-weight: normal;"><tspan x="0" dy="0">0</tspan></text></g><g transform="translate(0,414.3615384615384)" style="opacity: 1;"><line x2="-7" style="stroke: rgb(238, 238, 238); stroke-width: 1;"/><text text-anchor="end" transform="translate(-10.5,4.62)" style="user-select: none; cursor: default; fill: rgb(74, 74, 74); font-size: 14px; font-weight: normal;"><tspan x="0" dy="0">15</tspan></text></g><g transform="translate(0,303.2230769230769)" style="opacity: 1;"><line x2="-7" style="stroke: rgb(238, 238, 238); stroke-width: 1;"/><text text-anchor="end" transform="translate(-10.5,4.62)" style="user-select: none; cursor: default; fill: rgb(74, 74, 74); font-size: 14px; font-weight: normal;"><tspan x="0" dy="0">30</tspan></text></g><g transform="translate(0,192.0846153846154)" style="opacity: 1;"><line x2="-7" style="stroke: rgb(238, 238, 238); stroke-width: 1;"/><text text-anchor="end" transform="translate(-10.5,4.62)" style="user-select: none; cursor: default; fill: rgb(74, 74, 74); font-size: 14px; font-weight: normal;"><tspan x="0" dy="0">45</tspan></text></g><g transform="translate(0,43.9)" style="opacity: 1;"><line x2="-7" style="stroke: rgb(238, 238, 238); stroke-width: 1;"/><text text-anchor="end" transform="translate(-10.5,4.62)" style="user-select: none; cursor: default; fill: rgb(74, 74, 74); font-size: 14px; font-weight: normal;"><tspan x="0" dy="0">65</tspan></text></g></g><g class="fl-axis-title"><text text-anchor="start" style="font-size: 15.4px; fill: rgb(74, 74, 74); font-weight: normal; user-select: none; cursor: default;" transform="translate(-24.415985107421875, 26.5)">IMC</text></g></g><g class="fl-axis fl-y-axis fl-right-axis"><g class="fl-axis-line"/><g class="fl-axis-ticks"/><g class="fl-axis-title"/></g></g></g><g class="fl-data-foreground" clip-path="url(#fl-axes-1-clip-path)"/></g></g></g></g></g><g class="annotations below"/><g id="areas"/><g id="lines"><g class="series"><clipPath id="clip-0-0"><rect width="739.1718215942383" x="0" y="41.1" height="487.20000000000005"/></clipPath><path class="outline" opacity="1" pointer-events="none" fill="none" stroke="#ffffff" stroke-width="4.800000000000001" transform="translate(24.415985107421875,0)" clip-path="url(#clip-0-0)" clip-path-id="0-0" d="M0,212.682L0,217.646L49.278,264.251L147.834,247.876L147.834,253.359L246.391,172.747L246.391,204.828L344.947,146.814L394.225,186.231L443.503,146.814L443.503,171.042L492.781,318.486L542.059,338.195L591.337,221.722L640.616,192.455L739.172,195.493"/><path class="line" opacity="1" pointer-events="none" fill="none" stroke="#4328E7" stroke-width="2.8000000000000003" transform="translate(24.415985107421875,0)" clip-path="url(#clip-0-0)" clip-path-id="0-0" d="M0,212.682L0,217.646L49.278,264.251L147.834,247.876L147.834,253.359L246.391,172.747L246.391,204.828L344.947,146.814L394.225,186.231L443.503,146.814L443.503,171.042L492.781,318.486L542.059,338.195L591.337,221.722L640.616,192.455L739.172,195.493"/></g></g><g id="data-points"><g class="series" transform="translate(24.415985107421875,0)" clip-path="url(#clip-data-points-0)"><clipPath id="clip-data-points-0"><rect x="-3.5" y="41.1" height="484.40000000000003" width="742.6718215942383"/></clipPath><path class="data-point" visibility="hidden" fill="#4328E7" data-type="point" transform="translate(0, 0)" d="M-3.5,212.68227692307693A3.5,3.5,0,1,1,3.5,212.68227692307693A3.5,3.5,0,1,1,-3.5,212.68227692307693Z" opacity="0" tabindex="0" role="img" aria-roledescription="data point" id="point-0-0"/><path class="data-point" visibility="hidden" fill="#4328E7" data-type="point" transform="translate(0, 0)" d="M-3.5,217.64646153846155A3.5,3.5,0,1,1,3.5,217.64646153846155A3.5,3.5,0,1,1,-3.5,217.64646153846155Z" opacity="0" tabindex="0" role="img" aria-roledescription="data point" id="point-0-1"/><path class="data-point" visibility="hidden" fill="#4328E7" data-type="point" transform="translate(0, 0)" d="M45.77812143961589,264.25052307692306A3.5,3.5,0,1,1,52.77812143961589,264.25052307692306A3.5,3.5,0,1,1,45.77812143961589,264.25052307692306Z" opacity="0" tabindex="0" role="img" aria-roledescription="data point" id="point-0-2"/><path class="data-point" visibility="hidden" fill="#4328E7" data-type="point" transform="translate(0, 0)" d="M144.33436431884766,247.87612307692305A3.5,3.5,0,1,1,151.33436431884766,247.87612307692305A3.5,3.5,0,1,1,144.33436431884766,247.87612307692305Z" opacity="0" tabindex="0" role="img" aria-roledescription="data point" id="point-0-3"/><path class="data-point" visibility="hidden" fill="#4328E7" data-type="point" transform="translate(0, 0)" d="M144.33436431884766,253.35895384615387A3.5,3.5,0,1,1,151.33436431884766,253.35895384615387A3.5,3.5,0,1,1,144.33436431884766,253.35895384615387Z" opacity="0" tabindex="0" role="img" aria-roledescription="data point" id="point-0-4"/><path class="data-point" visibility="hidden" fill="#4328E7" data-type="point" transform="translate(0, 0)" d="M242.8906071980794,172.74652307692304A3.5,3.5,0,1,1,249.8906071980794,172.74652307692304A3.5,3.5,0,1,1,242.8906071980794,172.74652307692304Z" opacity="0" tabindex="0" role="img" aria-roledescription="data point" id="point-0-5"/><path class="data-point" visibility="hidden" fill="#4328E7" data-type="point" transform="translate(0, 0)" d="M242.8906071980794,204.8284923076923A3.5,3.5,0,1,1,249.8906071980794,204.8284923076923A3.5,3.5,0,1,1,242.8906071980794,204.8284923076923Z" opacity="0" tabindex="0" role="img" aria-roledescription="data point" id="point-0-6"/><path class="data-point" visibility="hidden" fill="#4328E7" data-type="point" transform="translate(0, 0)" d="M341.4468500773112,146.8142153846154A3.5,3.5,0,1,1,348.4468500773112,146.8142153846154A3.5,3.5,0,1,1,341.4468500773112,146.8142153846154Z" opacity="0" tabindex="0" role="img" aria-roledescription="data point" id="point-0-7"/><path class="data-point" visibility="hidden" fill="#4328E7" data-type="point" transform="translate(0, 0)" d="M390.7249715169271,186.23132307692308A3.5,3.5,0,1,1,397.7249715169271,186.23132307692308A3.5,3.5,0,1,1,390.7249715169271,186.23132307692308Z" opacity="0" tabindex="0" role="img" aria-roledescription="data point" id="point-0-8"/><path class="data-point" visibility="hidden" fill="#4328E7" data-type="point" transform="translate(0, 0)" d="M440.00309295654296,146.8142153846154A3.5,3.5,0,1,1,447.00309295654296,146.8142153846154A3.5,3.5,0,1,1,440.00309295654296,146.8142153846154Z" opacity="0" tabindex="0" role="img" aria-roledescription="data point" id="point-0-9"/><path class="data-point" visibility="hidden" fill="#4328E7" data-type="point" transform="translate(0, 0)" d="M440.00309295654296,171.04239999999993A3.5,3.5,0,1,1,447.00309295654296,171.04239999999993A3.5,3.5,0,1,1,440.00309295654296,171.04239999999993Z" opacity="0" tabindex="0" role="img" aria-roledescription="data point" id="point-0-10"/><path class="data-point" visibility="hidden" fill="#4328E7" data-type="point" transform="translate(0, 0)" d="M489.2812143961588,318.4860923076923A3.5,3.5,0,1,1,496.2812143961588,318.4860923076923A3.5,3.5,0,1,1,489.2812143961588,318.4860923076923Z" opacity="0" tabindex="0" role="img" aria-roledescription="data point" id="point-0-11"/><path class="data-point" visibility="hidden" fill="#4328E7" data-type="point" transform="translate(0, 0)" d="M538.5593358357747,338.1946461538462A3.5,3.5,0,1,1,545.5593358357747,338.1946461538462A3.5,3.5,0,1,1,538.5593358357747,338.1946461538462Z" opacity="0" tabindex="0" role="img" aria-roledescription="data point" id="point-0-12"/><path class="data-point" visibility="hidden" fill="#4328E7" data-type="point" transform="translate(0, 0)" d="M587.8374572753906,221.72153846153847A3.5,3.5,0,1,1,594.8374572753906,221.72153846153847A3.5,3.5,0,1,1,587.8374572753906,221.72153846153847Z" opacity="0" tabindex="0" role="img" aria-roledescription="data point" id="point-0-13"/><path class="data-point" visibility="hidden" fill="#4328E7" data-type="point" transform="translate(0, 0)" d="M637.1155787150066,192.45507692307692A3.5,3.5,0,1,1,644.1155787150066,192.45507692307692A3.5,3.5,0,1,1,637.1155787150066,192.45507692307692Z" opacity="0" tabindex="0" role="img" aria-roledescription="data point" id="point-0-14"/><path class="data-point" visibility="hidden" fill="#4328E7" data-type="point" transform="translate(0, 0)" d="M735.6718215942383,195.49286153846157A3.5,3.5,0,1,1,742.6718215942383,195.49286153846157A3.5,3.5,0,1,1,735.6718215942383,195.49286153846157Z" opacity="0" tabindex="0" role="img" aria-roledescription="data point" id="point-0-15"/></g></g><g id="lines-secondary"/><g id="data-points-secondary"/><g id="data-point-labels"><g class="series" transform="translate(24.415985107421875,0)" clip-path="url(#clip-data-points-0)"/></g><g id="stack-labels"/><g class="annotations above"><g id="axes-highlights"><g class="axis-highlights-facet"><defs><pattern class="fl-pattern-auto" width="4" height="4" patternUnits="userSpaceOnUse" id="fl-pattern-diagonal-x"><path stroke-width="1" shape-rendering="auto" stroke-linecap="square" d="M 0 4 l 4 -4 M -1 1 l 2 -2 M 3 5 l 2 -2" style="stroke: currentcolor;"/></pattern><pattern class="fl-pattern-auto" width="4" height="4" patternUnits="userSpaceOnUse" id="fl-pattern-dots-x"><path stroke-width="1" shape-rendering="auto" stroke-linecap="square" d="M 1 2 A 1.2 1.2 0 1 1 1 2.1 Z" style="fill: currentcolor;"/></pattern><pattern class="fl-pattern-auto" width="4" height="4" patternUnits="userSpaceOnUse" id="fl-pattern-grid-x"><path stroke-width="1" shape-rendering="auto" stroke-linecap="square" d="M 2 0 l 0 4 M 0 2 l 4 0" style="stroke: currentcolor;"/></pattern><pattern class="fl-pattern-auto" width="4" height="4" patternUnits="userSpaceOnUse" id="fl-pattern-diagonal-y"><path stroke-width="1" shape-rendering="auto" stroke-linecap="square" d="M 0 4 l 4 -4 M -1 1 l 2 -2 M 3 5 l 2 -2" style="stroke: currentcolor;"/></pattern><pattern class="fl-pattern-auto" width="4" height="4" patternUnits="userSpaceOnUse" id="fl-pattern-grid-y"><path stroke-width="1" shape-rendering="auto" stroke-linecap="square" d="M 2 0 l 0 4 M 0 2 l 4 0" style="stroke: currentcolor;"/></pattern><pattern class="fl-pattern-auto" width="4" height="4" patternUnits="userSpaceOnUse" id="fl-pattern-dots-y"><path stroke-width="1" shape-rendering="auto" stroke-linecap="square" d="M 1 2 A 1.2 1.2 0 1 1 1 2.1 Z" style="fill: currentcolor;"/></pattern></defs><g class="axis-highlights" transform="translate(24.415985107421875, 0)" style="opacity: 1;"/></g></g></g></svg><svg xmlns="http://www.w3.org/2000/svg" id="fl-layout-svg-screenshot-container" class="flourish-screenshot-svg-container" style="left: 0px; top: 0px; width: 794px; height: 575px; position: absolute;" x="0" y="0"><text x="0px" y="0px" font-family="&quot;Source Sans Pro&quot;" font-size="22.4px" font-weight="700" fill="rgb(51, 51, 51)" style="dominant-baseline: text-before-edge;"><tspan dy="0" dx="0" x="0" opacity="1"/></text><text x="0px" y="0px" font-family="&quot;Source Sans Pro&quot;" font-size="22.4px" font-weight="400" fill="rgb(51, 51, 51)" style="dominant-baseline: text-before-edge;"><tspan dy="0" dx="0" x="0" opacity="1"/></text><text x="0px" y="0px" font-family="&quot;Source Sans Pro&quot;" font-size="16.8px" font-weight="400" fill="rgb(51, 51, 51)" style="dominant-baseline: text-before-edge;"><tspan dy="0" dx="0" x="0" opacity="1"/></text><text x="0px" y="0px" font-family="&quot;Source Sans Pro&quot;" font-size="14px" font-weight="400" fill="rgb(51, 51, 51)" style="dominant-baseline: text-before-edge;"><tspan dy="0" dx="0" x="0" opacity="1"/></text></svg></svg>