<?xml version="1.0" encoding="UTF-8"?>
<svg id="Camada_1" xmlns="http://www.w3.org/2000/svg" xmlns:xlink="http://www.w3.org/1999/xlink" viewBox="0 0 1308.44 2102.88">
  <defs>
    <style>
      .cls-1, .cls-2 {
        fill: none;
      }

      .cls-3 {
        fill: #af4301;
      }

      .cls-4 {
        fill: #5b5b5b;
      }

      .cls-5 {
        fill: #eb681c;
      }

      .cls-6 {
        clip-path: url(#clippath-1);
      }

      .cls-7 {
        fill: #fff;
      }

      .cls-8 {
        fill: #f9f9f9;
      }

      .cls-9 {
        fill: #eda220;
      }

      .cls-2 {
        stroke: #1d1d1b;
        stroke-miterlimit: 10;
        stroke-width: 3px;
      }

      .cls-10 {
        clip-path: url(#clippath);
      }

      .cls-11 {
        fill: #d78d28;
      }
    </style>
    <clipPath id="clippath">
      <path class="cls-1" d="M823.2,246.84c-7.56-12.8-21.7-22.76-46.17-26.31-59.39-8.61-97.31,26.55-117.44,66.93h0s-46.04,73.69-46.04,73.69c-4.7,7.52-5.69,16.79-2.67,25.14l9.43,26.12c1.9,5.26,12.55,5.31,17.52,2.76l16.76-8.6v-.02c9.35,13,21.65,17.24,29.26,15.34,13.81-3.44-3.24-9.85,13.68-46.31,3.25-7.01,8.98-12.09,16.21-15.81,1.05-.24,2.14-.48,3.3-.73,4.55-.97,7.68-2.46,9.97-4.32,28.16-7.83,66.68-4.49,81.67-9.97,7.82,10.93,20.96,20.33,30.6,19.18,37.57-4.47,31.66-104.55-16.07-117.08Z"/>
    </clipPath>
    <clipPath id="clippath-1">
      <rect class="cls-1" x="508.76" y="193.85" width="445.99" height="250.87"/>
    </clipPath>
  </defs>
  <g>
    <g>
      <path class="cls-5" d="M864.72,606.15c20.74,20.7,131.44,241.57,77.17,262.45-29.14,11.21-39.97-11.33-55.76-32.08-19.59-25.75-54.86-122.36-63.21-159.23-8.35-36.87,41.79-71.15,41.79-71.15Z"/>
      <g>
        <path class="cls-8" d="M650.94,561.06c-27.77,3.07-111.82,10.23-140.5,27.47l52.07,54.46c-2.71,39.77,15.21,142.53,20.62,161.97-121.3,204.46-109,503.22-38.44,690.18-229.18,283.34-236.26,471.48-231.54,607.74h582.96c108.57-255.01,156.13-671.55,0-1160.93l-25.93-122.13c28.71-10.57,54.31-47.6,30.17-85.84-24.14-38.23-29.08-72.23-29.99-90.69-.51-10.24,21.21-37.15,21.21-37.15-22.68-15.53-78.36-32.26-104.11-37.58l-136.52-7.51Z"/>
        <g>
          <path class="cls-9" d="M740.92,836.36c-29.21,0-55.25-2.04-68.3-7-1.1-.42-1.57-1.48-1.06-2.37.51-.9,1.81-1.28,2.9-.86,31.97,12.15,150.44,5.69,187.39-4.73,1.15-.33,2.39.17,2.78,1.1.39.93-.21,1.95-1.35,2.27-23.45,6.62-76.75,11.59-122.36,11.59Z"/>
          <path class="cls-9" d="M666.69,1735.69c-.37,0-.75-.08-1.09-.24-1.04-.49-1.4-1.59-.79-2.44,55.17-77.73,88.27-166.19,95.72-255.83,3.19-38.43,1.74-77.66.34-115.6-1.32-35.67-2.68-72.55-.2-108.79.07-.99,1.05-1.82,2.31-1.68,1.2.05,2.13.9,2.06,1.88-2.47,36.09-1.11,72.89.2,108.49,1.41,38.02,2.86,77.34-.35,115.95-7.49,90.18-40.79,179.18-96.3,257.38-.4.57-1.14.89-1.89.89Z"/>
          <path class="cls-9" d="M848.59,1671.72c-.07,0-.13,0-.2,0-1.2-.08-2.09-.95-1.98-1.93,9.06-83.01-3.93-168.47-37.57-247.15-.4-.93.2-1.95,1.34-2.28,1.15-.32,2.39.17,2.79,1.1,33.84,79.15,46.91,165.14,37.8,248.65-.1.93-1.06,1.63-2.18,1.63Z"/>
          <path class="cls-9" d="M741.76,962.91c-18.33,0-36.73-.76-54.17-2.15-54.77-4.36-120.96-16.9-142.51-38.99-.75-.77-.59-1.9.35-2.51.95-.61,2.32-.49,3.07.28,17.32,17.76,70.78,32.19,139.52,37.67,69.96,5.57,155.31.98,188.26-21.85.92-.63,2.3-.55,3.08.21.78.75.67,1.88-.25,2.52-25.58,17.72-81.16,24.82-137.35,24.82Z"/>
          <path class="cls-9" d="M756.07,631.3c-37.87,0-98.36-18.59-115.83-54.26-.45-.92.1-1.96,1.22-2.32,1.11-.36,2.39.08,2.84,1,16.95,34.61,76.56,52.38,113.05,52.01,11.99-.14,23.35-4.38,31.15-11.63,9.41-8.75,13.26-21.4,11.13-36.6-.14-.98.72-1.86,1.92-1.98,1.2-.1,2.28.59,2.42,1.57,2.88,20.5-5.04,32.72-12.19,39.37-8.62,8.01-21.14,12.69-34.37,12.85-.44,0-.89,0-1.34,0Z"/>
        </g>
      </g>
      <g>
        <g>
          <path class="cls-5" d="M822.34,319.61c17,18.11,23.8,70.23,18.95,111.76-4.86,41.52,4.88,73.37-15.52,76.47-20.41,3.09-88.59,3.64-118.22-33.91l-25.5-28.31v-122.95l140.29-3.05Z"/>
          <g>
            <path class="cls-5" d="M779.7,568.57s-5.94-49.76-4.76-71.51l-48.22-42.75-44.67-8.7s12.65,73.54-13.84,115.44c32.36,66.52,122.37,72.58,111.49,7.51Z"/>
            <path class="cls-3" d="M710.68,468.61c2.52,22.24,29.98,44.48,64.81,50.45-.56-3.64-.93-7.46-.98-11.33-19.44-2.28-44.48-12.17-63.83-39.12Z"/>
          </g>
        </g>
        <path class="cls-4" d="M842.82,362.23c-12.22.86-53.15-25.91-57.95-41.77.48,21.43-43.22,59.77-61.95,60.67,8.22,30.91-5.44,48.1-14.73,38.53-.96-8.48-3.47-16.14-5.39-18.72-5.98-8.05-15.95-14.1-25.93-14.91l1.87-66.43,108.91-5.67,39.65,3.38,12.43,23,3.09,21.91Z"/>
        <g>
          <path class="cls-3" d="M690.11,449.89c-2.65,0-5.45-.41-8.34-1.23-.95-.27-1.5-1.25-1.23-2.2.26-.95,1.26-1.52,2.2-1.23,3.52.99,6.84,1.31,9.86.95,2.74-.33,4.9-1.47,6.6-3.49.63-.75,1.76-.85,2.52-.21.75.64.85,1.76.21,2.52-2.28,2.7-5.28,4.29-8.9,4.73-.95.11-1.92.17-2.91.17Z"/>
          <path class="cls-5" d="M700,400.92c-10.47-15.81-34.91-23.82-45.79,0-10.88,23.82,18.69,49.43,38.61,47.03,19.3-2.33,11.4-40.66,7.19-47.03Z"/>
          <g>
            <path class="cls-3" d="M691.77,436.34c-.13,0-.26-.01-.39-.04-.96-.22-1.57-1.17-1.36-2.13,2.86-12.82.09-24.15-7.4-30.3-4.91-4.03-10.99-5.05-16.26-2.72-.9.39-1.96-.01-2.36-.91-.4-.9.01-1.96.91-2.36,6.44-2.83,14.09-1.6,19.97,3.23,8.55,7.02,11.78,19.67,8.62,33.84-.19.83-.92,1.4-1.74,1.4Z"/>
            <path class="cls-3" d="M692.86,426.94c-.72,0-1.4-.44-1.67-1.16-2.04-5.41-12.15-8.7-19.67-6.39-.94.29-1.94-.24-2.23-1.18-.29-.94.24-1.94,1.18-2.23,9.41-2.9,21.33,1.33,24.06,8.54.35.92-.12,1.95-1.04,2.3-.21.08-.42.12-.63.12Z"/>
          </g>
          <path class="cls-5" d="M700,400.92c-10.47-15.81-34.91-23.82-45.79,0-10.88,23.82,18.69,49.43,38.61,47.03,19.3-2.33,11.4-40.66,7.19-47.03Z"/>
          <g>
            <path class="cls-3" d="M691.77,436.34c-.13,0-.26-.01-.39-.04-.96-.22-1.57-1.17-1.36-2.13,2.86-12.82.09-24.15-7.4-30.3-4.91-4.03-10.99-5.05-16.26-2.72-.9.39-1.96-.01-2.36-.91-.4-.9.01-1.96.91-2.36,6.44-2.83,14.09-1.6,19.97,3.23,8.55,7.02,11.78,19.67,8.62,33.84-.19.83-.92,1.4-1.74,1.4Z"/>
            <path class="cls-3" d="M692.86,426.94c-.72,0-1.4-.44-1.67-1.16-2.04-5.41-12.15-8.7-19.67-6.39-.94.29-1.94-.24-2.23-1.18-.29-.94.24-1.94,1.18-2.23,9.41-2.9,21.33,1.33,24.06,8.54.35.92-.12,1.95-1.04,2.3-.21.08-.42.12-.63.12Z"/>
          </g>
        </g>
      </g>
      <g>
        <g>
          <path class="cls-5" d="M463.68,421c40.1,27.17,140.17,126.53,162.82,149.22,29.52,29.58,7.43,122.82-41.38,90.94-49.07-32.05-162.34-175.18-176.77-213.05-14.44-37.88,35.91-40.27,55.34-27.11Z"/>
          <path class="cls-5" d="M408.34,448.11c-17.65-33.87-18.95-238.39-16.7-264.86,2.26-26.47,39.19-36.65,39.95-8.82,3.65,132.93,63.36,199.25,41.26,252.8-21.79,52.8-64.52,20.88-64.52,20.88Z"/>
          <path class="cls-3" d="M435.95,444.31c-.88,0-1.64-.65-1.77-1.54-.13-.98.55-1.88,1.52-2.02,12.88-1.79,25.25-6.77,35.78-14.4.8-.58,1.92-.4,2.49.4.58.8.4,1.92-.4,2.49-11,7.97-23.93,13.17-37.39,15.05-.08.01-.17.02-.25.02Z"/>
        </g>
        <g>
          <path class="cls-5" d="M394.5,181.38l38.36,11.76c13.92-7.12,25.37-40.22,27.84-49.19,2.47-8.97-3.4-37.43-3.71-39.13-.31-1.7-8.04-1.86-8.66,3.4-.62,5.26-2.32,19.18-2.17,22.58-3.87.46-12.53,3.71-13.46,5.72-1.24-5.26-6.5-15.16-9.44-16.71.62-7.89,8.04-32.33,10.52-38.05,2.47-5.72-4.18-7.73-8.51-1.86-4.33,5.88-10.52,21.19-10.52,21.19,0,0,3.71-25.83,5.41-30.47,1.7-4.64-3.71-10.36-8.2-4.02-4.49,6.34-13.15,35.89-13.15,35.89,0,0,.31-30.78.93-35.73.62-4.95-8.35-8.04-10.52.15-2.17,8.2-6.81,37.43-6.81,37.43,0,0-5.57-16.09-6.65-23.36-1.08-7.27-8.2-4.8-8.66,4.95-.46,9.75,3.87,37.74,7.27,45.94,3.4,8.2,8.82,33.26,20.11,49.5Z"/>
          <path class="cls-3" d="M418.86,159.49c-.99,0-1.79-.8-1.79-1.79,0-8.54,11.04-19.38,14.42-22.5.73-.67,1.86-.62,2.52.1.67.73.63,1.86-.1,2.52-6.12,5.65-13.27,14.24-13.27,19.88,0,.99-.8,1.79-1.79,1.79Z"/>
          <path class="cls-3" d="M428.59,195.86c-2.63,0-5.43-.65-7.56-1.62-2.92-1.32-4.75-3.26-5.16-5.46-.18-.97.46-1.9,1.43-2.08.96-.19,1.9.46,2.08,1.43.18.98,1.35,2.05,3.12,2.85,3.22,1.46,7.55,1.75,9.45.6.85-.5,1.94-.23,2.45.62.5.85.23,1.94-.62,2.45-1.41.84-3.25,1.19-5.19,1.19Z"/>
          <path class="cls-3" d="M380.23,134.09c-.42,0-.83-.14-1.17-.44-.74-.65-.82-1.77-.18-2.52,6.58-7.58,33.71-13.89,42.68-13.14.98.08,1.71.94,1.63,1.93-.08.98-.97,1.71-1.93,1.63-8-.69-33.95,5.31-39.69,11.92-.35.4-.85.61-1.35.61Z"/>
          <path class="cls-3" d="M411.08,122.42c-.07,0-.15,0-.23-.01-.98-.13-1.67-1.02-1.55-2,1.25-9.79,2.61-16.71,4.04-20.57.34-.92,1.36-1.4,2.3-1.05.92.34,1.4,1.37,1.05,2.3-.92,2.48-2.33,7.92-3.85,19.78-.12.9-.88,1.56-1.77,1.56Z"/>
          <path class="cls-3" d="M399.4,125.07c-.93,0-1.71-.72-1.78-1.66-.04-.48-.1-1.17-.19-2-.42-4.23-1.2-12.11-.37-19.12.11-.98.97-1.65,1.98-1.56.98.12,1.68,1,1.56,1.98-.78,6.62-.02,14.25.38,18.35.09.88.16,1.59.19,2.1.07.98-.67,1.84-1.65,1.91-.04,0-.09,0-.13,0Z"/>
          <path class="cls-3" d="M389.26,128.54c-.59,0-1.16-.29-1.5-.81-1.83-2.82-5.46-14.01-7.08-23.06-.17-.97.47-1.9,1.44-2.07.98-.16,1.9.47,2.07,1.44,1.59,8.88,5.11,19.51,6.56,21.75.54.83.3,1.93-.53,2.47-.3.2-.64.29-.97.29Z"/>
        </g>
      </g>
      <g>
        <g>
          <path class="cls-5" d="M948.18,864.65c-58.83,45.45-241.23,79.34-249.56,78.93-8.34-.41-17.75-35.36-2.42-39.59,91.46-25.23,115.25-86.56,184.18-76.25,46.25,6.92,67.81,36.91,67.81,36.91Z"/>
          <path class="cls-3" d="M917.98,836.47c-.27,0-.55-.06-.81-.2-11.53-5.91-24.97-8.36-37.85-6.9-.98.1-1.86-.59-1.98-1.57-.11-.98.59-1.86,1.57-1.98,13.59-1.55,27.74,1.04,39.89,7.27.88.45,1.22,1.53.77,2.4-.32.62-.94.97-1.59.97Z"/>
        </g>
        <g>
          <path class="cls-5" d="M696.94,903.84l15.43,37.04c-5.73,14.55-37.56,29.16-46.25,32.49-8.69,3.34-37.59.25-39.31.11-1.72-.14-2.63-7.82,2.54-8.95,5.17-1.13,18.86-4.17,22.27-4.35.09-3.89,2.48-12.83,4.39-13.95-5.35-.72-15.72-4.99-17.54-7.77-7.79,1.38-31.39,11.15-36.85,14.17-5.46,3.02-8.1-3.41-2.67-8.29,5.43-4.88,20.07-12.53,20.07-12.53,0,0-25.35,6.21-29.8,8.35-4.45,2.14-10.68-2.69-4.8-7.77,5.88-5.08,34.44-16.57,34.44-16.57,0,0-30.61,3.3-35.47,4.4-4.87,1.1-8.82-7.53-.87-10.48,7.95-2.95,36.59-10.41,36.59-10.41,0,0-16.55-3.98-23.89-4.35-7.34-.37-5.57-7.69,4.08-9.1,9.65-1.41,37.94.18,46.43,2.77,8.49,2.59,33.96,5.54,51.22,15.2Z"/>
          <path class="cls-3" d="M656,948.01c-.37,0-.75-.12-1.07-.36-.79-.6-.94-1.72-.35-2.5,2.78-3.67,12.5-15.71,21-16.54,1-.13,1.86.62,1.95,1.6.1.98-.62,1.86-1.6,1.95-5.61.55-13.47,8.5-18.5,15.14-.35.47-.88.71-1.43.71Z"/>
          <path class="cls-3" d="M712.36,942.66c-.25,0-.51-.05-.76-.17-.89-.42-1.28-1.49-.86-2.38.94-2,.25-6.28-1.52-9.34-.97-1.69-2.15-2.74-3.14-2.83-.98-.08-1.71-.95-1.63-1.93.08-.98.98-1.71,1.93-1.63,2.22.19,4.33,1.82,5.93,4.6,2.03,3.52,3.3,9.15,1.66,12.64-.3.65-.95,1.03-1.62,1.03Z"/>
          <path class="cls-3" d="M638.24,938.4c-.85,0-1.6-.6-1.76-1.47-1.6-8.82,2.03-36.46,8.93-43.75.68-.71,1.81-.74,2.53-.07.72.68.75,1.81.07,2.53-6.02,6.36-9.43,32.82-8.01,40.66.17.97-.47,1.9-1.44,2.08-.11.02-.21.03-.32.03Z"/>
          <path class="cls-3" d="M618.41,933.92c-.66,0-1.3-.37-1.61-1-.43-.89-.06-1.96.83-2.39,3.7-1.8,10.45-3.83,20.08-6.02.96-.21,1.92.38,2.14,1.34.22.96-.38,1.92-1.34,2.14-11.66,2.66-16.94,4.6-19.31,5.75-.25.12-.52.18-.78.18Z"/>
          <path class="cls-3" d="M618.84,917.61c-.82,0-1.56-.57-1.74-1.41-.21-.96.4-1.91,1.36-2.12,6.89-1.5,14.82-1.47,19.06-1.49.85,0,1.53,0,2.02-.01,1.03-.02,1.81.76,1.83,1.74.03.99-.75,1.81-1.74,1.83-.51.01-1.23,0-2.11.01-4.08-.01-11.78-.01-18.3,1.4-.13.03-.26.04-.38.04Z"/>
          <path class="cls-3" d="M642.06,905.72c-.28,0-.56-.07-.82-.2-2.36-1.23-13.29-3.69-22.28-4.42-.98-.08-1.72-.94-1.64-1.93.08-.98.98-1.7,1.93-1.64,9.16.74,20.65,3.26,23.64,4.81.87.46,1.22,1.53.76,2.41-.32.61-.94.96-1.59.96Z"/>
        </g>
      </g>
    </g>
    <g class="cls-10">
      <g class="cls-6">
        <rect class="cls-11" x="508.76" y="193.85" width="445.99" height="250.87"/>
        <g>
          <path class="cls-7" d="M841.19,309.73c3.27-.7,2.84-6.25-1.15-6.15-.68.29-1.36.39-1.77.92-1.46,1.92.13,5.83,2.92,5.23Z"/>
          <path class="cls-7" d="M838.04,295.66c.38.26,1,.7,1.69.62,3.67-.45,3-5.98-.92-5.85-2.39,1.06-3.21,3.55-.77,5.23Z"/>
          <path class="cls-7" d="M849.88,263.66c-.49.1-.97.21-1.46.31-2.49.99-2.82,3.59-3.69,6.23-.37,1.11-1.21,2.89-.46,4.15,1.36,2.3,6.03.23,9,.69,2.42.38,4.52.92,6.15,2.08,3.32,2.34,5.42,6.15,6.54,10.69.58,2.37.1,5.5,1.31,7.15,1.02.28,1.61.02,2.23-.46.71-3.09-.1-9.02-.85-11.69-2.4-8.64-7.81-19.27-18.77-19.15Z"/>
          <path class="cls-7" d="M849.57,308.5c-.57.26-1.12.3-1.38.85-.53,1.1,1.07,8.23,1.54,8.92,4.21,1.2,3.61-9.48-.15-9.77Z"/>
          <path class="cls-7" d="M849.81,302.81c.74-1.99-.64-5.04-3-5-2.89,1.67.33,6.52,3,5Z"/>
          <path class="cls-7" d="M856.04,306.66c1.88-.44.94-5.42-.31-6-.23-.2-.53-.24-1-.23-.53.33-1.08.61-1.31,1.23-.55,1.49.92,5.4,2.62,5Z"/>
          <path class="cls-7" d="M843.88,323.19c.28-.13.56-.26.85-.38.81-2,2.02-7.85-1.38-7.77-2.01,1.24-2.43,7.9.54,8.15Z"/>
          <path class="cls-7" d="M869.57,298.12c-.52.28-1,.44-1.23,1-.65,1.59-.3,7.75.38,8.69,4.05,1.11,5-9.78.85-9.69Z"/>
          <path class="cls-7" d="M846.5,292.66c2.21-.49,2.38-4.88-.62-4.77-2.82,1.19-1.91,5.32.62,4.77Z"/>
          <path class="cls-7" d="M854.73,298.5c1.36-1.84.44-6.27-2.08-6.38-.28.1-.56.21-.85.31-1.38,1.95.16,6.94,2.92,6.08Z"/>
          <path class="cls-7" d="M835.27,315.5c.43-.6.5-1.06.23-1.85-.9-.62-3.92-1.93-5.23-1.92-3.7,2.31,2.19,4.98,5,3.77Z"/>
          <path class="cls-7" d="M828.88,329.81c.28-.08.56-.15.85-.23.43-1.35-.61-2.29-1.23-3.08-.28-.05-.56-.1-.85-.15-.23.15-.46.31-.69.46-.42,1.56.7,2.6,1.92,3Z"/>
          <path class="cls-7" d="M827.04,317.12c-.5-1.25-2.67-1.89-4.31-1.92-.69.39-2.1,1.25-1.38,2.46.7,1.5,5.47,1.23,5.69-.54Z"/>
          <path class="cls-7" d="M833.34,295.35c-.55.26-1.26.4-1.62.85-1.3,1.64.31,4.42,2.54,3.92,2.63-.58,2.22-4.88-.92-4.77Z"/>
          <path class="cls-7" d="M868.5,348.27c.64,1.31,2.51,3.9,4.54,3.62,1.15-.16,1.77-1.36,1.08-2.46-.82-.85-1.64-1.69-2.46-2.54-1.72-2.24-2.08-5-2.62-8.54-.33-2.15-.06-4.88.23-6.77.13-2.33.26-4.67.38-7,.45-2.91-.18-5.85-2.85-5.85-.55.36-1.16.64-1.38,1.31-.4,1.17.14,2.74.31,3.77.03,1.74.05,3.49.08,5.23-.08,7.28.29,14.29,2.69,19.23Z"/>
          <path class="cls-7" d="M862.81,315.04c1.76.27,6.31-9.43,1.31-9.23-.6.31-1.05.52-1.38,1.08-.53.89-.42,2.15-.69,3.31-.35,1.48-1.44,4.51.77,4.85Z"/>
          <path class="cls-7" d="M862.5,302.27c1.46-1.34,2.19-6.55-.77-6.69-.55.25-1.01.36-1.31.85-.6.98-.19,4.45.46,5.31.31.41.86.56,1.62.54Z"/>
          <path class="cls-7" d="M832.96,290.73c2.91-.45,2.92-5.42-.31-5.46-.78.31-1.4.39-1.85,1-1.16,1.57,0,4.79,2.15,4.46Z"/>
          <path class="cls-7" d="M851.96,282.81c1.33.36,2.79,1.11,3.54,2.08.72.92,1.01,2.04,2.15,2.54.28-.05.56-.1.85-.15,1.5-2.26.09-6.16-1.38-7.23-1.81-1.32-5.88-2.06-9.31-1.54-1.4.21-3.37.34-4.85.08-3.14-.56-5.64-2.18-7.23-4.31-1.71-2.3-2.44-4.74-2.85-8.46-.36-3.27,2.22-6.19.54-8.54-.41-.05-.82-.1-1.23-.15-2.99,1.92-3.85,9.8-2.77,14.46,1.54,6.64,4.45,10.45,11.54,11.62,3.91.64,7.25-1.39,11-.38Z"/>
          <path class="cls-7" d="M860.42,288.27c-.46-.05-.92-.1-1.38-.15-1.9,1.13-2.08,4.57.15,5.15,2.99.78,2.03-4.01,1.23-5Z"/>
          <path class="cls-7" d="M808.88,331.12c-1.79-.78-3.88-1.18-6.46-1.15-1.18.23-2.36.46-3.54.69-4.49,1.73-7.68,5.42-9.15,10.15-2.72,8.74,2.99,15.39,8.92,17.69,1.33.52,3.36,1.16,5.38.85,6.35-.98,10.18-4.24,12.23-9.46,3.07-7.8-2-16.42-7.38-18.77Z"/>
          <path class="cls-7" d="M822.5,332.96c.8-2.09-.69-4-3-3.92-.26.23-.51.46-.77.69-.45,1.85,1.91,4.16,3.77,3.23Z"/>
          <path class="cls-7" d="M801.58,290.66c-1.08,1.61.46,4.45,2.38,4.08,2.82-.54,2.65-5.17-1-5-.5.28-1.08.46-1.38.92Z"/>
          <path class="cls-7" d="M800.42,299.43c-.51.28-1.02.43-1.31.92-.87,1.5.07,3.71,1.46,3.85,2.04.71,3.8-4.98-.15-4.77Z"/>
          <path class="cls-7" d="M824.73,353.35c.17-.62.11-1.07-.08-1.62-.88-.63-2.05-.95-3.62-.92-.58.27-.94.37-1.38.69-.81,2.94,3.4,3.12,5.08,1.85Z"/>
          <path class="cls-7" d="M800.34,309.12c-.33.21-.67.41-1,.62-.58,2.08,1.74,4.6,3.85,3.31.45-.21.52-.52.77-.92-.45-1.44-1.72-3.02-3.62-3Z"/>
          <path class="cls-7" d="M831.11,332.73c.09-.34.18-.63.08-1v-.15c-.36-.22-.88-.26-1.54-.23-1.38.53-2.85-.29-3.69.77-.08.35-.09.65.08.92.76,1.65,4.38.68,5.08-.31Z"/>
          <path class="cls-7" d="M830.19,344.12c2.2-.52,2.01-4.16-.69-4.08-2.69,1.15-1.83,4.67.69,4.08Z"/>
          <path class="cls-7" d="M824.19,325.43c.34-1.67-1.44-2.21-3-2.23-.36.13-.72.26-1.08.38-1.59,2.49,2.9,3.55,4.08,1.85Z"/>
          <path class="cls-7" d="M826.5,358.73c-.36-.08-.72-.15-1.08-.23-.54.45-1.48.62-2.08,1-.25.99.05,1.39.54,2,2.35.63,4.05-.98,2.62-2.77Z"/>
          <path class="cls-7" d="M876.5,294.73c-1.5.78-3.77,5.73-1,6.46,2.7.71,4.5-6.53,1-6.46Z"/>
          <path class="cls-7" d="M802.57,285.66c1.36,2.31,8.05-2.98,4.92-4.54-.27-.23-.7-.26-1.23-.23-1.09.55-5.73,2.72-3.69,4.77Z"/>
          <path class="cls-7" d="M880.57,363.12c2.17-.78.08-5.72-.92-6.38-.44-.05-.87-.1-1.31-.15-.49.33-1.07.67-1.23,1.31-.41,1.6,1.58,5.9,3.46,5.23Z"/>
          <path class="cls-7" d="M856.34,314.81c2.13-.41,1.83-4.06-.69-4-2.52,1.16-1.21,4.36.69,4Z"/>
          <path class="cls-7" d="M859.19,350.89c1.33,4.24,3.76,7.52,6.15,10.69,1.15,1.52,4.65,6.36,7.62,5.62,1.98-.5,1.23-3.14.15-4-6.93-5.55-10.7-11.95-12.54-22.69-1-5.81,1.13-11.61.23-17.46-.48-3.12.41-5.55-3.23-5.54-.53.33-1.01.45-1.23,1.08v4.54c.13,3.49.26,6.97.38,10.46.95,6.1.84,12.13,2.46,17.31Z"/>
          <path class="cls-7" d="M870.65,376.5c1.64.28,3.28.56,4.92.85,1.37.29,3.49.89,4.92.31.68-.28,1.29-1.06,1.54-1.77.28-.8.11-1.68-.23-2.23-1.37-2.27-4.33-.38-7.23-.85-1.26-.18-2.51-.36-3.77-.54-2.4,1.08-3.06,3.2-.15,4.23Z"/>
          <path class="cls-7" d="M813.04,274.96c2.3-.05,3-4.22.31-4.23-1.63.91-2.65,3.24-.31,4.23Z"/>
          <path class="cls-7" d="M844.57,239.5c-1.67.1-3.33.21-5,.31-3.45.6-6.95.84-10.08,1.77-9.41,2.81-16.29,10.48-20.38,18.69-1.56,3.41-3.13,6.82-4.69,10.23-.4,1.13.23,3.09.85,3.54,2.19,1.58,4.26-1.81,4.92-3.15,1.88-3.81,2.57-8.59,4.31-12.69,1.17-2.76,3.08-4.97,4.85-7.15,5.11-6.34,20.82-11.96,33.08-9.08,3.67.86,6.82,2.15,9.62,3.85,2.9,1.76,7.4,4.83,7.69,9-.03.03-.05.05-.08.08-2-.36-3.56-1.58-5-2.54-2.69-1.79-5.39-3.93-8.62-5.08-2.94-1.05-7.74-1.87-11.77-1.23-2.64.42-4.98.26-7.31.85-7.24,1.81-13.78,5.24-17,11.08-1.2,2.17-1.87,6.33-1.08,9.46.47,1.88,1.45,4.26,1,6.85-.71,4.04-2.63,7.68-5.38,9.69-.67.49-1.81.41-2.31,1.08-.86,1.15-.02,2.61.77,3.23,2.17,1.69,5.02,1.28,6.69-.62,2.41-2.74,4.91-11.5,4-16.92-.44-2.66-1.19-5.79-.46-8.46.92-3.35,3.44-5.81,6.08-7.46,6.03-3.78,19.33-7.62,28.54-4,4.6,1.81,7.1,5.21,10.85,7.69,1.17.77,3.44,1.29,4.46,0,2.07-2.63-1.28-7.69-2.46-9.46-4.69-7.03-14.19-9.72-26.08-9.54Z"/>
          <path class="cls-7" d="M874.88,285.96c-1.65,1.06-1.86,4.77-.54,6.46,3.51.89,3.5-6.56.54-6.46Z"/>
          <path class="cls-7" d="M849.5,253.89c-1.29.5-2.64.44-3.77.92-4.53,1.95-10.6,9.41-8.23,16.85,2.62,1.58,2.98-3.45,3.77-5,1.6-3.13,6.4-7.82,11.77-7,9.37,1.43,14.89,8.89,18.08,16.46.9,2.14.97,6.07,2.15,7.92.59.17,1.07.25,1.69.08,1.99-2.97-1.07-9.68-2.08-11.69-3.56-7.1-12.96-18.66-23.38-18.54Z"/>
          <path class="cls-7" d="M890.04,299.66c-2.1,1.07-5.05,10.04-1.23,11,.63.16,1.31-.18,1.54-.46.77-.93,2.2-8.01,1.38-9.62-.29-.57-.94-.79-1.69-.92Z"/>
          <path class="cls-7" d="M886.19,364.89c-.28.1-.56.21-.85.31-1.23,1.77-.07,5.41,1,6.85,3.58.99,2.9-7.02-.15-7.15Z"/>
          <path class="cls-7" d="M885.34,322.27c-.58.32-1.14.52-1.38,1.15-.42,1.07-.06,5.13.15,6.31,1.12,6.25,3.31,10.67,5.46,15.62.59,1.36,1.71,5.49,3.92,4.69,1.79-.65.97-3.91.46-5.54-1.55-4.96-4.79-8.53-5.85-13.69-.64-3.12.86-8.44-2.77-8.54Z"/>
          <path class="cls-7" d="M891.11,402.27c6.41-2.19,4.23-11.57-3.54-11.38-1.26.57-2.46.66-3,1.92-1.9,4.46,1.66,11.13,6.54,9.46Z"/>
          <path class="cls-7" d="M884.57,228.12c.12-.52.08-1.22-.15-1.62-1.71-2.88-9.21.1-12.92-.62-3.44-.92-6.87-1.85-10.31-2.77-5.91-1.62-12.57-2.41-20-2.31-2.33.13-4.67.26-7,.38-5.05.86-9.7,1.55-14.46,2.46-4.08.78-7.94.42-9.77,3.38-2.28,3.71-1.64,11.73-2.85,16.46-2.25,8.83-6.41,15.03-10.23,22.23-.66,1.24-3.96,7.33-3.54,9,.23.91,4.97,4.27,6,4.69,1.65.68,3.18-.07,3.31-1.69-.78-1.94-2.48-2.62-3-4.92-1.47-6.51,4.44-15.42,6.77-18.92,3.91-5.87,9.5-12.92,16.08-16,12.79-5.99,34.53-5.58,45.23,2,3.77,2.67,7.19,6.56,8.69,11.46.97,3.18,1,7.05,1,11.23.03,1.82.05,3.64.08,5.46.21,2.05.41,4.1.62,6.15.62,3.12,1.44,6.02,2.31,8.77.65,2.06,1.06,4.12,1.46,6.46.3,1.76-.09,3.96.69,5.23.51.82,1.94,1.13,2.85.46,1.05-.77,1.79-3.33,1.23-5.15-.64-1.33-1.28-2.67-1.92-4-.91-2.06-1.77-4.21-2.46-6.46-1.47-4.8-1.32-10.36-2.23-16-.7-4.33.66-9.14-.31-13-1.5-5.98-7.1-12.99-11.85-15.77-8.18-4.79-26.5-6.41-38.46-3.77-2.81.62-5.63,1.25-8.15,2.23-1.59.56-3.18,1.13-4.77,1.69-2.93.57-4.87-2.48-3.31-4.62,1.19-1.62,4.18-2.19,6.31-2.85,4.21-1.3,8.77-1.85,13.69-2.69,2.36-.13,4.72-.26,7.08-.38,2.86-.46,6.74-.19,9.38.23,8.73,1.4,17.66,1.45,23.31,5.85,3,2.34,3.46,7.12,5.54,10.38,1.85,2.92,4.66,4.82,5.77,8.54.67,2.22.46,6.05.08,8.46-.66,4.18-.53,11.01.31,14.77.75,3.37,1.82,6.43,3.54,8.85,1.59,2.25,3.71,4.06,5.15,6.46,2.13,3.56,2.81,8.92,1.92,14.31-.33,2.02.07,3.5,1.85,3.69,2.88-1.61,2.35-8.76,1.54-12.46-2.15-9.77-9.42-13.45-11.23-23.46-1.26-6.98,1.23-15.58-.46-22.38-.71-2.87-2.05-5.26-3.62-7.31-1.67-2.18-3.62-4.05-4.23-7.31-.77-4.08,4.7-1.67,5.46-4.85Z"/>
          <path class="cls-7" d="M896.96,313.27c.39-1.44.25-3.26-.46-4.23-.38-.05-.77-.1-1.15-.15-1.57,1.02-1.16,3.35-.15,4.62.73.2,1.26.13,1.77-.23Z"/>
          <path class="cls-7" d="M822.73,335.58c-1.09.64-1.6,1.44-.69,2.62,1.35.36,2.89.12,3.85-.54.15-.58.1-.93-.08-1.46-.72-.51-1.77-.66-3.08-.62Z"/>
          <path class="cls-7" d="M893.65,355.04c-.31-.05-.62-.1-.92-.15-1.37.71-4.63,5.11-1.69,6.23,2.66,1.01,3.96-4.32,2.62-6.08Z"/>
          <path class="cls-7" d="M877.42,330.5c.13-4.13.26-8.26.38-12.38,0-2.69.28-5.23-2.46-5.23-.62.35-1.19.55-1.38,1.31.08,1,.15,2,.23,3-.05,3.23-.1,6.46-.15,9.69-1.11,7.07.65,14.58,3.23,18.69,1.45,2.31,3.67,3.93,5.15,6.15,1.27,1.9,2.33,7.55,5.31,6.69,1.39-2.01-.36-6.2-1.23-7.69-1.86-3.18-4.68-5.33-6.54-8.54-1.87-3.24-1.8-7.13-2.54-11.69Z"/>
          <path class="cls-7" d="M882.42,299.73c-.38.24-.76.39-1,.77-.39.63-1.33,4.54-.85,5.38.26.57.75.73,1.38.92,1.99-.13,4.5-7.23.46-7.08Z"/>
          <path class="cls-7" d="M882.11,310.43c-.6.32-1.24.56-1.54,1.15-.45.9.49,6.41.92,7.15.21.37.6.58,1,.77,3.4.06,2.36-9-.38-9.08Z"/>
          <path class="cls-7" d="M891.19,212.35c2.4.51,4.08-2.36,2.77-4.08-.48-.13-.86-.24-1.54-.23-.9.55-2.86,3.1-1.23,4.31Z"/>
          <path class="cls-7" d="M791.34,287.66c-1.11.5-2,.8-2.46,1.92-1.31,3.21,3.47,7.05,6.38,5.31,3.05-1.82-1.16-7.28-3.92-7.23Z"/>
          <path class="cls-7" d="M792.27,307.35c-3.2,1.96,2.82,6.54,4.15,5.77.32-.15.39-.3.54-.62-.05-2.22-2.29-5.14-4.69-5.15Z"/>
          <path class="cls-7" d="M794.5,303.04c1.34-1.61-1.71-4.44-3.54-4.38-3.37,2.26,2.32,7.1,3.54,4.38Z"/>
          <path class="cls-7" d="M889.8,314.35c-.56.31-1.15.45-1.38,1.08-.64,1.74,2.81,7.67,3.46,9.38,1.19.73,2.88.09,2.54-1.77-.51-2.77-1.61-8.6-4.62-8.69Z"/>
          <path class="cls-7" d="M818.96,357.58c-1.03-.34-1.78.98-2.23,1.54-1.49,1.86-3.64,3.58-5.85,4.69-7.45,3.77-17.01.98-22-3-5.8-4.63-8.83-14.84-5.46-24.38,2.32-6.57,7.01-11.83,14.15-13.62,5.16-1.29,10.7.37,13.92,2.31.92.55,3.77,3.19,5.08,2.46,2.21-1.05-1.12-4.72-1.85-5.46-3.37-3.44-8.01-5.22-15-5.08-.9.15-1.79.31-2.69.46-1.87.51-3.73,1.29-5.23,2.23-3.06,1.92-5.39,4.62-7.54,7.46-4.35,5.74-10.53,14.72-7.54,25.46.61,2.19,1.47,4.41,2.54,6.23,2.34,3.99,5.43,6.85,9.46,9.15,1.58.9,3.68,1.22,5.15,2.23,1.52,7.19-1.05,13.33-2.08,19.46-.83,4.95,1.86,11.59,6.69,10.69,2.04-.38,4.61-2.27,4.15-5-.26-1.54-.99-2.69-1.46-4-.44-1.72-.87-3.44-1.31-5.15-.97-4.9.04-10.43.08-15.54,1.59-.23,3.18-.46,4.77-.69,4.89-1.23,9.41-3.5,12.15-6.92.46-.57,3.82-4.29,2.08-5.54Z"/>
          <path class="cls-7" d="M890.96,236.58c-.44-.05-.87-.1-1.31-.15-1.02.61-2.54,3.38-.38,3.92,2.65.67,2.68-2.54,1.69-3.77Z"/>
          <path class="cls-7" d="M829.5,351.96c.92.86,2.46-.07,2.69-.92.42-1.59-.85-2.4-2.23-2.31-1.01.56-2.09,2.49-.46,3.23Z"/>
          <path class="cls-7" d="M810.57,408.35c-.64,3.88,2.06,7.16,6.08,6.38,4.16-.8,7.09-8.99,6-14.77-1.24-6.55-5.44-10.65-7.54-16.62-.94-2.67-1.19-9.3-2.62-11.15-.5-.65-1.29-.77-2.46-.77-1.37.74-2.41,1.28-3.15,2.62-.86,1.54-.59,4.74-.23,6.62,1.11,5.86,2.53,9.94,5,14.15.67,1.14,1.24,2.57,1.54,4,.45,2.21-1.09,3.78-1.69,5.31-.51,1.29-.67,2.68-.92,4.23Z"/>
          <path class="cls-7" d="M797.65,406.81c-1.51-.35-2.79-1.31-3.85-2.15-2.52-2.02-3.16-6.3-7.69-6.23-.74.34-1.48.4-2.08.85-2.11,1.58-1.71,5.51-.69,7.92,1.68,4,4.87,7.05,8.62,9,1.86.97,4.87,2.57,7.15.92,1.77-1.28,2.78-4.31,3.38-6.69.27-1.05.27-2.73-.46-3.23-.96-.66-3.07-.08-4.38-.38Z"/>
          <path class="cls-7" d="M916.34,270.12c1.43.26,3.06-.11,4.08-.38,4.4-1.18,6.72-4.3,5.54-10.31-1.17-5.99-3.25-10.91-4.92-16.38-.94-3.08-1.11-6.37-1.69-9.92-.56-3.39.34-7.24.92-9.92.77-4.56,1.54-9.13,2.31-13.69.42-2.17.98-6.74-.62-7.77-.5-.32-1.5-.25-2.31-.23-.75.41-1.4.61-1.85,1.31-1.62,2.5-1.05,10.41-2,13.85-.68,2.46-1.27,5.12-1.77,7.77-.13,1.51-.26,3.03-.38,4.54.05,1.38.1,2.77.15,4.15.51,3.19.41,7.48-.15,10.46-.45,2.36-.73,4.73-1.54,6.77-1.32,3.35-2.98,5.74-3.69,10-1.04,6.2,3.39,8.94,7.92,9.77Z"/>
          <path class="cls-7" d="M899.65,219.81c2.6-.72,2.06-4.77-1.15-4.62-2.96,1.4-1.81,5.43,1.15,4.62Z"/>
          <path class="cls-7" d="M955.42,256.27c.1.03.21.05.31.08.02-1.27.33-6.24-.15-6.92-1.48,2.8-1.18,3.92-.15,6.85Z"/>
          <path class="cls-7" d="M902.5,227.5c-.36,3.59-.72,7.18-1.08,10.77-1.07,4.94-2.43,9.51-3.38,14.77-2.42,13.33,4.04,23.89,11.77,28.23,9.11,5.11,22.76-1.13,28.38-5.23,1.92-1.4,3.65-3.12,4.15-5.92.46-2.57-1.17-4.48-2.08-5.85-1.95-2.94-4.54-6.82-3-11.85,1.35-4.42,4.5-7.45,7-10.77,2.93-3.9,4.92-7.8,6.08-13.62.15-1.97.31-3.95.46-5.92.1-2.13.21-4.26.31-6.38.1-1.82.21-3.64.31-5.46.46-2.86.72-5.59,1.46-8,.4-1.29,1.84-5.71,2.85-6v-2.54h-4.77c-.54,1.44-1.08,2.87-1.62,4.31-1.27,3.6-1.36,7.74-2.08,12.23-.05,2.13-.1,4.26-.15,6.38-.23,2.77-.46,5.54-.69,8.31-1.45,7.01-3.63,12.87-8.31,16.62-.85.68-1.7,1.56-2.85,1.92-1.7.54-2.88-.72-3.54-1.54-2.04-2.52-3.9-6.65-3.08-11.69.28-2.23.56-4.46.85-6.69,1.09-5.22,1.86-10.13,2.85-15.69.37-2.08.8-5.5.23-7.77-.64-2.56-2.96-5.39-5.15-6.38h-14.85c-6.75,3.43-5.2,15.4-7.23,23.69-.85,3.47-2.05,6.41-2.85,10.08ZM908.42,226.89c.86-5.18,2.02-9.08,2.92-13.92.96-5.14.32-10.72,2.92-14.08,1.3-1.67,2.84-1.79,5-2.69,5.4-.05,9.62,3.27,8.62,9.31-.86,5.17-1.03,9.99-2.08,14.92-.89,4.2-2.03,9.89-1.08,14.92,1.63,8.6,5.1,14.8,6.62,23.46.34,1.96.11,4.65-.23,6.31-1.31,6.38-4.51,8.49-11.08,9.62-1.33.03-2.67.05-4,.08-6.58-1.11-10.44-3.4-12.23-9.23-2.57-8.37,2.94-13.87,4.54-20.23.8-3.18,1.01-8.19.38-11.85-.31-1.82-.66-4.48-.31-6.62Z"/>
          <path class="cls-7" d="M900.57,211.5c2.26-.56,1.68-4.21-.92-4.15-2.68,1.16-2.04,4.89.92,4.15Z"/>
          <path class="cls-7" d="M935.19,236.04c.88-.7,1.45-1.81,2.08-2.77,1.61-2.45,2.87-5.28,3.69-8.54.93-3.72.49-7.83,1.15-12,.21-2.46.41-4.92.62-7.38.73-4.21,1.32-8.11,2.62-11.62h-8.38c1.57,2.87,2.14,7.2,1.31,11.62-1.15,6.49-2.31,12.97-3.46,19.46-.46,2.14-1.4,10.27.38,11.23Z"/>
          <path class="cls-7" d="M822.11,342.81c-.28.1-.56.21-.85.31-.28.39-.58.88-.38,1.54.61,1.32,4.34,1.37,5.46.54.09-.32.24-.78.08-1.15-.45-1.22-2.6-1.3-4.31-1.23Z"/>
          <path class="cls-7" d="M830.96,308.04c2.49-.61,3.01-5.87-.62-5.77-1.13.45-2.11.64-2.46,1.85-.56,1.96.92,4.45,3.08,3.92Z"/>
          <path class="cls-7" d="M821.96,299.27c-.26.1-.51.21-.77.31-1.1,1.6-.4,3.36.54,4.54.63.17,1.13.11,1.69-.08.83-1.24.11-3.22-.38-4.46-.3-.18-.58-.29-1.08-.31Z"/>
          <path class="cls-7" d="M897.65,202.2c3.55-1.43,6.17-5.24,7.92-8.46h-4.54c-1.26.62-7.19,5.52-7.15,0h-2.92c-.3.7-.75,1.28-.92,2.15-.84,4.25,3.67,7.89,7.62,6.31Z"/>
          <path class="cls-7" d="M824.27,308.73c-2.57,1.99.94,4.71,2.62,3.46,1.66-1.23-1.32-3.49-2.62-3.46Z"/>
          <path class="cls-7" d="M813.11,315.5c2.01-.8.88-5.09-1.69-5-2.33,1.5-.3,5.57,1.69,5Z"/>
          <path class="cls-7" d="M810.34,297.96c2.82-.55,1.7-6.1-1.23-6-.61.36-1.21.59-1.46,1.31-.62,1.79.91,5.04,2.69,4.69Z"/>
          <path class="cls-7" d="M825.5,291.04c-.79.39-1.49.66-1.92,1.38-1.27,2.13,1.04,5.61,3.46,4.85,3.06-.97,2.6-6.39-1.54-6.23Z"/>
          <path class="cls-7" d="M807.42,300.35c-.23.08-.46.15-.69.23-2.46,1.1.31,5.11,3.08,2.85.5-1.84-.91-2.7-2.38-3.08Z"/>
          <path class="cls-7" d="M806.57,310.5c-.26.18-.51.36-.77.54-.49,1.83.22,2.94,1.38,3.62.45-.02.69-.08.92-.31,1.33-.77.25-3.01-.31-3.69-.41-.05-.82-.1-1.23-.15Z"/>
          <path class="cls-7" d="M821.65,309.73c1.66-1.11.13-4.44-2-4.38-.31.21-.62.41-.92.62-.56,1.98.76,5.21,2.92,3.77Z"/>
          <path class="cls-7" d="M819.04,316.19c.45-1.63-.29-3.37-2.08-3.31-.13.05-.26.1-.38.15-1.17,1.84.54,4.64,2.46,3.15Z"/>
          <path class="cls-7" d="M816.65,305.12c.39-1.83-1.42-3.14-3.23-3.08-.44.27-.84.36-1.08.85-1.56,1.8,3,4.12,4.31,2.23Z"/>
          <path class="cls-7" d="M816.34,299.35c2.03-.41,2.18-4.47-.69-4.31-2.12,1.22-1.52,4.75.69,4.31Z"/>
          <path class="cls-7" d="M831.42,356.35c-2.66,1.23-1.08,4.55,1.38,3.54,1.99-.82.81-3.63-1.38-3.54Z"/>
          <path class="cls-7" d="M600.42,438.42c-2.19.92-2.18,3.49.23,3.69,1.35-.52,1.66-1.65,1.15-3.15-.4-.3-.66-.52-1.38-.54Z"/>
          <path class="cls-7" d="M607.19,431.58c.8-1.17.57-2.6,0-3.92-1.52-3.49-2.56-7.21-3.31-11.69-.4-2.37.79-5.5-2-5.54-1.71,1.06-1.83,4.86-1.38,7.69.71,4.51,1.18,15.2,6.69,13.46Z"/>
          <path class="cls-7" d="M588.35,433.42c.47-1.29.23-3.08-.15-4.31-.34-.22-.63-.39-1.15-.46-2.72,1.24-1.49,6.22,1.31,4.77Z"/>
          <path class="cls-7" d="M595.81,427.27c.76-.12,1.76-.86,1.54-1.92-.19-.92-1.03-1.56-1.23-2.77-.56-3.35,1.76-11.93-2-12.08-.44.23-.96.31-1.23.69-1.08,1.55-.09,10.52.23,12.38.3,1.75.43,4.07,2.69,3.69Z"/>
          <path class="cls-7" d="M588.27,436.35c-2.79,1.69-1.47,4.79-.08,7.08.29.48.85.79,1,1.38h2.08c-.01-.48.55-.61.69-1.15.17-.66-1.44-6.28-1.77-6.69-.39-.48-1.04-.62-1.92-.62Z"/>
          <path class="cls-7" d="M597.35,429.27c-.39-.29-.99-.32-1.69-.31-.51.31-1.11.54-1.38,1.08-.89,1.76,2.34,7.41,4.69,6.23,1.99-1-.59-6.23-1.62-7Z"/>
          <path class="cls-7" d="M620.5,444.81h5c-.39-2.72-4.98-3.46-5,0Z"/>
          <path class="cls-7" d="M614.27,418.04c-.46-2.89,1.19-7.54-1.62-8.15-2.02.91-2.6,3.79-2.08,7,.18,2.08.36,4.15.54,6.23.75,3.89,1.61,7.55,2.92,10.77.61,1.49,1.33,4.95,3.92,4.31,1.1-.27,1.45-1.77.85-2.85-2.71-4.83-3.47-10.64-4.54-17.31Z"/>
          <path class="cls-7" d="M608.65,433.58c-.34-.24-.87-.25-1.46-.23-3.5,2.11-.58,7.96,2.38,6.92,2.28-.8.78-3.11.15-4.38-.37-.75-.42-1.85-1.08-2.31Z"/>
          <path class="cls-7" d="M609.27,444.27c-.26.13-.51.26-.77.38.41.23,1.35.18,2,.15.03-.05.05-.1.08-.15-.13-.1-.26-.21-.38-.31-.31-.03-.62-.05-.92-.08Z"/>
          <path class="cls-7" d="M542.65,401.89c-1.76-2.97-.36-8.9-1.69-12.23-3.01-7.52-11.28-13.41-11.46-22.85l-.31-.15c-3.11,2.45-4.53,6-2,10.31,1.32,2.25,3.09,4.63,5.08,6.23,1.21.98,2.48,2.19,3.31,3.54,2.05,3.35,2.23,10.54,2.92,15.15.2,1.31-.29,2.46-.38,3.54,2.72,1.05,5.67,1.45,8.23,2.54,9.3,3.95,22.49,14.81,19,29.69-.59,2.51-1.42,4.83-2.31,7,.56.41,4.19.17,5.23.15-.22-1.26.76-3.33,1.08-4.62.77-3.13,1.37-7.78.69-11.54-2.5-13.87-14.6-23.27-27.38-26.77Z"/>
          <path class="cls-7" d="M539.96,413.12c-14.92-4.58-26.79,7.14-28.92,18.62-.68,3.65.13,7.73,1,10.46.36.87.72,1.74,1.08,2.62,7.26-.03,14.51-.05,21.77-.08h.15v-.08c-1.53-.94-2.05-2.05-.69-3.62,2.53-.67,3.48,1.96,2.15,3.62.52.37,2.11.15,2.92.15h7.77c.05-.43.06-.4.38-.54.57-.29,1.15.01,1.23.54h6.23c.13-.38.26-.77.38-1.15,1.76-3.47,2.61-9.61,1.23-14.23-2.48-8.32-8.43-13.77-16.69-16.31ZM515.89,441.5c-.36-1.25-.07-1.96.77-2.62,1.02,0,1.24.28,1.77.69.79,2.56-.8,3.38-2.54,1.92ZM520.42,429.96c-.27.6-.74.85-1.38,1.08-1.15.05-2.14-1.1-1.54-2.15.28-.66.74-.77,1.38-1.08.81.03,1.09.27,1.54.62.13.44.25,1.12,0,1.54ZM524.27,420.81c2.77,0,2.53,4.91-.31,4-2.01-.76-.96-3.28.31-4ZM526.73,437.96c-.46.1-1.26.14-1.62-.08-1.54-.69-.5-2.47.38-3,1.97-.08,2.68,2.15,1.23,3.08ZM535.12,431.42c-2.29.23-2-2.9-.54-3.77,2.7-.12,2.72,3.55.54,3.77ZM536.27,420.73c-2.47.67-4.03-3.17-1.31-4.77,3.02-.12,3.04,3.56,1.31,4.77ZM544.73,425.27c-1.84-.63-.68-2.49.23-3.15.8,0,1.2.11,1.69.31.87,1.18.12,3.81-1.92,2.85ZM548.81,435.65c-1.62,1.18-3.22-.9-2.69-2.38.22-.54.53-.64,1-.92,1.95-.11,3.24,2.18,1.69,3.31Z"/>
          <path class="cls-7" d="M577.04,374.81c-.74-4.51-1.14-8.7-1.92-13.46-.29-1.77-.4-4.58-.08-6.46.29-1.73.51-3.38,1-4.92.57-1.81,1.42-3.31,1.77-5.38.41-2.42-.69-5.8-2.08-6.54-.51-.27-1.3-.24-2.08-.23-2.76,1.29-4.6,2.26-6.08,4.77-3.23,5.51-.53,14.38.85,19.85.41,2.33.82,4.67,1.23,7,.59,3.56-1.65,13.55,1.31,14.23,3.68.84,6.73-4.86,6.08-8.85Z"/>
          <path class="cls-7" d="M629.35,444.81h5.38c-.35-2.66-5.21-2.7-5.38,0Z"/>
          <path class="cls-7" d="M521.35,406.5c2.84-1.66,9.72-1.47,10.92-4.31.86-2.02-.48-4.06-.77-5.69-.32-1.83.89-3.76.15-5.62-.71-1.79-2.5-3.03-3.77-4.31-3.65-3.65-11.26-13.19-6.38-20.46,1.06-1.58,2.45-2.75,4.08-3.77,1.61-1.01,4.21-3.09,7.15-2.46,2.8.6,3.5,5.4,4.31,8.08,1.29,4.27,2.11,8.7,4.23,12.08,2.22,3.55,6.17,6.31,7.23,10.85.05,1.31.1,2.62.15,3.92,0,3.28.4,5.49,1.77,7.31.55.73,2.01,2.3,3.38,1.38.57-.38.98-1.62.62-2.46-.52-1.19-1.61-1.66-1.92-3.23-.19-.97-.07-2.21.08-3.15.32-2.09-.36-4.33-.92-5.77-2.47-6.31-7.57-8.94-9.77-16.15-1.41-4.65-1.1-13.9-4.38-16.46-2.14-1.67-6.31-.7-8.77.23-5.06,1.93-9.68,5.73-11.31,11.08-.43,1.4-.36,2.74-.62,4.38-.45,2.9.21,5.84,1.08,7.77,1.87,4.18,6.67,5.88,8.54,10.23,1.24,2.88,1.63,8.42-1.46,9.46-.73.25-1.71.17-2.23-.23-1.37-1.05-.89-4.14-1.38-6.08-.41-.9-.82-1.79-1.23-2.69-.91-1.35-2.35-2.6-3.62-3.62-2-1.62-3.69-4.43-4.54-7.15-5.04-16.12,9.17-27.97,21.46-29.92,2.85-.45,5.8.61,7.31,1.69,4.85,3.49,9.43,16.95,11.92,23.38,1.1,2.83,1.76,5.82,2.62,8.92.27.97.46,2.78,1.92,2.46,2.05-.45,4.26-6.05,5.08-8.15,3.21-8.27-.78-27.35-5.38-31.77-1.29-1.23-3.22-2.31-5.62-2.38-2.1.88-2.48,1.49-1.08,3.62,1.29,1.95,3.08,3.45,4.31,5.54,2.51,4.26,3.86,9.77,5.31,15,.76,2.74,2.18,8.93-.77,10.23-2.76-.11-4.33-8.47-5.23-11.08-2.72-7.82-4.94-15.32-10.85-19.92-2.01-1.56-5.02-3.83-9.08-3.15-9.03,1.51-15.58,6.36-20.31,12.23-1.89,2.34-4.56,4.31-5.85,7.23v16.62c1.94,5.58,5.6,9.63,7.77,15.15.75,1.92,1.8,5.3.77,7.77-.94,2.26-3.35,3.5-5.15,4.92-1.13,1.23-2.26,2.46-3.38,3.69v9.69c.31-.64.62-1.28.92-1.92.72-1.2,1.44-2.41,2.15-3.62,2.66-3.75,6.5-7.03,10.54-9.38Z"/>
          <path class="cls-7" d="M588.19,425.89c1.06-1.59,1.46-5.42-1.46-5.31-1.22.77-1.86,3.1-.85,4.77.38.85,1.41.85,2.31.54Z"/>
          <path class="cls-7" d="M586.42,417.5c-.05-.77-.1-1.54-.15-2.31-.04-2.5.77-5.33-2.08-5.31-.58.3-1.06.45-1.31,1.08-.79,2,.06,8.03,2.31,7.54.47-.1,1.09-.57,1.23-1Z"/>
          <path class="cls-7" d="M571.81,444.81h3.46c0-2.34-3.43-2.29-3.46,0Z"/>
          <path class="cls-7" d="M582.65,441.81c-2.07-1.4-3.17,1.25-3.08,3h4c.02-1.07-.28-2.56-.92-3Z"/>
          <path class="cls-7" d="M576.96,431.96c-3.13,1.64-.74,7.21,1.85,6.31,2.24-.78.69-6.32-1.85-6.31Z"/>
          <path class="cls-7" d="M809.34,434.04c-1.27-4.94,4.81-11.36.38-14.69-2.29-1.72-6.78-1.1-8.38.85-1.97,2.39-2.71,6.03-4.62,8.46-4.04,5.16-13.03,9.93-19.54,12.77-2.15,1-4.31,2-6.46,3-.03.05-.05.1-.08.15v.15c.05.03.1.05.15.08h14.23c.12-.09.09-.43.23-.54.64-.28,1.28-.56,1.92-.85.5.39,1.11.61,1.23,1.38,6.97.01,11.61.02,18.54,0,.03-.15.05-.31.08-.46.86-.14,1.44.18,2,.46h8.77c.03-.05.05-.1.08-.15-2.66-3.53-7.29-5.76-8.54-10.62ZM792.42,440.89c-2.72,1.06-3.58-2.32-1.54-3.62,2.19-.05,2.41,2.2,1.54,3.62ZM797.19,436.04c-1.49-.66-.65-3.36.46-3.77.13-.05.26-.1.38-.15,3.6.59,1.54,5.38-.85,3.92ZM802.65,442.27c-.15-.18-.31-.36-.46-.54-.92-1.02.41-1.97,1-2.31.54,0,.72.1,1.08.23.92,1.28.28,2.72-1.62,2.62Z"/>
          <path class="cls-7" d="M934.11,392.81c1.85-7.08,5.55-11.56,9.46-16.46,1.81-2.27,5.24-5.02,3.85-9.23-.18-.1-.36-.21-.54-.31-3.01.24-7.62,7.13-9.23,9.38-3.76,5.26-6.53,10.52-7.85,18.38-1.46,8.72,2.36,16.51,4,23.15,2.37,9.61.32,19.73-2.62,26.85v.23h3.62c.16-1.81,1.38-3.63,2-5.23,1.52-3.91,3.15-11.08,2.15-16.69-1.74-9.83-7.89-18.41-4.85-30.08Z"/>
          <path class="cls-7" d="M955.5,399.42c.05-.03.1-.05.15-.08.03-.08.05-.15.08-.23v-3.77h-.31c-1.23,1.64-.15,2.36.08,4.08Z"/>
          <path class="cls-7" d="M928.04,415.42c-2.1-8.13-5.01-17.55-2.08-26.85,2.38-7.55,6.07-13.91,10.46-19.46,1.59-1.54,3.18-3.08,4.77-4.62.91-.7,2.15-1.25,2.69-2.31-.02-.86-.29-1.07-.54-1.62-.43-.27-.77-.41-1.54-.38-10.29,4.97-16.82,17.52-20.31,29.31-.72,2.44-.88,5.07-1.31,7.85-.6,3.92.47,7.94,1.15,10.92,1.57,6.81,4.69,17.37,2.85,25.31-1.05,4.54-3.02,7.92-5.38,11.08.64.46,5.19.17,6.38.15.02-1.4,1.52-3.42,2.08-4.85,1.48-3.8,3.12-9.44,2.15-15.08-.56-3.3-.61-6.47-1.38-9.46Z"/>
          <path class="cls-7" d="M940.73,296.43c2.17-1.45,5.39-3.32,9.54-2.62.82.1,1.64.21,2.46.31.44-.1.87-.21,1.31-.31.56.18,1.13.36,1.69.54v-5.31c-4.71.13-8.49,1.28-12.08,2.54-7.42,2.61-14.56,5.37-17.38,12.54-1.68,4.26-1.37,9.87-2.23,15.08-.05,1.33-.1,2.67-.15,4-.1,3.41-.21,6.82-.31,10.23v4.62c.31,3.51.62,7.03.92,10.54.55,2.93,1.53,7.76.92,11.31-.92,5.35-3.44,8.17-5.23,12.31-.77,1.79-1.13,3.66-1.69,5.69-.3,1.07-1.77,6.43-1.15,7.38.05.05.1.1.15.15,1.29.43,3.27-5.6,3.77-6.85,1.95-4.87,4.27-9.44,7-13.54,1.25-1.88,3.85-5.42,3.23-8.92-.45-2.59-1.59-4.55-2.31-6.85-1-3.2-1.32-6.62-1.92-10.31-.94-5.72.68-14.09,1.77-18.77,2.21-9.51,4.67-19.1,11.69-23.77Z"/>
          <path class="cls-7" d="M938.5,339.66c-2.66-8.62-1.5-16.69,3-22.46,3.04-3.91,11.26-2.69,13.92.77h.31v-17.38c-9.11-1.74-11.18,5.66-14.62,10.15-3.59,4.69-6.65,9.63-8.23,16.38-1.16,4.97.39,10.6,1.54,14.46,1.64,5.51,3.49,12.57,8,15.23,2.39,1.41,6.22,1.42,9.15,2.15,1.38.41,2.77.82,4.15,1.23v-4.92c-11.04-.18-14.56-6.98-17.23-15.62Z"/>
          <path class="cls-7" d="M952.42,335.42c.33,1.96,1.48,3.64,3.31,4.08.01-8.38,1.39-15.21-4.31-18.15-1.55-.8-4.43-1.67-6.15-.38-2.34,1.75-3.41,8.86-2.62,13.31,1.52,8.5,3.25,15.41,13.08,15.46v-4.69c-4.43-.36-7.61-3.75-8.38-7.92-.5-2.7.11-7.28,1.92-8,.58-.23,1.54-.05,1.92.15,2.06,1.1.8,3.56,1.23,6.15Z"/>
          <path class="cls-7" d="M946.34,402.42c1.11,5.22,3.78,8.12,5.62,12.31,1.45,3.32,1.94,6.93,2.69,11.08.41,2.26.47,5.73,0,8-.81,3.92-2.3,7.37-3.38,10.85v.08c1.49.03,2.97.05,4.46.08v-33.08c-2.24-3.81-5.17-7.46-6.15-12.38-.82-4.09,2.78-10.89,6.15-10.15v-3.38c-1.32.03-2.21.72-3.08,1.23-4.23,2.5-7.89,7.97-6.31,15.38Z"/>
          <path class="cls-7" d="M916.42,408.42c-.59-3.56-1.18-7.13-1.77-10.69-.08-1.33-.15-2.67-.23-4-.33-2.01-.42-4.8-.08-6.92.52-3.19.37-6.37,1.08-9.23,1.9-7.62,4.22-14.53,5.62-22.92.84-5.03-.67-10.11-1.54-14.08-.57-2.61-.63-5.28-1.08-8.08-.34-2.12.01-4.73.31-6.54.21-2.67.41-5.33.62-8,.1-3.92.21-7.85.31-11.77.08-4.82.15-9.64.23-14.46.87-.4,2.18-.05,3.31-.23,2.32-.38,4.5-.49,6.46-1.15,3.43-1.17,6.58-2.7,9.85-4,2.17-.86,4.71-1.23,6.62-2.38,1.48-.9,1.94-3.37,3.77-3.77,1.69-.37,2.45.76,3.46,1.15.77.15,1.54.31,2.31.46h.08v-6.77c-.46-.58-.97-.81-1.15-1.77-.48-2.49.78-4.88-.15-7.08-1.64-3.84-5.19-4.41-6.23-9.85-1.22-6.36,2.71-9.65,5.15-12.69.37-.45,2.12-2.76,2.38-2.77-.05-8.05-.1-16.1-.15-24.15-.05,2.59-.1,5.18-.15,7.77-.05,1.1-.1,2.21-.15,3.31-.43,2.58-.75,5.04-1.46,7.31-1.03,3.28-2.94,4.75-4.77,7.08-2.02,2.57-3.94,5.7-4.77,9.38-1.78,7.85,4.48,13.59,2.77,22.15-.41,2.03-.94,4-2,5.38-1.8,2.33-5,3.56-7.92,4.77-6.61,2.72-16.57,5.89-25.77,3.38-5.37-1.46-8.69-5.24-11.46-9.31-4.41-6.49-8.32-13.84-6-25.38,1.02-5.07,1.93-9.76,3.15-14.54.53-2.07,1.66-5.98,1.23-8.62-.59-3.6-2.06-8.24-6.54-7.23-1.08.24-2.06.64-2.62,1.38-1.32,1.76-.64,4.43.46,5.85,2.07,2.65,6.27,1.55,5.08,7.46-1.14,5.65-3.32,9.77-4.31,15.69-.44,2.63-.06,5.99.38,8.15,1.61,7.88,3.8,13.83,7.38,19.54.97,1.31,1.95,2.62,2.92,3.92.59.62,1.18,1.23,1.77,1.85.28,10.59.56,21.18.85,31.77,1.06,6.51,1.22,12.63,2.54,18.62.78,3.53,1.2,7.34,1.85,11.08.08,1.49.15,2.97.23,4.46.3,1.83.23,4.45-.08,6.23-1.17,6.83-3.26,11.83-4.92,17.85-.82,2.99-.84,6.31-1.38,9.69-.44,2.73-.34,7.69.08,10.31,1.16,7.36.53,16.17-1.77,21.38-2.37,5.37-7.57,8.7-13.23,10.77-1.82.56-3.64,1.13-5.46,1.69-2.88,1.25-4.54,4.11-7.62,5.08-3.29,1.03-6.17-1.01-7.46-2.62-2.35-2.93-4.78-7.04-6-10.92-.36-1.67-.72-3.33-1.08-5-.68-2.23-2.94-5.51-5.23-2.54-2.37,3.07-.56,7.25.62,10.31.95,2.48.64,6.51,2.08,8.54,3.08,4.36,8.91,4.42,8.92,12.08h6.38c.2-3.18,7.28-7.78,10.23-9.08,9.13-4.01,21.04-6.16,24.15-16.23,1.72-5.56.83-12.82-.15-18.46-.85-4.9-1.02-12.66-.23-17.85.42-2.78.38-5.58,1-8.15,1.1-4.57,2.66-8.71,3.77-13.15.55-2.21.63-4.62,1-7.08.6-3.97-.21-8.4-.85-11.54-.64-4-1.28-8-1.92-12-.68-4.08-.27-8.21-.92-12.54-.1-3.08-.21-6.15-.31-9.23-.05-2.59-.1-5.18-.15-7.77-.03-4.05-.05-8.1-.08-12.15.25-.05,5.87.91,6.46,1.15.64.46.22,6.47.46,8,.1,3.03.21,6.05.31,9.08.03,2.03.05,4.05.08,6.08,0,4.76.09,9.31-.62,13.69-.36,2.22-.2,5.16.15,7.23.71,4.17,1.21,7.85,1.92,11.92.1,1.95.21,3.9.31,5.85-.03,1.56-.05,3.13-.08,4.69-.39,2.38-.48,4.75-1.08,6.92-1.4,5.1-3.11,9.94-4.31,15.38-1.22,5.52-1.31,11.78-1.31,18.46,0,8.25,2.43,14.97,3.92,22.15,1.1,5.27.64,10.98-1.69,14.46-2.17,3.24-6.81,6.89-12.85,5.85-3.1-.54-6.44-1.85-10.15-1.08-3.04.63-5.8,1.57-8.08,3-.95.69-1.9,1.38-2.85,2.08.3.6,2.45.31,3.31.31h25.38c1.12-.58,2.6-.87,3.77-1.38,4.01-1.76,6.91-5.44,8.08-10.08,2.04-8.14-.78-18.11-2.38-24.92Z"/>
          <path class="cls-7" d="M952.65,374.96c-.8,1.41-3.89,3.54-5.23,4.62-3.36,2.7-6.93,8.42-8.31,13.08-3.31,11.17,2.92,20,4.85,29.15,1.08,5.13.45,13.55-.77,17.92-.47,1.7-1.66,3.46-1.85,5.08h4.31c.51-1.56,1.03-3.13,1.54-4.69,1.3-4.17,2.98-9.95,2-15.46-.54-3.03-1.16-5.68-2.23-8.15-2.81-6.5-8.54-13.92-4.77-23.85,1.14-3.01,2.95-5.18,4.77-7.46,1.88-2.36,4.74-5.38,8.77-5.46v-15.15c-3.17.74-4.2,6.7-3.08,10.38Z"/>
          <path class="cls-7" d="M839.5,396.12c-1.09-4.27-4.62-5.62-6.92-8.62-2.82-3.66-5.05-8.49-6.54-13.38-.88-2.9-1.32-7.63-4.85-7.77-3.63,1.71-2.36,7.43-1.23,11,1.64,5.18,4.11,10.31,7,14.38,1.84,2.6,4.43,4.64,5.85,7.62.58,1.21,1.1,3.83.46,5.46-.38.74-.77,1.49-1.15,2.23-.32,1.16.07,2.28.85,2.62,1.57.74,3.35-1.03,4-1.85,1.94-2.45,3.69-7.19,2.54-11.69Z"/>
          <path class="cls-7" d="M739.42,435.5c-.51-2.85.21-6.07.85-8.15,1.5-4.9,4.05-9.24,7.62-12.08,3-2.39,6-4.52,7.85-8.08,2.25-4.33,1.83-10.33,3-16,1.2-5.79,3.27-10.26,4.38-15.92.75-3.82-1.24-7-2.31-9.46-2.57-5.9-7.78-15.38-4.23-23.85,1.89-4.52,6.7-6.68,9.46-10.46,2.94-4.03,4.3-9.52,7.23-13.62,1.81-2.52,5.55-3.01,6.23-6.62.67-3.56-2.23-7.37-3.54-9.23-3.53-5.02-7.38-9.61-8.85-16.69-.49-2.35-.11-5.5.31-7.54.8-3.88,1.6-7.31,3-10.62,1.7-4.01,4.37-9.58,3.15-15.77-1.65-8.34-6.25-13.55-10.62-19.15-2.65-3.4-5.79-6.56-7.23-11.15-1.82-5.8.56-11.67,1.92-16.31.93-3.16.91-7.14.85-11.08h-6.62c2.08,10.18-4.7,17.12-2.31,26.54,1.58,6.22,6.03,9.77,9.38,14.23,4.5,5.99,8.1,12.42,9.77,21.23.38,2.03.27,4.94-.08,6.85-.54,2.97-.87,5.46-1.85,7.92-1.91,4.82-4.36,8.65-5.38,14.62-.24,1.42.17,2.89.46,3.85,2.03,6.69,10.33,8.57,8,18.46-1.46,6.16-3.97,11.33-6.54,16.38-2.02,3.96-3.86,7.8-6.31,11.31-3.17,4.55-7.83,7.73-9,14.23-.54,3,1.17,5.42,2.23,7,2.41,3.59,9.22,9.98,8.08,16.54-.99,5.66-2.22,10.65-3.54,15.85-1.83,7.2-3.28,14.04-6.62,19.62-1.14,1.9-2.69,4.1-4.38,5.46-1.05.9-2.1,1.79-3.15,2.69-2.39,2.62-4.36,5.98-5.38,9.92-1.01,3.88-.9,9.55.23,13.23.54,1.72,1.08,3.44,1.62,5.15h5.08c-.54-1.38-1.08-2.77-1.62-4.15-.6-1.54-.84-3.39-1.15-5.15Z"/>
          <path class="cls-7" d="M757.19,429.5c1.64-5.92,7.03-12.8,10.85-16.77,1.67-1.74,6.33-4.89,7-7,1.35-4.22-4.36-7.87-7.15-8.69-1.27-.37-2.42.19-2.92.85-1.04,1.37-.81,3.67-1.23,5.69-.51,2.42-1.21,4.67-2.31,6.54-1.78,3.03-3.92,5.96-6.62,8.08-4.29,3.38-7.82,5.54-9.38,11.77-.32,1.26-.57,3.17-.31,4.69.4,2.28.88,4.41,1.77,6.23.57,1.17,1.7,2.49,1.85,3.92h11.08c-.02-2.93-1.63-4.1-2.46-6.15-1.01-2.49-.91-6.44-.15-9.15Z"/>
          <path class="cls-7" d="M778.96,436.12c2.32-1.36,4.41-3.01,5.46-5.62,2.12-5.24-1.68-10.63-7-10.54-.85.26-1.69.51-2.54.77-2.42,1.07-4.55,3.25-5.85,5.46-3.09,5.27-.87,9.93,4.38,11.15,2.22.52,4.26-.48,5.54-1.23Z"/>
          <path class="cls-7" d="M728.58,436.65c.03-1.62.05-3.23.08-4.85.33-2.03.25-3.79.69-5.62,1.12-4.67,3.14-8.78,5.69-12.08,1.69-2.18,4.07-3.71,5.69-6,3.57-5.04,5.68-11.16,7.69-17.85,1.37-4.56,1.95-9.18,3-14.08.49-2.29.75-5.68-.08-7.77-2.44-6.18-11.2-11.67-9.23-21.31,1.49-7.31,5.91-11.46,9.62-16.54,4.66-6.38,10.21-16.17,11.92-25.23.7-3.7-2.36-5.23-3.85-7.08-2.18-2.71-3.77-4.85-4.54-9.15-.4-2.26.12-4.88.54-6.69.51-2.2.91-4.09,1.69-6,2.28-5.54,6.79-11.59,5.08-19.92-1.75-8.51-5.47-14.22-9.85-20-3.05-4.03-6.42-7.19-8.46-12.38-2.84-7.22-.36-15.56.92-22.54.48-2.61-.15-5.38-.23-7.85h-7.38c.56,3.7,1.1,8.61.46,12.85-.03,1.23-.05,2.46-.08,3.69-.8,5.3-.72,13.06.92,17.08,2.43,5.95,7.47,8.73,11.15,13.31,3.87,4.81,7.45,10.74,8.92,17.85,1.58,7.63-2.36,12.3-4.92,16.54-1.67,2.77-2.87,6.24-3.62,9.85-.92,4.45-.24,9.48,1.54,12.54,1.81,3.12,4.74,6.7,3.62,11.92-1.48,6.85-4.08,12.71-7.54,17.62-1.67,2.03-3.33,4.05-5,6.08-3.31,4.28-6,9.09-7.77,14.92-1.14,3.78-1.16,7.71-1.85,12.15-.05,1.87-.1,3.74-.15,5.62.54,3.57.75,8.61.15,12.31-1.17,7.2-2.88,11.47-5.85,16.62-1.24,2.16-4.19,9.8-7.62,9.08-4.79-1-.34-8.02.77-9.92,2.7-4.63,5.17-9.25,6.31-15.46.56-3.09.54-7.3.08-10.46-.03-1.2-.05-2.41-.08-3.62-.03-1.33-.05-2.67-.08-4,.15-1.9.31-3.8.46-5.69.63-3.61,1.15-6.96,2.15-10.15,4.47-14.27,16.23-20.65,19.46-35.77.91-4.27-2.23-7.11-3.46-10-1.78-4.16-2.36-10.62-1.15-15.92,1.05-4.6,2.58-8.74,4.69-12.31,1.79-3.02,4.61-6.71,3.54-12-1.86-9.2-8.1-13.48-13-19.54-2.21-2.73-4.94-4.91-6.46-8.38-1.93-4.41-2.37-12.39-1.46-18.54.1-2.49.21-4.97.31-7.46.57-3.88-.63-7.5-.69-10.77h-19.92c-.51,5.47,3.71,8.23,8.23,9.15,1.57.32,4.48-.57,5.46.08,1.59,1.05,1.18,5.77.08,7.08-1.27,1.5-7.32.05-9-.46-6.73-2.04-12.01-7.1-11.77-15.85h-10.69c-3.66,12.21-7.44,18.57-21,21-2.3.41-5.5.57-8,.15-2.13-.26-4.26-.51-6.38-.77-3.23-.62-6.46-1.23-9.69-1.85-2.59-.56-5.18-1.13-7.77-1.69v.08c2.74,3.23,5.56,6.42,8.23,9.77,1.04,1.31,2.4,2.39,3.31,3.85,1.25,1.99.99,4.94-1.15,5.85-2.77,1.17-4.53-2.14-5.62-3.54-3.8-4.87-8.01-9.71-13.46-12.92-1.2-.54-2.41-1.08-3.62-1.62-1.36-.42-3.74-.23-4.46-1.31-1.26-1.88,1.26-4.24,2.15-4.92,4.8-3.69,12.28-2.35,18.46-.92,3.05.56,6.1,1.13,9.15,1.69,5.8,1.28,14.68,2.79,20.92.92,5.76-1.72,8.82-5.26,11.08-10.46.44-1.1.87-2.21,1.31-3.31h-4.92c-1.7,3.71-5.35,4.27-4.62,9.62-1.95,1.9-11.16,2.05-14.92,1.38-7.09-1.25-13.26-2.61-19.54-4.54-3.68-1.13-8.84-3.14-13.69-2-6.18,1.45-8.3,5.47-11.62,9.69-2.38,3.04-5.45,5.74-8.62,8-1.5,1.07-3.08,2.76-5.15,3.15-2.5.48-2.83-3.56-3.92-4.69-1.67-1.73-4.22-2.03-6.62-3.08-2.84-1.24-5.43-3.21-7.15-5.62-.58-.82-1.78-2-3.15-1.08-2.16,1.46.15,4.16,1.15,5.23,1.98,2.13,4.13,4.4,6.77,5.85,1.72.94,5,1.57,6,3.23.99,1.65-1.31,5.09-1.69,6.62-.63,2.53.09,5.64.46,7.92.05,1.69.1,3.38.15,5.08.96,5.54,4.95,8.06,7.38,12.23,2.48,4.26,2.73,10.69,4.31,15.85.44,1.38.87,2.77,1.31,4.15.83,1.98,2.55,5.11-.38,6.31-2.1.85-4.12-.49-4.92-1.69-1.49-2.23-.92-5.63-1.46-8.92-.62-3.72-.95-7.06-2.23-10-.98-2.24-2.5-4.55-4.31-6-2.16-1.73-4.51-3.31-5.69-6-1.23-2.8-.94-5.42-1.54-9.08-.08-1.08-.15-2.15-.23-3.23.35-1.15,1.63-1.81,2-3.15.61-2.22-.83-5.93-1.38-7.69-2.18-6.96-7.5-9.83-11.23-15.08-1.46-2.06-2.75-4.35-3.54-7.08-.36-1.74-.72-3.49-1.08-5.23-.54-.49-3.09-.18-4-.15.6,8.95,5.08,14.51,9.23,19.92,1.42,1.85,5.89,7.78,5.31,11.15-.52,3-2.62,4.89-3.46,7.69-.88,2.94,1.29,3.55,2.15,5.08.84,1.48-.59,3.17-1.46,3.54-.72.3-2.54.61-3.54.38-1.35-.31-2.04-1.22-3.38-1.46-4.27-.78-10.12,1.23-12.08-2.08-.65-1.09-.29-3.65-.15-5,.35-3.58,1.04-8.08.31-11.85-1-5.11-2.72-9.42-4.15-14-.74-2.64-1.49-5.28-2.23-7.92-.62-1.36-1.23-2.72-1.85-4.08-1.69-.91-7.31-.02-9.77-.38-2.67-.1-5.33-.21-8-.31-4.48-.68-9.26-.73-14.46-.69-.36,1.67-.72,3.33-1.08,5,5.96-.28,12.87-.5,19.38-.46,2.83.02,7.01-.33,8.92.85,1.91,1.17,1.86,6.93,2.69,9.38,1.92,5.66,7.51,10.79,6,18.92-.33,1.41-.67,2.82-1,4.23-.56,2.23-.2,4.8-1.85,5.92-1.77,1.21-3.81-.25-4.15-1.77-.38-1.68.44-3.12.77-4.23.68-2.3,1.38-5.76.85-8.69-.79-4.29-2.89-7.16-4.38-10.69-1.11-2.62-1.47-5.75-2.08-8.92-1.8-.82-5.65-.33-7.85-.23-5.87.26-11.71.6-17.77.46-.18,1.54-.36,3.08-.54,4.62,1.13.49,3.33.02,4.69,0,3.92-.21,7.85-.41,11.77-.62,2.33,0,5.66-.35,6.15,1.46.82,3-2.52,2.67-4.62,3-5.64.87-11.9.9-18.08.77-.58,1.22-.54,3.87-.54,5.38,5.76-.51,13.07-.81,18.69.15,1.95.33,4.41-.02,5.85.85,3.03,1.82,4.74,7.84,3.85,13.15-.33,1.56-.67,3.13-1,4.69-2.1,6.02-6.87,8.32-10.38,12.69-1.63,2.02-3.08,4.07-4.31,6.54-2.41,4.86-3.28,10.68-4.46,16.85-.6,3.15-.36,6.62-3.77,6.92-3.01.26-2.9-3.6-2.23-5.85,1.97-6.61,3.32-14.4,6-20.46,1.76-3.99,4.97-6.41,7.46-9.62,2.27-2.92,4.04-6.4,5.69-9.92,1.52-3.22,1.47-8.25-1.31-10.08-2.26-1.49-10.69-1.69-14.46-1.08-1.54.25-4.06.51-5.62.08-.78,1.04-.21,3.49-.46,5-.49,2.95-.33,5.92-1,8.54-.6,2.36-1.46,4.62-2.69,6.38-1.69,2.43-4.05,4.38-4.69,7.85-.41,2.19.75,4.01,1.46,5.23,1.56,2.69,3.12,5.37,3.92,8.77.93,3.91-.68,12.4-5.08,10.38-2.93-1.35-.21-5.45-.69-8.31-.28-1.68-.97-2.48-1.46-3.69-.13-.1-.26-.21-.38-.31-.03,6.08-.05,12.15-.08,18.23,1.15.26,2.31.51,3.46.77,1.54.9,2.25,2.44,4.38,2.85,1.93.37,3.62-.46,4.85-.92,2.84-1.07,6.87-1.8,9.77-.23,6.89,3.72,10.13,11.63,17.46,14.85,2.42,1.06,6.96,2.2,10.54,1.23,5.57-1.5,9.81-6.39,13-10.38,1.31-1.64,2.82-3.49,4.85-4.38,4.67-2.06,13.27.98,17.15-2,1.35-1.04.95-4.33.54-6.23-1.08-5.03-.99-17.86-5.31-19.15-3.52-1.06-8.03,1.41-11.08,2-2,.38-4.48.17-5.38-1-.88-1.14-.37-2.78.62-3.38,1.29-.78,3.72-.23,5.46-.54,3.38-.59,7.4-2.88,11.46-2.15,8.09,1.44,6.28,13.73,7.92,21.69.57,2.74,1.94,7.29.69,10.31-1.44,3.48-7.93,2.22-8.62,4.85-.67,2.56,3.88,5.75,5.08,7.31,4.87,6.36,6.47,16.97,15.54,19.08,3.6.84,7.02-.65,9.38-1.69,1.13-.5,1.88-1.24,3.54-1.23,1.23,1.58-.08,4.48-.54,6.15-.98,3.57-1.44,7.03-2.15,11-.21,1.2-.47,3.01-.23,4.46.85,5.17,1.94,11.04,4.62,14.54,1.26,1.65,3.78,2.15,5,3.77,1.3,1.72.83,4.28,2.69,5.46,3.36,2.13,10.97.39,15.69.38,5.69.08,11.39.15,17.08.23h7.77c2.73-.43,5.28.03,7.77-.46,2.06-.41,4.28-.74,5.85-1.69.88-.53,1.54-1.66,2.62-1.92,2.76-.68,3.48,3.18,2.62,5.08-1.76,3.89-8.33,3.2-13.31,4-2.74.44-5.91.23-8.92.23-1.9-.03-3.8-.05-5.69-.08-3.28-.05-6.56-.1-9.85-.15h-9.31c-3.65.58-8.18-.6-10.54,1.15-1.13,4.27,4.72,3.94,8.31,3.38,1.2-.05,2.41-.1,3.62-.15,2.83-.45,7.58-.53,10.46-.08,2.44.13,4.87.26,7.31.38,2.97.13,5.95.26,8.92.38,2.24.35,5.65.29,7.69-.15,1.19-.26,2.4-.67,3.23-1.31.62-.59,1.23-1.18,1.85-1.77,2.12-.99,4.43.53,4.77,2.15.17.83-.22,1.68-.46,2.15-1.75,3.46-5.74,3.2-10.31,3.92-3.09.49-7.74.48-10.85,0-6.08-.15-12.15-.31-18.23-.46-4.38,0-9.82-.48-12.62,1.23-1.45.89-2.66,4.14-1.38,6.23.69.9,1.38,1.79,2.08,2.69,1.44,2.34,2.16,5.29,2.77,8.46.42,2.2,0,4.43.38,6.85.39,2.47.21,5.94-.15,8.31-.1,2.31-.21,4.62-.31,6.92-.78,4.86-.86,11.62-.08,16.54.39,2.47.54,6.2-.31,8.15-.66,1.53-3.83,2.49-3.46,4.38.33.56.67,1.13,1,1.69,4.54-.03,9.08-.05,13.62-.08h.15v-.08c-2.44-1.46-4.47-2.35-5.77-4.92-2.81-5.56-1.77-19.51-.69-26.62.1-2.95.21-5.9.31-8.85-.03-1.62-.05-3.23-.08-4.85-.1-2.51-.21-5.03-.31-7.54-.46-2.59-1.21-4.76-1.62-7.15-.71-4.25,3.84-7.12,8.23-6.38,3.86.64,4.91,3.75,6.08,7.08,2.17,6.19,2.58,16.5,1.38,24.38-.15,2.44-.31,4.87-.46,7.31-.56,3.68-.78,10.79.92,13,1.63,2.11,7.01,3.43,9.62,1.38.68-.53,1.14-1.83,1.46-2.69,2.67-7.1.62-18.26,2.54-26.08.83-3.39,2.21-6.9,7.31-5.31,1.33.42,2.21,2.18,1.23,3.69-.63.97-1.57.65-2.62,1.23-1.33.74-1.88,3.59-2.23,5.31-1.8,8.83,2.05,26.12-5.23,29.15-1.5.62-3.55.88-5.54.92-3.67.08-7.34-.19-9.38-1.77-2.72-2.11-4.41-8.21-3.62-13.38.44-5.08.87-10.15,1.31-15.23.38-2.47.64-5.94.23-8.62-.08-1.44-.15-2.87-.23-4.31-.38-2.13-.77-4.26-1.15-6.38-.28-1.23-.19-3-1.15-3.54-1.49-1.18-3.99.89-3.62,3,.54,2.87,1.08,5.74,1.62,8.62.13,1.87.26,3.74.38,5.62.03,1.77.05,3.54.08,5.31-.18,2.51-.36,5.03-.54,7.54-.97,5.86-1.51,16.89.62,21.62,1.95,4.35,10.17,7.01,17.15,5.77,2.69-.48,5.23-.98,7.23-2.15,3.55-2.08,5.96-5.01,6.77-9.85v-9.31c.57-3.37,1.85-5.92,2.77-8.85.62-1.96.87-4.08,1.23-6.31,1.08-6.67-1.97-13.33-.15-19.54,1.67-5.7,5.48-8.64,8.54-12.85,1.86-2.55,3.13-5.73,4.08-9.15.56-2.95,1.13-5.9,1.69-8.85,1-3.74,2-7.49,3-11.23.72-2.57,2.65-6.42,6.31-4.23,1.2.72,1.98,2.39,1.23,4.15-.54.9-1.08,1.79-1.62,2.69-.85,2.2-1.69,4.41-2.54,6.62-.97,4.2-1.95,8.41-2.92,12.62-1.46,4.87-3.54,8.31-6.31,11.77-2.5,3.12-5.7,5.05-6.92,9.54-.75,2.75-.79,7.35-.31,10.46.03,1.13.05,2.26.08,3.38.05,1.64.1,3.28.15,4.92-.18,1.9-.36,3.8-.54,5.69-.78,3.61-1.59,6.74-2.23,10.77v4.85c0,3.52-.32,6.61-1.38,9.08-1.25,2.89-3.25,5.36-5.69,7.08-.9.46-1.79.92-2.69,1.38,1.03.59,5.8.15,7.38.15h2.23c.79-.75,1.93-2.77,2.62-3.92,4.84-8.12,1.92-22.21,3.77-33.38.1-1.72.21-3.44.31-5.15.18-1.67.36-3.33.54-5,.78-3.79,1.48-7.22,2.85-10.31,2.65-6,7.52-9.98,10-16.23,1.48-3.73,2.06-7.94,3.31-12,2.55-8.31,4.99-16.51,8.46-23.92,1.4-2.99,3.45-5.27,5.38-7.69,1.38-1.73,3.31-3,4.62-4.85,2.4-3.39,4.33-7.45,5.69-11.85.61-1.96.57-5,1.62-6.69.59-.95,2.04-2.01,3.77-1.54,2.4.65,2.33,3.86,1.69,6.46-1.37,5.65-3.07,11.07-5.77,15.46-3.44,5.61-8.93,9.05-11.69,15.38-3.21,7.36-5.61,15.62-8.08,23.62-1.27,4.11-2.15,8.33-3.77,12.08-2.14,4.94-5.63,8.44-8.23,12.85-1.62,2.74-2.54,6.16-3.31,9.69-1.18,5.43-.75,11.4-1.69,17.08-.1,2.49-.21,4.97-.31,7.46v8c-.13,1.46-.26,2.92-.38,4.38-.8,3.79-1.76,7.04-3.46,9.85v.23h6.38c.44-2.31.87-4.62,1.31-6.92.49-4.18.97-8.36,1.46-12.54.23-2.87.46-5.74.69-8.62,1.62-10.04,1.27-19.63,4.62-27.77,1.32-3.23,3.04-5.91,4.85-8.62.68-1.02,1.56-2.6,3.62-2.15,5.41,1.16,0,8.4-1.08,10.38-1.27,2.34-2.38,4.84-3.23,7.69-.99,3.33-.88,7.08-1.54,10.85-.79,7.33-1.59,14.67-2.38,22-.87,5.21-.58,10.97-2.23,15.46v.23h6.31c-.34-3.71.16-7.76.77-11.08,1.53-8.27,1.98-16.8,6-22.54,1.57-2.24,3.7-4.1,5.92-5.69,1.37-.98,2.96-1.93,4-3.23,3.15-3.93,4.94-9.47,6.62-14.85,1.15-3.67,3.59-12.15,2.54-16.92-.63-2.85-2.43-4.49-3-7.15-.4-1.87.87-3.49,2.85-2.92,1.8.52,2.66,2.52,3.54,4,4.01,6.76,3.05,14.91.69,22.77-2.1,7.02-4.28,13.71-8.23,18.85-2.65,3.44-7.2,5.05-9.54,8.77-1.55,2.48-2.22,5.5-3.15,8.62-1.88,6.26-3.21,13.35-3.08,21.38h9.77c-.38-1.49-.77-2.97-1.15-4.46-.15-1.23-.31-2.46-.46-3.69ZM517.58,254.43c-2.51-.89-1.83-4.82-.69-6.69,2.31-3.82,11.4-7.15,9.46-13.54-.78-.49-2.46-.36-3.23-.92-1.42-1.03-1.38-3.75,0-4.77.54-.4,1.2-.35,1.92-.62,1.89-.02,3.62.04,4.92.62,3.13,1.38,4.38,6.4,2.77,10.38-1.2,2.97-3.55,5.41-5.92,7.23-1.11.86-2.44,1.68-3.31,2.77-1.19,1.49-2.8,6.65-5.92,5.54ZM590.12,275.04c.14,3.09-5.02,3.8-4.85.15.46-.52.75-.7,1.38-1.08,1.81-.03,2.54.18,3.46.92ZM586.73,264.96c5.85.17.4,7.28-2.92,5.62-.65-.32-1.01-1.08-1.23-1.85-.9-3.05,2.07-3.05,4.15-3.77ZM584.65,246.96c-1.4,1.69-5.11,2.5-7.54,3.08-4.4,1.05-10.84.42-14.54-.69-2.01-.6-4.5-1.82-7.38-1.31-7.09,1.25-13.45,11.05-16,17.15-1.1,2.63-2.77,6.45-1.31,9.85,1.13,2.62,3.12,4.25,4.77,6.31,2.7,3.36,7.65,8.74,12.54,9.69,1.75.34,3.66-.17,4.92-.62,6-2.09,7.78-6.47,9.15-13.23.78-3.84.36-9.07-1.23-11.77-1.91-3.24-5.33-6.02-9.69-6.77-2.1-.36-3.3,1.04-4.31,1.85-2.34,1.87-6.61,7.52-4.77,11.92,1.05,2.52,4.43,4.6,7.08,5.54,1.47.52,3.39.49,4.23-.62,1.72-2.26-.32-5.89-2-6.92-.92-.56-2.56-.75-3-1.77-1.16-2.68,2.07-4.52,4.46-3.62,3.31,1.25,5.45,4.43,6.23,8.23,1.17,5.69-3.84,11.26-9.46,10.23-5.35-.98-12.3-6.08-13.54-11.08-.68-2.74.57-5.53,1.46-7.31,2.34-4.64,6.9-13.7,14.85-12.08,7.17,1.46,12.46,8.22,14.31,15,2.07,7.59-1.64,17.21-4.69,21.38-1.46,1.99-3.77,3.81-6.08,4.92-4.36,2.11-10.43,1.84-14.23-.54-3.79-2.38-6.22-6.19-9.62-8.92-2.78-2.24-6.12-5.33-7.31-9.08-1.26-3.99.02-8.68,1.23-11.77,2.97-7.57,10.78-17,18.15-20,5.65-2.29,12.34.97,17.54,1.92,5.03.92,9.38-1.18,12.69-2.77,2.63-.06,4.98,1.47,3.08,3.77ZM671.81,394.04c-.52,2.82-1.72,5.35-2.23,8.46-.26,5.46-.51,10.92-.77,16.38-.38,2.44-.12,8.11-3.23,7.46-2.4-.5-2.24-6.46-1.77-9.46.21-5.23.41-10.46.62-15.69.31-1.85.82-3.45,1.23-5.08.77-3.04.19-4.59,2.92-5.85,2.01.08,3.67,1.39,3.23,3.77ZM683.35,381.81c-2.64,1.64-9.37,1.89-13.46,1.77-2.79-.09-5.73.22-6.23-2.15-.56-2.66,2.36-2.92,4.62-2.92,3.43,0,6.96.18,10.08-.31.92-.05,1.85-.1,2.77-.15.79.03,1.59.05,2.38.08,1.67.66.94,3.01-.15,3.69ZM696.73,203.58c5.24-.02,2.56,3.25,3.15,6.54.33,1.81,1.41,3.35,2.62,4.31,3.38,2.67,7.34,3.88,12.69,4.69,2.64.4,4.72-1.14,7-.38,1.49.49,3.02,2.49,1.69,4.31-1.41,1.93-8.6,3.46-12.62,2.85-7.85-1.2-14.05-3.82-17.08-9.77-2.45-4.8-1.82-10.23,2.54-12.54ZM716.58,250.43c-2.57.55-3.05-2.11-3.46-3.85-.9-3.76-1.76-7.42,1.54-9.08,3.88-.1,3.39,2.7,3.92,6,.46,2.87.71,6.35-2,6.92ZM681.96,219.96c3.98-.03,4.67,5.39,7.31,7.23,1.18.83,2.69,1.24,4.08,1.85,2.64,1.16,5.59,3.32,7.31,5.46,2.83,3.53,4.76,8.33,6.69,12.69,2.04,4.62,4.81,8.94,7.38,13.08,1.9,3.05,4.87,5.53,5.69,9.46.43,2.05-.43,6.33-2.77,5.31-1.33-.51-1.68-2.91-2.46-4-2.66-3.73-5.06-7.51-7.38-11.69-3.85-6.94-6.92-15.26-11.77-21.31-2.59-3.23-7.52-4.12-10.62-6.85-2.23-1.96-7.37-8.28-3.46-11.23ZM674.73,226.66c3.32-.03,7.77,8.49,4.15,10.08-1.92.84-3-.88-3.62-1.92-1.48-2.49-4.14-6.11-.54-8.15ZM659.58,221.89c.46-1.37,1.54-1.76,2.85-2.31,6.38-.14,9.8,6.95,3.38,9.38-2.96,1.13-7.29-3.93-6.23-7.08ZM653.5,234.27c2.59.41,5.18.82,7.77,1.23,1.54.24,3.15-.04,4.15.69.63.46,1.08,1.8.62,2.85-1.55,3.49-12.07,1.11-14-.54-2.07-1.77-.12-3.55,1.46-4.23ZM603.12,299.19c-.51-.95-1.03-1.9-1.54-2.85-1.18-1.51-7.26-4.24-1.92-6.54,3.89.07,6.45,6.34,7.46,9.62.56,1.81,1.24,4.82-.69,5.62-3.02,1.25-2.73-4.19-3.31-5.85ZM606.58,310.58v-.38c.97-1.04,2.11-2.89,3.46-3.46.18-.03.36-.05.54-.08.08.13.15.26.23.38.84,1.96-2.49,3.57-4.23,3.54ZM615.65,302.89c-1.76,1.03-2.94-.72-3.31-1.92-1.31-4.26-1.24-6.78-3.62-10-1.43-1.93-4.75-3.54-5.77-5.31-.96-1.67.51-2.81,1.46-3.38,3.63-.05,8.53,6.03,9.69,8.69.41,1.46.82,2.92,1.23,4.38.47,1.71,2.24,6.41.31,7.54ZM620.58,238.12c-1.96-2.6-7.75-5.12-1.92-8.62,2.74-.03,3.54,1.14,5,2.31,6.92,5.52,5.84,19.97-.92,24.92-1.04.76-4.52,3.15-6.46,2.69-1.35-.32-2.58-2.38-1.62-4,.83-1.38,2.85-2,4.08-3,2.13-1.74,2.78-5.04,3.31-8.38.37-2.35-.55-4.71-1.46-5.92ZM626.27,270.96c-.61-3.16-5.21-5.49-.69-8.15,3.26-.05,6.6,6.75,5.62,10.85-.33,1.38-1.11,2.14-1.85,3.08-.57.73-1.17,2.55-2.46,2.46-1.35-.09-2.71-2.05-2.31-3.77.33-1.4,2.04-2.67,1.69-4.46ZM616.5,309.5c-.08-.03-.15-.05-.23-.08-.39-1.95.84-3.03,1.92-3.77.56,0,.82.07,1.15.23.58,1.51-1.36,4.22-2.85,3.62ZM619.27,287.27c-2.04-1.14-.92-2.91-1.38-5.38-.36-1.62-.72-3.23-1.08-4.85-.27-.89-1.17-1.89-.85-3.23.24-.99,1.12-1.31,1.92-1.77,4.29-.1,4.55,7.21,5.31,10.85.47,2.28-.36,4.25-2,4.69-.74.2-1.44-.04-1.92-.31ZM623.04,299.43c-.94-2.23-3.35-4.93-.54-6.62,2.99-.09,4.21,3.13,4.85,5.38.47,1.66-.02,3.38-1.31,3.77-1.89.57-2.57-1.52-3-2.54ZM676.42,351.19c-1.69.87-4.32.27-6.62.54-4.31-.08-8.62-.15-12.92-.23h-4c-4.05,0-8.49.29-12-.38-9.08-1.76-13.95-7.22-16-16-.48-2.05-.89-5.26-.46-7.85,2.05-12.32,8.33-19.73,13.69-28.69,1.81-3.02,6.09-10.29,5.31-15.46-1.04-6.82-4.66-10.85-7.62-15.77-1.78-2.97-2.78-6.56-3.46-10.62-1.63-9.68,4.53-20.82.15-28.23-4.69-7.95-14.25-6.4-20.62-1.38-1.12.89-2.64,2.09-3.08,3.62-.48,1.69.61,3.23,1.15,4.23,1.57,2.87,3.59,5.68,4.69,8.92.85,2.52-.94,5.63-3.85,4.46-2.68-1.08-3.18-5.09-4.46-7.62-1.36-2.68-3.46-5.06-4.08-8.38-.6-3.19,1.7-5.08,2.92-6.62,2.85-3.57,7.03-6.51,11.62-8.31,1.35-.53,2.92-.45,4.38-1,10.28-.02,16.05,5.15,18.38,13.08.54,1.84.99,4.54.62,7-.72,4.65-1.07,9.07-1.85,13.85-.27,1.64-.67,3.93-.38,5.85,1.29,8.55,5.91,12.59,8.85,19.31,1.39,3.17,2.94,7.3,2,11.92-2.31,11.39-9.52,18.86-14.69,27.62-2.21,3.74-5.41,10.48-4.38,16.92,1.07,6.69,4.18,11.44,10.08,13.23,6.14,1.87,14.57.5,21.54,1.54,2.94.44,6.94.36,9.77-.08,1.31-.2,3.55-.4,4.85,0,1.8.55,2.25,3.62.46,4.54ZM632.42,294.12c-.41-2.12-1.71-3.11.69-4.38,3.39.1,4.12,9.06.92,9.85-1.49.37-2.19-1.24-1.92-2.69.14-.74.51-1.72.31-2.77ZM675.19,296.5c.66-2.14,2.14-2.62,4.15-3.46,6.54-.15,7.97,8.75,2.15,10.15-4.23,1.02-7.55-2.64-6.31-6.69ZM673.11,290.43c-3.44.84-4.87-3.33-3.46-5.77.36-.62.99-.93,1.62-1.31,5.57-.18,5.62,6.16,1.85,7.08ZM675.27,276.35c-.52-.16-1.12-.72-1.38-1.15-.37-.62-.47-1.67-.23-2.46,1.14-3.73,5.83-1.76,9.31-3,3.96-.1,7.15,2.21,4.31,5.54-.9,1.06-9.81,1.77-12,1.08ZM688.5,286.58c.43-.65,1.08-.82,1.85-1.15,4.88-.18,5.17,5.45,1.62,6.46-2.66.76-4.91-3.12-3.46-5.31ZM692.04,296.73c.54-.77,1.3-.97,2.23-1.38,3.59-.1,4.36,1.57,5.15,4.15.66,2.15.49,4.61-1.38,5.31-4.16,1.54-8.23-4.89-6-8.08ZM692.35,270.81c-.91-2.08-2.42-6.36-4.08-7.54-1.4-1-5.12-.22-6.85.08-3.97.69-15.48,1.88-19.15.31-1.94-.83-3.76-4.71-1.38-6.54.49-.37,1.07-.42,1.69-.69,2.21-.03,2.22.95,3.31,1.92,1.65.29,3.73.01,5.23-.23,1.38-.1,2.77-.21,4.15-.31,3.27-.54,10.23-1.23,13.46-.15,3.6,1.2,4.98,4.83,6.54,8.08,3.27,6.8,6.35,13.98,10.15,20.31,1.01,1.68,4.46,7.49,1.54,9.62-3.11,2.27-5.38-4.5-6.15-6.31-2.82-6.18-5.64-12.36-8.46-18.54ZM660.19,281.73c.4-.55,1.02-.7,1.69-1,4.69-.15,4.25,6.07.85,6.69-2.96.54-3.96-3.75-2.54-5.69ZM657.5,298.89c-2.71.66-4.15-2.34-3.23-4.69.36-.92,1.04-1.36,1.85-1.85,4.98-.18,4.66,5.74,1.38,6.54ZM660.73,304.27c.74-1.54,2.01-1.65,3.69-2.31,6.26-.17,5.69,7.31,1.54,8.23-3.03.67-6.57-3.12-5.23-5.92ZM657.58,275.96c-2.88.62-5.25-2.83-4.46-5.54.49-1.67,1.72-2.09,3.23-2.77,6.61-.19,5.37,7.42,1.23,8.31ZM648.88,264.58c-3.32-.92-2.3-5.64-.77-7.62.75-.96,1.67-1.27,2.85-1.85,6.72-.19,2.5,10.73-2.08,9.46ZM677.42,335.42c-3.8.76-4.86-5.38-1.15-6.92,4.93-.13,4.84,6.19,1.15,6.92ZM679.81,320.73c-3.43.66-5.96-3.53-5-6.77.55-1.87,1.72-2.12,3.46-2.85,7.25-.18,6.9,8.58,1.54,9.62ZM688.19,345.96c-3.25.77-6.51-2.64-5.08-5.92.6-1.39,1.91-1.61,3.31-2.23,6.34-.18,5.54,7.26,1.77,8.15ZM688.73,316.66c.63-1.6,1.95-1.62,3.62-2.23,5.3-.13,5.05,7.29.85,8.08-2.85.54-5.53-3.14-4.46-5.85ZM700.04,335.35c-3.91,1.02-6.66-2.48-5.62-6.23.54-1.96,1.77-2.54,3.46-3.38,1.24-.03,2.16.04,2.85.54,2.45,1.8,2.69,8.19-.69,9.08ZM705.27,317.5c-2.68.47-5.18-3.51-4.46-6.31.49-1.91,1.77-2.65,3.38-3.46,5.34-.12,6.8,8.76,1.08,9.77ZM715.19,321.81c-2.21.43-3.64-2.29-3.08-4.31.35-1.26,1.29-1.62,2.38-2.15,5.36-.2,4.54,5.72.69,6.46ZM718.81,307.81c-1.29.96-3.63.44-4.85-.15-3.52-1.73-6.94-6.71-1.85-9.38,3.64-.07,6.14,2.51,7.31,4.92.72,1.49.55,3.75-.62,4.62ZM721.11,290.73c-.29,1.22-.76,2.14-1.62,2.77-1.83,1.35-4.08-.08-4.46-1.85-.26-1.2.55-2.15.15-3.15-1.05-1.26-2.1-2.51-3.15-3.77-2.13-2.66-4.27-5.37-6.08-8.38-3-5-5.42-10.53-8.38-15.54-2.29-3.86-4.39-8.1-8.77-9.85-2.8-1.12-7.62-.32-10.54.15-3.41.56-6.85.06-10.46.62h-7.69c-1.79-.05-3.59-.1-5.38-.15-4.25-.64-6.92,1.27-9.85-.77-.71-.49-1.39-1.2-1.62-2.15-.89-3.8,3.34-3.38,5.85-3,1.03.03,2.05.05,3.08.08,3.03.13,6.05.26,9.08.38,4.56.7,11.41.29,15.62-.38,2.77-.33,5.54-.67,8.31-1,10.75-.05,12.25,7.3,16.15,14,4.71,8.08,8.43,16.18,14.77,22.54,2.12,2.12,6.04,5.08,5,9.46ZM721.96,253.73c3.12-.06,4.82,2.86,5.69,5.08.69,1.76.24,4-1.23,4.54-2.14.78-3.2-1.24-3.92-2.23-1.75-2.39-4.76-5.28-.54-7.38ZM729.65,267.73c7.97-.2,1.27,10.66-2.31,9.92-1.95-.4-3.43-3.74-2.38-6.15.9-2.06,2.62-2.83,4.69-3.77ZM729.27,301.73c-1.91.96-3.46-.57-4.23-1.54-2.1-2.64-2.71-5.32.92-7,3.89-.07,7.03,6.67,3.31,8.54ZM734.81,291.12c-2.38.61-6.29-4.45-5.69-6.92.41-1.7,1.81-1.94,3.38-2.54,4.4.17,6.78,8.31,2.31,9.46ZM739.04,262.27c-2.69,1.54-3.84-1.69-4.62-3-2.59-4.03-5.18-8.05-7.77-12.08-1.27-2.08-.84-3.68,1.15-4.69,2.47-.03,3.03,1.55,4.08,2.92,2.61,3.39,5.36,6.38,7.38,10.46.92,1.84,1.99,5.11-.23,6.38Z"/>
          <path class="cls-7" d="M507.73,393.5v9.77h.08c1.77-1.63,2.4-8.36-.08-9.77Z"/>
          <path class="cls-7" d="M848.42,416.5c.82-5.05,1.35-9.18,2.15-14,.64-3.84.1-7.92.92-11.38.92-3.88,2.6-7.31,5.92-8.77,1.47-.65,3.54-.59,4.77-1.46.76-.54,1.61-2.55.77-3.69-.96-1.29-4.42-.58-5.69-.08-3.15,1.24-6.18,7.55-11,4.77-2.73-1.57-4.69-4.38-6.31-7.08-1.17-1.95-1.87-4.61-5-4.62-3.79,1.97-2.61,5.85-.92,9.15,3.56,6.97,10.18,7.15,11.77,16.38,1.19,6.93-2.03,12.06-3.77,16.54-1.43,3.68-1.62,8.49-2.54,12.69-.89,4.11-2.56,19.51,3.54,18.23,4.9-1.03,4.75-8.79,5.62-14.15.68-4.2-.92-8.31-.23-12.54Z"/>
          <path class="cls-7" d="M633.81,429.42c-.83-3.37-.82-8.26-.15-11.77.41-2.15,2.17-7.51-.23-8.31-2.92-.97-2.78,2.66-3.15,4.69-.64,3.46-1.47,8.28-.77,12.31.23,1.3.61,2.63.85,3.77.27,1.33-.41,2.74-1.31,2.92-1.33.27-2.67-2.69-3.08-3.62-1.75-3.94-3.03-14.63-1.15-19.54-.33-.97-.82-1.35-2.15-1.31-.73.35-1.29.49-1.69,1.15-.8,1.32-.35,8.48-.38,10.85-.11,6.79,1.63,11.87,5.08,15.31,1.19,1.18,3.41,2.97,5.92,2.23,1.54-.45,3.97-2.15,3.69-4.31-.49-1.46-.97-2.92-1.46-4.38Z"/>
          <path class="cls-7" d="M849.96,444.81h5.46c.35-4.96-5.56-4.45-5.46,0Z"/>
          <path class="cls-7" d="M825.88,436.27c-.64-3.82,1.99-7.44,2.23-11.46.14-2.27-.83-6.15-3.31-5.77-2.03.31-3.36,1.73-4.38,3.08-3.66,4.84-2.88,11.29-.46,16.77.74,1.68,3.05,4.13,3.23,5.92h5.31c-.36-.87-.72-1.74-1.08-2.62-.73-1.87-1.17-3.71-1.54-5.92Z"/>
          <path class="cls-7" d="M808.42,209.66c9.24,3.99,18.51-.22,27.31-2.15,2.72-.6,5.57-.52,8.54-1,1.38.05,2.77.1,4.15.15,1.62.15,3.23.31,4.85.46,2.33.54,4.67,1.08,7,1.62,3.09.68,6.76.29,8.62-1.15,3.17-2.46,2.5-8.78,3.08-13.85h-5c-.18,4.04-1.4,8.48-4.08,10.15-5.78,3.61-14.26-1.86-21.46-.69-4.16.67-7.96.76-11.62,1.69-4.42,1.13-10.83,3.44-16.08,1.62-3.21-1.12-5.01-3.42-6.62-6.15-1-1.71-2.09-3.99-2.08-6.62h-4c.28,4.51.68,10.45,2.92,13.15,1.05,1.27,2.84,2.07,4.46,2.77Z"/>
          <path class="cls-7" d="M650.5,195.66c.21-.62.41-1.23.62-1.85v-.08h-5.54c-.03,2.7,3.43,4.04,4.92,1.92Z"/>
          <path class="cls-7" d="M662.96,199.58c.68.14,1.58.07,2.08-.23,2.52-1.53-1.18-3.92-1.38-5.62h-3.54c-1.24,2.84.09,5.3,2.85,5.85Z"/>
          <path class="cls-7" d="M654.42,198.66c2.23.01,1.23-3.22,1.15-4.92h-2.69c-.16,2.31-.09,4.15,1.54,4.92Z"/>
          <path class="cls-7" d="M674.58,196.96c1.38-.91.18-2.26-.15-3.23h-4c.13,1.59,2.06,4.61,4.15,3.23Z"/>
          <path class="cls-7" d="M769.65,381.81c-8.62,3.96,3.86,16.79,10.08,12.15,1.76-1.31,1.38-4.17.31-5.92-1.82-2.98-5.59-6.33-10.38-6.23Z"/>
          <path class="cls-7" d="M617.27,201.35c.64-1.57.41-3.09-1.46-3.23-.7.3-1.32.4-1.77.92-.97,1.13-3.83,6.17-2.54,8.08,2.54.68,5.02-3.94,5.77-5.77Z"/>
          <path class="cls-7" d="M641.04,193.73h-4.77c.85,2.21,4.27,2.6,4.77,0Z"/>
          <path class="cls-7" d="M603.04,203.04c1.99-.76,6.04-5.93,5.23-8.54-.32-.23-.51-.36-1-.46-.51.15-1.03.31-1.54.46-.95.65-2.65,4.24-3.15,5.46-.39.94-.95,2.88.46,3.08Z"/>
          <path class="cls-7" d="M769.65,231.43c4.7,6.66,8.18,12.53,9.85,22.38.54,3.19-.46,6.59-1.15,8.85-1.62,5.3-3.87,9.34-5.23,15.08-.36,1.53-.81,3.93-.46,5.92,1.38,7.79,6.49,12.34,10,18.31,1.45,2.46,3.4,6.77,2.46,11.08-1.24,5.73-4.8,5.04-7.46,8.46-2.64,3.4-3.75,8.28-6.23,11.77-2.77,3.91-8.01,7.32-9.31,12.31-1.23,4.74,1,9.58,2.31,12.77,3.8,9.29,9.62,22.6,20.38,24.62,3.32.62,4.75-2.72,3.23-5-2.51-2.49-5.03-4.97-7.54-7.46-3.46-4.31-6.54-8.15-8.77-13.85-1.13-2.89-2.18-7.32-1.38-11.31,1.46-7.38,4.53-13.59,8.46-18.54,4.06-5.12,8.75-6.78,10.15-14.92.67-3.88-1.47-8.51-2.54-11-2.62-6.12-5.57-11.27-7.38-18.31-.58-2.24-1.36-5.63-.85-8.62.4-2.31.63-4.46,1.38-6.38,2.16-5.46,5.77-9.49,8.62-14.15,2.4-3.92,4.11-8.36,5.08-13.69.99-5.46-1.94-10.84-4.08-13.62-.92-1.2-4.08-2.9-2.38-5.38,1.65-2.42,5.45-.09,6.62,1.08,2.85,2.85,7.01,10.32,5.85,17-1.42,8.11-4.38,13.41-8,19.15-2.23,3.53-4.73,7.09-6.08,11.46-2.13,6.92.44,13.35,6.38,14.46,2.07.39,4.43-1.32,3.38-3.38-.61-1.19-2.02-.56-3.15-1.23-2.33-1.37-3.72-5.24-2.62-8.85,1.4-4.55,3.26-9.24,5.54-13.08,2.43-4.1,5.38-7.91,7.23-12.54,1.8-4.52,1.91-10.34,2.92-15.77.21-1.74.41-3.49.62-5.23v-.77c-3.68-.38-7.27-1.97-9.92-3.54-9.17-5.41-11.71-11.7-12.15-25.77h-5.77c0,4.77.07,9.12-.92,13.08-.82,3.27-2.16,8.17-.77,11.69.9,2.27,3,4.03,4.77,5.46,2.09,1.68,4.06,4.35,5.31,6.85,1.05,2.09,4.05,10.94,0,11.92-3.42.83-3.21-3.61-3.85-5.69-.47-1.53-1.15-3.11-2-4.31-2.96-4.17-8.18-6.29-10.31-11.23-1.92-4.45-.43-11.14.46-15.62.73-3.66.55-7.98.54-12.15h-5.62c.96,5.09-.43,10.67-1.85,14.38-1.16,3.05-2.68,7.48-1.46,11.46,1.5,4.93,5.02,8.06,7.69,11.85Z"/>
          <path class="cls-7" d="M620.58,195.5c.72-.28.99-.86,1.08-1.77h-3.46c.01,1.17,1.12,2.17,2.38,1.77Z"/>
          <path class="cls-7" d="M902.88,360.58c1.4-6.97-.06-16.36-1.46-22.08-.68-2.76-.89-8.96-3.69-9.38-.31.1-.62.21-.92.31-1.34,1.97-.11,4.7.46,6.77,1.04,3.81,1.19,7.64,1.92,12.08.05,1.46.1,2.92.15,4.38-.08,1.38-.15,2.77-.23,4.15-.44,2.57-.75,5.05-1.54,7.31-1.45,4.16-3.71,7.61-5,11.85-.9,2.95-1.46,9.72,1.77,10.38,3.07.64,3.63-9.09,4.31-11.54,1.35-4.85,3.18-8.97,4.23-14.23Z"/>
          <path class="cls-7" d="M859.42,408.12c1.81,1.41,5,1.16,6.31-.54.98-1.28.88-4.02,1.38-5.69,1.18-3.91,2.6-7.83,5.62-9.92,2.41-1.68,7.93-1.2,9.69-3.54,1.58-2.1,1.03-7.15-1.77-7.46-2.93,1.43-7.15,1.37-10.23,2.69-5.62,2.42-7.61,8.5-9.77,14.38-.62,1.69-3.25,8.51-1.23,10.08Z"/>
          <path class="cls-7" d="M863.81,370.5c2.23-.54.87-2.93.08-3.92-1.18-1.1-2.36-2.21-3.54-3.31-3.09-3.83-5.48-6.83-6.54-12.92-.55-3.15.29-6.69-.23-10.08-.05-1.38-.1-2.77-.15-4.15-.43-2.74-.66-5.36-1.31-7.69-.73-2.67-.21-5.38-3.77-5.38-.58.33-1.11.53-1.38,1.15-.86,1.96.7,10.89,1.15,13.15,1.3,6.54,1.36,14.31,3.62,20.08,1.35,3.44,3.21,6.07,5.31,8.69.9,1.12,4.59,4.91,6.77,4.38Z"/>
          <path class="cls-7" d="M835.88,334.81c2.11,13.13-.09,29.13,7.46,36.69,1.56,1.56,5.32,5.31,9,4,1.06-.38,2.53-1.9,1.38-3.23-.97-1.13-4.41-1.74-5.77-2.77-3.85-2.93-5.28-8.3-6.38-14-1.81-9.29-.28-21.49-2.85-29.69-.71-2.26-1.1-5.97-4.08-6-.44.27-.77.49-1.15.77-.42,1.83.64,3.83,1.08,5.46.73,2.71.83,5.8,1.31,8.77Z"/>
          <path class="cls-7" d="M870.96,427.19c2.12.57,4.3-.56,5.62-1.38,2.25-1.41,3.78-3.65,6.08-5,1.99-1.17,4.5-1.03,7.15-1.69,2.3-.57,3.96-1.78,5.23-3.38.73-.92,1.78-2.1,1.23-3.85-.46-1.46-2.45-1.71-4.15-1.23-2.93.82-6.11,2.78-8.38-.15-1.43-1.84-2.31-4.46-3.23-6.77-.47-1.18-.75-2.69-1.69-3.38-.4-.3-.92-.37-1.62-.38-3.19,1.9-4.35,5.23-5.23,9.46-.4,1.9-.4,3.74-1.08,5.31-.96,2.23-3.69,3.04-4.23,5.54-.71,3.27,2.18,6.36,4.31,6.92Z"/>
          <path class="cls-7" d="M605.58,208.58c-2.42,1.47-.48,5.06,1.77,3.31.27-1.04.21-2.52-.54-3-.28-.28-.64-.33-1.23-.31Z"/>
          <path class="cls-7" d="M805.27,217.96c2.84.72,7.18,1.17,10.62.54,5.2-.87,10.41-1.74,15.62-2.62,2.89-.68,8.6-2.07,12.31-1.46,4.04.66,7.83.57,11.54,1.38,8.58,1.89,18.35,5.05,25.46-.62,4.05-3.23,2.97-14.76,3.77-21.46h-6.62c-.25,4.05.07,9.36-1.08,12.62-.7,1.99-1.73,3.51-3.08,4.85-7.87,7.81-21.49-.89-33.38,1.08-12.81,2.12-33.21,9.16-41.54-1.62-2.98-3.85-3.19-10.84-3.92-16.92h-5c-.02,13.89,4.26,21.43,15.31,24.23Z"/>
          <path class="cls-7" d="M834.65,198.2c2.49-.26,4.97-.51,7.46-.77,3.73-.6,8.65.39,11.54,1.08,1.11.26,2.77.93,4.23.62,2.06-.45,2.69-3.18,3-5.38h-23.62c-2.76,1.32-6.81,1.76-10.15,2.46-3.53.74-8.3.45-9.23-2.46h-6.54c1.66,11.63,14.85,6.3,23.31,4.46Z"/>
          <path class="cls-7" d="M833.27,364.66c.46-1.8-1.28-2.24-2.85-2.15-1.19.68-1.77,1.27-1.23,2.85,1.21.89,3.61,1.13,4.08-.69Z"/>
          <path class="cls-7" d="M897.27,317.04c-.44.26-.87.51-1.31.77-.94,1.32.96,5.12,1.62,6,4.75,1.36,2.5-6.81-.31-6.77Z"/>
          <path class="cls-7" d="M509.96,335.89c2.33-5.28,2.89-9.66-.15-14.69-.59-.97-1.1-2.05-2.08-2.62v21.08h.08c.99-.92,1.57-2.45,2.15-3.77Z"/>
          <path class="cls-7" d="M578.81,419.35c-.52-1.77-.43-4.08-2.54-4.23-3.37,1.6-.72,7.22,2.08,7.46.58-.3.98-.36,1.08-1.15.2-.65-.44-1.48-.62-2.08Z"/>
          <path class="cls-7" d="M582.42,428.04c.55-1.88-.12-3.53-2.23-3.46-3.21,1.62-.14,5.39,2.23,3.46Z"/>
          <path class="cls-7" d="M604.04,357.42c-2.58-.39-4.99-.48-7.23-1.15-3.87-1.17-7.36-3.23-12.15-3.23-1.24.46-2.5.17-3.23,1.08-2.26,2.82,3.66,4.89,5.62,5.31,2.51.21,5.03.41,7.54.62h13.77c2.86-.44,5.81.04,8.38-.38,2.55-.42,4.92-.4,6.15-2.08,1.21-1.64.48-3.76-1.15-4.38-1.54.07-1.91,1.57-3.15,2.08-2.6,1.07-10.71,2.73-14.54,2.15Z"/>
          <path class="cls-7" d="M590.19,404.04h36.23c2.64,0,10.38.56,12.15-.23.5-.23.94-.8,1-1.46.06-.7-.48-1.26-.92-1.46-1.55-.71-10.52-.67-13-.38h-43.31c-1.27.5-2.02.16-3.08.85-.05.15-.1.31-.15.46.06,3.01,7.74,2.23,11.08,2.23Z"/>
          <path class="cls-7" d="M595.5,381.73c6.51-.31,13.03-.62,19.54-.92,2.22-.34,5.01.38,6.85-.38,1.1-.46,2.42-2.98.92-4.08-1.23-.9-4.35-.65-6.38-.62-7.49.03-14.97.05-22.46.08-3.34,0-7.92-.44-7.15,3.54.55,2.85,5.16,2.95,8.69,2.38Z"/>
          <path class="cls-7" d="M620.65,365.89h-3.69c-3.33-.03-6.67-.05-10-.08-6.92-.15-13.85-.31-20.77-.46-1.08.4-1.95.18-2.62.92-1.72,1.93-.3,4.49,1.77,4.92,3.13.65,7.53.23,11,.23,6.61.03,13.23.05,19.85.08,3.79,0,10.01.97,10.62-2.31.65-3.51-3.14-3.31-6.15-3.31Z"/>
          <path class="cls-7" d="M592.88,312.35c-5.52,2.84-6.76,10.33-8,17.38-.21,2.36-.41,4.72-.62,7.08-.13,1.18-.26,2.36-.38,3.54-.49,2.11-1.84,6.04.77,6.77,3.8,1.06,3.17-4.92,3.31-8,.27-6.33,1.18-15.98,5.38-18.15.44,0,.63.03.85.23,1.35.78,1.24,3.53,1.54,5.38.98,5.98-.37,13.7-1.31,18.77-.62,3.36,1.37,6.92,5.08,5.54,2.95-1.1,1.65-8.46,2.23-12.23,1.57-10.13,1.47-26.4-8.85-26.31Z"/>
          <path class="cls-7" d="M629.35,388.04c-12.05.13-24.1.26-36.15.38-4.73,0-12.55-1.69-11.46,4.38.55,3.08,3.88,3.31,7.46,2.77,1.56-.05,3.13-.1,4.69-.15,2.97-.1,5.95-.21,8.92-.31,6.46-.13,12.92-.26,19.38-.38,3.18,0,10.43.48,12.69-.46,1.66-.69,1.91-2.95.85-4.46-1.18-1.67-3.47-1.82-6.38-1.77Z"/>
          <path class="cls-7" d="M614.65,326.73c-.62-.84-1.67-1.17-3.15-1.15-.88.42-1.53.58-2,1.38-.95,1.61-1.18,12.45-.77,15.31.5,3.45-.38,8.34,4.31,7.38,3.09-.63,2.77-4.38,2.77-8.08,0-4.03.54-12.54-1.15-14.85Z"/>
          <path class="cls-7" d="M531.81,304.89c-3.08-6.43-6.43-14.29-15.92-14.23-2.62.98-5.73.05-6.46,2.85-.15.56-.08,1.39.15,1.85.82,1.61,4.19.51,6.31.92,2.93.57,5.24,2.1,6.69,4.15,3.84,5.44,4.52,13.97,7.92,19.77,3.71,6.34,9.59,10.37,15.62,14.38,3.81,2.54,9.77,6.97,16.38,4.38,9.13-3.57,11.65-17.77,16.54-25.92,1.44-2.39,3.24-5.08,5.54-6.62,2.21-1.47,5.01-1.26,5.62-4.38.56-2.9-1.73-5.13-4.46-4.31-2.3.69-4.08,2.77-5.62,4.31-3.1,3.1-6.35,6.31-8.69,10.15-4.01,6.57-7.31,18.65-19.31,16.15-11.95-2.49-15.61-13.66-20.31-23.46Z"/>
          <path class="cls-7" d="M567.19,220.66c.52,2.46.88,5.94.31,8.62-.23,1.08-1.1,3.58-.38,4.85.66,1.17,5.22.38,6.46.08.44-3.44,1.2-5.16,2.31-7.69.44-1.01,1.55-2.49,1.31-4-.6-3.78-4.67-7.24-6.69-9.92-3.52-4.68-6.49-10.95-6.69-18.85h-5.08v.08c1.8,3.63,2.52,8.3,3.85,12.62,1.46,4.75,3.53,9.08,4.62,14.23Z"/>
          <path class="cls-7" d="M590.5,202.89c3.97-.8.21-4.27-.38-5.54-.42-.88-.28-2.19-1.15-2.62-.25-.22-.57-.25-1.08-.23-3.06,1.66-.62,9.04,2.62,8.38Z"/>
          <path class="cls-7" d="M580.81,199.5c2.22-.39,2.86-5.23-.85-5.08-.64.25-1.31.35-1.69.85-1.35,1.75.51,4.59,2.54,4.23Z"/>
          <path class="cls-7" d="M559.19,319.19c3.35-1.43,11.04-9.14,5.69-13.38-2.16-1.72-8.54-1.67-12.38-1.62-2.31.92-3.88,1.34-4.85,3.54-3.84,8.78,3.08,15.07,11.54,11.46Z"/>
          <path class="cls-7" d="M597.88,202.58c-.63.25-1.14.33-1.62.69-1.34,1.04-2.56,4.22-.15,5,4.77,1.55,5.51-5.57,1.77-5.69Z"/>
          <path class="cls-7" d="M600.35,193.96v-.23h-8.38c.62,4.17,7.11,3.52,8.38.23Z"/>
          <path class="cls-7" d="M507.81,355.19c2.22-1.69,3.79-4.59,5.54-6.77,2.35-2.93,6.14-5.4,9.77-7,3.05-1.34,11.35-3.83,12.54-6.46,1.78-3.94-2.68-2.9-4.85-3.77-1.29-.52-2.38-1.56-3.15-2.62-1.94-2.66-3.19-5.83-4.77-8.85-2.28-4.35-4.52-8.66-7.38-12.38-1.75-2.28-4.48-5.15-7.77-5.77v6.92c1.99.82,3.32,3.57,4.38,5.38,2.96,5.04,6.54,13.78,3.92,21.23-1.88,5.35-4.84,7.13-8.15,10.77-.48.54-.17,7.93-.15,9.31h.08Z"/>
          <path class="cls-7" d="M566.96,388.27c-.41-.29-.72-.47-1.46-.46-2.63,1.42-4.09,11.82-.31,12.77,3.98,1,1.04-6.13,1.15-7.92.1-1.62,1.1-2.97.62-4.38Z"/>
          <path class="cls-7" d="M511.89,209.27c.36-2.56.72-5.13,1.08-7.69.64-2.62,1.28-5.23,1.92-7.85h-4.69c-.82,2.97-1.64,5.95-2.46,8.92v38.92c3.1-2.91,2.56-8.99,3.38-14.23.26-6.02.51-12.05.77-18.08Z"/>
        </g>
      </g>
    </g>
    <g>
      <path class="cls-3" d="M690.11,449c-2.65,0-5.45-.41-8.34-1.23-.95-.27-1.5-1.25-1.23-2.2.26-.95,1.26-1.52,2.2-1.23,3.52.99,6.84,1.31,9.86.95,2.74-.33,4.9-1.47,6.6-3.49.63-.75,1.76-.85,2.52-.21.75.64.85,1.76.21,2.52-2.28,2.7-5.28,4.29-8.9,4.73-.95.11-1.92.17-2.91.17Z"/>
      <path class="cls-5" d="M700,400.03c-10.47-15.81-34.91-23.82-45.79,0-10.88,23.82,18.69,49.43,38.61,47.03,19.3-2.33,11.4-40.66,7.19-47.03Z"/>
      <g>
        <path class="cls-3" d="M691.77,435.45c-.13,0-.26-.01-.39-.04-.96-.22-1.57-1.17-1.36-2.13,2.86-12.82.09-24.15-7.4-30.3-4.91-4.03-10.99-5.05-16.26-2.72-.9.39-1.96-.01-2.36-.91-.4-.9.01-1.96.91-2.36,6.44-2.83,14.09-1.6,19.97,3.23,8.55,7.02,11.78,19.67,8.62,33.84-.19.83-.92,1.4-1.74,1.4Z"/>
        <path class="cls-3" d="M692.86,426.04c-.72,0-1.4-.44-1.67-1.16-2.04-5.41-12.15-8.7-19.67-6.39-.94.29-1.94-.24-2.23-1.18-.29-.94.24-1.94,1.18-2.23,9.41-2.9,21.33,1.33,24.06,8.54.35.92-.12,1.95-1.04,2.3-.21.08-.42.12-.63.12Z"/>
      </g>
      <path class="cls-5" d="M700,400.03c-10.47-15.81-34.91-23.82-45.79,0-10.88,23.82,18.69,49.43,38.61,47.03,19.3-2.33,11.4-40.66,7.19-47.03Z"/>
      <g>
        <path class="cls-3" d="M691.77,435.45c-.13,0-.26-.01-.39-.04-.96-.22-1.57-1.17-1.36-2.13,2.86-12.82.09-24.15-7.4-30.3-4.91-4.03-10.99-5.05-16.26-2.72-.9.39-1.96-.01-2.36-.91-.4-.9.01-1.96.91-2.36,6.44-2.83,14.09-1.6,19.97,3.23,8.55,7.02,11.78,19.67,8.62,33.84-.19.83-.92,1.4-1.74,1.4Z"/>
        <path class="cls-3" d="M692.86,426.04c-.72,0-1.4-.44-1.67-1.16-2.04-5.41-12.15-8.7-19.67-6.39-.94.29-1.94-.24-2.23-1.18-.29-.94.24-1.94,1.18-2.23,9.41-2.9,21.33,1.33,24.06,8.54.35.92-.12,1.95-1.04,2.3-.21.08-.42.12-.63.12Z"/>
      </g>
    </g>
  </g>
  <path class="cls-3" d="M749.75,426.16c-.88,0-1.64-.65-1.77-1.54-.13-.98.55-1.88,1.52-2.02,12.88-1.79,25.25-6.77,35.78-14.4.8-.58,1.92-.4,2.49.4.58.8.4,1.92-.4,2.49-11,7.97-23.93,13.17-37.39,15.05-.08.01-.17.02-.25.02Z"/>
  <path class="cls-3" d="M840.28,426.16c.88,0,1.64-.65,1.77-1.54.13-.98-.55-1.88-1.52-2.02-12.88-1.79-25.25-6.77-35.78-14.4-.8-.58-1.92-.4-2.49.4-.58.8-.4,1.92.4,2.49,11,7.97,23.93,13.17,37.39,15.05.08.01.17.02.25.02Z"/>
  <path class="cls-2" d="M789.69,402.74c0,15.05-12.2,27.26-27.26,27.26s-27.26-12.2-27.26-27.26,54.52-15.05,54.52,0Z"/>
  <path class="cls-2" d="M854.26,403.85c0,15.05-12.2,27.26-27.26,27.26s-27.26-12.2-27.26-27.26,54.52-15.05,54.52,0Z"/>
  <line class="cls-2" x1="790.51" y1="403.85" x2="799.74" y2="403.85"/>
</svg>