<svg xmlns='http://www.w3.org/2000/svg' version='1.1' width='794px' height='575px'><svg xmlns="http://www.w3.org/2000/svg" id="graphic" fill="currentColor" font-family="Source Sans Pro" width="773" height="554" x="10.5" y="10.5"><g class="facets"><g class="fl-facets"><g class="fl-facet" transform="translate(24.415985107421875, 0)" opacity="1"><rect class="fl-facet-rect" width="748.5840148925781" height="525.5" fill="none"/><rect class="fl-facet-primary-rect" width="748.5840148925781" height="525.5" y="0" fill="none"/><g class="fl-facet-title"><rect class="fl-facet-title-bg" height="0" width="0" fill="rgb(238, 238, 238)" x="0" opacity="0"/><text class="fl-facet-title-text" font-size="14" font-weight="600" transform="translate(0, 14.700000000000001)" opacity="0" text-anchor="start"><tspan x="0" y="0" dx="0" text-anchor="start"/></text></g><g class="fl-facet-primary" transform="translate(0, 0)"><g class="fl-chart ready"><rect class="fl-chart-debug-rectangle" x="0" y="0" style="stroke-width: 1px; fill: none; display: none; stroke: red;" width="748.5840148925781" height="525.5"/><clipPath class="fl-data-clip-path" id="fl-axes-1-clip-path"><rect x="0" y="43.9" width="739.1718215942383" height="481.6"/></clipPath><clipPath class="fl-grid-clip-path" id="fl-axes-1-grid-clip-path"><rect x="-1" y="42.9" width="741.1718215942383" height="483.6"/></clipPath><g class="fl-chart-background"><rect class="fl-chart-fill" x="0" y="43.9" width="739.1718215942383" height="481.6" fill="none"/><image class="fl-chart-image" x="0" y="43.9" width="739.1718215942383" height="481.6" preserveAspectRatio="none"/><rect class="fl-chart-interaction" x="0" y="43.9" width="739.1718215942383" height="481.6" style="opacity: 0;"/></g><g class="fl-data-background" clip-path="url(#fl-axes-1-clip-path)"/><g class="fl-gridlines" clip-path="url(#fl-axes-1-grid-clip-path)" style="pointer-events: none;"><g class="fl-gridlines-vertical"/><g class="fl-gridlines-horizontal"><line x1="0" x2="739.1718215942383" y1="525.5" y2="525.5" style="shape-rendering: crispedges; opacity: 1; stroke: rgb(238, 238, 238); stroke-width: 1;"/><line x1="0" x2="739.1718215942383" y1="414.3615384615384" y2="414.3615384615384" style="shape-rendering: crispedges; opacity: 1; stroke: rgb(238, 238, 238); stroke-width: 1;"/><line x1="0" x2="739.1718215942383" y1="303.2230769230769" y2="303.2230769230769" style="shape-rendering: crispedges; opacity: 1; stroke: rgb(238, 238, 238); stroke-width: 1;"/><line x1="0" x2="739.1718215942383" y1="192.0846153846154" y2="192.0846153846154" style="shape-rendering: crispedges; opacity: 1; stroke: rgb(238, 238, 238); stroke-width: 1;"/><line x1="0" x2="739.1718215942383" y1="43.9" y2="43.9" style="shape-rendering: crispedges; opacity: 1; stroke: rgb(238, 238, 238); stroke-width: 1;"/></g></g><g class="fl-axes" aria-hidden="true"><g class="fl-x-axes"><g class="fl-axis fl-x-axis fl-bottom-axis"><g class="fl-axis-line"><line x1="0" y1="525.5" y2="525.5" x2="739.1718215942383" style="shape-rendering: crispedges; stroke-linecap: square; stroke-width: 1; opacity: 1; stroke: rgb(238, 238, 238);"/></g><g class="fl-axis-ticks"><g transform="translate(604.7769449407405,525.5)" style="opacity: 1;"><line y2="7" style="stroke: rgb(238, 238, 238); stroke-width: 1;"/><text text-anchor="end" transform="translate(6.9579925537109375,19.740000000000002)" style="user-select: none; cursor: default; fill: rgb(74, 74, 74); font-size: 14px; font-weight: normal;"><tspan x="0" dy="0">10</tspan></text></g><g transform="translate(537.5795066139915,525.5)" style="opacity: 1;"><line y2="7" style="stroke: rgb(238, 238, 238); stroke-width: 1;"/><text text-anchor="end" transform="translate(3.4789962768554688,19.740000000000002)" style="user-select: none; cursor: default; fill: rgb(74, 74, 74); font-size: 14px; font-weight: normal;"><tspan x="0" dy="0">9</tspan></text></g><g transform="translate(470.38206828724253,525.5)" style="opacity: 1;"><line y2="7" style="stroke: rgb(238, 238, 238); stroke-width: 1;"/><text text-anchor="end" transform="translate(3.4789962768554688,19.740000000000002)" style="user-select: none; cursor: default; fill: rgb(74, 74, 74); font-size: 14px; font-weight: normal;"><tspan x="0" dy="0">8</tspan></text></g><g transform="translate(403.18462996049357,525.5)" style="opacity: 1;"><line y2="7" style="stroke: rgb(238, 238, 238); stroke-width: 1;"/><text text-anchor="end" transform="translate(3.4789962768554688,19.740000000000002)" style="user-select: none; cursor: default; fill: rgb(74, 74, 74); font-size: 14px; font-weight: normal;"><tspan x="0" dy="0">7</tspan></text></g><g transform="translate(335.98719163374466,525.5)" style="opacity: 1;"><line y2="7" style="stroke: rgb(238, 238, 238); stroke-width: 1;"/><text text-anchor="end" transform="translate(3.4789962768554688,19.740000000000002)" style="user-select: none; cursor: default; fill: rgb(74, 74, 74); font-size: 14px; font-weight: normal;"><tspan x="0" dy="0">6</tspan></text></g><g transform="translate(268.78975330699575,525.5)" style="opacity: 1;"><line y2="7" style="stroke: rgb(238, 238, 238); stroke-width: 1;"/><text text-anchor="end" transform="translate(3.4789962768554688,19.740000000000002)" style="user-select: none; cursor: default; fill: rgb(74, 74, 74); font-size: 14px; font-weight: normal;"><tspan x="0" dy="0">5</tspan></text></g><g transform="translate(201.59231498024678,525.5)" style="opacity: 1;"><line y2="7" style="stroke: rgb(238, 238, 238); stroke-width: 1;"/><text text-anchor="end" transform="translate(3.4789962768554688,19.740000000000002)" style="user-select: none; cursor: default; fill: rgb(74, 74, 74); font-size: 14px; font-weight: normal;"><tspan x="0" dy="0">4</tspan></text></g><g transform="translate(134.39487665349787,525.5)" style="opacity: 1;"><line y2="7" style="stroke: rgb(238, 238, 238); stroke-width: 1;"/><text text-anchor="end" transform="translate(3.4789962768554688,19.740000000000002)" style="user-select: none; cursor: default; fill: rgb(74, 74, 74); font-size: 14px; font-weight: normal;"><tspan x="0" dy="0">3</tspan></text></g><g transform="translate(67.19743832674894,525.5)" style="opacity: 1;"><line y2="7" style="stroke: rgb(238, 238, 238); stroke-width: 1;"/><text text-anchor="end" transform="translate(3.4789962768554688,19.740000000000002)" style="user-select: none; cursor: default; fill: rgb(74, 74, 74); font-size: 14px; font-weight: normal;"><tspan x="0" dy="0">2</tspan></text></g><g transform="translate(0,525.5)" style="opacity: 1;"><line y2="7" style="stroke: rgb(238, 238, 238); stroke-width: 1;"/><text text-anchor="end" transform="translate(3.4789962768554688,19.740000000000002)" style="user-select: none; cursor: default; fill: rgb(74, 74, 74); font-size: 14px; font-weight: normal;"><tspan x="0" dy="0">1</tspan></text></g><g transform="translate(739.1718215942383,525.5)" style="opacity: 1;"><line y2="7" style="stroke: rgb(238, 238, 238); stroke-width: 1;"/><text text-anchor="end" transform="translate(6.9579925537109375,19.740000000000002)" style="user-select: none; cursor: default; fill: rgb(74, 74, 74); font-size: 14px; font-weight: normal;"><tspan x="0" dy="0">12</tspan></text></g><g transform="translate(671.9743832674893,525.5)" style="opacity: 1;"><line y2="7" style="stroke: rgb(238, 238, 238); stroke-width: 1;"/><text text-anchor="end" transform="translate(6.9579925537109375,19.740000000000002)" style="user-select: none; cursor: default; fill: rgb(74, 74, 74); font-size: 14px; font-weight: normal;"><tspan x="0" dy="0">11</tspan></text></g></g><g class="fl-axis-title"/></g><g class="fl-axis fl-x-axis fl-top-axis"><g class="fl-axis-line"/><g class="fl-axis-ticks"/><g class="fl-axis-title"/></g></g><g class="fl-y-axes"><g class="fl-axis fl-y-axis fl-left-axis"><g class="fl-axis-line"><line x1="0" x2="0" y1="525.5" y2="43.9" style="shape-rendering: crispedges; stroke-linecap: square; stroke-width: 1; opacity: 1; stroke: rgb(238, 238, 238);"/></g><g class="fl-axis-ticks"><g transform="translate(0,525.5)" style="opacity: 1;"><line x2="-7" style="stroke: rgb(238, 238, 238); stroke-width: 1;"/><text text-anchor="end" transform="translate(-10.5,4.62)" style="user-select: none; cursor: default; fill: rgb(74, 74, 74); font-size: 14px; font-weight: normal;"><tspan x="0" dy="0">0</tspan></text></g><g transform="translate(0,414.3615384615384)" style="opacity: 1;"><line x2="-7" style="stroke: rgb(238, 238, 238); stroke-width: 1;"/><text text-anchor="end" transform="translate(-10.5,4.62)" style="user-select: none; cursor: default; fill: rgb(74, 74, 74); font-size: 14px; font-weight: normal;"><tspan x="0" dy="0">15</tspan></text></g><g transform="translate(0,303.2230769230769)" style="opacity: 1;"><line x2="-7" style="stroke: rgb(238, 238, 238); stroke-width: 1;"/><text text-anchor="end" transform="translate(-10.5,4.62)" style="user-select: none; cursor: default; fill: rgb(74, 74, 74); font-size: 14px; font-weight: normal;"><tspan x="0" dy="0">30</tspan></text></g><g transform="translate(0,192.0846153846154)" style="opacity: 1;"><line x2="-7" style="stroke: rgb(238, 238, 238); stroke-width: 1;"/><text text-anchor="end" transform="translate(-10.5,4.62)" style="user-select: none; cursor: default; fill: rgb(74, 74, 74); font-size: 14px; font-weight: normal;"><tspan x="0" dy="0">45</tspan></text></g><g transform="translate(0,43.9)" style="opacity: 1;"><line x2="-7" style="stroke: rgb(238, 238, 238); stroke-width: 1;"/><text text-anchor="end" transform="translate(-10.5,4.62)" style="user-select: none; cursor: default; fill: rgb(74, 74, 74); font-size: 14px; font-weight: normal;"><tspan x="0" dy="0">65</tspan></text></g></g><g class="fl-axis-title"><text text-anchor="start" style="font-size: 15.4px; fill: rgb(74, 74, 74); font-weight: normal; user-select: none; cursor: default;" transform="translate(-24.415985107421875, 26.5)">IMC</text></g></g><g class="fl-axis fl-y-axis fl-right-axis"><g class="fl-axis-line"/><g class="fl-axis-ticks"/><g class="fl-axis-title"/></g></g></g><g class="fl-data-foreground" clip-path="url(#fl-axes-1-clip-path)"/></g></g></g></g></g><g class="annotations below"/><g id="areas"/><g id="lines"><g class="series"><clipPath id="clip-0-0"><rect width="739.1718215942383" x="0" y="41.1" height="487.20000000000005"/></clipPath><path class="outline" opacity="1" pointer-events="none" fill="none" stroke="#ffffff" stroke-width="4.800000000000001" transform="translate(24.415985107421875,0)" clip-path="url(#clip-0-0)" clip-path-id="0-0" d="M0,353.161L67.197,352.272L134.395,359.681L201.592,351.754L268.79,370.943L335.987,357.977L403.185,341.01L470.382,320.857L537.58,309.373L604.777,299.667L671.974,317.967L739.172,294.628"/><path class="line" opacity="1" pointer-events="none" fill="none" stroke="#4328E7" stroke-width="2.8000000000000003" transform="translate(24.415985107421875,0)" clip-path="url(#clip-0-0)" clip-path-id="0-0" d="M0,353.161L67.197,352.272L134.395,359.681L201.592,351.754L268.79,370.943L335.987,357.977L403.185,341.01L470.382,320.857L537.58,309.373L604.777,299.667L671.974,317.967L739.172,294.628"/></g></g><g id="data-points"><g class="series" transform="translate(24.415985107421875,0)" clip-path="url(#clip-data-points-0)"><clipPath id="clip-data-points-0"><rect x="-3.5" y="41.1" height="484.40000000000003" width="742.6718215942383"/></clipPath><path class="data-point" visibility="hidden" fill="#4328E7" data-type="point" transform="translate(0, 0)" d="M-3.5,353.1612923076923A3.5,3.5,0,1,1,3.5,353.1612923076923A3.5,3.5,0,1,1,-3.5,353.1612923076923Z" opacity="0" tabindex="0" role="img" aria-roledescription="data point" id="point-0-0"/><path class="data-point" visibility="hidden" fill="#4328E7" data-type="point" transform="translate(0, 0)" d="M63.69743832674894,352.2721846153846A3.5,3.5,0,1,1,70.69743832674894,352.2721846153846A3.5,3.5,0,1,1,63.69743832674894,352.2721846153846Z" opacity="0" tabindex="0" role="img" aria-roledescription="data point" id="point-0-1"/><path class="data-point" visibility="hidden" fill="#4328E7" data-type="point" transform="translate(0, 0)" d="M130.89487665349787,359.6814153846154A3.5,3.5,0,1,1,137.89487665349787,359.6814153846154A3.5,3.5,0,1,1,130.89487665349787,359.6814153846154Z" opacity="0" tabindex="0" role="img" aria-roledescription="data point" id="point-0-2"/><path class="data-point" visibility="hidden" fill="#4328E7" data-type="point" transform="translate(0, 0)" d="M198.09231498024678,351.7535384615385A3.5,3.5,0,1,1,205.09231498024678,351.7535384615385A3.5,3.5,0,1,1,198.09231498024678,351.7535384615385Z" opacity="0" tabindex="0" role="img" aria-roledescription="data point" id="point-0-3"/><path class="data-point" visibility="hidden" fill="#4328E7" data-type="point" transform="translate(0, 0)" d="M265.28975330699575,370.9434461538462A3.5,3.5,0,1,1,272.28975330699575,370.9434461538462A3.5,3.5,0,1,1,265.28975330699575,370.9434461538462Z" opacity="0" tabindex="0" role="img" aria-roledescription="data point" id="point-0-4"/><path class="data-point" visibility="hidden" fill="#4328E7" data-type="point" transform="translate(0, 0)" d="M332.48719163374466,357.97729230769227A3.5,3.5,0,1,1,339.48719163374466,357.97729230769227A3.5,3.5,0,1,1,332.48719163374466,357.97729230769227Z" opacity="0" tabindex="0" role="img" aria-roledescription="data point" id="point-0-5"/><path class="data-point" visibility="hidden" fill="#4328E7" data-type="point" transform="translate(0, 0)" d="M399.68462996049357,341.0101538461538A3.5,3.5,0,1,1,406.68462996049357,341.0101538461538A3.5,3.5,0,1,1,399.68462996049357,341.0101538461538Z" opacity="0" tabindex="0" role="img" aria-roledescription="data point" id="point-0-6"/><path class="data-point" visibility="hidden" fill="#4328E7" data-type="point" transform="translate(0, 0)" d="M466.88206828724253,320.85704615384617A3.5,3.5,0,1,1,473.88206828724253,320.85704615384617A3.5,3.5,0,1,1,466.88206828724253,320.85704615384617Z" opacity="0" tabindex="0" role="img" aria-roledescription="data point" id="point-0-7"/><path class="data-point" visibility="hidden" fill="#4328E7" data-type="point" transform="translate(0, 0)" d="M534.0795066139915,309.37273846153846A3.5,3.5,0,1,1,541.0795066139915,309.37273846153846A3.5,3.5,0,1,1,534.0795066139915,309.37273846153846Z" opacity="0" tabindex="0" role="img" aria-roledescription="data point" id="point-0-8"/><path class="data-point" visibility="hidden" fill="#4328E7" data-type="point" transform="translate(0, 0)" d="M601.2769449407405,299.66664615384616A3.5,3.5,0,1,1,608.2769449407405,299.66664615384616A3.5,3.5,0,1,1,601.2769449407405,299.66664615384616Z" opacity="0" tabindex="0" role="img" aria-roledescription="data point" id="point-0-9"/><path class="data-point" visibility="hidden" fill="#4328E7" data-type="point" transform="translate(0, 0)" d="M668.4743832674893,317.96744615384614A3.5,3.5,0,1,1,675.4743832674893,317.96744615384614A3.5,3.5,0,1,1,668.4743832674893,317.96744615384614Z" opacity="0" tabindex="0" role="img" aria-roledescription="data point" id="point-0-10"/><path class="data-point" visibility="hidden" fill="#4328E7" data-type="point" transform="translate(0, 0)" d="M735.6718215942383,294.62836923076924A3.5,3.5,0,1,1,742.6718215942383,294.62836923076924A3.5,3.5,0,1,1,735.6718215942383,294.62836923076924Z" opacity="0" tabindex="0" role="img" aria-roledescription="data point" id="point-0-11"/></g></g><g id="lines-secondary"/><g id="data-points-secondary"/><g id="data-point-labels"><g class="series" transform="translate(24.415985107421875,0)" clip-path="url(#clip-data-points-0)"/></g><g id="stack-labels"/><g class="annotations above"><g id="axes-highlights"><g class="axis-highlights-facet"><defs><pattern class="fl-pattern-auto" width="4" height="4" patternUnits="userSpaceOnUse" id="fl-pattern-diagonal-x"><path stroke-width="1" shape-rendering="auto" stroke-linecap="square" d="M 0 4 l 4 -4 M -1 1 l 2 -2 M 3 5 l 2 -2" style="stroke: currentcolor;"/></pattern><pattern class="fl-pattern-auto" width="4" height="4" patternUnits="userSpaceOnUse" id="fl-pattern-dots-x"><path stroke-width="1" shape-rendering="auto" stroke-linecap="square" d="M 1 2 A 1.2 1.2 0 1 1 1 2.1 Z" style="fill: currentcolor;"/></pattern><pattern class="fl-pattern-auto" width="4" height="4" patternUnits="userSpaceOnUse" id="fl-pattern-grid-x"><path stroke-width="1" shape-rendering="auto" stroke-linecap="square" d="M 2 0 l 0 4 M 0 2 l 4 0" style="stroke: currentcolor;"/></pattern><pattern class="fl-pattern-auto" width="4" height="4" patternUnits="userSpaceOnUse" id="fl-pattern-diagonal-y"><path stroke-width="1" shape-rendering="auto" stroke-linecap="square" d="M 0 4 l 4 -4 M -1 1 l 2 -2 M 3 5 l 2 -2" style="stroke: currentcolor;"/></pattern><pattern class="fl-pattern-auto" width="4" height="4" patternUnits="userSpaceOnUse" id="fl-pattern-grid-y"><path stroke-width="1" shape-rendering="auto" stroke-linecap="square" d="M 2 0 l 0 4 M 0 2 l 4 0" style="stroke: currentcolor;"/></pattern><pattern class="fl-pattern-auto" width="4" height="4" patternUnits="userSpaceOnUse" id="fl-pattern-dots-y"><path stroke-width="1" shape-rendering="auto" stroke-linecap="square" d="M 1 2 A 1.2 1.2 0 1 1 1 2.1 Z" style="fill: currentcolor;"/></pattern></defs><g class="axis-highlights" transform="translate(24.415985107421875, 0)" style="opacity: 1;"/></g></g></g></svg><svg xmlns="http://www.w3.org/2000/svg" id="fl-layout-svg-screenshot-container" class="flourish-screenshot-svg-container" style="left: 0px; top: 0px; width: 794px; height: 575px; position: absolute;" x="0" y="0"><text x="0px" y="0px" font-family="&quot;Source Sans Pro&quot;" font-size="22.4px" font-weight="700" fill="rgb(51, 51, 51)" style="dominant-baseline: text-before-edge;"><tspan dy="0" dx="0" x="0" opacity="1"/></text><text x="0px" y="0px" font-family="&quot;Source Sans Pro&quot;" font-size="22.4px" font-weight="400" fill="rgb(51, 51, 51)" style="dominant-baseline: text-before-edge;"><tspan dy="0" dx="0" x="0" opacity="1"/></text><text x="0px" y="0px" font-family="&quot;Source Sans Pro&quot;" font-size="16.8px" font-weight="400" fill="rgb(51, 51, 51)" style="dominant-baseline: text-before-edge;"><tspan dy="0" dx="0" x="0" opacity="1"/></text><text x="0px" y="0px" font-family="&quot;Source Sans Pro&quot;" font-size="14px" font-weight="400" fill="rgb(51, 51, 51)" style="dominant-baseline: text-before-edge;"><tspan dy="0" dx="0" x="0" opacity="1"/></text></svg></svg>